<svg width="21" height="21" viewBox="0 0 21 21" fill="none" xmlns="http://www.w3.org/2000/svg">
<path fill-rule="evenodd" clip-rule="evenodd" d="M10.1553 20.5C15.6781 20.5 20.1553 16.0228 20.1553 10.5C20.1553 8.23163 19.4 6.13967 18.1272 4.46186C14.8595 8.88496 12.6479 13.0609 10.4794 17.2249C8.72151 14.8311 6.90039 12.832 5.03115 10.7801C4.65072 10.3625 4.2683 9.9427 3.88401 9.51695C3.71622 9.33106 3.69089 9.0569 3.82127 8.8431C3.99042 8.56571 4.35751 8.48666 4.6336 8.65793C5.118 8.95843 5.67235 9.27044 6.25052 9.59587C7.62356 10.3687 9.13101 11.2172 10.1553 12.1667C12.212 8.65006 14.374 6.25533 17.161 3.36417C15.3567 1.59262 12.8836 0.5 10.1553 0.5C4.63243 0.5 0.155273 4.97715 0.155273 10.5C0.155273 16.0228 4.63243 20.5 10.1553 20.5Z" fill="url(#paint0_linear_233_2734)"/>
<defs>
<linearGradient id="paint0_linear_233_2734" x1="-3.75334" y1="-2.53817" x2="24.1553" y2="20.5" gradientUnits="userSpaceOnUse">
<stop stop-color="#F093FB"/>
<stop offset="1" stop-color="#F5576C"/>
</linearGradient>
</defs>
</svg>
