<svg width="20" height="20" viewBox="0 0 20 20" fill="none" xmlns="http://www.w3.org/2000/svg">
<path d="M11.456 4.02768C11.8474 4.14295 12.0797 4.58518 11.9748 5.01541L9.44269 15.402C9.33781 15.8322 8.93542 16.0876 8.54399 15.9723C8.15256 15.8569 7.9203 15.4148 8.02519 14.9846L10.5573 4.59795C10.6622 4.16772 11.0646 3.9124 11.456 4.02768Z" fill="#62677F"/>
<path d="M13.2393 6.23431C13.5584 5.9219 14.0757 5.9219 14.3948 6.23431L14.6218 6.45654C15.314 7.13419 15.8912 7.69929 16.2877 8.20822C16.7064 8.74539 17 9.31297 17 10C17 10.6871 16.7064 11.2546 16.2877 11.7918C15.8912 12.3007 15.314 12.8658 14.6218 13.5435L14.3948 13.7657C14.0757 14.0781 13.5584 14.0781 13.2393 13.7657C12.9202 13.4533 12.9202 12.9468 13.2393 12.6344L13.4262 12.4513C14.1688 11.7242 14.6665 11.2346 14.9885 10.8212C15.2962 10.4265 15.3658 10.1966 15.3658 10C15.3658 9.80342 15.2962 9.57356 14.9885 9.17878C14.6665 8.76545 14.1688 8.27585 13.4262 7.54871L13.2393 7.36569C12.9202 7.05327 12.9202 6.54674 13.2393 6.23431Z" fill="#62677F"/>
<path d="M5.60515 6.23431C5.92424 5.9219 6.44158 5.9219 6.76068 6.23431C7.07977 6.54674 7.07977 7.05327 6.76068 7.36569L6.57376 7.54871C5.83113 8.27585 5.3335 8.76545 5.01142 9.17878C4.70373 9.57356 4.63417 9.80342 4.63417 10C4.63417 10.1966 4.70373 10.4265 5.01142 10.8212C5.3335 11.2346 5.83113 11.7242 6.57376 12.4513L6.76068 12.6344C7.07977 12.9468 7.07977 13.4533 6.76068 13.7657C6.44158 14.0781 5.92424 14.0781 5.60515 13.7657L5.37816 13.5435C4.68599 12.8658 4.10881 12.3007 3.71222 11.7918C3.29361 11.2546 3 10.6871 3 10C3 9.31297 3.29361 8.74539 3.71222 8.20822C4.10881 7.69929 4.68599 7.1342 5.37816 6.45654L5.60515 6.23431Z" fill="#62677F"/>
</svg>
