<svg width="16" height="17" viewBox="0 0 16 17" fill="none" xmlns="http://www.w3.org/2000/svg">
<path d="M14.6667 5.33337H10.6667C10.3934 5.33337 10.1667 5.10671 10.1667 4.83337C10.1667 4.56004 10.3934 4.33337 10.6667 4.33337H14.6667C14.94 4.33337 15.1667 4.56004 15.1667 4.83337C15.1667 5.10671 14.94 5.33337 14.6667 5.33337Z" fill="#62677F"/>
<path d="M3.99998 5.33337H1.33331C1.05998 5.33337 0.833313 5.10671 0.833313 4.83337C0.833313 4.56004 1.05998 4.33337 1.33331 4.33337H3.99998C4.27331 4.33337 4.49998 4.56004 4.49998 4.83337C4.49998 5.10671 4.27331 5.33337 3.99998 5.33337Z" fill="#62677F"/>
<path d="M6.66665 7.66667C5.10665 7.66667 3.83331 6.39333 3.83331 4.83333C3.83331 3.27333 5.10665 2 6.66665 2C8.22665 2 9.49998 3.27333 9.49998 4.83333C9.49998 6.39333 8.22665 7.66667 6.66665 7.66667ZM6.66665 3C5.65331 3 4.83331 3.82 4.83331 4.83333C4.83331 5.84667 5.65331 6.66667 6.66665 6.66667C7.67998 6.66667 8.49998 5.84667 8.49998 4.83333C8.49998 3.82 7.67998 3 6.66665 3Z" fill="#62677F"/>
<path d="M14.6667 12.6666H12C11.7267 12.6666 11.5 12.44 11.5 12.1666C11.5 11.8933 11.7267 11.6666 12 11.6666H14.6667C14.94 11.6666 15.1667 11.8933 15.1667 12.1666C15.1667 12.44 14.94 12.6666 14.6667 12.6666Z" fill="#62677F"/>
<path d="M5.33331 12.6666H1.33331C1.05998 12.6666 0.833313 12.44 0.833313 12.1666C0.833313 11.8933 1.05998 11.6666 1.33331 11.6666H5.33331C5.60665 11.6666 5.83331 11.8933 5.83331 12.1666C5.83331 12.44 5.60665 12.6666 5.33331 12.6666Z" fill="#62677F"/>
<path d="M9.33333 15C7.77333 15 6.5 13.7267 6.5 12.1667C6.5 10.6067 7.77333 9.33337 9.33333 9.33337C10.8933 9.33337 12.1667 10.6067 12.1667 12.1667C12.1667 13.7267 10.8933 15 9.33333 15ZM9.33333 10.3334C8.32 10.3334 7.5 11.1534 7.5 12.1667C7.5 13.18 8.32 14 9.33333 14C10.3467 14 11.1667 13.18 11.1667 12.1667C11.1667 11.1534 10.3467 10.3334 9.33333 10.3334Z" fill="#62677F"/>
</svg>
