<svg width="24" height="25" viewBox="0 0 24 25" fill="none" xmlns="http://www.w3.org/2000/svg">
<path d="M10 9.41284C10 9.01728 10.1173 8.6306 10.3371 8.3017C10.5568 7.9728 10.8692 7.71646 11.2346 7.56508C11.6001 7.41371 12.0022 7.3741 12.3902 7.45127C12.7781 7.52844 13.1345 7.71892 13.4142 7.99863C13.6939 8.27833 13.8844 8.6347 13.9616 9.02266C14.0387 9.41062 13.9991 9.81276 13.8478 10.1782C13.6964 10.5436 13.44 10.856 13.1111 11.0757C12.7822 11.2955 12.3956 11.4128 12 11.4128V12.4128M14.25 19.4128L12.8 21.3461C12.4 21.8795 11.6 21.8795 11.2 21.3461L9.75 19.4128H7C4.79086 19.4128 3 17.6219 3 15.4128V7.41284C3 5.2037 4.79086 3.41284 7 3.41284H17C19.2091 3.41284 21 5.2037 21 7.41284V15.4128C21 17.6219 19.2091 19.4128 17 19.4128H14.25Z" stroke="#62677F" stroke-width="2" stroke-linecap="round" stroke-linejoin="round"/>
<path d="M12 16.4128C12.5523 16.4128 13 15.9651 13 15.4128C13 14.8606 12.5523 14.4128 12 14.4128C11.4477 14.4128 11 14.8606 11 15.4128C11 15.9651 11.4477 16.4128 12 16.4128Z" fill="#62677F"/>
</svg>
