<svg width="24" height="24" viewBox="0 0 24 24" fill="none" xmlns="http://www.w3.org/2000/svg">
<path fill-rule="evenodd" clip-rule="evenodd" d="M14.25 19L12.8 20.9333C12.4 21.4667 11.6 21.4667 11.2 20.9333L9.75 19H7C4.79086 19 3 17.2091 3 15V7C3 4.79086 4.79086 3 7 3H17C19.2091 3 21 4.79086 21 7V15C21 17.2091 19.2091 19 17 19H14.25ZM12 16C12.5523 16 13 15.5523 13 15C13 14.4477 12.5523 14 12 14C11.4477 14 11 14.4477 11 15C11 15.5523 11.4477 16 12 16ZM9.03947 8.02068C8.85961 8.54145 9.32176 9 9.87271 9H10.2784C10.6053 9 10.858 8.71355 11.0396 8.44175C11.1501 8.27651 11.307 8.14772 11.4906 8.07167C11.6742 7.99562 11.8762 7.97572 12.0712 8.01449C12.2661 8.05326 12.4451 8.14896 12.5856 8.28949C12.7262 8.43001 12.8219 8.60906 12.8606 8.80397C12.8994 8.99889 12.8795 9.20092 12.8035 9.38453C12.7274 9.56814 12.5986 9.72507 12.4334 9.83548C12.2875 9.93293 12.1191 9.99028 11.9449 10.0024C11.9218 10.0008 11.8986 10 11.8751 10C11.3228 10 10.8751 10.4477 10.8751 11V12C10.8751 12.5523 11.3228 13 11.8751 13C12.4274 13 12.8751 12.5523 12.8751 12V11.8284C13.1092 11.7457 13.3332 11.6338 13.5418 11.4944C14.0352 11.1648 14.4197 10.6962 14.6468 10.1481C14.8738 9.59987 14.9332 8.99667 14.8175 8.41473C14.7017 7.83279 14.416 7.29824 13.9964 6.87868C13.5769 6.45912 13.0423 6.1734 12.4604 6.05765C11.8784 5.94189 11.2752 6.0013 10.7271 6.22836C10.1789 6.45543 9.71036 6.83994 9.38071 7.33329C9.23724 7.54802 9.12287 7.77916 9.03947 8.02068Z" fill="url(#paint0_linear_1001_1832)"/>
<defs>
<linearGradient id="paint0_linear_1001_1832" x1="-0.51775" y1="0.214997" x2="24.9723" y2="20.874" gradientUnits="userSpaceOnUse">
<stop stop-color="#F093FB"/>
<stop offset="1" stop-color="#F5576C"/>
</linearGradient>
</defs>
</svg>
