<svg width="24" height="25" viewBox="0 0 24 25" fill="none" xmlns="http://www.w3.org/2000/svg">
<path d="M2.36407 13.3707C1.98463 10.7336 1.79491 9.41513 2.33537 8.28779C2.87583 7.16044 4.02619 6.47518 6.32691 5.10465L7.71175 4.27971C9.80104 3.03513 10.8457 2.41284 12 2.41284C13.1543 2.41284 14.199 3.03513 16.2882 4.27971L17.6731 5.10465C19.9738 6.47518 21.1242 7.16044 21.6646 8.28779C22.2051 9.41513 22.0154 10.7336 21.6359 13.3707L21.3572 15.308C20.8697 18.6955 20.626 20.3892 19.451 21.401C18.2759 22.4128 16.5526 22.4128 13.1061 22.4128H10.8939C7.44737 22.4128 5.72409 22.4128 4.54903 21.401C3.37396 20.3892 3.13025 18.6955 2.64284 15.308L2.36407 13.3707Z" stroke="#62677F" stroke-width="2"/>
<path d="M15 18.4128H9" stroke="#62677F" stroke-width="2" stroke-linecap="round"/>
</svg>
