<svg width="48" height="48" viewBox="0 0 48 48" fill="none" xmlns="http://www.w3.org/2000/svg">
    <path fill-rule="evenodd" clip-rule="evenodd"
          d="M20.4906 13.3854C22.8022 12.8715 25.1978 12.8716 27.5094 13.3854L27.9929 13.4928C29.9878 13.9362 31.7217 15.0562 32.9436 16.6069C33.1431 16.86 33.076 17.225 32.8125 17.41L25.5117 22.5376C24.604 23.1751 23.3959 23.1751 22.4883 22.5376L15.1874 17.41C14.924 17.225 14.8569 16.86 15.0564 16.6069C16.2783 15.0562 18.0122 13.9362 20.0071 13.4928L20.4906 13.3854ZM14.4573 19.0496C14.1516 18.8349 13.7255 18.9579 13.6097 19.3139C13.5451 19.5127 13.4873 19.7147 13.4365 19.9197C12.8545 22.2709 12.8545 24.7291 13.4365 27.0803C14.2335 30.3001 16.7787 32.7896 20.0071 33.5072L20.4906 33.6147C22.8022 34.1285 25.1978 34.1285 27.5094 33.6147L27.9929 33.5072C31.2213 32.7896 33.7665 30.3001 34.5635 27.0803C35.1455 24.7291 35.1455 22.2709 34.5635 19.9197C34.5128 19.7147 34.4549 19.5127 34.3903 19.3139C34.2745 18.9579 33.8484 18.8348 33.5427 19.0496L26.5195 23.9821C25.0067 25.0446 22.9933 25.0446 21.4805 23.9821L14.4573 19.0496Z"
          fill="url(#paint0_linear_1345_2660)"/>
    <defs>
        <linearGradient id="paint0_linear_1345_2660" x1="8.70053" y1="9.80992" x2="38.233" y2="35.3495"
                        gradientUnits="userSpaceOnUse">
            <stop stop-color="#F093FB"/>
            <stop offset="1" stop-color="#F5576C"/>
        </linearGradient>
    </defs>
</svg>
