<svg width="48" height="48" viewBox="0 0 48 48" fill="none" xmlns="http://www.w3.org/2000/svg">
<path fill-rule="evenodd" clip-rule="evenodd" d="M20.6468 13.156C16.9281 13.9967 14.0102 16.8546 13.1149 20.533C12.6254 22.5444 12.6299 24.6608 13.1194 26.6722C14.0286 30.4081 16.7032 33.5173 20.2912 34.966L20.4476 35.0291C22.0002 35.6561 23.7788 34.901 24.4159 33.3627C24.5912 32.9393 25.0088 32.6585 25.4701 32.6585H26.8748C30.6955 32.6585 34.0192 30.0624 34.916 26.3776C35.3613 24.5478 35.3613 22.6391 34.916 20.8093L34.7984 20.3261C33.934 16.7745 31.1167 14.015 27.5261 13.2033L27.0217 13.0893C25.0208 12.6369 22.9429 12.6369 20.942 13.0893L20.6468 13.156ZM19.6274 19.4584C19.1465 19.4584 18.7565 19.8452 18.7565 20.3224C18.7565 20.7996 19.1465 21.1864 19.6274 21.1864H27.6105C28.0915 21.1864 28.4814 20.7996 28.4814 20.3224C28.4814 19.8452 28.0915 19.4584 27.6105 19.4584H19.6274ZM21.0789 23.7786C20.5979 23.7786 20.208 24.1654 20.208 24.6426C20.208 25.1198 20.5979 25.5067 21.0789 25.5067H26.159C26.64 25.5067 27.0299 25.1198 27.0299 24.6426C27.0299 24.1654 26.64 23.7786 26.159 23.7786H21.0789Z" fill="#8E91A5"/>
</svg>
