<svg width="48" height="48" viewBox="0 0 48 48" fill="none" xmlns="http://www.w3.org/2000/svg">
<path fill-rule="evenodd" clip-rule="evenodd" d="M11.5 17.7375V25.2125V26.4625C11.5 29.9 14.3 32.6875 17.75 32.6875H19.625C19.975 32.6875 20.425 32.9125 20.625 33.1875L22.5 35.675C23.325 36.775 24.675 36.775 25.5 35.675L27.375 33.1875C27.6125 32.875 27.9875 32.6875 28.375 32.6875H30.25C33.7 32.6875 36.5 29.9 36.5 26.4625V17.7375C36.5 14.2875 33.7 11.5 30.25 11.5H17.75C14.3 11.5 11.5 14.2875 11.5 17.7375ZM18.9997 23.9997C18.2997 23.9997 17.7497 23.4372 17.7497 22.7497C17.7497 22.0622 18.3122 21.4997 18.9997 21.4997C19.6872 21.4997 20.2497 22.0622 20.2497 22.7497C20.2497 23.4372 19.6997 23.9997 18.9997 23.9997ZM22.75 22.7497C22.75 23.4372 23.3 23.9997 24 23.9997C24.7 23.9997 25.25 23.4372 25.25 22.7497C25.25 22.0622 24.6875 21.4997 24 21.4997C23.3125 21.4997 22.75 22.0622 22.75 22.7497ZM27.7499 22.7497C27.7499 23.4372 28.2999 23.9997 28.9999 23.9997C29.6999 23.9997 30.2499 23.4372 30.2499 22.7497C30.2499 22.0622 29.6874 21.4997 28.9999 21.4997C28.3124 21.4997 27.7499 22.0622 27.7499 22.7497Z" fill="#8E91A5"/>
</svg>
