<svg width="48" height="48" viewBox="0 0 48 48" fill="none" xmlns="http://www.w3.org/2000/svg">
<path fill-rule="evenodd" clip-rule="evenodd" d="M19.0005 11.5H29.0005C34.0005 11.5 36.5005 14 36.5005 19V29C36.5005 34 34.0005 36.5 29.0005 36.5H12.7505C12.063 36.5 11.5005 35.9375 11.5005 35.25V19C11.5005 14 14.0005 11.5 19.0005 11.5ZM30.2502 19.9375H17.7502C17.2377 19.9375 16.8127 20.3625 16.8127 20.875C16.8127 21.3875 17.2377 21.8125 17.7502 21.8125H30.2502C30.7627 21.8125 31.1877 21.3875 31.1877 20.875C31.1877 20.3625 30.7627 19.9375 30.2502 19.9375ZM26.5002 26.1876H17.7502C17.2377 26.1876 16.8127 26.6126 16.8127 27.1251C16.8127 27.6376 17.2377 28.0626 17.7502 28.0626H26.5002C27.0127 28.0626 27.4377 27.6376 27.4377 27.1251C27.4377 26.6126 27.0127 26.1876 26.5002 26.1876Z" fill="#8E91A5"/>
</svg>
