<svg width="20" height="20" viewBox="0 0 20 20" fill="none" xmlns="http://www.w3.org/2000/svg">
<path d="M6.66667 14.3487L2.5 10.3123M2.5 10.3123L6.66667 6.27584M2.5 10.3123H12.5M10 14.3487C10 14.5874 10 14.7067 10.0092 14.81C10.1043 15.8842 10.9209 16.7681 12.0125 16.9783C12.1175 16.9985 12.24 17.0118 12.4847 17.0381L13.3359 17.1297C14.6146 17.2673 15.254 17.3361 15.762 17.1787C16.4392 16.9687 16.9922 16.4893 17.2824 15.8604C17.5 15.3887 17.5 14.7655 17.5 13.5191V7.10549C17.5 5.85908 17.5 5.23589 17.2824 4.7642C16.9922 4.13529 16.4392 3.65586 15.762 3.4459C15.254 3.28843 14.6146 3.35726 13.3359 3.49489L12.4847 3.58651C12.2399 3.61287 12.1175 3.62604 12.0125 3.64627C10.9209 3.85651 10.1043 4.7404 10.0092 5.81456C10 5.91791 10 6.03722 10 6.27584" stroke="#F5576C" stroke-width="1.5" stroke-linecap="round" stroke-linejoin="round"/>
</svg>
