<svg width="20" height="21" viewBox="0 0 20 21" fill="none" xmlns="http://www.w3.org/2000/svg">
    <g clip-path="url(#clip0_42_24410)">
        <path d="M7.63736 19.4707C7.63736 19.4707 8.67459 18.7295 8.84739 16.7306C12.2291 15.1264 14.6227 12.9794 14.6227 12.9794C14.6227 12.9794 16.0294 15.2258 14.228 17.0272C11.1424 20.1119 7.63736 19.4707 7.63736 19.4707ZM3.68595 13.3529C3.68595 13.3529 6.38843 8.20381 8.01698 6.57525C8.74972 5.84251 9.48423 5.27329 10.2046 4.81014L15.7775 10.383C15.3148 11.1047 14.7455 11.8401 14.0132 12.5724C12.4094 14.1762 7.23961 16.9065 7.23961 16.9065L3.68595 13.3529ZM12.0917 8.4924C11.465 7.86572 10.4485 7.86572 9.82143 8.49284C9.19476 9.11951 9.19432 10.1364 9.82099 10.7631C10.4477 11.3898 11.4646 11.3902 12.0917 10.7631C12.7192 10.1364 12.7188 9.11951 12.0917 8.4924ZM16.9181 3.17805L18.464 1.63213L18.906 2.07408L17.3994 3.58066C17.5368 4.45349 17.7344 6.98979 16.1001 9.86065L10.7261 4.48664C13.5143 2.89344 15.9719 3.03795 16.9181 3.17805ZM1.12225 12.9556C1.12225 12.9556 0.480993 9.45053 3.56619 6.36533C5.36754 4.56398 7.61393 5.97068 7.61393 5.97068C7.61393 5.97068 5.46698 8.36423 3.86229 11.7455C1.8625 11.9183 1.12225 12.9556 1.12225 12.9556ZM4.89909 17.1885L4.89908 16.4478L3.27009 17.2875L4.03509 15.5838L3.07298 15.9042L3.76374 14.2748L6.30578 16.8168L4.89909 17.1885Z"
              fill="white"/>
    </g>
    <defs>
        <clipPath id="clip0_42_24410">
            <rect width="20" height="20" fill="white" transform="translate(0 0.5)"/>
        </clipPath>
    </defs>
</svg>
