<svg width="24" height="25" viewBox="0 0 24 25" fill="none" xmlns="http://www.w3.org/2000/svg">
<path d="M18.32 12.4127C20.92 12.4127 22 11.4127 21.04 8.13278C20.39 5.92278 18.49 4.02278 16.28 3.37278C13 2.41278 12 3.49278 12 6.09278V8.97278C12 11.4127 13 12.4127 15 12.4127H18.32Z" fill="url(#paint0_linear_492_1275)" stroke="url(#paint1_linear_492_1275)" stroke-width="2" stroke-linecap="round" stroke-linejoin="round"/>
<path d="M19.9999 15.1128C19.0699 19.7428 14.6299 23.1028 9.57993 22.2828C5.78993 21.6728 2.73993 18.6228 2.11993 14.8328C1.30993 9.80285 4.64993 5.36285 9.25993 4.42285" stroke="url(#paint2_linear_492_1275)" stroke-width="2" stroke-linecap="round" stroke-linejoin="round"/>
<defs>
<linearGradient id="paint0_linear_492_1275" x1="10.1657" y1="1.60106" x2="23.2631" y2="12.4128" gradientUnits="userSpaceOnUse">
<stop stop-color="#F093FB"/>
<stop offset="1" stop-color="#F5576C"/>
</linearGradient>
<linearGradient id="paint1_linear_492_1275" x1="10.1657" y1="1.60106" x2="23.2631" y2="12.4128" gradientUnits="userSpaceOnUse">
<stop stop-color="#F093FB"/>
<stop offset="1" stop-color="#F5576C"/>
</linearGradient>
<linearGradient id="paint2_linear_492_1275" x1="-1.51948" y1="1.691" x2="23.58" y2="22.4308" gradientUnits="userSpaceOnUse">
<stop stop-color="#F093FB"/>
<stop offset="1" stop-color="#F5576C"/>
</linearGradient>
</defs>
</svg>
