<svg width="20" height="20" viewBox="0 0 20 20" fill="none" xmlns="http://www.w3.org/2000/svg">
    <g clip-path="url(#clip0_1289_2814)">
        <path fill-rule="evenodd" clip-rule="evenodd"
              d="M4.99992 1.66669C4.07944 1.66669 3.33325 2.41288 3.33325 3.33335V16.6667C3.33325 17.5872 4.07944 18.3334 4.99992 18.3334H14.9999C15.9204 18.3334 16.6666 17.5872 16.6666 16.6667V5.3452C16.6666 4.90317 16.491 4.47925 16.1784 4.16669L14.1666 2.15485C13.854 1.84228 13.4301 1.66669 12.9881 1.66669H4.99992ZM13.5318 8.99419C13.8573 8.66877 13.8573 8.14114 13.5318 7.8157C13.2064 7.49026 12.6788 7.49026 12.3533 7.8157L8.81784 11.3513L7.63931 10.1727C7.31388 9.84727 6.78624 9.84727 6.4608 10.1727C6.13536 10.4982 6.13536 11.0258 6.4608 11.3513L8.16964 13.0601C8.52759 13.418 9.108 13.418 9.466 13.0601L13.5318 8.99419Z"
              fill="white"/>
    </g>
    <defs>
        <clipPath id="clip0_1289_2814">
            <rect width="20" height="20" fill="white"/>
        </clipPath>
    </defs>
</svg>
