<svg width="24" height="25" viewBox="0 0 24 25" fill="none" xmlns="http://www.w3.org/2000/svg">
<g clip-path="url(#clip0_711_3128)">
<path d="M18.7499 4.41284C19.7664 4.41284 20.6337 4.93839 21.1088 5.73836L11.9999 11.811L2.89096 5.73836C3.36612 4.93839 4.23342 4.41284 5.2499 4.41284H18.7499Z" fill="url(#paint0_linear_711_3128)" stroke="url(#paint1_linear_711_3128)" stroke-width="2"/>
<path d="M12.8972 15.4073L12.9521 15.3799L13.0033 15.3459L21.5 9.70254V17.6629C21.5 19.2106 20.2977 20.4129 18.75 20.4129H16.725C13.2193 20.4129 9.92627 21.3675 7 23.2029V21.4129V20.4129H6H5.25C3.70228 20.4129 2.5 19.2106 2.5 17.6629V9.70254L10.9967 15.3459L11.0479 15.3799L11.1028 15.4073C11.1095 15.4107 11.1176 15.4149 11.1272 15.4198C11.2493 15.4826 11.5994 15.6629 12 15.6629C12.4006 15.6629 12.7507 15.4826 12.8728 15.4198C12.8824 15.4149 12.8905 15.4107 12.8972 15.4073Z" fill="url(#paint2_linear_711_3128)" stroke="url(#paint3_linear_711_3128)" stroke-width="2"/>
</g>
<defs>
<linearGradient id="paint0_linear_711_3128" x1="-2.39551" y1="1.95452" x2="9.25659" y2="22.6947" gradientUnits="userSpaceOnUse">
<stop stop-color="#F093FB"/>
<stop offset="1" stop-color="#F5576C"/>
</linearGradient>
<linearGradient id="paint1_linear_711_3128" x1="-2.39551" y1="1.95452" x2="9.25659" y2="22.6947" gradientUnits="userSpaceOnUse">
<stop stop-color="#F093FB"/>
<stop offset="1" stop-color="#F5576C"/>
</linearGradient>
<linearGradient id="paint2_linear_711_3128" x1="-2.60404" y1="5.32001" x2="20.9282" y2="29.9316" gradientUnits="userSpaceOnUse">
<stop stop-color="#F093FB"/>
<stop offset="1" stop-color="#F5576C"/>
</linearGradient>
<linearGradient id="paint3_linear_711_3128" x1="-2.60404" y1="5.32001" x2="20.9282" y2="29.9316" gradientUnits="userSpaceOnUse">
<stop stop-color="#F093FB"/>
<stop offset="1" stop-color="#F5576C"/>
</linearGradient>
<clipPath id="clip0_711_3128">
<rect width="24" height="24" fill="white" transform="translate(0 0.412842)"/>
</clipPath>
</defs>
</svg>
