<svg width="20" height="20" viewBox="0 0 20 20" fill="none" xmlns="http://www.w3.org/2000/svg">
<path d="M15.625 3C16.7082 3 17.6179 3.6292 18.0228 4.55054L10 9.89907L1.9772 4.55054C2.38213 3.6292 3.29184 3 4.375 3H15.625Z" stroke="#62677F"/>
<path d="M10.5986 12.1972L10.6261 12.1835L10.6516 12.1665L18.25 7.11983V14.375C18.25 15.8489 17.0989 17 15.625 17H13.9375C10.9746 17 8.20053 17.8356 5.7504 19.4407C5.69869 19.4664 5.66591 19.4819 5.63694 19.4928C5.62608 19.4968 5.61898 19.499 5.61514 19.5C5.58784 19.5 5.57276 19.4999 5.56027 19.4994C5.53841 19.481 5.52547 19.4643 5.51783 19.4512C5.50855 19.4353 5.5 19.4131 5.5 19.375V17.5V17H5H4.375C2.90114 17 1.75 15.8489 1.75 14.375V7.11983L9.34837 12.1665L9.37394 12.1835L9.40139 12.1972C9.40786 12.2004 9.41496 12.204 9.42267 12.208C9.52938 12.2621 9.75192 12.375 10 12.375C10.2481 12.375 10.4706 12.2621 10.5773 12.208C10.585 12.204 10.5921 12.2004 10.5986 12.1972Z" stroke="#62677F"/>
</svg>
