<svg width="231" height="120" viewBox="0 0 231 120" fill="none" xmlns="http://www.w3.org/2000/svg">
<g filter="url(#filter0_dddd_1625_3738)">
<rect x="18" y="3" width="195" height="54" rx="16" fill="white"/>
<path fill-rule="evenodd" clip-rule="evenodd" d="M58.016 19.6297C59.0882 18.4045 59.8109 16.6979 59.6131 15C58.0681 15.058 56.1988 15.9732 55.091 17.197C54.0961 18.283 53.2277 20.0183 53.4612 21.6829C55.1847 21.8091 56.9438 20.8564 58.016 19.6297ZM61.8809 30.4064C61.924 34.7955 65.9554 36.2556 66 36.2744C65.9673 36.3774 65.3561 38.3548 63.8765 40.3993C62.5961 42.1654 61.2682 43.9243 59.1759 43.962C57.1208 43.9983 56.4591 42.8108 54.108 42.8108C51.7585 42.8108 51.0239 43.9242 49.0788 43.9981C47.0594 44.0692 45.5203 42.0874 44.231 40.3271C41.593 36.7267 39.578 30.1528 42.2845 25.7158C43.6288 23.5133 46.0304 22.1164 48.6387 22.0816C50.6209 22.0453 52.4931 23.3418 53.705 23.3418C54.917 23.3418 57.1922 21.7831 59.5834 22.0122C60.5842 22.0513 63.3947 22.3934 65.1985 24.8888C65.0527 24.9744 61.8452 26.7379 61.8809 30.4064Z" fill="#0B1319"/>
<path d="M80.2129 17.03C80.9729 17.03 81.6296 17.1733 82.1829 17.46C82.7429 17.74 83.1696 18.1433 83.4629 18.67C83.7629 19.1967 83.9129 19.8167 83.9129 20.53C83.9129 21.2433 83.7629 21.8633 83.4629 22.39C83.1696 22.91 82.7429 23.31 82.1829 23.59C81.6296 23.8633 80.9729 24 80.2129 24H78.0429V17.03H80.2129ZM80.2129 23.25C81.1129 23.25 81.7996 23.0133 82.2729 22.54C82.7463 22.06 82.9829 21.39 82.9829 20.53C82.9829 19.6633 82.7429 18.9867 82.2629 18.5C81.7896 18.0133 81.1063 17.77 80.2129 17.77H78.9529V23.25H80.2129ZM88.0033 24.09C87.4899 24.09 87.0233 23.9733 86.6033 23.74C86.1899 23.5067 85.8633 23.1767 85.6233 22.75C85.3899 22.3167 85.2733 21.8167 85.2733 21.25C85.2733 20.69 85.3933 20.1967 85.6333 19.77C85.8799 19.3367 86.2133 19.0067 86.6333 18.78C87.0533 18.5467 87.5233 18.43 88.0433 18.43C88.5633 18.43 89.0333 18.5467 89.4533 18.78C89.8733 19.0067 90.2033 19.3333 90.4433 19.76C90.6899 20.1867 90.8133 20.6833 90.8133 21.25C90.8133 21.8167 90.6866 22.3167 90.4333 22.75C90.1866 23.1767 89.8499 23.5067 89.4233 23.74C88.9966 23.9733 88.5233 24.09 88.0033 24.09ZM88.0033 23.29C88.3299 23.29 88.6366 23.2133 88.9233 23.06C89.2099 22.9067 89.4399 22.6767 89.6133 22.37C89.7933 22.0633 89.8833 21.69 89.8833 21.25C89.8833 20.81 89.7966 20.4367 89.6233 20.13C89.4499 19.8233 89.2233 19.5967 88.9433 19.45C88.6633 19.2967 88.3599 19.22 88.0333 19.22C87.6999 19.22 87.3933 19.2967 87.1133 19.45C86.8399 19.5967 86.6199 19.8233 86.4533 20.13C86.2866 20.4367 86.2033 20.81 86.2033 21.25C86.2033 21.6967 86.2833 22.0733 86.4433 22.38C86.6099 22.6867 86.8299 22.9167 87.1033 23.07C87.3766 23.2167 87.6766 23.29 88.0033 23.29ZM99.8097 18.52L98.0997 24H97.1597L95.8397 19.65L94.5197 24H93.5797L91.8597 18.52H92.7897L94.0497 23.12L95.4097 18.52H96.3397L97.6697 23.13L98.9097 18.52H99.8097ZM103.883 18.42C104.55 18.42 105.09 18.6233 105.503 19.03C105.916 19.43 106.123 20.01 106.123 20.77V24H105.223V20.9C105.223 20.3533 105.086 19.9367 104.813 19.65C104.54 19.3567 104.166 19.21 103.693 19.21C103.213 19.21 102.83 19.36 102.543 19.66C102.263 19.96 102.123 20.3967 102.123 20.97V24H101.213V18.52H102.123V19.3C102.303 19.02 102.546 18.8033 102.853 18.65C103.166 18.4967 103.51 18.42 103.883 18.42ZM109.019 16.6V24H108.109V16.6H109.019ZM113.46 24.09C112.947 24.09 112.48 23.9733 112.06 23.74C111.647 23.5067 111.32 23.1767 111.08 22.75C110.847 22.3167 110.73 21.8167 110.73 21.25C110.73 20.69 110.85 20.1967 111.09 19.77C111.337 19.3367 111.67 19.0067 112.09 18.78C112.51 18.5467 112.98 18.43 113.5 18.43C114.02 18.43 114.49 18.5467 114.91 18.78C115.33 19.0067 115.66 19.3333 115.9 19.76C116.147 20.1867 116.27 20.6833 116.27 21.25C116.27 21.8167 116.144 22.3167 115.89 22.75C115.644 23.1767 115.307 23.5067 114.88 23.74C114.454 23.9733 113.98 24.09 113.46 24.09ZM113.46 23.29C113.787 23.29 114.094 23.2133 114.38 23.06C114.667 22.9067 114.897 22.6767 115.07 22.37C115.25 22.0633 115.34 21.69 115.34 21.25C115.34 20.81 115.254 20.4367 115.08 20.13C114.907 19.8233 114.68 19.5967 114.4 19.45C114.12 19.2967 113.817 19.22 113.49 19.22C113.157 19.22 112.85 19.2967 112.57 19.45C112.297 19.5967 112.077 19.8233 111.91 20.13C111.744 20.4367 111.66 20.81 111.66 21.25C111.66 21.6967 111.74 22.0733 111.9 22.38C112.067 22.6867 112.287 22.9167 112.56 23.07C112.834 23.2167 113.134 23.29 113.46 23.29ZM117.627 21.24C117.627 20.68 117.74 20.19 117.967 19.77C118.193 19.3433 118.503 19.0133 118.897 18.78C119.297 18.5467 119.74 18.43 120.227 18.43C120.707 18.43 121.123 18.5333 121.477 18.74C121.83 18.9467 122.093 19.2067 122.267 19.52V18.52H123.187V24H122.267V22.98C122.087 23.3 121.817 23.5667 121.457 23.78C121.103 23.9867 120.69 24.09 120.217 24.09C119.73 24.09 119.29 23.97 118.897 23.73C118.503 23.49 118.193 23.1533 117.967 22.72C117.74 22.2867 117.627 21.7933 117.627 21.24ZM122.267 21.25C122.267 20.8367 122.183 20.4767 122.017 20.17C121.85 19.8633 121.623 19.63 121.337 19.47C121.057 19.3033 120.747 19.22 120.407 19.22C120.067 19.22 119.757 19.3 119.477 19.46C119.197 19.62 118.973 19.8533 118.807 20.16C118.64 20.4667 118.557 20.8267 118.557 21.24C118.557 21.66 118.64 22.0267 118.807 22.34C118.973 22.6467 119.197 22.8833 119.477 23.05C119.757 23.21 120.067 23.29 120.407 23.29C120.747 23.29 121.057 23.21 121.337 23.05C121.623 22.8833 121.85 22.6467 122.017 22.34C122.183 22.0267 122.267 21.6633 122.267 21.25ZM124.885 21.24C124.885 20.68 124.998 20.19 125.225 19.77C125.451 19.3433 125.761 19.0133 126.155 18.78C126.555 18.5467 127.001 18.43 127.495 18.43C127.921 18.43 128.318 18.53 128.685 18.73C129.051 18.9233 129.331 19.18 129.525 19.5V16.6H130.445V24H129.525V22.97C129.345 23.2967 129.078 23.5667 128.725 23.78C128.371 23.9867 127.958 24.09 127.485 24.09C126.998 24.09 126.555 23.97 126.155 23.73C125.761 23.49 125.451 23.1533 125.225 22.72C124.998 22.2867 124.885 21.7933 124.885 21.24ZM129.525 21.25C129.525 20.8367 129.441 20.4767 129.275 20.17C129.108 19.8633 128.881 19.63 128.595 19.47C128.315 19.3033 128.005 19.22 127.665 19.22C127.325 19.22 127.015 19.3 126.735 19.46C126.455 19.62 126.231 19.8533 126.065 20.16C125.898 20.4667 125.815 20.8267 125.815 21.24C125.815 21.66 125.898 22.0267 126.065 22.34C126.231 22.6467 126.455 22.8833 126.735 23.05C127.015 23.21 127.325 23.29 127.665 23.29C128.005 23.29 128.315 23.21 128.595 23.05C128.881 22.8833 129.108 22.6467 129.275 22.34C129.441 22.0267 129.525 21.6633 129.525 21.25ZM136.118 17.63C135.945 17.63 135.798 17.57 135.678 17.45C135.558 17.33 135.498 17.1833 135.498 17.01C135.498 16.8367 135.558 16.69 135.678 16.57C135.798 16.45 135.945 16.39 136.118 16.39C136.285 16.39 136.425 16.45 136.538 16.57C136.658 16.69 136.718 16.8367 136.718 17.01C136.718 17.1833 136.658 17.33 136.538 17.45C136.425 17.57 136.285 17.63 136.118 17.63ZM136.558 18.52V24H135.648V18.52H136.558ZM141.279 18.42C141.946 18.42 142.486 18.6233 142.899 19.03C143.313 19.43 143.519 20.01 143.519 20.77V24H142.619V20.9C142.619 20.3533 142.483 19.9367 142.209 19.65C141.936 19.3567 141.563 19.21 141.089 19.21C140.609 19.21 140.226 19.36 139.939 19.66C139.659 19.96 139.519 20.3967 139.519 20.97V24H138.609V18.52H139.519V19.3C139.699 19.02 139.943 18.8033 140.249 18.65C140.563 18.4967 140.906 18.42 141.279 18.42ZM149.782 19.27V22.5C149.782 22.7667 149.839 22.9567 149.952 23.07C150.065 23.1767 150.262 23.23 150.542 23.23H151.212V24H150.392C149.885 24 149.505 23.8833 149.252 23.65C148.999 23.4167 148.872 23.0333 148.872 22.5V19.27H148.162V18.52H148.872V17.14H149.782V18.52H151.212V19.27H149.782ZM155.534 18.42C155.948 18.42 156.321 18.51 156.654 18.69C156.988 18.8633 157.248 19.1267 157.434 19.48C157.628 19.8333 157.724 20.2633 157.724 20.77V24H156.824V20.9C156.824 20.3533 156.688 19.9367 156.414 19.65C156.141 19.3567 155.768 19.21 155.294 19.21C154.814 19.21 154.431 19.36 154.144 19.66C153.864 19.96 153.724 20.3967 153.724 20.97V24H152.814V16.6H153.724V19.3C153.904 19.02 154.151 18.8033 154.464 18.65C154.784 18.4967 155.141 18.42 155.534 18.42ZM164.711 21.05C164.711 21.2233 164.701 21.4067 164.681 21.6H160.301C160.334 22.14 160.518 22.5633 160.851 22.87C161.191 23.17 161.601 23.32 162.081 23.32C162.474 23.32 162.801 23.23 163.061 23.05C163.328 22.8633 163.514 22.6167 163.621 22.31H164.601C164.454 22.8367 164.161 23.2667 163.721 23.6C163.281 23.9267 162.734 24.09 162.081 24.09C161.561 24.09 161.094 23.9733 160.681 23.74C160.274 23.5067 159.954 23.1767 159.721 22.75C159.488 22.3167 159.371 21.8167 159.371 21.25C159.371 20.6833 159.484 20.1867 159.711 19.76C159.938 19.3333 160.254 19.0067 160.661 18.78C161.074 18.5467 161.548 18.43 162.081 18.43C162.601 18.43 163.061 18.5433 163.461 18.77C163.861 18.9967 164.168 19.31 164.381 19.71C164.601 20.1033 164.711 20.55 164.711 21.05ZM163.771 20.86C163.771 20.5133 163.694 20.2167 163.541 19.97C163.388 19.7167 163.178 19.5267 162.911 19.4C162.651 19.2667 162.361 19.2 162.041 19.2C161.581 19.2 161.188 19.3467 160.861 19.64C160.541 19.9333 160.358 20.34 160.311 20.86H163.771Z" fill="#A3A6A9"/>
<path d="M84.2309 39.138H80.3389L79.6949 41H77.6369L81.1509 31.214H83.4329L86.9469 41H84.8749L84.2309 39.138ZM83.6989 37.57L82.2849 33.482L80.8709 37.57H83.6989ZM90.2204 34.364C90.4724 34.0093 90.8178 33.7153 91.2564 33.482C91.7044 33.2393 92.2131 33.118 92.7824 33.118C93.4451 33.118 94.0424 33.2813 94.5744 33.608C95.1158 33.9347 95.5404 34.4013 95.8484 35.008C96.1658 35.6053 96.3244 36.3007 96.3244 37.094C96.3244 37.8873 96.1658 38.592 95.8484 39.208C95.5404 39.8147 95.1158 40.286 94.5744 40.622C94.0424 40.958 93.4451 41.126 92.7824 41.126C92.2131 41.126 91.7091 41.0093 91.2704 40.776C90.8411 40.5427 90.4911 40.2487 90.2204 39.894V44.696H88.2604V33.244H90.2204V34.364ZM94.3224 37.094C94.3224 36.6273 94.2244 36.226 94.0284 35.89C93.8418 35.5447 93.5898 35.2833 93.2724 35.106C92.9644 34.9287 92.6284 34.84 92.2644 34.84C91.9098 34.84 91.5738 34.9333 91.2564 35.12C90.9484 35.2973 90.6964 35.5587 90.5004 35.904C90.3138 36.2493 90.2204 36.6553 90.2204 37.122C90.2204 37.5887 90.3138 37.9947 90.5004 38.34C90.6964 38.6853 90.9484 38.9513 91.2564 39.138C91.5738 39.3153 91.9098 39.404 92.2644 39.404C92.6284 39.404 92.9644 39.3107 93.2724 39.124C93.5898 38.9373 93.8418 38.6713 94.0284 38.326C94.2244 37.9807 94.3224 37.57 94.3224 37.094ZM99.7087 34.364C99.9607 34.0093 100.306 33.7153 100.745 33.482C101.193 33.2393 101.701 33.118 102.271 33.118C102.933 33.118 103.531 33.2813 104.063 33.608C104.604 33.9347 105.029 34.4013 105.337 35.008C105.654 35.6053 105.813 36.3007 105.813 37.094C105.813 37.8873 105.654 38.592 105.337 39.208C105.029 39.8147 104.604 40.286 104.063 40.622C103.531 40.958 102.933 41.126 102.271 41.126C101.701 41.126 101.197 41.0093 100.759 40.776C100.329 40.5427 99.9794 40.2487 99.7087 39.894V44.696H97.7487V33.244H99.7087V34.364ZM103.811 37.094C103.811 36.6273 103.713 36.226 103.517 35.89C103.33 35.5447 103.078 35.2833 102.761 35.106C102.453 34.9287 102.117 34.84 101.753 34.84C101.398 34.84 101.062 34.9333 100.745 35.12C100.437 35.2973 100.185 35.5587 99.9887 35.904C99.802 36.2493 99.7087 36.6553 99.7087 37.122C99.7087 37.5887 99.802 37.9947 99.9887 38.34C100.185 38.6853 100.437 38.9513 100.745 39.138C101.062 39.3153 101.398 39.404 101.753 39.404C102.117 39.404 102.453 39.3107 102.761 39.124C103.078 38.9373 103.33 38.6713 103.517 38.326C103.713 37.9807 103.811 37.57 103.811 37.094ZM113.947 41.098C113.266 41.098 112.65 40.9813 112.099 40.748C111.558 40.5147 111.128 40.1787 110.811 39.74C110.494 39.3013 110.33 38.7833 110.321 38.186H112.421C112.449 38.5873 112.589 38.9047 112.841 39.138C113.102 39.3713 113.457 39.488 113.905 39.488C114.362 39.488 114.722 39.3807 114.983 39.166C115.244 38.942 115.375 38.6527 115.375 38.298C115.375 38.0087 115.286 37.7707 115.109 37.584C114.932 37.3973 114.708 37.2527 114.437 37.15C114.176 37.038 113.812 36.9167 113.345 36.786C112.71 36.5993 112.192 36.4173 111.791 36.24C111.399 36.0533 111.058 35.778 110.769 35.414C110.489 35.0407 110.349 34.546 110.349 33.93C110.349 33.3513 110.494 32.8473 110.783 32.418C111.072 31.9887 111.478 31.662 112.001 31.438C112.524 31.2047 113.121 31.088 113.793 31.088C114.801 31.088 115.618 31.3353 116.243 31.83C116.878 32.3153 117.228 32.9967 117.293 33.874H115.137C115.118 33.538 114.974 33.2627 114.703 33.048C114.442 32.824 114.092 32.712 113.653 32.712C113.27 32.712 112.962 32.81 112.729 33.006C112.505 33.202 112.393 33.4867 112.393 33.86C112.393 34.1213 112.477 34.3407 112.645 34.518C112.822 34.686 113.037 34.826 113.289 34.938C113.55 35.0407 113.914 35.162 114.381 35.302C115.016 35.4887 115.534 35.6753 115.935 35.862C116.336 36.0487 116.682 36.3287 116.971 36.702C117.26 37.0753 117.405 37.5653 117.405 38.172C117.405 38.6947 117.27 39.18 116.999 39.628C116.728 40.076 116.332 40.4353 115.809 40.706C115.286 40.9673 114.666 41.098 113.947 41.098ZM121.386 34.854V38.606C121.386 38.8673 121.447 39.0587 121.568 39.18C121.699 39.292 121.914 39.348 122.212 39.348H123.122V41H121.89C120.238 41 119.412 40.1973 119.412 38.592V34.854H118.488V33.244H119.412V31.326H121.386V33.244H123.122V34.854H121.386ZM127.976 41.126C127.229 41.126 126.557 40.9627 125.96 40.636C125.363 40.3 124.891 39.8287 124.546 39.222C124.21 38.6153 124.042 37.9153 124.042 37.122C124.042 36.3287 124.215 35.6287 124.56 35.022C124.915 34.4153 125.395 33.9487 126.002 33.622C126.609 33.286 127.285 33.118 128.032 33.118C128.779 33.118 129.455 33.286 130.062 33.622C130.669 33.9487 131.145 34.4153 131.49 35.022C131.845 35.6287 132.022 36.3287 132.022 37.122C132.022 37.9153 131.84 38.6153 131.476 39.222C131.121 39.8287 130.636 40.3 130.02 40.636C129.413 40.9627 128.732 41.126 127.976 41.126ZM127.976 39.418C128.331 39.418 128.662 39.334 128.97 39.166C129.287 38.9887 129.539 38.7273 129.726 38.382C129.913 38.0367 130.006 37.6167 130.006 37.122C130.006 36.3847 129.81 35.82 129.418 35.428C129.035 35.0267 128.564 34.826 128.004 34.826C127.444 34.826 126.973 35.0267 126.59 35.428C126.217 35.82 126.03 36.3847 126.03 37.122C126.03 37.8593 126.212 38.4287 126.576 38.83C126.949 39.222 127.416 39.418 127.976 39.418ZM135.42 34.448C135.672 34.0373 135.998 33.7153 136.4 33.482C136.81 33.2487 137.277 33.132 137.8 33.132V35.19H137.282C136.666 35.19 136.199 35.3347 135.882 35.624C135.574 35.9133 135.42 36.4173 135.42 37.136V41H133.46V33.244H135.42V34.448ZM146.33 36.954C146.33 37.234 146.311 37.486 146.274 37.71H140.604C140.65 38.27 140.846 38.7087 141.192 39.026C141.537 39.3433 141.962 39.502 142.466 39.502C143.194 39.502 143.712 39.1893 144.02 38.564H146.134C145.91 39.3107 145.48 39.9267 144.846 40.412C144.211 40.888 143.432 41.126 142.508 41.126C141.761 41.126 141.089 40.9627 140.492 40.636C139.904 40.3 139.442 39.8287 139.106 39.222C138.779 38.6153 138.616 37.9153 138.616 37.122C138.616 36.3193 138.779 35.6147 139.106 35.008C139.432 34.4013 139.89 33.9347 140.478 33.608C141.066 33.2813 141.742 33.118 142.508 33.118C143.245 33.118 143.903 33.2767 144.482 33.594C145.07 33.9113 145.522 34.364 145.84 34.952C146.166 35.5307 146.33 36.198 146.33 36.954ZM144.3 36.394C144.29 35.89 144.108 35.4887 143.754 35.19C143.399 34.882 142.965 34.728 142.452 34.728C141.966 34.728 141.556 34.8773 141.22 35.176C140.893 35.4653 140.692 35.8713 140.618 36.394H144.3Z" fill="#232B31"/>
</g>
<defs>
<filter id="filter0_dddd_1625_3738" x="0" y="0" width="231" height="120" filterUnits="userSpaceOnUse" color-interpolation-filters="sRGB">
<feFlood flood-opacity="0" result="BackgroundImageFix"/>
<feColorMatrix in="SourceAlpha" type="matrix" values="0 0 0 0 0 0 0 0 0 0 0 0 0 0 0 0 0 0 127 0" result="hardAlpha"/>
<feOffset dy="3"/>
<feGaussianBlur stdDeviation="3"/>
<feColorMatrix type="matrix" values="0 0 0 0 0.152941 0 0 0 0 0.156863 0 0 0 0 0.286275 0 0 0 0.07 0"/>
<feBlend mode="normal" in2="BackgroundImageFix" result="effect1_dropShadow_1625_3738"/>
<feColorMatrix in="SourceAlpha" type="matrix" values="0 0 0 0 0 0 0 0 0 0 0 0 0 0 0 0 0 0 127 0" result="hardAlpha"/>
<feOffset dy="11"/>
<feGaussianBlur stdDeviation="5.5"/>
<feColorMatrix type="matrix" values="0 0 0 0 0.152941 0 0 0 0 0.156863 0 0 0 0 0.286275 0 0 0 0.06 0"/>
<feBlend mode="normal" in2="effect1_dropShadow_1625_3738" result="effect2_dropShadow_1625_3738"/>
<feColorMatrix in="SourceAlpha" type="matrix" values="0 0 0 0 0 0 0 0 0 0 0 0 0 0 0 0 0 0 127 0" result="hardAlpha"/>
<feOffset dy="25"/>
<feGaussianBlur stdDeviation="7.5"/>
<feColorMatrix type="matrix" values="0 0 0 0 0.152941 0 0 0 0 0.156863 0 0 0 0 0.286275 0 0 0 0.03 0"/>
<feBlend mode="normal" in2="effect2_dropShadow_1625_3738" result="effect3_dropShadow_1625_3738"/>
<feColorMatrix in="SourceAlpha" type="matrix" values="0 0 0 0 0 0 0 0 0 0 0 0 0 0 0 0 0 0 127 0" result="hardAlpha"/>
<feOffset dy="45"/>
<feGaussianBlur stdDeviation="9"/>
<feColorMatrix type="matrix" values="0 0 0 0 0.152941 0 0 0 0 0.156863 0 0 0 0 0.286275 0 0 0 0.01 0"/>
<feBlend mode="normal" in2="effect3_dropShadow_1625_3738" result="effect4_dropShadow_1625_3738"/>
<feBlend mode="normal" in="SourceGraphic" in2="effect4_dropShadow_1625_3738" result="shape"/>
</filter>
</defs>
</svg>
