<svg width="25" height="30" viewBox="0 0 25 30" fill="none" xmlns="http://www.w3.org/2000/svg">
<path fill-rule="evenodd" clip-rule="evenodd" d="M17.016 5.12971C18.0882 3.90446 18.8109 2.19794 18.6131 0.5C17.0681 0.558001 15.1988 1.47317 14.091 2.69697C13.0961 3.78301 12.2277 5.51835 12.4612 7.18295C14.1847 7.30908 15.9438 6.35639 17.016 5.12971ZM20.8809 15.9064C20.924 20.2955 24.9554 21.7556 25 21.7744C24.9673 21.8774 24.3561 23.8548 22.8765 25.8993C21.5961 27.6654 20.2682 29.4243 18.1759 29.462C16.1208 29.4983 15.4591 28.3108 13.108 28.3108C10.7585 28.3108 10.0239 29.4242 8.07882 29.4981C6.0594 29.5692 4.5203 27.5874 3.23103 25.8271C0.592992 22.2267 -1.42196 15.6528 1.28447 11.2158C2.62877 9.01326 5.03036 7.61636 7.63865 7.58156C9.62089 7.54531 11.4931 8.84183 12.705 8.84183C13.917 8.84183 16.1922 7.28307 18.5834 7.51217C19.5842 7.55132 22.3947 7.89341 24.1985 10.3888C24.0527 10.4744 20.8452 12.2379 20.8809 15.9064Z" fill="#0B1319"/>
</svg>
