<svg width="28" height="31" viewBox="0 0 28 31" fill="none" xmlns="http://www.w3.org/2000/svg">
<g clip-path="url(#clip0_336_2043)">
<path d="M12.6935 15.5665L1.07693 27.6915L0.723343 28.0642C0.503514 27.7514 0.35537 27.3786 0.321943 26.9645C0.312392 26.891 0.307617 26.8172 0.307617 26.7437V4.38473C0.307617 3.88323 0.465312 3.43227 0.723343 3.06403L12.6935 15.5665Z" fill="#4285F4"/>
<path d="M17.9163 10.1091L12.6933 15.5666L0.723145 3.06407C1.40168 2.10701 2.78745 1.69754 3.96299 2.35094L17.9163 10.1091Z" fill="#34A853"/>
<path d="M25.2848 15.631C25.2657 16.3949 24.8595 17.1587 24.071 17.5958L17.9163 21.0193L12.6934 15.5666L17.9163 10.1091L21.7869 12.2627L24.071 13.5326C24.9073 13.9975 25.3135 14.8165 25.2848 15.631Z" fill="#FBBC05"/>
<path d="M0.724121 28.0637C1.40298 29.0212 2.78787 29.4294 3.96123 28.777L17.9143 21.0195L12.6914 15.5643L0.724121 28.0637Z" fill="#EB4335"/>
<path opacity="0.2" d="M27 15.0168C26.8541 14.3573 26.4361 13.7481 25.7439 13.3633L23.2694 11.9876L19.0763 9.65453L3.96021 1.24987C2.6867 0.542015 1.18545 0.98561 0.45037 2.02242C0.170836 2.42135 0 2.9099 0 3.45318V17.4087C2.18115 17.587 4.41367 17.6804 6.68663 17.6804C9.53988 17.6804 12.3267 17.529 15.0303 17.2507L13.4232 15.5722L15.031 17.2507C19.2652 16.8149 23.2836 16.0534 27 15.0168Z" fill="white"/>
</g>
<defs>
<clipPath id="clip0_336_2043">
<rect width="27.2727" height="30" fill="white" transform="translate(0 0.5)"/>
</clipPath>
</defs>
</svg>
