<svg width="231" height="120" viewBox="0 0 231 120" fill="none" xmlns="http://www.w3.org/2000/svg">
<g filter="url(#filter0_dddd_1625_3759)">
<rect x="18" y="3" width="195" height="54" rx="16" fill="white"/>
<g clip-path="url(#clip0_1625_3759)">
<path d="M52.6935 30.0665L41.0769 42.1915L40.7233 42.5643C40.5035 42.2514 40.3554 41.8786 40.3219 41.4645C40.3124 41.391 40.3076 41.3172 40.3076 41.2437V18.8847C40.3076 18.3833 40.4653 17.9323 40.7233 17.564L52.6935 30.0665Z" fill="#4285F4"/>
<path d="M57.9163 24.6091L52.6933 30.0666L40.7231 17.5641C41.4017 16.607 42.7874 16.1976 43.963 16.851L57.9163 24.6091Z" fill="#34A853"/>
<path d="M65.2848 30.131C65.2657 30.8949 64.8595 31.6587 64.071 32.0958L57.9163 35.5193L52.6934 30.0666L57.9163 24.6092L61.7869 26.7628L64.071 28.0327C64.9073 28.4975 65.3135 29.3165 65.2848 30.131Z" fill="#FBBC05"/>
<path d="M40.7241 42.5637C41.403 43.5212 42.7879 43.9294 43.9612 43.277L57.9143 35.5195L52.6914 30.0643L40.7241 42.5637Z" fill="#EB4335"/>
<path opacity="0.2" d="M67 29.5168C66.8541 28.8573 66.4361 28.2481 65.7439 27.8633L63.2694 26.4876L59.0763 24.1545L43.9602 15.7499C42.6867 15.042 41.1854 15.4856 40.4504 16.5224C40.1708 16.9214 40 17.4099 40 17.9532V31.9087C42.1811 32.087 44.4137 32.1804 46.6866 32.1804C49.5399 32.1804 52.3267 32.029 55.0303 31.7507L53.4232 30.0722L55.031 31.7507C59.2652 31.3149 63.2836 30.5534 67 29.5168Z" fill="white"/>
</g>
<path d="M80.2129 17.03C80.9729 17.03 81.6296 17.1733 82.1829 17.46C82.7429 17.74 83.1696 18.1433 83.4629 18.67C83.7629 19.1967 83.9129 19.8167 83.9129 20.53C83.9129 21.2433 83.7629 21.8633 83.4629 22.39C83.1696 22.91 82.7429 23.31 82.1829 23.59C81.6296 23.8633 80.9729 24 80.2129 24H78.0429V17.03H80.2129ZM80.2129 23.25C81.1129 23.25 81.7996 23.0133 82.2729 22.54C82.7463 22.06 82.9829 21.39 82.9829 20.53C82.9829 19.6633 82.7429 18.9867 82.2629 18.5C81.7896 18.0133 81.1063 17.77 80.2129 17.77H78.9529V23.25H80.2129ZM88.0033 24.09C87.4899 24.09 87.0233 23.9733 86.6033 23.74C86.1899 23.5067 85.8633 23.1767 85.6233 22.75C85.3899 22.3167 85.2733 21.8167 85.2733 21.25C85.2733 20.69 85.3933 20.1967 85.6333 19.77C85.8799 19.3367 86.2133 19.0067 86.6333 18.78C87.0533 18.5467 87.5233 18.43 88.0433 18.43C88.5633 18.43 89.0333 18.5467 89.4533 18.78C89.8733 19.0067 90.2033 19.3333 90.4433 19.76C90.6899 20.1867 90.8133 20.6833 90.8133 21.25C90.8133 21.8167 90.6866 22.3167 90.4333 22.75C90.1866 23.1767 89.8499 23.5067 89.4233 23.74C88.9966 23.9733 88.5233 24.09 88.0033 24.09ZM88.0033 23.29C88.3299 23.29 88.6366 23.2133 88.9233 23.06C89.2099 22.9067 89.4399 22.6767 89.6133 22.37C89.7933 22.0633 89.8833 21.69 89.8833 21.25C89.8833 20.81 89.7966 20.4367 89.6233 20.13C89.4499 19.8233 89.2233 19.5967 88.9433 19.45C88.6633 19.2967 88.3599 19.22 88.0333 19.22C87.6999 19.22 87.3933 19.2967 87.1133 19.45C86.8399 19.5967 86.6199 19.8233 86.4533 20.13C86.2866 20.4367 86.2033 20.81 86.2033 21.25C86.2033 21.6967 86.2833 22.0733 86.4433 22.38C86.6099 22.6867 86.8299 22.9167 87.1033 23.07C87.3766 23.2167 87.6766 23.29 88.0033 23.29ZM99.8097 18.52L98.0997 24H97.1597L95.8397 19.65L94.5197 24H93.5797L91.8597 18.52H92.7897L94.0497 23.12L95.4097 18.52H96.3397L97.6697 23.13L98.9097 18.52H99.8097ZM103.883 18.42C104.55 18.42 105.09 18.6233 105.503 19.03C105.916 19.43 106.123 20.01 106.123 20.77V24H105.223V20.9C105.223 20.3533 105.086 19.9367 104.813 19.65C104.54 19.3567 104.166 19.21 103.693 19.21C103.213 19.21 102.83 19.36 102.543 19.66C102.263 19.96 102.123 20.3967 102.123 20.97V24H101.213V18.52H102.123V19.3C102.303 19.02 102.546 18.8033 102.853 18.65C103.166 18.4967 103.51 18.42 103.883 18.42ZM109.019 16.6V24H108.109V16.6H109.019ZM113.46 24.09C112.947 24.09 112.48 23.9733 112.06 23.74C111.647 23.5067 111.32 23.1767 111.08 22.75C110.847 22.3167 110.73 21.8167 110.73 21.25C110.73 20.69 110.85 20.1967 111.09 19.77C111.337 19.3367 111.67 19.0067 112.09 18.78C112.51 18.5467 112.98 18.43 113.5 18.43C114.02 18.43 114.49 18.5467 114.91 18.78C115.33 19.0067 115.66 19.3333 115.9 19.76C116.147 20.1867 116.27 20.6833 116.27 21.25C116.27 21.8167 116.144 22.3167 115.89 22.75C115.644 23.1767 115.307 23.5067 114.88 23.74C114.454 23.9733 113.98 24.09 113.46 24.09ZM113.46 23.29C113.787 23.29 114.094 23.2133 114.38 23.06C114.667 22.9067 114.897 22.6767 115.07 22.37C115.25 22.0633 115.34 21.69 115.34 21.25C115.34 20.81 115.254 20.4367 115.08 20.13C114.907 19.8233 114.68 19.5967 114.4 19.45C114.12 19.2967 113.817 19.22 113.49 19.22C113.157 19.22 112.85 19.2967 112.57 19.45C112.297 19.5967 112.077 19.8233 111.91 20.13C111.744 20.4367 111.66 20.81 111.66 21.25C111.66 21.6967 111.74 22.0733 111.9 22.38C112.067 22.6867 112.287 22.9167 112.56 23.07C112.834 23.2167 113.134 23.29 113.46 23.29ZM117.627 21.24C117.627 20.68 117.74 20.19 117.967 19.77C118.193 19.3433 118.503 19.0133 118.897 18.78C119.297 18.5467 119.74 18.43 120.227 18.43C120.707 18.43 121.123 18.5333 121.477 18.74C121.83 18.9467 122.093 19.2067 122.267 19.52V18.52H123.187V24H122.267V22.98C122.087 23.3 121.817 23.5667 121.457 23.78C121.103 23.9867 120.69 24.09 120.217 24.09C119.73 24.09 119.29 23.97 118.897 23.73C118.503 23.49 118.193 23.1533 117.967 22.72C117.74 22.2867 117.627 21.7933 117.627 21.24ZM122.267 21.25C122.267 20.8367 122.183 20.4767 122.017 20.17C121.85 19.8633 121.623 19.63 121.337 19.47C121.057 19.3033 120.747 19.22 120.407 19.22C120.067 19.22 119.757 19.3 119.477 19.46C119.197 19.62 118.973 19.8533 118.807 20.16C118.64 20.4667 118.557 20.8267 118.557 21.24C118.557 21.66 118.64 22.0267 118.807 22.34C118.973 22.6467 119.197 22.8833 119.477 23.05C119.757 23.21 120.067 23.29 120.407 23.29C120.747 23.29 121.057 23.21 121.337 23.05C121.623 22.8833 121.85 22.6467 122.017 22.34C122.183 22.0267 122.267 21.6633 122.267 21.25ZM124.885 21.24C124.885 20.68 124.998 20.19 125.225 19.77C125.451 19.3433 125.761 19.0133 126.155 18.78C126.555 18.5467 127.001 18.43 127.495 18.43C127.921 18.43 128.318 18.53 128.685 18.73C129.051 18.9233 129.331 19.18 129.525 19.5V16.6H130.445V24H129.525V22.97C129.345 23.2967 129.078 23.5667 128.725 23.78C128.371 23.9867 127.958 24.09 127.485 24.09C126.998 24.09 126.555 23.97 126.155 23.73C125.761 23.49 125.451 23.1533 125.225 22.72C124.998 22.2867 124.885 21.7933 124.885 21.24ZM129.525 21.25C129.525 20.8367 129.441 20.4767 129.275 20.17C129.108 19.8633 128.881 19.63 128.595 19.47C128.315 19.3033 128.005 19.22 127.665 19.22C127.325 19.22 127.015 19.3 126.735 19.46C126.455 19.62 126.231 19.8533 126.065 20.16C125.898 20.4667 125.815 20.8267 125.815 21.24C125.815 21.66 125.898 22.0267 126.065 22.34C126.231 22.6467 126.455 22.8833 126.735 23.05C127.015 23.21 127.325 23.29 127.665 23.29C128.005 23.29 128.315 23.21 128.595 23.05C128.881 22.8833 129.108 22.6467 129.275 22.34C129.441 22.0267 129.525 21.6633 129.525 21.25ZM136.118 17.63C135.945 17.63 135.798 17.57 135.678 17.45C135.558 17.33 135.498 17.1833 135.498 17.01C135.498 16.8367 135.558 16.69 135.678 16.57C135.798 16.45 135.945 16.39 136.118 16.39C136.285 16.39 136.425 16.45 136.538 16.57C136.658 16.69 136.718 16.8367 136.718 17.01C136.718 17.1833 136.658 17.33 136.538 17.45C136.425 17.57 136.285 17.63 136.118 17.63ZM136.558 18.52V24H135.648V18.52H136.558ZM141.279 18.42C141.946 18.42 142.486 18.6233 142.899 19.03C143.313 19.43 143.519 20.01 143.519 20.77V24H142.619V20.9C142.619 20.3533 142.483 19.9367 142.209 19.65C141.936 19.3567 141.563 19.21 141.089 19.21C140.609 19.21 140.226 19.36 139.939 19.66C139.659 19.96 139.519 20.3967 139.519 20.97V24H138.609V18.52H139.519V19.3C139.699 19.02 139.943 18.8033 140.249 18.65C140.563 18.4967 140.906 18.42 141.279 18.42ZM149.782 19.27V22.5C149.782 22.7667 149.839 22.9567 149.952 23.07C150.065 23.1767 150.262 23.23 150.542 23.23H151.212V24H150.392C149.885 24 149.505 23.8833 149.252 23.65C148.999 23.4167 148.872 23.0333 148.872 22.5V19.27H148.162V18.52H148.872V17.14H149.782V18.52H151.212V19.27H149.782ZM155.534 18.42C155.948 18.42 156.321 18.51 156.654 18.69C156.988 18.8633 157.248 19.1267 157.434 19.48C157.628 19.8333 157.724 20.2633 157.724 20.77V24H156.824V20.9C156.824 20.3533 156.688 19.9367 156.414 19.65C156.141 19.3567 155.768 19.21 155.294 19.21C154.814 19.21 154.431 19.36 154.144 19.66C153.864 19.96 153.724 20.3967 153.724 20.97V24H152.814V16.6H153.724V19.3C153.904 19.02 154.151 18.8033 154.464 18.65C154.784 18.4967 155.141 18.42 155.534 18.42ZM164.711 21.05C164.711 21.2233 164.701 21.4067 164.681 21.6H160.301C160.334 22.14 160.518 22.5633 160.851 22.87C161.191 23.17 161.601 23.32 162.081 23.32C162.474 23.32 162.801 23.23 163.061 23.05C163.328 22.8633 163.514 22.6167 163.621 22.31H164.601C164.454 22.8367 164.161 23.2667 163.721 23.6C163.281 23.9267 162.734 24.09 162.081 24.09C161.561 24.09 161.094 23.9733 160.681 23.74C160.274 23.5067 159.954 23.1767 159.721 22.75C159.488 22.3167 159.371 21.8167 159.371 21.25C159.371 20.6833 159.484 20.1867 159.711 19.76C159.938 19.3333 160.254 19.0067 160.661 18.78C161.074 18.5467 161.548 18.43 162.081 18.43C162.601 18.43 163.061 18.5433 163.461 18.77C163.861 18.9967 164.168 19.31 164.381 19.71C164.601 20.1033 164.711 20.55 164.711 21.05ZM163.771 20.86C163.771 20.5133 163.694 20.2167 163.541 19.97C163.388 19.7167 163.178 19.5267 162.911 19.4C162.651 19.2667 162.361 19.2 162.041 19.2C161.581 19.2 161.188 19.3467 160.861 19.64C160.541 19.9333 160.358 20.34 160.311 20.86H163.771Z" fill="#A3A6A9"/>
<path d="M85.3649 34.252C85.3649 34.7747 85.2389 35.2647 84.9869 35.722C84.7443 36.1793 84.3569 36.548 83.8249 36.828C83.3023 37.108 82.6396 37.248 81.8369 37.248H80.1989V41H78.2389V31.228H81.8369C82.5929 31.228 83.2369 31.3587 83.7689 31.62C84.3009 31.8813 84.6976 32.2407 84.9589 32.698C85.2296 33.1553 85.3649 33.6733 85.3649 34.252ZM81.7529 35.666C82.2943 35.666 82.6956 35.5447 82.9569 35.302C83.2183 35.05 83.3489 34.7 83.3489 34.252C83.3489 33.3 82.8169 32.824 81.7529 32.824H80.1989V35.666H81.7529ZM88.7165 30.64V41H86.7565V30.64H88.7165ZM90.149 37.094C90.149 36.31 90.303 35.6147 90.611 35.008C90.9283 34.4013 91.353 33.9347 91.885 33.608C92.4263 33.2813 93.0283 33.118 93.691 33.118C94.2697 33.118 94.7737 33.2347 95.203 33.468C95.6417 33.7013 95.9917 33.9953 96.253 34.35V33.244H98.227V41H96.253V39.866C96.001 40.23 95.651 40.5333 95.203 40.776C94.7643 41.0093 94.2557 41.126 93.677 41.126C93.0237 41.126 92.4263 40.958 91.885 40.622C91.353 40.286 90.9283 39.8147 90.611 39.208C90.303 38.592 90.149 37.8873 90.149 37.094ZM96.253 37.122C96.253 36.646 96.1597 36.24 95.973 35.904C95.7863 35.5587 95.5343 35.2973 95.217 35.12C94.8997 34.9333 94.559 34.84 94.195 34.84C93.831 34.84 93.495 34.9287 93.187 35.106C92.879 35.2833 92.627 35.5447 92.431 35.89C92.2443 36.226 92.151 36.6273 92.151 37.094C92.151 37.5607 92.2443 37.9713 92.431 38.326C92.627 38.6713 92.879 38.9373 93.187 39.124C93.5043 39.3107 93.8403 39.404 94.195 39.404C94.559 39.404 94.8997 39.3153 95.217 39.138C95.5343 38.9513 95.7863 38.69 95.973 38.354C96.1597 38.0087 96.253 37.598 96.253 37.122ZM107.561 33.244L102.759 44.668H100.673L102.353 40.804L99.2453 33.244H101.443L103.445 38.662L105.475 33.244H107.561ZM122.608 31.228V41H120.648V34.644L118.03 41H116.546L113.914 34.644V41H111.954V31.228H114.18L117.288 38.494L120.396 31.228H122.608ZM124.042 37.094C124.042 36.31 124.196 35.6147 124.504 35.008C124.821 34.4013 125.246 33.9347 125.778 33.608C126.319 33.2813 126.921 33.118 127.584 33.118C128.162 33.118 128.666 33.2347 129.096 33.468C129.534 33.7013 129.884 33.9953 130.146 34.35V33.244H132.12V41H130.146V39.866C129.894 40.23 129.544 40.5333 129.096 40.776C128.657 41.0093 128.148 41.126 127.57 41.126C126.916 41.126 126.319 40.958 125.778 40.622C125.246 40.286 124.821 39.8147 124.504 39.208C124.196 38.592 124.042 37.8873 124.042 37.094ZM130.146 37.122C130.146 36.646 130.052 36.24 129.866 35.904C129.679 35.5587 129.427 35.2973 129.11 35.12C128.792 34.9333 128.452 34.84 128.088 34.84C127.724 34.84 127.388 34.9287 127.08 35.106C126.772 35.2833 126.52 35.5447 126.324 35.89C126.137 36.226 126.044 36.6273 126.044 37.094C126.044 37.5607 126.137 37.9713 126.324 38.326C126.52 38.6713 126.772 38.9373 127.08 39.124C127.397 39.3107 127.733 39.404 128.088 39.404C128.452 39.404 128.792 39.3153 129.11 39.138C129.427 38.9513 129.679 38.69 129.866 38.354C130.052 38.0087 130.146 37.598 130.146 37.122ZM135.994 34.448C136.246 34.0373 136.573 33.7153 136.974 33.482C137.385 33.2487 137.851 33.132 138.374 33.132V35.19H137.856C137.24 35.19 136.773 35.3347 136.456 35.624C136.148 35.9133 135.994 36.4173 135.994 37.136V41H134.034V33.244H135.994V34.448ZM144.286 41L141.654 37.696V41H139.694V30.64H141.654V36.534L144.258 33.244H146.806L143.39 37.136L146.834 41H144.286ZM155.08 36.954C155.08 37.234 155.061 37.486 155.024 37.71H149.354C149.4 38.27 149.596 38.7087 149.942 39.026C150.287 39.3433 150.712 39.502 151.216 39.502C151.944 39.502 152.462 39.1893 152.77 38.564H154.884C154.66 39.3107 154.23 39.9267 153.596 40.412C152.961 40.888 152.182 41.126 151.258 41.126C150.511 41.126 149.839 40.9627 149.242 40.636C148.654 40.3 148.192 39.8287 147.856 39.222C147.529 38.6153 147.366 37.9153 147.366 37.122C147.366 36.3193 147.529 35.6147 147.856 35.008C148.182 34.4013 148.64 33.9347 149.228 33.608C149.816 33.2813 150.492 33.118 151.258 33.118C151.995 33.118 152.653 33.2767 153.232 33.594C153.82 33.9113 154.272 34.364 154.59 34.952C154.916 35.5307 155.08 36.198 155.08 36.954ZM153.05 36.394C153.04 35.89 152.858 35.4887 152.504 35.19C152.149 34.882 151.715 34.728 151.202 34.728C150.716 34.728 150.306 34.8773 149.97 35.176C149.643 35.4653 149.442 35.8713 149.368 36.394H153.05ZM158.792 34.854V38.606C158.792 38.8673 158.853 39.0587 158.974 39.18C159.105 39.292 159.32 39.348 159.618 39.348H160.528V41H159.296C157.644 41 156.818 40.1973 156.818 38.592V34.854H155.894V33.244H156.818V31.326H158.792V33.244H160.528V34.854H158.792Z" fill="#232B31"/>
</g>
<defs>
<filter id="filter0_dddd_1625_3759" x="0" y="0" width="231" height="120" filterUnits="userSpaceOnUse" color-interpolation-filters="sRGB">
<feFlood flood-opacity="0" result="BackgroundImageFix"/>
<feColorMatrix in="SourceAlpha" type="matrix" values="0 0 0 0 0 0 0 0 0 0 0 0 0 0 0 0 0 0 127 0" result="hardAlpha"/>
<feOffset dy="3"/>
<feGaussianBlur stdDeviation="3"/>
<feColorMatrix type="matrix" values="0 0 0 0 0.152941 0 0 0 0 0.156863 0 0 0 0 0.286275 0 0 0 0.07 0"/>
<feBlend mode="normal" in2="BackgroundImageFix" result="effect1_dropShadow_1625_3759"/>
<feColorMatrix in="SourceAlpha" type="matrix" values="0 0 0 0 0 0 0 0 0 0 0 0 0 0 0 0 0 0 127 0" result="hardAlpha"/>
<feOffset dy="11"/>
<feGaussianBlur stdDeviation="5.5"/>
<feColorMatrix type="matrix" values="0 0 0 0 0.152941 0 0 0 0 0.156863 0 0 0 0 0.286275 0 0 0 0.06 0"/>
<feBlend mode="normal" in2="effect1_dropShadow_1625_3759" result="effect2_dropShadow_1625_3759"/>
<feColorMatrix in="SourceAlpha" type="matrix" values="0 0 0 0 0 0 0 0 0 0 0 0 0 0 0 0 0 0 127 0" result="hardAlpha"/>
<feOffset dy="25"/>
<feGaussianBlur stdDeviation="7.5"/>
<feColorMatrix type="matrix" values="0 0 0 0 0.152941 0 0 0 0 0.156863 0 0 0 0 0.286275 0 0 0 0.03 0"/>
<feBlend mode="normal" in2="effect2_dropShadow_1625_3759" result="effect3_dropShadow_1625_3759"/>
<feColorMatrix in="SourceAlpha" type="matrix" values="0 0 0 0 0 0 0 0 0 0 0 0 0 0 0 0 0 0 127 0" result="hardAlpha"/>
<feOffset dy="45"/>
<feGaussianBlur stdDeviation="9"/>
<feColorMatrix type="matrix" values="0 0 0 0 0.152941 0 0 0 0 0.156863 0 0 0 0 0.286275 0 0 0 0.01 0"/>
<feBlend mode="normal" in2="effect3_dropShadow_1625_3759" result="effect4_dropShadow_1625_3759"/>
<feBlend mode="normal" in="SourceGraphic" in2="effect4_dropShadow_1625_3759" result="shape"/>
</filter>
<clipPath id="clip0_1625_3759">
<rect width="27.2727" height="30" fill="white" transform="translate(40 15)"/>
</clipPath>
</defs>
</svg>
