<svg width="209" height="55" viewBox="0 0 209 55" fill="none" xmlns="http://www.w3.org/2000/svg">
<path d="M59.8145 34.8344L66.4618 31.4647C67.6605 34.172 70.2217 35.5528 74.0351 35.5528C77.468 35.5528 80.0836 34.116 80.0836 31.4647C80.0836 28.3707 77.1962 27.8737 73.3819 27.2104C67.8788 26.2715 60.4142 24.2827 60.4142 15.8843C60.4142 9.3655 66.19 4.39282 73.7633 4.39282C79.8118 4.39282 85.0422 7.21035 87.3851 12.5147L80.7377 15.8843C79.5391 13.5087 77.1418 11.8514 73.4362 11.8514C70.4392 11.8514 68.369 13.2882 68.369 15.5536C68.369 18.5374 71.4204 19.3109 75.3977 20.0284C80.8465 20.9672 88.0384 22.9561 88.0384 31.4096C88.0384 38.0947 81.8268 42.9562 74.0351 42.9562C67.4421 42.9562 62.1565 40.1387 59.8145 34.8344Z" fill="#8954E0"/>
<path d="M101.878 42.2381C96.8111 42.2381 94.8496 39.5868 94.8496 35.3316V12.017C94.8496 7.7627 96.8111 5.05542 101.878 5.05542H121.276V12.2935H102.804V20.0277H120.132V27.2649H102.804V35H121.602V42.2372H101.878L101.878 42.2381Z" fill="#8954E0"/>
<path d="M126.398 23.6745C126.398 12.7352 134.625 4.39282 145.468 4.39282C156.311 4.39282 164.593 12.7352 164.593 23.6745C164.593 34.6139 156.311 42.9562 145.468 42.9562C134.625 42.9562 126.398 34.669 126.398 23.6745ZM156.366 23.6745C156.366 17.0997 151.625 12.0168 145.468 12.0168C139.311 12.0168 134.571 17.0997 134.571 23.6745C134.571 30.2493 139.365 35.3314 145.468 35.3314C151.571 35.3314 156.366 30.2485 156.366 23.6745Z" fill="#8954E0"/>
<path d="M174.129 3.39893V42.2379H172.222V3.39893H174.129Z" fill="#8954E0"/>
<path d="M184.1 48.7577L185.788 47.8188C187.859 51.5201 191.782 53.1223 195.65 53.1223C202.788 53.1223 206.221 47.4312 206.166 40.4705L206.112 35.609C204.477 39.8633 200.99 42.7359 195.869 42.7359C188.513 42.7359 184.371 37.5427 184.371 29.9739V15.6089H186.333V29.5863C186.333 36.2713 189.656 40.8564 195.977 40.8564C202.298 40.8564 206.112 35.4418 206.112 28.8679V15.6089H208.073V40.4705C208.073 48.8128 204.042 55.0009 195.65 55.0009C191.127 55.0009 186.496 53.0671 184.099 48.7577H184.1Z" fill="#8954E0"/>
<path d="M44.0093 0H7.26425C3.29277 0 0.0732422 3.26448 0.0732422 7.29143V44.5496C0.0732422 48.5766 3.29277 51.8411 7.26425 51.8411H44.0093C47.9808 51.8411 51.2003 48.5766 51.2003 44.5496V7.29143C51.2003 3.26448 47.9808 0 44.0093 0Z" fill="url(#paint0_linear_88_234)"/>
<path d="M12.8315 36.6748V45.0731H6.5498V41.1629L12.8315 36.6748Z" fill="white"/>
<path d="M21.13 30.7446V45.0732H14.8491V35.2328L21.13 30.7446Z" fill="white"/>
<path d="M29.4291 24.8135V45.0732H23.1492V29.3016L29.4291 24.8135Z" fill="white"/>
<path d="M37.7287 18.8833V45.0732H31.4487V23.3714L37.7287 18.8833Z" fill="white"/>
<path d="M45.0678 7.36691C44.9792 7.37491 44.8915 7.39625 44.8039 7.39003C43.7823 7.33313 42.7617 7.27534 41.7393 7.21843C39.7409 7.10463 37.7409 6.99261 35.7408 6.88058C35.0139 6.84057 34.287 6.80856 33.461 6.76855C34.4992 8.23644 35.4681 9.60564 36.451 10.998L6.17969 32.6286V39.0559L6.54972 38.7909L9.96503 36.3504L14.8491 32.8598L18.5871 30.189L23.1502 26.9296L26.5944 24.4677L31.4495 20.9976L34.992 18.4672L39.4796 15.2603C40.5029 16.6944 41.5122 18.1098 42.5574 19.5741C42.6091 19.3874 42.6459 19.2878 42.6679 19.182C43.1598 16.7646 43.649 14.3463 44.1418 11.9288C44.2716 11.2914 44.4031 10.6548 44.5338 10.0173C44.7021 9.20111 44.9064 8.39203 45.095 7.58029L45.0678 7.36602V7.36691Z" fill="white"/>
<defs>
<linearGradient id="paint0_linear_88_234" x1="53.595" y1="42.2878" x2="-2.70556" y2="10.2303" gradientUnits="userSpaceOnUse">
<stop stop-color="#975FF4"/>
<stop offset="1" stop-color="#5B31A0"/>
</linearGradient>
</defs>
</svg>
