<svg width="197" height="128" viewBox="0 0 197 128" fill="none" xmlns="http://www.w3.org/2000/svg">
<path d="M33.1653 24.4453H7.50389C3.35961 24.4453 0 27.8033 0 31.9456V88.658C0 92.8003 3.35961 96.1584 7.50389 96.1584H33.1653C37.3096 96.1584 40.6692 92.8003 40.6692 88.658V31.9456C40.6692 27.8033 37.3096 24.4453 33.1653 24.4453Z" fill="#3D8BAA"/>
<path fill-rule="evenodd" clip-rule="evenodd" d="M38.8812 36.8811V87.6859C38.8812 91.0061 36.1953 93.6907 32.881 93.6907H7.78825C4.67596 93.6907 2.1173 91.3351 1.81057 88.3066C1.7956 88.0972 1.78064 87.8953 1.78064 87.6859V36.8811C1.78064 33.5684 4.46648 30.8838 7.78825 30.8838H32.881C36.1953 30.8838 38.8812 33.5684 38.8812 36.8811Z" fill="#F9F8F6"/>
<path fill-rule="evenodd" clip-rule="evenodd" d="M14.5439 26.9952C14.5439 27.3392 14.2671 27.6084 13.923 27.6084C13.5788 27.6084 13.302 27.3317 13.302 26.9952C13.302 26.6587 13.5788 26.3745 13.923 26.3745C14.2671 26.3745 14.5439 26.6512 14.5439 26.9952Z" fill="#F9F8F6"/>
<path d="M27.9133 26.6886H14.933V27.3093H27.9133V26.6886Z" fill="#F9F8F6"/>
<path d="M15.2472 62.7471H9.55383V78.7797H15.2472V62.7471Z" fill="#3D8BAA"/>
<path d="M23.1775 54.3868H17.4841V78.7872H23.1775V54.3868Z" fill="#3D8BAA"/>
<path d="M31.1154 44.0149H25.422V78.7871H31.1154V44.0149Z" fill="#3D8BAA"/>
<path d="M27.6065 82.5934H5.48389V83.8347H27.6065V82.5934Z" fill="url(#paint0_linear_88_43)"/>
<path d="M36.1279 85.3453H5.48389V86.5867H36.1279V85.3453Z" fill="#ACB7BD"/>
<path d="M33.7638 87.5886H5.48389V88.83H33.7638V87.5886Z" fill="#ACB7BD"/>
<path d="M176.39 0H37.2726C34.6364 0 32.4994 2.136 32.4994 4.7709V85.1808C32.4994 87.8157 34.6364 89.9517 37.2726 89.9517H176.39C179.026 89.9517 181.163 87.8157 181.163 85.1808V4.7709C181.163 2.136 179.026 0 176.39 0Z" fill="#3D8BAA"/>
<path d="M175.784 4.03064H36.5319V84.6349H175.784V4.03064Z" fill="#F9F8F6"/>
<path fill-rule="evenodd" clip-rule="evenodd" d="M32.4995 87.8204L15.7036 95.6498H196.927L181.156 87.125L32.4995 87.8204Z" fill="#6D6D77"/>
<path d="M196.927 95.6498H15.7036V102.507H196.927V95.6498Z" fill="#B1C2CA"/>
<path d="M122.733 93.5186H87.2561V99.0821H122.733V93.5186Z" fill="#F9F8F6"/>
<path d="M104.112 26.9055H41.6343V29.2087H104.112V26.9055Z" fill="url(#paint1_linear_88_43)"/>
<path d="M82.7374 32.0128H41.6343V34.316H82.7374V32.0128Z" fill="url(#paint2_linear_88_43)"/>
<path d="M98.5681 37.1278H41.6343V39.431H98.5681V37.1278Z" fill="#ACB7BD"/>
<path d="M94.1765 41.3004H41.6343V43.6036H94.1765V41.3004Z" fill="#ACB7BD"/>
<path d="M104.112 53.0557H41.6343V55.3589H104.112V53.0557Z" fill="url(#paint3_linear_88_43)"/>
<path d="M82.7374 58.1631H41.6343V60.4663H82.7374V58.1631Z" fill="url(#paint4_linear_88_43)"/>
<path d="M98.5681 63.2705H41.6343V65.5737H98.5681V63.2705Z" fill="#ACB7BD"/>
<path d="M94.1765 67.4431H41.6343V69.7463H94.1765V67.4431Z" fill="#ACB7BD"/>
<path d="M146.09 10.2896H58.7968V17.1991H146.09V10.2896Z" fill="#D1DADF"/>
<path d="M149.427 10.2896H137.008V17.1991H149.427V10.2896Z" fill="url(#paint5_linear_88_43)"/>
<path opacity="0.25" d="M110.86 28.5507C99.5856 16.6758 80.8146 16.1897 68.9416 27.4589C57.061 38.7281 56.5672 57.4827 67.8418 69.3576C79.1163 81.2325 97.8873 81.726 109.768 70.4568C121.648 59.1876 122.142 40.4256 110.868 28.5507H110.86Z" fill="#30AFD8"/>
<path d="M155.322 119.003L113.86 75.3323C113.568 75.0257 113.269 74.7416 112.97 74.4798C113.075 74.3826 113.187 74.2854 113.299 74.1882C127.237 60.9673 127.821 38.9523 114.586 25.021C101.359 11.0897 79.3333 10.5139 65.3953 23.7348C51.4574 36.9557 50.8738 58.9632 64.101 72.902C75.3307 84.7246 92.8897 86.9231 106.461 79.2433C106.835 79.834 107.306 80.4397 107.86 81.023L149.322 124.694C151.417 126.9 153.886 127.947 154.844 127.042L157.365 124.642C158.322 123.737 157.402 121.209 155.307 119.011L155.322 119.003ZM67.8343 69.3575C56.5597 57.4826 57.0535 38.7205 68.934 27.4588C80.8146 16.1896 99.5855 16.6831 110.853 28.5506C122.127 40.4255 121.633 59.1875 109.753 70.4567C97.8723 81.7259 79.1013 81.2324 67.8268 69.3575H67.8343Z" fill="url(#paint6_linear_88_43)"/>
<path opacity="0.5" d="M111.391 36.1257C113.411 38.6458 113 42.3174 110.486 44.3364C107.965 46.348 104.284 45.9442 102.271 43.4241C100.251 40.9116 100.655 37.2324 103.177 35.2209C105.698 33.2018 109.371 33.6131 111.391 36.1257Z" fill="white"/>
<defs>
<linearGradient id="paint0_linear_88_43" x1="16.5452" y1="82.5934" x2="16.5452" y2="83.8347" gradientUnits="userSpaceOnUse">
<stop stop-color="#9A61F8"/>
<stop offset="1" stop-color="#5E2FBA"/>
</linearGradient>
<linearGradient id="paint1_linear_88_43" x1="72.8731" y1="26.9055" x2="72.8731" y2="29.2087" gradientUnits="userSpaceOnUse">
<stop stop-color="#9A61F8"/>
<stop offset="1" stop-color="#5E2FBA"/>
</linearGradient>
<linearGradient id="paint2_linear_88_43" x1="62.1858" y1="32.0128" x2="62.1858" y2="34.316" gradientUnits="userSpaceOnUse">
<stop stop-color="#9A61F8"/>
<stop offset="1" stop-color="#5E2FBA"/>
</linearGradient>
<linearGradient id="paint3_linear_88_43" x1="72.8731" y1="53.0557" x2="72.8731" y2="55.3589" gradientUnits="userSpaceOnUse">
<stop stop-color="#9A61F8"/>
<stop offset="1" stop-color="#5E2FBA"/>
</linearGradient>
<linearGradient id="paint4_linear_88_43" x1="62.1858" y1="58.1631" x2="62.1858" y2="60.4663" gradientUnits="userSpaceOnUse">
<stop stop-color="#9A61F8"/>
<stop offset="1" stop-color="#5E2FBA"/>
</linearGradient>
<linearGradient id="paint5_linear_88_43" x1="143.217" y1="10.2896" x2="143.217" y2="17.1991" gradientUnits="userSpaceOnUse">
<stop stop-color="#9A61F8"/>
<stop offset="1" stop-color="#5E2FBA"/>
</linearGradient>
<linearGradient id="paint6_linear_88_43" x1="106.146" y1="14.1838" x2="106.146" y2="127.367" gradientUnits="userSpaceOnUse">
<stop stop-color="#9A61F8"/>
<stop offset="1" stop-color="#5E2FBA"/>
</linearGradient>
</defs>
</svg>
