<svg width="92" height="91" viewBox="0 0 92 91" fill="none" xmlns="http://www.w3.org/2000/svg">
<path d="M78.7195 90.0617C72.6677 84.0264 66.6179 77.9899 60.5648 71.9566C57.3194 68.7218 54.0595 65.5007 50.8306 62.2489C50.3685 61.7831 50.0491 61.6876 49.4202 62.0153C30.417 71.914 7.09515 61.5273 1.96547 40.9017C-2.25395 23.9381 7.47175 6.69777 24.1937 1.49983C42.9287 -4.32414 62.7028 7.39379 66.4523 26.5953C67.9291 34.1587 66.8394 41.3969 63.2581 48.2414C63.0005 48.7333 62.8986 49.0486 63.3705 49.517C72.6933 58.7642 81.9945 68.0323 91.3015 77.2958C91.3423 77.3364 91.3942 77.3658 91.4408 77.3998V77.5758C91.2792 77.6903 91.0978 77.7838 90.9591 77.9212C87.0499 81.8049 83.1446 85.6919 79.2433 89.5822C79.1053 89.7196 79.0106 89.9008 78.8963 90.0617H78.7195ZM61.9765 32.9066C61.966 17.4953 49.4898 5.09312 33.9963 5.09247C18.5803 5.09181 6.08039 17.5306 6.07447 32.8778C6.06856 48.2937 18.5303 60.7194 34.012 60.7351C49.4754 60.7508 61.9864 48.3003 61.9765 32.906V32.9066ZM84.0871 77.4894C76.0209 69.459 67.9784 61.4521 60.2112 53.7193C58.4617 55.4502 56.6569 57.2354 54.9573 58.9166C62.7659 66.6926 70.8222 74.7151 78.8463 82.705C80.5624 80.997 82.3494 79.2184 84.0871 77.4888V77.4894Z" fill="#804BDD"/>
<path d="M15.9807 31.0605V26.1066H52.0581V31.0605H15.9807Z" fill="#804BDD"/>
<path d="M52.1191 39.7404H16.0174V34.7099C16.3283 34.7099 16.6378 34.7099 16.9474 34.7099C28.3332 34.7099 39.7191 34.7178 51.105 34.6903C51.9173 34.6884 52.1762 34.9036 52.1362 35.7141C52.0717 37.0257 52.1191 38.3425 52.1191 39.7404Z" fill="#804BDD"/>
<path d="M15.9901 22.4014V17.4631H43.9231V22.4014H15.9901Z" fill="#804BDD"/>
<path d="M52.0891 43.4556V48.3578H24.1516V43.4556H52.0891Z" fill="#804BDD"/>
<path d="M47.0868 22.3941V17.4526H52.0581V22.3941H47.0868Z" fill="#804BDD"/>
<path d="M20.9857 48.3871H16.0249V43.4619H20.9857V48.3871Z" fill="#804BDD"/>
</svg>
