<svg width="361" height="361" viewBox="0 0 361 361" fill="none" xmlns="http://www.w3.org/2000/svg">
<path d="M310.225 0H50.7745C22.7325 0 0 22.7325 0 50.7745V310.225C0 338.267 22.7325 361 50.7745 361H310.225C338.267 361 361 338.267 361 310.225V50.7745C361 22.7325 338.267 0 310.225 0Z" fill="url(#paint0_linear_143_274)"/>
<path d="M36.7141 289.2L49.6104 282.755C51.9384 287.931 56.9037 290.574 64.3023 290.574C70.9579 290.574 76.0347 287.825 76.0347 282.755C76.0347 276.836 70.4316 275.882 63.0331 274.613C52.3594 272.818 37.878 269.01 37.878 252.95C37.878 240.481 49.078 230.965 63.7699 230.965C75.5023 230.965 85.6498 236.357 90.1941 246.499L77.2978 252.944C74.9698 248.399 70.3202 245.23 63.1383 245.23C57.3248 245.23 53.3066 247.978 53.3066 252.312C53.3066 258.021 59.2255 259.5 66.9398 260.875C77.5083 262.67 91.4572 266.478 91.4572 282.649C91.4572 295.434 79.409 304.74 64.2961 304.74C51.5112 304.74 41.2584 299.347 36.7141 289.206V289.2Z" fill="white"/>
<path d="M118.302 303.366C108.471 303.366 104.669 298.295 104.669 290.153V245.552C104.669 237.416 108.471 232.234 118.302 232.234H155.927V246.078H120.098V260.875H153.704V274.719H120.098V289.516H156.558V303.359H118.302V303.366Z" fill="white"/>
<path d="M165.864 267.852C165.864 246.926 181.825 230.965 202.856 230.965C223.888 230.965 239.954 246.926 239.954 267.852C239.954 288.779 223.888 304.74 202.856 304.74C181.825 304.74 165.864 288.884 165.864 267.852ZM223.993 267.852C223.993 255.278 214.799 245.551 202.856 245.551C190.913 245.551 181.719 255.272 181.719 267.852C181.719 280.433 191.019 290.153 202.856 290.153C214.694 290.153 223.993 280.433 223.993 267.852Z" fill="white"/>
<path d="M258.448 229.064V303.359H254.752V229.064H258.448Z" fill="white"/>
<path d="M277.783 315.835L281.058 314.039C285.076 321.122 292.686 324.187 300.189 324.187C314.033 324.187 320.695 313.303 320.59 299.985L320.484 290.686C317.314 298.821 310.547 304.319 300.617 304.319C286.346 304.319 278.316 294.382 278.316 279.907V252.43H282.123V279.17C282.123 291.955 288.568 300.728 300.827 300.728C313.086 300.728 320.484 290.37 320.484 277.796V252.43H324.292V299.991C324.292 315.952 316.472 327.784 300.196 327.784C291.423 327.784 282.439 324.088 277.789 315.841L277.783 315.835Z" fill="white"/>
<path d="M133.131 170.291V207.828H104.663V190.35L133.131 170.291Z" fill="white"/>
<path d="M170.743 143.786V207.828H142.275V163.845L170.743 143.786Z" fill="white"/>
<path d="M208.355 117.275V207.828H179.893V137.334L208.355 117.275Z" fill="white"/>
<path d="M245.966 90.77V207.828H217.505V110.83L245.966 90.77Z" fill="white"/>
<path d="M279.35 40.2555C278.495 43.8836 277.566 47.4993 276.805 51.146C276.211 53.9939 275.616 56.8419 275.028 59.6899L253.897 74.5799L233.559 88.9126L217.505 100.224L195.501 115.733L179.893 126.735L159.214 141.303L142.275 153.24L120.141 168.842L104.663 179.751L102.985 180.933V152.206L240.177 55.5232L264.144 38.6334C268.775 38.8873 273.4 39.1473 278.031 39.4011C278.427 39.4259 278.823 39.333 279.226 39.2959L279.35 40.2555Z" fill="white"/>
<path d="M279.35 40.2556C278.495 43.8837 277.567 47.4994 276.805 51.146C276.211 53.994 275.616 56.842 275.028 59.69C272.793 70.4937 270.577 81.3037 268.348 92.1074C268.249 92.5779 268.082 93.0237 267.846 93.8595C263.11 87.3154 258.535 80.9879 253.898 74.58C253.749 74.3694 253.594 74.1651 253.446 73.9546L240.264 55.6471C240.233 55.6037 240.202 55.5666 240.178 55.5233C235.72 49.301 231.33 43.1841 226.625 36.6213C230.371 36.8009 233.665 36.9433 236.958 37.1228C246.022 37.6243 255.086 38.1258 264.144 38.6335C268.775 38.8873 273.4 39.1474 278.031 39.4012C278.427 39.426 278.824 39.3331 279.226 39.296L279.35 40.2556Z" fill="white"/>
<defs>
<linearGradient id="paint0_linear_143_274" x1="377.908" y1="294.475" x2="-16.9021" y2="66.5313" gradientUnits="userSpaceOnUse">
<stop stop-color="#965EF2"/>
<stop offset="1" stop-color="#5F34A5"/>
</linearGradient>
</defs>
</svg>
