<svg width="101" height="86" viewBox="0 0 101 86" fill="none" xmlns="http://www.w3.org/2000/svg">
<path d="M50.1872 85.859C35.5889 85.859 20.9906 85.8611 6.39226 85.8579C3.30802 85.8579 0.76988 83.9176 0.142561 81.0692C0.0292798 80.5542 0.00684173 80.0115 0.00684175 79.4815C-0.000642169 67.73 -0.00170977 55.9794 0.0025632 44.2278C0.00363147 40.7758 2.61658 38.109 6.07486 38.0117C6.54081 37.9989 7.00783 38.0075 7.47485 38.0075C36.2493 38.0075 65.0249 38.0107 93.7994 38C95.8245 38 97.5494 38.6208 98.9173 40.1283C99.9112 41.2234 100.424 42.5269 100.424 44.0099C100.428 55.9388 100.431 67.8678 100.424 79.7967C100.422 83.0447 97.7546 85.734 94.4491 85.8526C94.1157 85.8643 93.7823 85.8579 93.4488 85.8579C79.0279 85.8579 64.607 85.8579 50.1872 85.8579L50.1872 85.859ZM50.2107 43.4543C35.7438 43.4543 21.277 43.4543 6.81012 43.4543C5.828 43.4543 5.74357 43.5387 5.74357 44.5195C5.74357 56.1162 5.74357 67.7139 5.74357 79.3106C5.74357 80.3256 5.83334 80.4143 6.84752 80.4143C35.715 80.4143 64.5824 80.4143 93.4488 80.4143C94.6233 80.4143 94.7013 80.3374 94.7013 79.1749C94.7013 67.6669 94.7013 56.1579 94.7013 44.6499C94.7013 43.5291 94.6233 43.4532 93.4788 43.4532C79.0557 43.4532 64.6337 43.4532 50.2107 43.4532L50.2107 43.4543Z" fill="#8A54E7"/>
<path d="M88.6914 62.0408C88.5652 67.3801 84.7439 71.8819 79.8175 72.688C74.2172 73.6043 69.0335 70.1636 67.6589 64.5519C66.1362 58.3362 70.1048 52.2417 76.3792 51.1299L76.3793 51.1299C81.6822 50.19 87.158 53.9079 88.3388 59.4414L88.6914 62.0408ZM88.6914 62.0408C88.6468 61.6967 88.6125 61.3893 88.5805 61.1032C88.5136 60.5036 88.457 59.9975 88.3391 59.4425L88.6914 62.0408Z" stroke="#8A54E7" stroke-width="4"/>
<path d="M21.62 72.552C27.4574 72.555 32.2411 67.7411 32.2539 61.6637L32.2539 61.6637C32.2666 55.6228 27.4709 50.7572 21.6384 50.7303C15.8175 50.7036 10.9923 55.5599 10.9922 61.6697L21.62 72.552ZM21.62 72.552C15.7597 72.5484 10.9932 67.7432 10.9922 61.67L21.62 72.552Z" stroke="#8A54E7" stroke-width="4"/>
<path d="M49.6303 72.552C55.4678 72.555 60.2515 67.7411 60.2643 61.6637L60.2643 61.6637C60.277 55.6228 55.4812 50.7572 49.6488 50.7303C43.8279 50.7036 39.0027 55.5599 39.0025 61.6697L49.6303 72.552ZM49.6303 72.552C43.77 72.5484 39.0036 67.7432 39.0025 61.67L49.6303 72.552Z" stroke="#8A54E7" stroke-width="4"/>
<path d="M50.2484 0L54.57 13.3003L68.5548 13.3003L57.2408 21.5204L61.5624 34.8207L50.2484 26.6007L38.9345 34.8207L43.256 21.5204L31.9421 13.3003L45.9269 13.3003L50.2484 0Z" fill="#8A54E7"/>
</svg>
