<svg width="98" height="35" viewBox="0 0 98 35" fill="none" xmlns="http://www.w3.org/2000/svg">
<path d="M0 20.779L4.39395 18.5517C5.18626 20.3412 6.87927 21.2539 9.39995 21.2539C11.6691 21.2539 13.398 20.3042 13.398 18.5517C13.398 16.5065 11.4894 16.178 8.96815 15.7396C5.33058 15.119 0.396444 13.8043 0.396444 8.25292C0.396444 3.94395 4.21427 0.656982 9.22028 0.656982C13.2184 0.656982 16.6757 2.51938 18.2244 6.02557L13.8304 8.25292C13.0381 6.68261 11.4535 5.58715 9.00409 5.58715C7.02301 5.58715 5.65458 6.53686 5.65458 8.0343C5.65458 10.0066 7.67158 10.5179 10.3007 10.9922C13.9023 11.6128 18.6562 12.9274 18.6562 18.5152C18.6562 22.9341 14.5503 26.1476 9.39995 26.1476C5.04194 26.1476 1.54811 24.2852 0 20.779Z" fill="white"/>
<path d="M27.8044 25.6729C24.4549 25.6729 23.1583 23.9204 23.1583 21.1077V5.69661C23.1583 2.8845 24.4549 1.09497 27.8044 1.09497H40.6263V5.87939H28.4165V10.9917H39.8699V15.7756H28.4165V20.8885H40.8419V25.6723H27.8038L27.8044 25.6729Z" fill="white"/>
<path d="M44.012 13.4023C44.012 6.17131 49.4503 0.656982 56.6177 0.656982C63.785 0.656982 69.2593 6.17131 69.2593 13.4023C69.2593 20.6333 63.785 26.1476 56.6177 26.1476C49.4503 26.1476 44.012 20.6697 44.012 13.4023ZM63.8209 13.4023C63.8209 9.0563 60.6876 5.69646 56.6177 5.69646C52.5477 5.69646 49.4144 9.0563 49.4144 13.4023C49.4144 17.7483 52.5837 21.1076 56.6177 21.1076C60.6517 21.1076 63.8209 17.7477 63.8209 13.4023Z" fill="white"/>
<path d="M75.5626 0V25.6728H74.302V0H75.5626Z" fill="white"/>
<path d="M82.1532 29.9825L83.2695 29.3619C84.638 31.8085 87.2311 32.8675 89.7883 32.8675C94.5062 32.8675 96.7754 29.1057 96.7394 24.5046L96.7035 21.2911C95.6231 24.1032 93.3181 26.002 89.9326 26.002C85.0704 26.002 82.3329 22.5693 82.3329 17.5663V8.07092H83.6295V17.3101C83.6295 21.7289 85.8262 24.7597 90.0045 24.7597C94.1828 24.7597 96.7035 21.1806 96.7035 16.8352V8.07092H98.0001V24.5046C98.0001 30.0189 95.3351 34.1093 89.7883 34.1093C86.7987 34.1093 83.7373 32.8311 82.1526 29.9825H82.1532Z" fill="white"/>
</svg>
