<svg width="15" height="14" viewBox="0 0 15 14" fill="none" xmlns="http://www.w3.org/2000/svg">
<path d="M4.6723 6.77908C3.98954 6.18964 3.52118 5.4826 3.35395 4.60178C3.06426 3.07248 3.52213 1.78838 4.73567 0.828999C6.95786 -0.927411 10.2149 0.241466 10.8224 3.07105C11.2736 5.1836 9.79134 7.27948 7.66254 7.59182C7.23373 7.65467 6.79015 7.62848 6.36086 7.69466C4.16011 8.03318 2.74837 9.33252 1.9484 11.3608C1.80547 11.7212 1.73209 12.1007 1.64538 12.4768C1.60249 12.6673 1.65109 12.7344 1.86598 12.733C3.57216 12.7234 5.27835 12.7268 6.98502 12.7282C7.42812 12.7282 7.6106 12.8582 7.70351 13.2258C7.72581 13.3118 7.72906 13.4016 7.71304 13.489C7.69702 13.5764 7.66212 13.6592 7.61077 13.7317C7.55943 13.8043 7.49286 13.8647 7.41573 13.9089C7.33859 13.9531 7.25274 13.9799 7.16416 13.9875C7.0379 13.9971 6.91069 13.9918 6.783 13.9918C4.81476 13.9918 2.84652 13.9799 0.878282 13.9999C0.306536 14.0056 0.0382907 13.6576 0.0768836 13.1429C0.302724 10.1229 1.80022 8.017 4.59559 6.83717C4.6228 6.82007 4.64847 6.80064 4.6723 6.77908Z" fill="white"/>
<path d="M9.22806 10.1787C9.52156 10.1787 9.81553 10.172 10.1086 10.1815C10.2377 10.1858 10.2658 10.1415 10.2644 10.0211C10.2586 9.45828 10.261 8.89503 10.2644 8.33226C10.2644 7.91708 10.5278 7.62569 10.8985 7.62379C11.2692 7.62188 11.5441 7.91803 11.5465 8.32607C11.5503 8.88122 11.5546 9.43638 11.5432 9.99249C11.5398 10.1548 11.5937 10.1858 11.7423 10.1829C12.2817 10.1744 12.8215 10.1782 13.3623 10.1801C13.7754 10.1801 14.0727 10.4486 14.0736 10.8152C14.0736 11.1742 13.7668 11.4585 13.3666 11.4613C12.8267 11.4647 12.2869 11.4699 11.7466 11.4575C11.5727 11.4532 11.5408 11.5089 11.5441 11.6694C11.5546 12.2003 11.5494 12.7316 11.5474 13.263C11.5474 13.6915 11.2849 13.989 10.9066 13.991C10.5145 13.9938 10.2653 13.7162 10.2648 13.273C10.2648 12.734 10.2591 12.1945 10.2677 11.6542C10.2701 11.5042 10.2367 11.4532 10.0771 11.4566C9.50536 11.467 8.93361 11.4661 8.36186 11.4566C7.9807 11.4513 7.68053 11.1423 7.69483 10.7957C7.70912 10.4491 7.99547 10.181 8.37378 10.1767C8.56436 10.1744 8.75494 10.1767 8.94552 10.1767L9.22806 10.1787Z" fill="white"/>
</svg>
