<svg width="60" height="60" viewBox="0 0 60 60" fill="none" xmlns="http://www.w3.org/2000/svg">
<path d="M30 0C13.4661 0 0 13.4671 0 30C0 46.5329 13.4671 60 30 60C46.5329 60 60 46.5329 60 30C60 13.4671 46.5329 0 30 0ZM42.3672 25.7012L29.0334 39.035C28.3667 39.6684 27.5333 40.0017 26.6666 40.0017C25.7998 40.0017 24.9665 39.6683 24.2998 39.035L17.6328 32.3681C16.3328 31.068 16.3328 28.9346 17.6328 27.6345C18.9329 26.3344 21.0663 26.3344 22.3664 27.6345L26.6666 31.9679L37.6336 20.9676C38.9336 19.6675 41.0671 19.6675 42.3672 20.9676C43.6673 22.2676 43.6672 24.4011 42.3672 25.7012Z" fill="url(#paint0_linear_2021_3637)"/>
<defs>
<linearGradient id="paint0_linear_2021_3637" x1="65.5754" y1="-8.97795" x2="10.1854" y2="43.9629" gradientUnits="userSpaceOnUse">
<stop stop-color="#73D6D4"/>
<stop offset="1" stop-color="#6EDA86"/>
</linearGradient>
</defs>
</svg>
