<svg width="75" height="87" viewBox="0 0 75 87" fill="none" xmlns="http://www.w3.org/2000/svg">
<path d="M50.0551 41.2058C43.6785 46.1396 40.4459 44.1791 34.6992 40.6939L34.6947 40.6912L25.2648 50.121C24.3693 51.0165 24.9159 52.5502 26.1759 52.6775L33.084 53.375C36.6738 53.7375 40.2364 52.4677 42.7877 49.9165L52.1909 40.5132L50.0551 41.2058Z" fill="url(#paint0_linear_1313_415)"/>
<path d="M31.2935 22.4444C26.3598 28.8209 28.3203 32.0536 31.8054 37.8003L31.8082 37.8048L22.3783 47.2347C21.4828 48.1302 19.9491 47.5835 19.8219 46.3235L19.1243 39.4154C18.7619 35.8257 20.0317 32.2631 22.5829 29.7118L31.9861 20.3086L31.2935 22.4444Z" fill="url(#paint1_linear_1313_415)"/>
<path d="M41.0493 16.5683L55.5197 16.9795L55.9308 31.4498C56.0247 34.7537 54.7535 37.9504 52.4163 40.2875L47.2379 45.4659L48.1795 42.633C48.1911 42.5981 48.1979 42.5619 48.1997 42.5252L48.216 42.1986C48.716 32.169 40.3405 23.9559 30.3226 24.6522C30.2891 24.6546 30.2561 24.6611 30.2243 24.6717L26.3262 25.9683L32.2116 20.0828C34.5488 17.7457 37.7455 16.4745 41.0493 16.5683Z" fill="url(#paint2_linear_1313_415)"/>
<path d="M5.392 82.192C4.64533 82.192 3.94133 82.0587 3.28 81.792C2.62933 81.5147 2.064 81.1253 1.584 80.624C1.11467 80.1227 0.762667 79.5307 0.528 78.848L2.56 77.936C2.85867 78.5867 3.26933 79.0987 3.792 79.472C4.32533 79.8453 4.912 80.032 5.552 80.032C5.89333 80.032 6.18667 79.9787 6.432 79.872C6.67733 79.7653 6.86933 79.6213 7.008 79.44C7.14667 79.248 7.216 79.024 7.216 78.768C7.216 78.4907 7.13067 78.256 6.96 78.064C6.78933 77.8613 6.52267 77.7013 6.16 77.584L3.824 76.816C2.87467 76.5067 2.16 76.0693 1.68 75.504C1.2 74.928 0.96 74.24 0.96 73.44C0.96 72.736 1.13067 72.1173 1.472 71.584C1.824 71.0507 2.30933 70.6347 2.928 70.336C3.55733 70.0373 4.27733 69.888 5.088 69.888C5.80267 69.888 6.464 70.0107 7.072 70.256C7.68 70.5013 8.20267 70.848 8.64 71.296C9.088 71.744 9.424 72.2827 9.648 72.912L7.632 73.824C7.408 73.2693 7.072 72.8373 6.624 72.528C6.176 72.208 5.664 72.048 5.088 72.048C4.75733 72.048 4.464 72.1013 4.208 72.208C3.952 72.3147 3.75467 72.4693 3.616 72.672C3.47733 72.864 3.408 73.088 3.408 73.344C3.408 73.6213 3.49867 73.8667 3.68 74.08C3.86133 74.2827 4.13333 74.4427 4.496 74.56L6.784 75.296C7.744 75.6053 8.45867 76.0373 8.928 76.592C9.408 77.1467 9.648 77.824 9.648 78.624C9.648 79.3173 9.46667 79.936 9.104 80.48C8.74133 81.0133 8.24 81.4347 7.6 81.744C6.97067 82.0427 6.23467 82.192 5.392 82.192ZM11.4154 82V70.08H19.4314V72.24H13.8954V74.944H19.1114V77.104H13.8954V79.84H19.4314V82H11.4154ZM26.8053 82.192C25.9093 82.192 25.0773 82.0373 24.3093 81.728C23.5413 81.4187 22.8693 80.9867 22.2933 80.432C21.7279 79.8667 21.2853 79.2107 20.9653 78.464C20.6453 77.7173 20.4853 76.9067 20.4853 76.032C20.4853 75.1573 20.6399 74.3467 20.9493 73.6C21.2693 72.8533 21.7119 72.2027 22.2773 71.648C22.8533 71.0933 23.5253 70.6613 24.2933 70.352C25.0613 70.0427 25.8986 69.888 26.8053 69.888C27.7119 69.888 28.5493 70.0427 29.3173 70.352C30.0853 70.6613 30.7519 71.0933 31.3173 71.648C31.8933 72.2027 32.3359 72.8533 32.6453 73.6C32.9653 74.3467 33.1253 75.1573 33.1253 76.032C33.1253 76.9067 32.9653 77.7173 32.6453 78.464C32.3253 79.2107 31.8773 79.8667 31.3013 80.432C30.7359 80.9867 30.0693 81.4187 29.3013 81.728C28.5333 82.0373 27.7013 82.192 26.8053 82.192ZM26.8053 79.952C27.3493 79.952 27.8506 79.856 28.3093 79.664C28.7786 79.472 29.1893 79.2053 29.5413 78.864C29.8933 78.512 30.1653 78.096 30.3573 77.616C30.5493 77.136 30.6453 76.608 30.6453 76.032C30.6453 75.456 30.5493 74.9333 30.3573 74.464C30.1653 73.984 29.8933 73.568 29.5413 73.216C29.1893 72.864 28.7786 72.5973 28.3093 72.416C27.8506 72.224 27.3493 72.128 26.8053 72.128C26.2613 72.128 25.7546 72.224 25.2853 72.416C24.8266 72.5973 24.4213 72.864 24.0693 73.216C23.7173 73.568 23.4453 73.984 23.2533 74.464C23.0613 74.9333 22.9653 75.456 22.9653 76.032C22.9653 76.608 23.0613 77.136 23.2533 77.616C23.4453 78.096 23.7173 78.512 24.0693 78.864C24.4213 79.2053 24.8266 79.472 25.2853 79.664C25.7546 79.856 26.2613 79.952 26.8053 79.952ZM37.7591 82V70.08H42.3191C43.1405 70.08 43.8658 70.224 44.4951 70.512C45.1351 70.8 45.6365 71.2267 45.9991 71.792C46.3618 72.3573 46.5431 73.056 46.5431 73.888C46.5431 74.6987 46.3565 75.392 45.9831 75.968C45.6098 76.5333 45.1085 76.96 44.4791 77.248L47.1991 82H44.4151L41.4711 76.736L43.0711 77.68H40.2391V82H37.7591ZM40.2391 75.52H42.3351C42.6871 75.52 42.9911 75.4507 43.2471 75.312C43.5031 75.1733 43.7005 74.9813 43.8391 74.736C43.9885 74.4907 44.0631 74.208 44.0631 73.888C44.0631 73.5573 43.9885 73.2693 43.8391 73.024C43.7005 72.7787 43.5031 72.5867 43.2471 72.448C42.9911 72.3093 42.6871 72.24 42.3351 72.24H40.2391V75.52ZM51.391 82.192C50.687 82.192 50.0843 82.0427 49.583 81.744C49.0923 81.4347 48.719 81.008 48.463 80.464C48.207 79.92 48.079 79.2853 48.079 78.56V73.264H50.479V78.368C50.479 78.6987 50.543 78.992 50.671 79.248C50.8097 79.4933 51.0017 79.6853 51.247 79.824C51.4923 79.9627 51.7697 80.032 52.079 80.032C52.399 80.032 52.6763 79.9627 52.911 79.824C53.1563 79.6853 53.343 79.4933 53.471 79.248C53.6097 78.992 53.679 78.6987 53.679 78.368V73.264H56.079V82H53.839V80.272L53.967 80.656C53.7643 81.1787 53.4337 81.568 52.975 81.824C52.527 82.0693 51.999 82.192 51.391 82.192ZM61.2571 82.192C60.2971 82.192 59.4598 81.968 58.7451 81.52C58.0411 81.0613 57.5611 80.448 57.3051 79.68L59.0651 78.848C59.2891 79.3173 59.5931 79.6853 59.9771 79.952C60.3611 80.2187 60.7878 80.352 61.2571 80.352C61.5985 80.352 61.8598 80.2827 62.0411 80.144C62.2225 80.0053 62.3131 79.8133 62.3131 79.568C62.3131 79.44 62.2811 79.3333 62.2171 79.248C62.1531 79.152 62.0571 79.0667 61.9291 78.992C61.8011 78.9173 61.6411 78.8533 61.4491 78.8L59.9611 78.384C59.2465 78.1813 58.6971 77.856 58.3131 77.408C57.9291 76.9493 57.7371 76.4107 57.7371 75.792C57.7371 75.248 57.8758 74.7733 58.1531 74.368C58.4305 73.9627 58.8198 73.648 59.3211 73.424C59.8225 73.1893 60.3985 73.072 61.0491 73.072C61.9025 73.072 62.6491 73.2747 63.2891 73.68C63.9398 74.0747 64.3985 74.6347 64.6651 75.36L62.8891 76.192C62.7611 75.8293 62.5265 75.5413 62.1851 75.328C61.8545 75.104 61.4758 74.992 61.0491 74.992C60.7398 74.992 60.4945 75.056 60.3131 75.184C60.1425 75.312 60.0571 75.488 60.0571 75.712C60.0571 75.8293 60.0891 75.936 60.1531 76.032C60.2171 76.128 60.3185 76.2133 60.4571 76.288C60.6065 76.3627 60.7878 76.432 61.0011 76.496L62.3931 76.912C63.1185 77.1253 63.6731 77.4507 64.0571 77.888C64.4411 78.3147 64.6331 78.8427 64.6331 79.472C64.6331 80.016 64.4891 80.4907 64.2011 80.896C63.9238 81.3013 63.5345 81.6213 63.0331 81.856C62.5318 82.08 61.9398 82.192 61.2571 82.192ZM66.0675 82V69.888H68.4675V74.992L68.1795 74.608C68.3822 74.0853 68.7075 73.7013 69.1555 73.456C69.6142 73.2 70.1475 73.072 70.7555 73.072C71.4168 73.072 71.9928 73.2107 72.4835 73.488C72.9848 73.7653 73.3742 74.1547 73.6515 74.656C73.9288 75.1467 74.0675 75.7227 74.0675 76.384V82H71.6675V76.896C71.6675 76.5547 71.5982 76.2613 71.4595 76.016C71.3315 75.7707 71.1448 75.5787 70.8995 75.44C70.6648 75.3013 70.3875 75.232 70.0675 75.232C69.7582 75.232 69.4808 75.3013 69.2355 75.44C68.9902 75.5787 68.7982 75.7707 68.6595 76.016C68.5315 76.2613 68.4675 76.5547 68.4675 76.896V82H66.0675Z" fill="#24333B"/>
<defs>
<linearGradient id="paint0_linear_1313_415" x1="16.3121" y1="56.1873" x2="44.6841" y2="27.8153" gradientUnits="userSpaceOnUse">
<stop stop-color="#FECBA1"/>
<stop offset="1" stop-color="#E86A00"/>
</linearGradient>
<linearGradient id="paint1_linear_1313_415" x1="16.3121" y1="56.1873" x2="44.6841" y2="27.8153" gradientUnits="userSpaceOnUse">
<stop stop-color="#FECBA1"/>
<stop offset="1" stop-color="#E86A00"/>
</linearGradient>
<linearGradient id="paint2_linear_1313_415" x1="53.6801" y1="13.3514" x2="28.0896" y2="39.4981" gradientUnits="userSpaceOnUse">
<stop stop-color="#FECBA1"/>
<stop offset="1" stop-color="#E86A00"/>
</linearGradient>
</defs>
</svg>
