<svg width="128" height="27" viewBox="0 0 128 27" fill="none" xmlns="http://www.w3.org/2000/svg">
<path opacity="0.5" d="M2.776 10.6592C3.304 10.6592 3.744 10.8299 4.096 11.1712C4.45333 11.5126 4.632 11.9392 4.632 12.4512C4.632 12.9632 4.45333 13.3899 4.096 13.7312C3.744 14.0726 3.304 14.2432 2.776 14.2432H1.464V16.2592H0.768V10.6592H2.776ZM2.736 13.5632C3.07733 13.5632 3.35733 13.4592 3.576 13.2512C3.8 13.0379 3.912 12.7712 3.912 12.4512C3.912 12.1312 3.8 11.8672 3.576 11.6592C3.35733 11.4459 3.07733 11.3392 2.736 11.3392H1.464V13.5632H2.736ZM7.46794 16.3552C7.04127 16.3552 6.65194 16.2592 6.29994 16.0672C5.94794 15.8699 5.67327 15.6006 5.47594 15.2592C5.2786 14.9126 5.17994 14.5259 5.17994 14.0992C5.17994 13.4486 5.39594 12.9099 5.82794 12.4832C6.26527 12.0566 6.81194 11.8432 7.46794 11.8432C7.89994 11.8432 8.28927 11.9419 8.63594 12.1392C8.98794 12.3312 9.2626 12.6006 9.45994 12.9472C9.6626 13.2886 9.76394 13.6726 9.76394 14.0992C9.76394 14.7446 9.54527 15.2832 9.10794 15.7152C8.6706 16.1419 8.12394 16.3552 7.46794 16.3552ZM6.32394 15.2512C6.62794 15.5499 7.00927 15.6992 7.46794 15.6992C7.93194 15.6992 8.31327 15.5499 8.61194 15.2512C8.91594 14.9472 9.06794 14.5632 9.06794 14.0992C9.06794 13.6352 8.91594 13.2539 8.61194 12.9552C8.31327 12.6512 7.93194 12.4992 7.46794 12.4992C7.00927 12.4992 6.62794 12.6512 6.32394 12.9552C6.02527 13.2539 5.87594 13.6352 5.87594 14.0992C5.87594 14.5632 6.02527 14.9472 6.32394 15.2512ZM15.9989 11.9392H16.6869L15.2149 16.2592H14.6629L13.4389 13.3152L12.2229 16.2592H11.6709L10.2069 11.9392H10.9189L11.9909 15.1232L13.3189 12.0032H13.5669L14.8949 15.1472L15.9989 11.9392ZM21.5014 14.1152C21.5014 14.1739 21.4961 14.2566 21.4854 14.3632H17.7974C17.8508 14.7632 18.0161 15.0859 18.2934 15.3312C18.5708 15.5712 18.9121 15.6912 19.3174 15.6912C19.6161 15.6912 19.8801 15.6272 20.1094 15.4992C20.3441 15.3659 20.5308 15.1792 20.6694 14.9392H21.3814C21.2001 15.3872 20.9281 15.7366 20.5654 15.9872C20.2028 16.2326 19.7868 16.3552 19.3174 16.3552C18.6934 16.3552 18.1708 16.1392 17.7494 15.7072C17.3281 15.2752 17.1174 14.7392 17.1174 14.0992C17.1174 13.4539 17.3281 12.9179 17.7494 12.4912C18.1708 12.0592 18.6934 11.8432 19.3174 11.8432C19.9628 11.8432 20.4881 12.0619 20.8934 12.4992C21.2988 12.9366 21.5014 13.4752 21.5014 14.1152ZM19.3174 12.4912C19.0614 12.4912 18.8268 12.5419 18.6134 12.6432C18.4054 12.7446 18.2321 12.8912 18.0934 13.0832C17.9548 13.2699 17.8614 13.4859 17.8134 13.7312H20.8134C20.7654 13.4806 20.6721 13.2619 20.5334 13.0752C20.3948 12.8832 20.2214 12.7392 20.0134 12.6432C19.8054 12.5419 19.5734 12.4912 19.3174 12.4912ZM24.4841 11.9152H24.8681V12.5632H24.4281C24.0388 12.5632 23.7348 12.6832 23.5161 12.9232C23.3028 13.1579 23.1961 13.4886 23.1961 13.9152V16.2592H22.5161V11.9392H22.9961L23.1081 12.5952C23.4228 12.1419 23.8815 11.9152 24.4841 11.9152ZM28.9493 10.3952H29.6293V16.2592H29.1093L29.0133 15.6432C28.5866 16.1179 28.0346 16.3552 27.3573 16.3552C26.7066 16.3552 26.1706 16.1419 25.7493 15.7152C25.3333 15.2832 25.1253 14.7446 25.1253 14.0992C25.1253 13.4486 25.3333 12.9099 25.7493 12.4832C26.1706 12.0566 26.7066 11.8432 27.3573 11.8432C27.9973 11.8432 28.5279 12.0566 28.9493 12.4832V10.3952ZM26.2693 15.2432C26.5679 15.5472 26.9439 15.6992 27.3973 15.6992C27.8559 15.6992 28.2373 15.5472 28.5413 15.2432C28.8453 14.9339 28.9973 14.5526 28.9973 14.0992C28.9973 13.6406 28.8453 13.2592 28.5413 12.9552C28.2426 12.6512 27.8639 12.4992 27.4053 12.4992C27.1813 12.4992 26.9706 12.5419 26.7733 12.6272C26.5759 12.7072 26.4079 12.8166 26.2693 12.9552C26.1306 13.0939 26.0213 13.2646 25.9413 13.4672C25.8613 13.6646 25.8213 13.8752 25.8213 14.0992C25.8213 14.5579 25.9706 14.9392 26.2693 15.2432ZM36.2781 13.3552C36.5394 13.4672 36.7447 13.6459 36.8941 13.8912C37.0434 14.1366 37.1181 14.4112 37.1181 14.7152C37.1181 15.1526 36.9554 15.5206 36.6301 15.8192C36.3047 16.1126 35.9021 16.2592 35.4221 16.2592H33.1821V10.6592H35.3901C35.8487 10.6592 36.2247 10.7952 36.5181 11.0672C36.8167 11.3392 36.9661 11.6806 36.9661 12.0912C36.9661 12.3419 36.9021 12.5846 36.7741 12.8192C36.6514 13.0539 36.4861 13.2326 36.2781 13.3552ZM36.2541 12.1872C36.2541 12.0272 36.2141 11.8832 36.1341 11.7552C36.0594 11.6272 35.9554 11.5286 35.8221 11.4592C35.6887 11.3846 35.5394 11.3472 35.3741 11.3472H33.8701V13.0272H35.3821C35.6274 13.0272 35.8327 12.9472 35.9981 12.7872C36.1687 12.6219 36.2541 12.4219 36.2541 12.1872ZM35.4141 15.5632C35.6914 15.5632 35.9234 15.4752 36.1101 15.2992C36.2967 15.1232 36.3901 14.9019 36.3901 14.6352C36.3901 14.3739 36.2967 14.1552 36.1101 13.9792C35.9234 13.8032 35.6914 13.7152 35.4141 13.7152H33.8701V15.5632H35.4141ZM41.4103 11.9392H42.1383L40.0823 16.4352C39.9223 16.7872 39.765 17.0592 39.6103 17.2512C39.4556 17.4432 39.2823 17.5819 39.0903 17.6672C38.8983 17.7579 38.6636 17.8032 38.3863 17.8032H37.9783V17.1872H38.3303C38.6183 17.1872 38.8343 17.1286 38.9783 17.0112C39.1223 16.8939 39.2823 16.6539 39.4583 16.2912L39.6103 15.9632L37.6903 11.9392H38.4343L39.9703 15.2112L41.4103 11.9392Z" fill="#24333B"/>
<path d="M63.0161 15.6106C60.6005 17.4797 59.3758 16.737 57.1988 15.4167L57.197 15.4156L53.6247 18.988C53.2854 19.3273 53.4925 19.9083 53.9698 19.9565L56.5869 20.2207C57.9468 20.358 59.2965 19.877 60.263 18.9105L63.8252 15.3482L63.0161 15.6106Z" fill="url(#paint0_linear_1931_3637)"/>
<path d="M55.9086 8.50309C54.0395 10.9188 54.7822 12.1434 56.1025 14.3205L56.1035 14.3222L52.5312 17.8946C52.1919 18.2338 51.6109 18.0267 51.5627 17.5494L51.2984 14.9323C51.1611 13.5724 51.6422 12.2228 52.6087 11.2563L56.1709 7.69398L55.9086 8.50309Z" fill="url(#paint1_linear_1931_3637)"/>
<path d="M59.605 6.27686L65.0869 6.43261L65.2426 11.9145C65.2782 13.1661 64.7966 14.3771 63.9112 15.2625L61.9495 17.2243L62.3062 16.1511C62.3106 16.1379 62.3131 16.1242 62.3138 16.1103L62.32 15.9865C62.5094 12.187 59.3365 9.07555 55.5413 9.33934C55.5287 9.34022 55.5162 9.34269 55.5041 9.3467L54.0273 9.83791L56.257 7.60828C57.1424 6.72289 58.3534 6.2413 59.605 6.27686Z" fill="url(#paint2_linear_1931_3637)"/>
<path d="M72.9571 17.3706C72.5243 17.3706 72.1163 17.2934 71.733 17.1388C71.3559 16.9781 71.0283 16.7524 70.7501 16.4619C70.4781 16.1713 70.274 15.8282 70.138 15.4326L71.3157 14.904C71.4888 15.2811 71.7268 15.5779 72.0298 15.7942C72.3389 16.0106 72.6789 16.1188 73.0498 16.1188C73.2476 16.1188 73.4176 16.0879 73.5598 16.026C73.702 15.9642 73.8133 15.8808 73.8936 15.7757C73.974 15.6644 74.0142 15.5346 74.0142 15.3862C74.0142 15.2255 73.9647 15.0895 73.8658 14.9782C73.7669 14.8607 73.6124 14.768 73.4022 14.7L72.0483 14.2549C71.4981 14.0756 71.0839 13.8221 70.8057 13.4945C70.5275 13.1607 70.3884 12.7619 70.3884 12.2983C70.3884 11.8903 70.4873 11.5317 70.6852 11.2226C70.8892 10.9135 71.1704 10.6724 71.529 10.4993C71.8937 10.3262 72.311 10.2396 72.7809 10.2396C73.1951 10.2396 73.5784 10.3107 73.9307 10.4529C74.2831 10.5951 74.586 10.796 74.8395 11.0557C75.0991 11.3153 75.2939 11.6275 75.4237 11.9923L74.2553 12.5208C74.1255 12.1994 73.9307 11.949 73.6711 11.7697C73.4114 11.5842 73.1147 11.4915 72.7809 11.4915C72.5892 11.4915 72.4192 11.5224 72.2709 11.5842C72.1225 11.6461 72.0081 11.7357 71.9277 11.8532C71.8474 11.9644 71.8072 12.0943 71.8072 12.2426C71.8072 12.4034 71.8597 12.5456 71.9648 12.6692C72.0699 12.7867 72.2276 12.8794 72.4378 12.9474L73.7638 13.3739C74.3202 13.5532 74.7344 13.8036 75.0064 14.1251C75.2846 14.4465 75.4237 14.8391 75.4237 15.3027C75.4237 15.7046 75.3186 16.0631 75.1084 16.3784C74.8982 16.6875 74.6077 16.9317 74.2367 17.111C73.872 17.2841 73.4454 17.3706 72.9571 17.3706ZM78.7848 17.3706C78.247 17.3706 77.7802 17.2532 77.3846 17.0183C76.9889 16.7772 76.6829 16.4557 76.4666 16.0539C76.2502 15.652 76.142 15.2069 76.142 14.7185C76.142 14.2116 76.2533 13.7603 76.4758 13.3647C76.7046 12.969 77.0106 12.6568 77.3939 12.4281C77.7772 12.1994 78.2099 12.085 78.6921 12.085C79.0939 12.085 79.4494 12.1499 79.7585 12.2797C80.0676 12.4034 80.3272 12.5796 80.5374 12.8083C80.7538 13.037 80.9176 13.3029 81.0289 13.6058C81.1402 13.9025 81.1958 14.2271 81.1958 14.5794C81.1958 14.6784 81.1896 14.7773 81.1773 14.8762C81.1711 14.9689 81.1556 15.0493 81.1309 15.1173H77.3382V14.0972H80.3427L79.6843 14.5794C79.7461 14.3136 79.743 14.0787 79.675 13.8747C79.607 13.6645 79.4865 13.5007 79.3134 13.3832C79.1465 13.2596 78.9394 13.1978 78.6921 13.1978C78.451 13.1978 78.2439 13.2565 78.0708 13.3739C77.8977 13.4914 77.7679 13.6645 77.6813 13.8932C77.5948 14.122 77.5608 14.4002 77.5793 14.7278C77.5546 15.0122 77.5886 15.2626 77.6813 15.4789C77.7741 15.6953 77.9162 15.8653 78.1079 15.989C78.2995 16.1064 78.5314 16.1651 78.8034 16.1651C79.0507 16.1651 79.2608 16.1157 79.4339 16.0168C79.6132 15.9179 79.7523 15.7819 79.8512 15.6088L80.964 16.1373C80.8651 16.3846 80.7074 16.601 80.4911 16.7864C80.2809 16.9719 80.0305 17.1172 79.74 17.2223C79.4494 17.3212 79.131 17.3706 78.7848 17.3706ZM84.5279 17.3706C84.0272 17.3706 83.5697 17.2563 83.1555 17.0275C82.7475 16.7988 82.4198 16.4866 82.1725 16.091C81.9314 15.6891 81.8109 15.2347 81.8109 14.7278C81.8109 14.2147 81.9314 13.7603 82.1725 13.3647C82.4198 12.969 82.7475 12.6568 83.1555 12.4281C83.5697 12.1994 84.0272 12.085 84.5279 12.085C85.0287 12.085 85.483 12.1994 85.891 12.4281C86.2991 12.6568 86.6236 12.969 86.8647 13.3647C87.112 13.7603 87.2356 14.2147 87.2356 14.7278C87.2356 15.2347 87.112 15.6891 86.8647 16.091C86.6236 16.4866 86.2991 16.7988 85.891 17.0275C85.483 17.2563 85.0287 17.3706 84.5279 17.3706ZM84.5279 16.1188C84.7814 16.1188 85.0008 16.0601 85.1863 15.9426C85.3779 15.8251 85.5263 15.6613 85.6314 15.4511C85.7427 15.2409 85.7983 14.9998 85.7983 14.7278C85.7983 14.4558 85.7427 14.2178 85.6314 14.0138C85.5263 13.8036 85.3779 13.6398 85.1863 13.5223C85.0008 13.3987 84.7814 13.3369 84.5279 13.3369C84.2744 13.3369 84.0519 13.3987 83.8602 13.5223C83.6686 13.6398 83.5171 13.8036 83.4059 14.0138C83.3008 14.2178 83.2482 14.4558 83.2482 14.7278C83.2482 14.9998 83.3008 15.2409 83.4059 15.4511C83.5171 15.6613 83.6686 15.8251 83.8602 15.9426C84.0519 16.0601 84.2744 16.1188 84.5279 16.1188ZM88.1571 17.2594V10.3509H90.7999C91.2759 10.3509 91.6963 10.4344 92.0611 10.6013C92.432 10.7682 92.7225 11.0155 92.9327 11.3431C93.1429 11.6708 93.248 12.0757 93.248 12.5579C93.248 13.0278 93.1398 13.4296 92.9234 13.7634C92.7071 14.0911 92.4165 14.3383 92.0518 14.5053L93.6282 17.2594H92.0147L90.3084 14.2085L91.2357 14.7556H89.5944V17.2594H88.1571ZM89.5944 13.5038H90.8092C91.0132 13.5038 91.1894 13.4636 91.3378 13.3832C91.4861 13.3029 91.6005 13.1916 91.6809 13.0494C91.7674 12.9072 91.8107 12.7434 91.8107 12.5579C91.8107 12.3663 91.7674 12.1994 91.6809 12.0572C91.6005 11.915 91.4861 11.8037 91.3378 11.7233C91.1894 11.643 91.0132 11.6028 90.8092 11.6028H89.5944V13.5038ZM96.0577 17.3706C95.6497 17.3706 95.3004 17.2841 95.0098 17.111C94.7254 16.9317 94.5091 16.6844 94.3607 16.3692C94.2123 16.0539 94.1382 15.686 94.1382 15.2657V12.1963H95.5291V15.1544C95.5291 15.346 95.5662 15.516 95.6404 15.6644C95.7208 15.8066 95.832 15.9179 95.9742 15.9982C96.1164 16.0786 96.2771 16.1188 96.4564 16.1188C96.6419 16.1188 96.8026 16.0786 96.9386 15.9982C97.0808 15.9179 97.189 15.8066 97.2632 15.6644C97.3435 15.516 97.3837 15.346 97.3837 15.1544V12.1963H98.7747V17.2594H97.4765V16.2579L97.5506 16.4804C97.4332 16.7834 97.2415 17.009 96.9757 17.1574C96.7161 17.2996 96.4101 17.3706 96.0577 17.3706ZM101.776 17.3706C101.219 17.3706 100.734 17.2408 100.32 16.9812C99.9119 16.7153 99.6337 16.3599 99.4853 15.9148L100.505 15.4326C100.635 15.7046 100.811 15.9179 101.034 16.0724C101.256 16.227 101.504 16.3042 101.776 16.3042C101.974 16.3042 102.125 16.2641 102.23 16.1837C102.335 16.1033 102.388 15.992 102.388 15.8499C102.388 15.7757 102.369 15.7139 102.332 15.6644C102.295 15.6088 102.239 15.5593 102.165 15.516C102.091 15.4728 101.998 15.4357 101.887 15.4048L101.025 15.1637C100.61 15.0462 100.292 14.8576 100.07 14.598C99.847 14.3322 99.7357 14.02 99.7357 13.6614C99.7357 13.3461 99.8161 13.071 99.9768 12.8361C100.138 12.6012 100.363 12.4188 100.654 12.289C100.944 12.153 101.278 12.085 101.655 12.085C102.15 12.085 102.583 12.2024 102.953 12.4374C103.331 12.6661 103.596 12.9907 103.751 13.411L102.722 13.8932C102.647 13.6831 102.511 13.5161 102.314 13.3925C102.122 13.2627 101.902 13.1978 101.655 13.1978C101.476 13.1978 101.334 13.2349 101.229 13.309C101.13 13.3832 101.08 13.4852 101.08 13.615C101.08 13.6831 101.099 13.7449 101.136 13.8005C101.173 13.8561 101.232 13.9056 101.312 13.9489C101.399 13.9922 101.504 14.0323 101.627 14.0694L102.434 14.3105C102.855 14.4342 103.176 14.6227 103.399 14.8762C103.621 15.1235 103.732 15.4295 103.732 15.7942C103.732 16.1095 103.649 16.3846 103.482 16.6195C103.321 16.8544 103.096 17.0399 102.805 17.1759C102.515 17.3057 102.171 17.3706 101.776 17.3706ZM104.564 17.2594V10.2396H105.955V13.1978L105.788 12.9752C105.905 12.6723 106.094 12.4497 106.353 12.3075C106.619 12.1592 106.928 12.085 107.281 12.085C107.664 12.085 107.998 12.1654 108.282 12.3261C108.573 12.4868 108.798 12.7125 108.959 13.003C109.12 13.2874 109.2 13.6212 109.2 14.0045V17.2594H107.809V14.3013C107.809 14.1034 107.769 13.9334 107.689 13.7912C107.615 13.649 107.506 13.5378 107.364 13.4574C107.228 13.377 107.067 13.3369 106.882 13.3369C106.703 13.3369 106.542 13.377 106.4 13.4574C106.258 13.5378 106.146 13.649 106.066 13.7912C105.992 13.9334 105.955 14.1034 105.955 14.3013V17.2594H104.564ZM110.801 17.2594V15.8684H112.192V17.2594H110.801ZM113.9 17.2594V12.1963H115.198V13.4296L115.059 13.2256C115.133 12.8361 115.313 12.5486 115.597 12.3632C115.882 12.1777 116.222 12.085 116.617 12.085C117.038 12.085 117.405 12.1932 117.721 12.4095C118.042 12.6197 118.243 12.9041 118.323 13.2627L117.925 13.2998C118.092 12.8856 118.33 12.5796 118.639 12.3817C118.948 12.1839 119.309 12.085 119.724 12.085C120.088 12.085 120.41 12.1654 120.688 12.3261C120.972 12.4868 121.195 12.7125 121.356 13.003C121.516 13.2874 121.597 13.6212 121.597 14.0045V17.2594H120.206V14.3013C120.206 14.1034 120.169 13.9334 120.095 13.7912C120.027 13.649 119.928 13.5378 119.798 13.4574C119.668 13.377 119.51 13.3369 119.325 13.3369C119.146 13.3369 118.988 13.377 118.852 13.4574C118.722 13.5378 118.62 13.649 118.546 13.7912C118.478 13.9334 118.444 14.1034 118.444 14.3013V17.2594H117.053V14.3013C117.053 14.1034 117.016 13.9334 116.942 13.7912C116.874 13.649 116.775 13.5378 116.645 13.4574C116.515 13.377 116.358 13.3369 116.172 13.3369C115.993 13.3369 115.835 13.377 115.699 13.4574C115.569 13.5378 115.467 13.649 115.393 13.7912C115.325 13.9334 115.291 14.1034 115.291 14.3013V17.2594H113.9ZM124.951 17.3706C124.413 17.3706 123.946 17.2532 123.551 17.0183C123.155 16.7772 122.849 16.4557 122.633 16.0539C122.416 15.652 122.308 15.2069 122.308 14.7185C122.308 14.2116 122.419 13.7603 122.642 13.3647C122.871 12.969 123.177 12.6568 123.56 12.4281C123.943 12.1994 124.376 12.085 124.858 12.085C125.26 12.085 125.616 12.1499 125.925 12.2797C126.234 12.4034 126.493 12.5796 126.704 12.8083C126.92 13.037 127.084 13.3029 127.195 13.6058C127.306 13.9025 127.362 14.2271 127.362 14.5794C127.362 14.6784 127.356 14.7773 127.343 14.8762C127.337 14.9689 127.322 15.0493 127.297 15.1173H123.504V14.0972H126.509L125.85 14.5794C125.912 14.3136 125.909 14.0787 125.841 13.8747C125.773 13.6645 125.653 13.5007 125.48 13.3832C125.313 13.2596 125.106 13.1978 124.858 13.1978C124.617 13.1978 124.41 13.2565 124.237 13.3739C124.064 13.4914 123.934 13.6645 123.848 13.8932C123.761 14.122 123.727 14.4002 123.746 14.7278C123.721 15.0122 123.755 15.2626 123.848 15.4789C123.94 15.6953 124.082 15.8653 124.274 15.989C124.466 16.1064 124.698 16.1651 124.97 16.1651C125.217 16.1651 125.427 16.1157 125.6 16.0168C125.779 15.9179 125.918 15.7819 126.017 15.6088L127.13 16.1373C127.031 16.3846 126.874 16.601 126.657 16.7864C126.447 16.9719 126.197 17.1172 125.906 17.2223C125.616 17.3212 125.297 17.3706 124.951 17.3706Z" fill="#24333B"/>
<defs>
<linearGradient id="paint0_linear_1931_3637" x1="50.2331" y1="21.2861" x2="60.9814" y2="10.5378" gradientUnits="userSpaceOnUse">
<stop stop-color="#FECBA1"/>
<stop offset="1" stop-color="#E86A00"/>
</linearGradient>
<linearGradient id="paint1_linear_1931_3637" x1="50.2331" y1="21.2861" x2="60.9814" y2="10.5378" gradientUnits="userSpaceOnUse">
<stop stop-color="#FECBA1"/>
<stop offset="1" stop-color="#E86A00"/>
</linearGradient>
<linearGradient id="paint2_linear_1931_3637" x1="53.0957" y1="18.1337" x2="62.4705" y2="8.52957" gradientUnits="userSpaceOnUse">
<stop stop-color="#FECBA1"/>
<stop offset="1" stop-color="#E86A00"/>
</linearGradient>
</defs>
</svg>
