<svg width="900" height="561" viewBox="0 0 900 561" fill="none" xmlns="http://www.w3.org/2000/svg">
    <g clip-path="url(#clip0_1350_3042)">
        <rect width="900" height="561" fill="#263040"/>
        <g clip-path="url(#clip1_1350_3042)" filter="url(#filter0_d_1350_3042)">
            <rect width="900" height="561" fill="url(#paint0_linear_1350_3042)"/>
            <g clip-path="url(#clip2_1350_3042)">
                <path opacity="0.17"
                      d="M182 1.5C182 101.74 100.74 183 0.5 183C-99.7397 183 -181 101.74 -181 1.5C-181 -98.7397 -99.7397 -180 0.5 -180C100.74 -180 182 -98.7397 182 1.5ZM-133.507 1.5C-133.507 75.5098 -73.5098 135.507 0.5 135.507C74.5098 135.507 134.507 75.5098 134.507 1.5C134.507 -72.5098 74.5098 -132.507 0.5 -132.507C-73.5098 -132.507 -133.507 -72.5098 -133.507 1.5Z"
                      fill="#2D324A"/>
                <path opacity="0.26"
                      d="M414 261.5C414 290.495 390.495 314 361.5 314C332.505 314 309 290.495 309 261.5C309 232.505 332.505 209 361.5 209C390.495 209 414 232.505 414 261.5ZM330.089 261.5C330.089 278.848 344.152 292.911 361.5 292.911C378.848 292.911 392.911 278.848 392.911 261.5C392.911 244.152 378.848 230.089 361.5 230.089C344.152 230.089 330.089 244.152 330.089 261.5Z"
                      fill="#2D324A"/>
                <path opacity="0.26"
                      d="M447 1.5C447 10.6127 439.613 18 430.5 18C421.387 18 414 10.6127 414 1.5C414 -7.6127 421.387 -15 430.5 -15C439.613 -15 447 -7.6127 447 1.5ZM420.628 1.5C420.628 6.95223 425.048 11.3721 430.5 11.3721C435.952 11.3721 440.372 6.95223 440.372 1.5C440.372 -3.95223 435.952 -8.37214 430.5 -8.37214C425.048 -8.37214 420.628 -3.95223 420.628 1.5Z"
                      fill="#2D324A"/>
                <g opacity="0.14" filter="url(#filter1_f_1350_3042)">
                    <circle cx="18" cy="28" r="206" fill="#C493F3"/>
                </g>
                <g filter="url(#filter2_i_1350_3042)">
                    <circle cx="0.5" cy="1.5" r="58.5" fill="#C493F3"/>
                </g>
                <circle cx="18.5" cy="243.5" r="3.5" fill="#C493F3"/>
                <circle opacity="0.2" cx="219" cy="232" r="2" fill="#C493F3"/>
                <circle cx="162" cy="434" r="2" fill="url(#paint1_linear_1350_3042)"/>
                <circle opacity="0.6" cx="431" cy="234" r="2" fill="url(#paint2_linear_1350_3042)"/>
                <circle cx="315" r="4" fill="url(#paint3_linear_1350_3042)"/>
            </g>
        </g>
    </g>
    <defs>
        <filter id="filter0_d_1350_3042" x="-60" y="-46" width="1020" height="681" filterUnits="userSpaceOnUse"
                color-interpolation-filters="sRGB">
            <feFlood flood-opacity="0" result="BackgroundImageFix"/>
            <feColorMatrix in="SourceAlpha" type="matrix" values="0 0 0 0 0 0 0 0 0 0 0 0 0 0 0 0 0 0 127 0"
                           result="hardAlpha"/>
            <feOffset dy="14"/>
            <feGaussianBlur stdDeviation="30"/>
            <feComposite in2="hardAlpha" operator="out"/>
            <feColorMatrix type="matrix" values="0 0 0 0 0.0431373 0 0 0 0 0.0745098 0 0 0 0 0.101961 0 0 0 0.04 0"/>
            <feBlend mode="normal" in2="BackgroundImageFix" result="effect1_dropShadow_1350_3042"/>
            <feBlend mode="normal" in="SourceGraphic" in2="effect1_dropShadow_1350_3042" result="shape"/>
        </filter>
        <filter id="filter1_f_1350_3042" x="-352.1" y="-342.1" width="740.2" height="740.2" filterUnits="userSpaceOnUse"
                color-interpolation-filters="sRGB">
            <feFlood flood-opacity="0" result="BackgroundImageFix"/>
            <feBlend mode="normal" in="SourceGraphic" in2="BackgroundImageFix" result="shape"/>
            <feGaussianBlur stdDeviation="82.05" result="effect1_foregroundBlur_1350_3042"/>
        </filter>
        <filter id="filter2_i_1350_3042" x="-58" y="-57" width="117" height="117" filterUnits="userSpaceOnUse"
                color-interpolation-filters="sRGB">
            <feFlood flood-opacity="0" result="BackgroundImageFix"/>
            <feBlend mode="normal" in="SourceGraphic" in2="BackgroundImageFix" result="shape"/>
            <feColorMatrix in="SourceAlpha" type="matrix" values="0 0 0 0 0 0 0 0 0 0 0 0 0 0 0 0 0 0 127 0"
                           result="hardAlpha"/>
            <feOffset/>
            <feGaussianBlur stdDeviation="8.75"/>
            <feComposite in2="hardAlpha" operator="arithmetic" k2="-1" k3="1"/>
            <feColorMatrix type="matrix" values="0 0 0 0 1 0 0 0 0 1 0 0 0 0 1 0 0 0 0.45 0"/>
            <feBlend mode="normal" in2="shape" result="effect1_innerShadow_1350_3042"/>
        </filter>
        <linearGradient id="paint0_linear_1350_3042" x1="18" y1="-69.7067" x2="798.839" y2="592.854"
                        gradientUnits="userSpaceOnUse">
            <stop stop-color="#393F59"/>
            <stop offset="1" stop-color="#2A304A"/>
        </linearGradient>
        <linearGradient id="paint1_linear_1350_3042" x1="160" y1="434" x2="164" y2="434" gradientUnits="userSpaceOnUse">
            <stop stop-color="#84FAB0"/>
            <stop offset="1" stop-color="#8FD3F4"/>
        </linearGradient>
        <linearGradient id="paint2_linear_1350_3042" x1="429" y1="234" x2="433" y2="234" gradientUnits="userSpaceOnUse">
            <stop stop-color="#84FAB0"/>
            <stop offset="1" stop-color="#8FD3F4"/>
        </linearGradient>
        <linearGradient id="paint3_linear_1350_3042" x1="311" y1="0" x2="319" y2="0" gradientUnits="userSpaceOnUse">
            <stop stop-color="#84FAB0"/>
            <stop offset="1" stop-color="#8FD3F4"/>
        </linearGradient>
        <clipPath id="clip0_1350_3042">
            <rect width="900" height="561" fill="white"/>
        </clipPath>
        <clipPath id="clip1_1350_3042">
            <rect width="900" height="561" fill="white"/>
        </clipPath>
        <clipPath id="clip2_1350_3042">
            <rect width="900" height="561" fill="white"/>
        </clipPath>
    </defs>
</svg>
