<svg width="26" height="26" viewBox="0 0 26 26" fill="none" xmlns="http://www.w3.org/2000/svg">
<rect width="26" height="26" rx="13" fill="#DE3737"/>
<g clip-path="url(#clip0_982_11084)">
<path fill-rule="evenodd" clip-rule="evenodd" d="M20.959 9.74916C20.8822 9.16609 20.6595 8.61182 20.3116 8.13767C19.8804 7.70333 19.2957 7.45605 18.6837 7.44926C16.4134 7.28516 13.0009 7.28516 13.0009 7.28516C13.0009 7.28516 9.58998 7.28516 7.31634 7.44926C6.70464 7.45627 6.12024 7.70353 5.68926 8.13767C5.33901 8.61091 5.11585 9.16599 5.04106 9.74998C4.93942 10.6233 4.88464 11.5014 4.87695 12.3805V13.6113C4.88464 14.4905 4.93942 15.3686 5.04106 16.2419C5.11818 16.8261 5.33972 17.3824 5.68434 17.8599C6.17993 18.2997 6.81665 18.5467 7.4788 18.5557C8.77767 18.6796 13.0017 18.7198 13.0017 18.7198C13.0017 18.7198 16.4158 18.7198 18.6862 18.5557C19.2986 18.5489 19.8837 18.3013 20.3149 17.8665C20.6611 17.3913 20.8831 16.837 20.9606 16.2542C21.0623 15.3809 21.1171 14.5028 21.1247 13.6236V12.3797C21.115 11.5006 21.0597 10.6226 20.959 9.74916ZM11.3656 15.1268V10.5155L15.7963 12.8285L11.3656 15.1268Z" fill="white"/>
</g>
<defs>
<clipPath id="clip0_982_11084">
<rect width="16" height="16" fill="white" transform="translate(5 5)"/>
</clipPath>
</defs>
</svg>
