<svg width="27" height="26" viewBox="0 0 27 26" fill="none" xmlns="http://www.w3.org/2000/svg">
    <path d="M0.5 13C0.5 5.8203 6.3203 0 13.5 0C20.6797 0 26.5 5.8203 26.5 13C26.5 20.1797 20.6797 26 13.5 26C6.3203 26 0.5 20.1797 0.5 13Z"
          fill="url(#paint0_linear_982_11076)"/>
    <path fill-rule="evenodd" clip-rule="evenodd"
          d="M13.5001 5.41602C11.4404 5.41602 11.1826 5.42461 10.3737 5.46152C9.56635 5.49842 9.01479 5.62683 8.53249 5.81439C8.02694 6.00448 7.5684 6.30276 7.18923 6.689C6.8036 7.06773 6.50514 7.52595 6.31462 8.03176C6.12807 8.51406 5.99915 9.06613 5.96225 9.8735C5.92585 10.6819 5.91675 10.9392 5.91675 12.9993C5.91675 15.0595 5.92534 15.3168 5.96225 16.1257C5.99915 16.9331 6.12756 17.4846 6.31513 17.9669C6.50521 18.4725 6.80349 18.931 7.18974 19.3102C7.56848 19.6958 8.02669 19.9943 8.53249 20.1848C9.01479 20.3719 9.56635 20.5003 10.3737 20.5372C11.1826 20.5741 11.4404 20.5827 13.5001 20.5827C15.5597 20.5827 15.8175 20.5741 16.6264 20.5372C17.4338 20.5003 17.9854 20.3719 18.4677 20.1843C18.9732 19.9942 19.4318 19.6959 19.8109 19.3097C20.1966 18.931 20.495 18.4727 20.6855 17.9669C20.8726 17.4846 21.001 16.9331 21.0379 16.1257C21.0748 15.3168 21.0834 15.059 21.0834 12.9993C21.0834 10.9397 21.0748 10.6819 21.0379 9.87299C21.001 9.06562 20.8726 8.51406 20.685 8.03176C20.4947 7.52573 20.1962 7.06732 19.8104 6.6885C19.4317 6.30287 18.9735 6.00441 18.4677 5.81389C17.9854 5.62734 17.4333 5.49842 16.6259 5.46152C15.8175 5.42512 15.5602 5.41602 13.5001 5.41602ZM13.5001 6.78253C15.5248 6.78253 15.765 6.79012 16.5648 6.82652C17.3039 6.86039 17.7053 6.98324 17.9727 7.08789C18.3266 7.22489 18.5794 7.3897 18.8448 7.65462C19.1102 7.92003 19.2745 8.17281 19.4115 8.5267C19.5157 8.79414 19.639 9.19555 19.6729 9.93467C19.7093 10.7345 19.7169 10.9746 19.7169 12.9993C19.7169 15.0241 19.7093 15.2642 19.6729 16.064C19.639 16.8031 19.5162 17.2046 19.4115 17.472C19.2902 17.8014 19.0965 18.0994 18.8448 18.3441C18.6002 18.5958 18.3022 18.7895 17.9727 18.9108C17.7053 19.015 17.3039 19.1383 16.5648 19.1722C15.765 19.2086 15.5253 19.2162 13.5001 19.2162C11.4748 19.2162 11.2352 19.2086 10.4354 19.1722C9.69628 19.1383 9.29487 19.0155 9.02743 18.9108C8.69804 18.7894 8.40004 18.5958 8.15535 18.3441C7.90367 18.0994 7.71002 17.8014 7.58862 17.472C7.48448 17.2046 7.36112 16.8031 7.32725 16.064C7.29085 15.2642 7.28326 15.0241 7.28326 12.9993C7.28326 10.9746 7.29085 10.7345 7.32725 9.93467C7.36112 9.19555 7.48397 8.79414 7.58862 8.5267C7.72563 8.17281 7.89044 7.92003 8.15535 7.65462C8.40001 7.40287 8.69802 7.20921 9.02743 7.08789C9.29487 6.98374 9.69628 6.86039 10.4354 6.82652C11.2352 6.79012 11.4753 6.78253 13.5001 6.78253Z"
          fill="white"/>
    <path fill-rule="evenodd" clip-rule="evenodd"
          d="M13.4913 15.443C13.1688 15.443 12.8495 15.3784 12.5515 15.253C12.2536 15.1276 11.9828 14.9438 11.7548 14.7121C11.5268 14.4804 11.3459 14.2053 11.2224 13.9025C11.099 13.5998 11.0355 13.2753 11.0355 12.9476C11.0355 12.6199 11.099 12.2954 11.2224 11.9926C11.3459 11.6899 11.5268 11.4148 11.7548 11.183C11.9828 10.9513 12.2536 10.7675 12.5515 10.6421C12.8495 10.5167 13.1688 10.4521 13.4913 10.4521C14.1426 10.4521 14.7673 10.7151 15.2278 11.183C15.6884 11.651 15.9471 12.2857 15.9471 12.9476C15.9471 13.6094 15.6884 14.2441 15.2278 14.7121C14.7673 15.1801 14.1426 15.443 13.4913 15.443ZM13.4913 9.10347C12.488 9.10347 11.5257 9.50848 10.8163 10.2294C10.1068 10.9503 9.70825 11.9281 9.70825 12.9476C9.70825 13.9671 10.1068 14.9448 10.8163 15.6658C11.5257 16.3867 12.488 16.7917 13.4913 16.7917C14.4946 16.7917 15.4569 16.3867 16.1663 15.6658C16.8758 14.9448 17.2744 13.9671 17.2744 12.9476C17.2744 11.9281 16.8758 10.9503 16.1663 10.2294C15.4569 9.50848 14.4946 9.10347 13.4913 9.10347ZM18.3749 9.03367C18.3749 9.27467 18.2807 9.50579 18.113 9.6762C17.9453 9.84661 17.7178 9.94235 17.4807 9.94235C17.2435 9.94235 17.0161 9.84661 16.8484 9.6762C16.6807 9.50579 16.5864 9.27467 16.5864 9.03367C16.5864 8.79268 16.6807 8.56155 16.8484 8.39114C17.0161 8.22074 17.2435 8.125 17.4807 8.125C17.7178 8.125 17.9453 8.22074 18.113 8.39114C18.2807 8.56155 18.3749 8.79268 18.3749 9.03367Z"
          fill="white"/>
    <defs>
        <linearGradient id="paint0_linear_982_11076" x1="0.500001" y1="26" x2="26.5" y2="5.47909e-07"
                        gradientUnits="userSpaceOnUse">
            <stop stop-color="#FF8A00"/>
            <stop offset="0.45721" stop-color="#D14A6E"/>
            <stop offset="1" stop-color="#1015F0"/>
        </linearGradient>
    </defs>
</svg>
