<svg width="27" height="26" viewBox="0 0 27 26" fill="none" xmlns="http://www.w3.org/2000/svg">
<path d="M0.5 13C0.5 5.8203 6.3203 0 13.5 0C20.6797 0 26.5 5.8203 26.5 13C26.5 20.1797 20.6797 26 13.5 26C6.3203 26 0.5 20.1797 0.5 13Z" fill="#0A66C2"/>
<path fill-rule="evenodd" clip-rule="evenodd" d="M9.88098 8.02896C9.88098 8.87889 9.24121 9.55898 8.21396 9.55898H8.19513C7.20606 9.55898 6.56665 8.87889 6.56665 8.02896C6.56665 7.16105 7.22554 6.5 8.23338 6.5C9.24121 6.5 9.86186 7.16105 9.88098 8.02896ZM9.68689 10.7672V19.619H6.7408V10.7672H9.68689ZM20.3115 19.6189L20.3116 14.5436C20.3116 11.8247 18.8582 10.5593 16.9195 10.5593C15.3554 10.5593 14.655 11.4185 14.264 12.0212V10.7674H11.3176C11.3564 11.598 11.3176 19.6192 11.3176 19.6192H14.264V14.6756C14.264 14.4111 14.2832 14.1472 14.3611 13.9578C14.574 13.4293 15.0588 12.8821 15.8727 12.8821C16.9392 12.8821 17.3655 13.6937 17.3655 14.8832V19.6189H20.3115Z" fill="white"/>
</svg>
