<svg width="27" height="26" viewBox="0 0 27 26" fill="none" xmlns="http://www.w3.org/2000/svg">
<g clip-path="url(#clip0_1050_1400)">
<path d="M13.5 26C20.6797 26 26.5 20.1797 26.5 13C26.5 5.8203 20.6797 0 13.5 0C6.3203 0 0.5 5.8203 0.5 13C0.5 20.1797 6.3203 26 13.5 26Z" fill="#FF4500"/>
<path d="M22.1481 13.1234C22.1481 12.0696 21.2959 11.2326 20.2574 11.2326C19.7668 11.2319 19.2948 11.4207 18.9401 11.7596C17.6383 10.8296 15.8558 10.2253 13.8721 10.1478L14.7399 6.08725L17.5606 6.69155C17.5917 7.40452 18.1805 7.97804 18.9091 7.97804C19.653 7.97804 20.2574 7.37374 20.2574 6.62949C20.2574 5.88565 19.6531 5.28125 18.9091 5.28125C18.3822 5.28125 17.9171 5.59122 17.7001 6.04073L14.5541 5.37428C14.4611 5.35864 14.3681 5.37428 14.306 5.4208C14.2285 5.46731 14.1821 5.5447 14.1668 5.63773L13.2056 10.1632C11.1909 10.2253 9.37747 10.8296 8.06021 11.7752C7.70541 11.4363 7.23346 11.2475 6.74284 11.2483C5.68893 11.2483 4.85205 12.1005 4.85205 13.139C4.85205 13.9139 5.3169 14.5647 5.96802 14.8594C5.9364 15.0489 5.92084 15.2407 5.9215 15.4328C5.9215 18.3462 9.31572 20.7177 13.5002 20.7177C17.6848 20.7177 21.079 18.3619 21.079 15.4328C21.079 15.2407 21.0635 15.049 21.0325 14.8594C21.6833 14.5647 22.1481 13.8982 22.1481 13.1234ZM9.16054 14.4716C9.16054 13.7278 9.76483 13.1234 10.5091 13.1234C11.2529 13.1234 11.8573 13.7277 11.8573 14.4716C11.8573 15.2156 11.253 15.8202 10.5091 15.8202C9.76493 15.8354 9.16054 15.2156 9.16054 14.4716ZM16.7084 18.0518C15.7785 18.9818 14.0116 19.0439 13.5002 19.0439C12.9733 19.0439 11.2065 18.9662 10.2918 18.0518C10.1526 17.9124 10.1526 17.6953 10.2918 17.5559C10.4314 17.4166 10.6483 17.4166 10.7879 17.5559C11.3769 18.145 12.6168 18.3462 13.5002 18.3462C14.3836 18.3462 15.6389 18.1449 16.2123 17.5559C16.3519 17.4166 16.5688 17.4166 16.7084 17.5559C16.8323 17.6953 16.8323 17.9124 16.7084 18.0518ZM16.4602 15.8355C15.7163 15.8355 15.112 15.2312 15.112 14.4873C15.112 13.7433 15.7163 13.139 16.4602 13.139C17.2044 13.139 17.8087 13.7433 17.8087 14.4873C17.8087 15.2155 17.2044 15.8355 16.4602 15.8355Z" fill="white"/>
</g>
<defs>
<clipPath id="clip0_1050_1400">
<rect width="26" height="26" fill="white" transform="translate(0.5)"/>
</clipPath>
</defs>
</svg>
