<svg width="27" height="26" viewBox="0 0 27 26" fill="none" xmlns="http://www.w3.org/2000/svg">
<g clip-path="url(#clip0_1050_1447)">
<path d="M13.5 0.40625C6.31855 0.40625 0.5 6.04297 0.5 13C0.5 19.957 6.31855 25.5938 13.5 25.5938C20.6815 25.5938 26.5 19.957 26.5 13C26.5 6.04297 20.6815 0.40625 13.5 0.40625ZM22.3851 17.616C22.2016 18.0273 21.4363 18.327 20.0367 18.5402C19.9633 18.6367 19.9056 19.0379 19.8113 19.3477C19.7536 19.5355 19.6173 19.6473 19.3867 19.6473H19.3762C19.0512 19.6473 18.7052 19.5 18.0238 19.5C17.1012 19.5 16.7815 19.7031 16.0633 20.1957C15.3032 20.7188 14.5746 21.1656 13.4843 21.1199C12.3835 21.2012 11.4609 20.5512 10.9419 20.1957C10.2185 19.7031 9.90403 19.5 8.98145 19.5C8.32621 19.5 7.9121 19.6574 7.62903 19.6574C7.34597 19.6574 7.23589 19.4898 7.19395 19.3527C7.0996 19.043 7.04194 18.6367 6.96855 18.5402C6.24516 18.4336 4.62016 18.1594 4.58347 17.4535C4.57298 17.2707 4.70403 17.1082 4.89274 17.0777C7.31976 16.6918 8.41008 14.2797 8.45726 14.1781C8.45726 14.173 8.4625 14.168 8.46774 14.1629C8.59879 13.909 8.625 13.6957 8.55161 13.5281C8.37339 13.127 7.61331 12.9848 7.29355 12.8578C6.46532 12.543 6.35 12.1773 6.40242 11.9285C6.48629 11.4969 7.15726 11.2277 7.5504 11.4055C7.85968 11.5477 8.1375 11.6188 8.37339 11.6188C8.54637 11.6188 8.66169 11.5781 8.71935 11.5477C8.64597 10.334 8.47298 8.60234 8.91855 7.63242C10.098 5.07812 12.5931 4.875 13.327 4.875C13.3585 4.875 13.6468 4.86992 13.6782 4.86992C15.4972 4.86992 17.2427 5.77383 18.0972 7.62734C18.5427 8.59727 18.3698 10.3238 18.2964 11.5426C18.354 11.573 18.4484 11.6086 18.5952 11.6137C18.8206 11.6035 19.0774 11.5324 19.3657 11.4004C19.5754 11.3039 19.869 11.3191 20.0786 11.4004C20.4089 11.5172 20.6185 11.7457 20.6238 12.0047C20.629 12.3348 20.325 12.6191 19.7222 12.8477C19.6488 12.8781 19.5597 12.9035 19.4653 12.934C19.1246 13.0406 18.6056 13.198 18.4694 13.518C18.396 13.6855 18.4274 13.8988 18.5532 14.1527C18.5585 14.1578 18.5585 14.1629 18.5637 14.168C18.6109 14.2695 19.7012 16.6816 22.1282 17.0676C22.3379 17.1184 22.5004 17.3469 22.3851 17.616Z" fill="#FEE500"/>
</g>
<defs>
<clipPath id="clip0_1050_1447">
<rect width="26" height="26" fill="white" transform="translate(0.5)"/>
</clipPath>
</defs>
</svg>
