<svg width="26" height="26" viewBox="0 0 26 26" fill="none" xmlns="http://www.w3.org/2000/svg">
<g clip-path="url(#clip0_1050_1443)">
<path d="M13 0.519531C6.10742 0.519531 0.52002 6.10693 0.52002 12.9995C0.52002 19.8921 6.10742 25.4795 13 25.4795C19.8926 25.4795 25.48 19.8921 25.48 12.9995C25.48 6.10693 19.8926 0.519531 13 0.519531ZM16.3501 18.3828C15.9072 18.6014 15.4427 18.7735 14.9643 18.8963C14.5247 18.9968 14.075 19.0461 13.624 19.0432C13.078 19.0432 12.5953 18.973 12.1758 18.8326C11.7819 18.7069 11.4169 18.504 11.102 18.2359C10.833 18.0156 10.6215 17.7332 10.4858 17.413C10.3714 17.121 10.3142 16.6993 10.3142 16.1481V11.9075H8.99342V10.1993C9.46142 10.0451 9.86312 9.8232 10.1985 9.53373C10.5331 9.24686 10.8013 8.9015 11.0032 8.49763C11.206 8.09376 11.3456 7.58026 11.4218 6.95713H13.1209V10.0121H15.9549V11.9075H13.1209V15.008C13.1209 15.7092 13.1578 16.1585 13.2314 16.3561C13.3069 16.5588 13.4521 16.7279 13.6409 16.8332C13.9061 16.9936 14.2082 17.0737 14.547 17.0737C15.1528 17.0737 15.7543 16.874 16.3514 16.4744L16.3501 18.3828Z" fill="#3E69D8"/>
</g>
<defs>
<clipPath id="clip0_1050_1443">
<rect width="26" height="26" fill="white"/>
</clipPath>
</defs>
</svg>
