<svg width="27" height="26" viewBox="0 0 27 26" fill="none" xmlns="http://www.w3.org/2000/svg">
<rect x="0.5" width="26" height="26" rx="13" fill="#46467F"/>
<g clip-path="url(#clip0_1050_1463)">
<path d="M21 10.375C21 11.4025 20.16 12.25 19.125 12.25C18.09 12.25 17.25 11.4025 17.25 10.375C17.25 11.4025 16.41 12.25 15.375 12.25C14.34 12.25 13.5 11.4025 13.5 10.375C13.5 11.4025 12.66 12.25 11.625 12.25C10.59 12.25 9.75 11.4025 9.75 10.375C9.75 11.4025 8.91 12.25 7.875 12.25C6.84 12.25 6 11.4025 6 10.375L7.0425 6.31C7.0425 6.31 7.26 5.5 8.025 5.5H18.975C19.74 5.5 19.9575 6.31 19.9575 6.31L21 10.375ZM20.25 13.15V19C20.25 19.825 19.575 20.5 18.75 20.5H8.25C7.425 20.5 6.75 19.825 6.75 19V13.15C7.24303 13.3536 7.78179 13.4206 8.30968 13.3441C8.83756 13.2675 9.33509 13.0502 9.75 12.715C10.2675 13.1275 10.92 13.375 11.625 13.375C12.3375 13.375 12.99 13.1275 13.5 12.715C14.0175 13.1275 14.67 13.375 15.375 13.375C16.0875 13.375 16.74 13.1275 17.25 12.715C17.76 13.1275 18.42 13.375 19.125 13.375C19.5225 13.375 19.905 13.2925 20.25 13.15ZM18.75 16.9975C18.75 16.8475 18.75 16.69 18.7125 16.525L18.69 16.405H16.4625V17.2825H17.82C17.775 17.4475 17.715 17.6125 17.5875 17.7475C17.34 17.995 17.0025 18.13 16.6425 18.13C16.2675 18.13 15.9 17.9725 15.63 17.71C15.1125 17.1775 15.1125 16.315 15.645 15.775C16.1625 15.25 17.0175 15.25 17.5575 15.7525L17.6625 15.85L18.2925 15.2125L18.1725 15.1075C17.7525 14.7175 17.1975 14.5 16.6125 14.5H16.605C15.9975 14.5 15.4275 14.7325 15 15.1525C14.5575 15.5875 14.31 16.1575 14.31 16.75C14.31 17.35 14.5425 17.905 14.97 18.3175C15.4155 18.7523 16.0125 18.997 16.635 19H16.65C17.25 19 17.7825 18.7825 18.1725 18.4C18.525 18.04 18.75 17.5 18.75 16.9975Z" fill="white"/>
</g>
<defs>
<clipPath id="clip0_1050_1463">
<rect width="16" height="16" fill="white" transform="translate(5.5 5)"/>
</clipPath>
</defs>
</svg>
