<svg width="44" height="44" viewBox="0 0 44 44" fill="none" xmlns="http://www.w3.org/2000/svg">
<path d="M19.6483 2.89435L1.77334 38.6443C1.10647 40.0262 1.68397 41.6865 3.0624 42.3534C3.43365 42.5322 3.83584 42.6284 4.24834 42.6318H39.9983C41.5315 42.6181 42.7655 41.3634 42.7518 39.8303C42.7476 39.4193 42.6525 39.0143 42.4733 38.6443L24.5983 2.89435C24.367 2.43649 24.0132 2.05179 23.5762 1.78302C23.1393 1.51425 22.6363 1.37195 22.1233 1.37195C21.6104 1.37195 21.1074 1.51425 20.6705 1.78302C20.2335 2.05179 19.8797 2.43649 19.6483 2.89435Z" fill="#CC0606"/>
<path d="M18.411 5.40378L1.63597 38.885C1.0069 40.181 1.55003 41.7416 2.84597 42.3707C3.18628 42.5357 3.56097 42.625 3.93909 42.6319H37.4547C37.7955 42.6288 38.1324 42.5585 38.4461 42.4252C38.7598 42.2918 39.0441 42.098 39.2829 41.8548C39.5216 41.6115 39.7101 41.3237 39.8376 41.0076C39.9651 40.6915 40.0291 40.3534 40.026 40.0125C40.0221 39.6214 39.9305 39.2361 39.7578 38.885L23.0172 5.40378C22.7224 4.79328 22.1973 4.32476 21.5573 4.10111C20.9173 3.87746 20.2147 3.91697 19.6038 4.21097C19.0837 4.46357 18.6636 4.88367 18.411 5.40378Z" fill="#FF3E32"/>
<path opacity="0.2" d="M22.124 11.6943C23.7053 11.6943 24.9771 12.9662 24.874 14.4443L23.7053 30.9443C23.5746 31.8175 22.7634 32.4225 21.8903 32.2918C21.5508 32.2416 21.2364 32.0835 20.9938 31.8408C20.7511 31.5982 20.593 31.2838 20.5428 30.9443L19.374 14.4443C19.2709 12.9662 20.5428 11.6943 22.124 11.6943ZM22.124 33.6943C23.2618 33.6943 24.1865 34.619 24.1865 35.7568C24.1865 36.8946 23.2618 37.8193 22.124 37.8193C20.9862 37.8193 20.0615 36.8946 20.0615 35.7568C20.0615 34.619 20.9862 33.6943 22.124 33.6943Z" fill="#424242"/>
<path d="M22.124 11.6943C23.7053 11.6943 24.9771 12.9662 24.874 14.4443L23.7053 30.9443C23.5746 31.8175 22.7634 32.4225 21.8903 32.2918C21.5508 32.2416 21.2364 32.0835 20.9938 31.8408C20.7511 31.5982 20.593 31.2838 20.5428 30.9443L19.374 14.4443C19.2709 12.9662 20.5428 11.6943 22.124 11.6943Z" fill="white"/>
<path d="M22.124 37.8193C23.2631 37.8193 24.1865 36.8959 24.1865 35.7568C24.1865 34.6177 23.2631 33.6943 22.124 33.6943C20.9849 33.6943 20.0615 34.6177 20.0615 35.7568C20.0615 36.8959 20.9849 37.8193 22.124 37.8193Z" fill="white"/>
<path d="M18.4116 7.91307C17.9991 8.4287 11.0554 22.0068 11.0554 22.0068C11.0554 22.0068 10.4366 23.0381 11.296 23.6224C12.0866 24.1724 12.8085 23.5193 13.1179 23.0037C13.4272 22.4881 19.7178 10.3193 19.9585 9.73495C20.1647 9.09213 20.0203 8.39088 19.5803 7.8787C19.1335 7.4662 18.6866 7.53495 18.4116 7.91307Z" fill="#FF7970"/>
<path d="M10.7799 27.029C11.4064 27.029 11.9143 26.5211 11.9143 25.8946C11.9143 25.2681 11.4064 24.7603 10.7799 24.7603C10.1534 24.7603 9.64551 25.2681 9.64551 25.8946C9.64551 26.5211 10.1534 27.029 10.7799 27.029Z" fill="#FF7970"/>
</svg>
