<svg width="144" height="18" viewBox="0 0 144 18" fill="none" xmlns="http://www.w3.org/2000/svg">
    <path opacity="0.5"
          d="M0.704 12V6.04H2.752C3.14133 6.04 3.48267 6.11733 3.776 6.272C4.06933 6.42133 4.296 6.63467 4.456 6.912C4.62133 7.184 4.704 7.50133 4.704 7.864C4.704 8.22667 4.62133 8.544 4.456 8.816C4.296 9.088 4.06933 9.30133 3.776 9.456C3.488 9.60533 3.14667 9.68 2.752 9.68H1.344V12H0.704ZM1.344 9.08H2.784C3.04 9.08 3.264 9.032 3.456 8.936C3.648 8.83467 3.79733 8.69333 3.904 8.512C4.01067 8.32533 4.064 8.10667 4.064 7.856C4.064 7.60533 4.01067 7.38933 3.904 7.208C3.79733 7.02667 3.648 6.888 3.456 6.792C3.264 6.69067 3.04 6.64 2.784 6.64H1.344V9.08ZM7.44838 12.096C7.04304 12.096 6.67504 12 6.34438 11.808C6.01371 11.6107 5.74971 11.344 5.55238 11.008C5.36038 10.6667 5.26438 10.28 5.26438 9.848C5.26438 9.42133 5.36038 9.04 5.55238 8.704C5.74438 8.368 6.00304 8.104 6.32838 7.912C6.65904 7.71467 7.03238 7.616 7.44838 7.616C7.86438 7.616 8.23504 7.712 8.56038 7.904C8.89104 8.096 9.14971 8.36 9.33638 8.696C9.52838 9.032 9.62438 9.416 9.62438 9.848C9.62438 10.2853 9.52571 10.6747 9.32838 11.016C9.13104 11.352 8.86704 11.616 8.53638 11.808C8.21104 12 7.84838 12.096 7.44838 12.096ZM7.44838 11.496C7.73638 11.496 7.99504 11.424 8.22438 11.28C8.45904 11.136 8.64304 10.9387 8.77638 10.688C8.91504 10.4373 8.98438 10.1573 8.98438 9.848C8.98438 9.53867 8.91504 9.26133 8.77638 9.016C8.64304 8.77067 8.45904 8.576 8.22438 8.432C7.99504 8.288 7.73638 8.216 7.44838 8.216C7.16038 8.216 6.89904 8.288 6.66438 8.432C6.43504 8.576 6.25104 8.77067 6.11238 9.016C5.97371 9.26133 5.90438 9.53867 5.90438 9.848C5.90438 10.1573 5.97371 10.4373 6.11238 10.688C6.25104 10.9387 6.43504 11.136 6.66438 11.28C6.89904 11.424 7.16038 11.496 7.44838 11.496ZM11.3884 12L9.91644 7.712H10.5964L11.8124 11.464H11.5724L12.7164 7.712H13.3164L14.4604 11.464H14.2204L15.4444 7.712H16.1164L14.6444 12H14.0444L12.9324 8.328H13.1004L11.9884 12H11.3884ZM18.5333 12.096C18.1333 12.096 17.7706 12 17.4453 11.808C17.1253 11.6107 16.872 11.3413 16.6853 11C16.4986 10.6587 16.4053 10.272 16.4053 9.84C16.4053 9.408 16.496 9.02667 16.6773 8.696C16.8586 8.36 17.104 8.096 17.4133 7.904C17.728 7.712 18.08 7.616 18.4693 7.616C18.7786 7.616 19.0533 7.67467 19.2933 7.792C19.5386 7.904 19.7466 8.05867 19.9173 8.256C20.088 8.448 20.2186 8.66667 20.3093 8.912C20.4 9.152 20.4453 9.4 20.4453 9.656C20.4453 9.70933 20.4426 9.77067 20.4373 9.84C20.432 9.904 20.424 9.97067 20.4133 10.04H16.7893V9.48H20.0693L19.7813 9.72C19.8293 9.42667 19.7946 9.16533 19.6773 8.936C19.5653 8.70133 19.4026 8.51733 19.1893 8.384C18.976 8.24533 18.736 8.176 18.4693 8.176C18.2026 8.176 17.9546 8.24533 17.7253 8.384C17.5013 8.52267 17.3253 8.71733 17.1973 8.968C17.0693 9.21333 17.0186 9.50667 17.0453 9.848C17.0186 10.1893 17.072 10.488 17.2053 10.744C17.344 10.9947 17.5306 11.1893 17.7653 11.328C18.0053 11.4667 18.2613 11.536 18.5333 11.536C18.848 11.536 19.112 11.4613 19.3253 11.312C19.5386 11.1627 19.712 10.976 19.8453 10.752L20.3573 11.024C20.272 11.216 20.1413 11.3947 19.9653 11.56C19.7893 11.72 19.5786 11.8507 19.3333 11.952C19.0933 12.048 18.8266 12.096 18.5333 12.096ZM21.3432 12V7.712H21.9432V8.416L21.8632 8.312C21.9645 8.10933 22.1165 7.94933 22.3192 7.832C22.5272 7.71467 22.7779 7.656 23.0712 7.656H23.3432V8.256H22.9672C22.6579 8.256 22.4099 8.352 22.2232 8.544C22.0365 8.736 21.9432 9.008 21.9432 9.36V12H21.3432ZM25.8383 12.096C25.4383 12.096 25.0756 12 24.7503 11.808C24.4303 11.6107 24.177 11.3413 23.9903 11C23.8036 10.6587 23.7103 10.272 23.7103 9.84C23.7103 9.408 23.801 9.02667 23.9823 8.696C24.1636 8.36 24.409 8.096 24.7183 7.904C25.033 7.712 25.385 7.616 25.7743 7.616C26.0836 7.616 26.3583 7.67467 26.5983 7.792C26.8436 7.904 27.0516 8.05867 27.2223 8.256C27.393 8.448 27.5236 8.66667 27.6143 8.912C27.705 9.152 27.7503 9.4 27.7503 9.656C27.7503 9.70933 27.7476 9.77067 27.7423 9.84C27.737 9.904 27.729 9.97067 27.7183 10.04H24.0943V9.48H27.3743L27.0863 9.72C27.1343 9.42667 27.0996 9.16533 26.9823 8.936C26.8703 8.70133 26.7076 8.51733 26.4943 8.384C26.281 8.24533 26.041 8.176 25.7743 8.176C25.5076 8.176 25.2596 8.24533 25.0303 8.384C24.8063 8.52267 24.6303 8.71733 24.5023 8.968C24.3743 9.21333 24.3236 9.50667 24.3503 9.848C24.3236 10.1893 24.377 10.488 24.5103 10.744C24.649 10.9947 24.8356 11.1893 25.0703 11.328C25.3103 11.4667 25.5663 11.536 25.8383 11.536C26.153 11.536 26.417 11.4613 26.6303 11.312C26.8436 11.1627 27.017 10.976 27.1503 10.752L27.6623 11.024C27.577 11.216 27.4463 11.3947 27.2703 11.56C27.0943 11.72 26.8836 11.8507 26.6383 11.952C26.3983 12.048 26.1316 12.096 25.8383 12.096ZM30.5842 12.096C30.1842 12.096 29.8242 12 29.5042 11.808C29.1842 11.6107 28.9309 11.344 28.7442 11.008C28.5629 10.6667 28.4722 10.2827 28.4722 9.856C28.4722 9.424 28.5629 9.04 28.7442 8.704C28.9309 8.368 29.1815 8.104 29.4962 7.912C29.8162 7.71467 30.1789 7.616 30.5842 7.616C30.9522 7.616 31.2802 7.696 31.5682 7.856C31.8562 8.016 32.0829 8.232 32.2482 8.504L32.1522 8.672V5.944H32.7522V12H32.1522V11.04L32.2482 11.128C32.0989 11.4373 31.8749 11.6773 31.5762 11.848C31.2829 12.0133 30.9522 12.096 30.5842 12.096ZM30.6162 11.496C30.9042 11.496 31.1629 11.424 31.3922 11.28C31.6269 11.136 31.8109 10.9413 31.9442 10.696C32.0829 10.4453 32.1522 10.1653 32.1522 9.856C32.1522 9.54667 32.0829 9.26933 31.9442 9.024C31.8109 8.77333 31.6269 8.576 31.3922 8.432C31.1629 8.288 30.9042 8.216 30.6162 8.216C30.3335 8.216 30.0775 8.288 29.8482 8.432C29.6189 8.576 29.4375 8.77067 29.3042 9.016C29.1762 9.26133 29.1122 9.54133 29.1122 9.856C29.1122 10.1653 29.1762 10.4453 29.3042 10.696C29.4375 10.9413 29.6162 11.136 29.8402 11.28C30.0695 11.424 30.3282 11.496 30.6162 11.496ZM35.1115 12V6.04H37.6155C37.9515 6.04 38.2422 6.104 38.4875 6.232C38.7382 6.35467 38.9302 6.528 39.0635 6.752C39.2022 6.976 39.2715 7.23733 39.2715 7.536C39.2715 7.84533 39.1942 8.12 39.0395 8.36C38.8902 8.59467 38.6742 8.77333 38.3915 8.896L38.3835 8.704C38.6182 8.78933 38.8182 8.90933 38.9835 9.064C39.1542 9.21867 39.2848 9.4 39.3755 9.608C39.4662 9.81067 39.5115 10.0293 39.5115 10.264C39.5115 10.7973 39.3408 11.2213 38.9995 11.536C38.6635 11.8453 38.2048 12 37.6235 12H35.1115ZM35.7515 11.4H37.6235C38.0022 11.4 38.3035 11.3013 38.5275 11.104C38.7568 10.9013 38.8715 10.624 38.8715 10.272C38.8715 9.92533 38.7568 9.65067 38.5275 9.448C38.3035 9.24 38.0022 9.136 37.6235 9.136H35.7515V11.4ZM35.7515 8.56H37.5675C37.8875 8.56 38.1435 8.46667 38.3355 8.28C38.5328 8.09333 38.6315 7.85333 38.6315 7.56C38.6315 7.26133 38.5328 7.03467 38.3355 6.88C38.1435 6.72 37.8875 6.64 37.5675 6.64H35.7515V8.56ZM40.4984 13.76C40.413 13.76 40.325 13.752 40.2344 13.736C40.149 13.7253 40.0637 13.704 39.9784 13.672V13.112C40.0317 13.1173 40.0984 13.1253 40.1784 13.136C40.2637 13.152 40.349 13.16 40.4344 13.16C40.6957 13.16 40.8957 13.104 41.0344 12.992C41.173 12.8853 41.309 12.6773 41.4424 12.368L41.7144 11.728L41.6984 12.256L39.8824 7.712H40.5304L42.0184 11.464H41.8504L43.3304 7.712H43.9944L42.0344 12.544C41.949 12.752 41.8397 12.9493 41.7064 13.136C41.5784 13.3227 41.4157 13.472 41.2184 13.584C41.021 13.7013 40.781 13.76 40.4984 13.76Z"
          fill="#2D324A"/>
    <path fill-rule="evenodd" clip-rule="evenodd"
          d="M61.6281 17.8769C66.5307 17.8769 70.505 13.9026 70.505 8.99998C70.505 4.09738 66.5307 0.123047 61.6281 0.123047C57.0457 0.123047 53.2742 3.59519 52.8011 8.0521C55.1187 9.90922 59.1617 11.0389 61.8065 9.11599C61.8354 9.095 61.8619 9.07031 61.8852 9.04329L63.3294 7.36888C63.5466 7.11704 63.4535 6.72641 63.146 6.59966L62.3453 6.26956C61.9434 6.10392 61.9428 5.53502 62.3442 5.36845L66.6939 3.56362C67.0006 3.43633 67.3421 3.6463 67.3669 3.97749L67.7111 8.56541C67.744 9.00328 67.2266 9.25803 66.8996 8.96504L66.5052 8.61172C66.2342 8.36897 65.8012 8.49953 65.6964 8.84789C63.9601 14.6181 61.1321 15.8703 56.7048 16.3877C58.1136 17.3284 59.8068 17.8769 61.6281 17.8769Z"
          fill="#2D324A"/>
    <path d="M79.4484 14.1404C78.9023 14.1404 78.3875 14.0429 77.9038 13.8479C77.4279 13.645 77.0145 13.3603 76.6634 12.9937C76.3202 12.627 76.0627 12.194 75.8911 11.6948L77.3772 11.0278C77.5956 11.5036 77.896 11.8781 78.2782 12.1511C78.6683 12.4242 79.0974 12.5607 79.5654 12.5607C79.8151 12.5607 80.0296 12.5217 80.209 12.4437C80.3884 12.3657 80.5289 12.2603 80.6303 12.1277C80.7317 11.9873 80.7824 11.8235 80.7824 11.6363C80.7824 11.4334 80.72 11.2618 80.5952 11.1214C80.4704 10.9732 80.2753 10.8561 80.0101 10.7703L78.3016 10.2086C77.6073 9.98241 77.0847 9.66257 76.7336 9.24911C76.3826 8.82784 76.207 8.32467 76.207 7.73959C76.207 7.22471 76.3319 6.77224 76.5815 6.38219C76.8389 5.99213 77.1939 5.68789 77.6463 5.46945C78.1066 5.25102 78.6332 5.14181 79.2261 5.14181C79.7488 5.14181 80.2324 5.23152 80.6771 5.41095C81.1218 5.59037 81.504 5.84391 81.8239 6.17156C82.1515 6.4992 82.3972 6.89316 82.5611 7.35343L81.0867 8.02043C80.9228 7.61477 80.6771 7.29882 80.3494 7.07259C80.0218 6.83855 79.6473 6.72154 79.2261 6.72154C78.9842 6.72154 78.7697 6.76054 78.5825 6.83855C78.3953 6.91657 78.2509 7.02968 78.1495 7.1779C78.0481 7.31832 77.9974 7.48215 77.9974 7.66938C77.9974 7.87221 78.0637 8.05163 78.1963 8.20765C78.3289 8.35588 78.5279 8.47289 78.7931 8.55871L80.4665 9.09698C81.1686 9.32322 81.6912 9.63916 82.0345 10.0448C82.3855 10.4505 82.5611 10.9459 82.5611 11.5309C82.5611 12.038 82.4284 12.4905 82.1632 12.8883C81.898 13.2784 81.5313 13.5865 81.0632 13.8128C80.603 14.0312 80.0647 14.1404 79.4484 14.1404ZM83.4909 14V7.61087H85.2462V14H83.4909ZM83.4909 7.03748V5.28223H85.2462V7.03748H83.4909ZM89.4326 16.5744C88.9411 16.5744 88.4848 16.4925 88.0635 16.3286C87.6423 16.1648 87.2795 15.9347 86.9753 15.6382C86.6788 15.3496 86.4643 15.0063 86.3317 14.6085L87.9582 14.0351C88.044 14.3315 88.2195 14.5656 88.4848 14.7372C88.75 14.9088 89.066 14.9946 89.4326 14.9946C89.7213 14.9946 89.9709 14.94 90.1815 14.8308C90.3922 14.7294 90.5521 14.5773 90.6613 14.3745C90.7783 14.1716 90.8368 13.9337 90.8368 13.6607V12.1979L91.1762 12.6192C90.9577 12.9781 90.6769 13.2472 90.3337 13.4266C89.9904 13.5982 89.5886 13.6841 89.1284 13.6841C88.5355 13.6841 88.005 13.5514 87.5369 13.2862C87.0689 13.0132 86.7022 12.6426 86.437 12.1745C86.1717 11.6987 86.0391 11.1604 86.0391 10.5597C86.0391 9.95901 86.1717 9.42853 86.437 8.96827C86.7022 8.5002 87.065 8.13354 87.5252 7.8683C87.9855 7.60307 88.5082 7.47045 89.0933 7.47045C89.5535 7.47045 89.9553 7.56406 90.2985 7.75129C90.6418 7.93071 90.9343 8.20765 91.1762 8.58211L90.9538 9.00337V7.61087H92.5921V13.6607C92.5921 14.2223 92.4556 14.7216 92.1825 15.1585C91.9095 15.6031 91.535 15.9503 91.0592 16.1999C90.5911 16.4496 90.0489 16.5744 89.4326 16.5744ZM89.3741 12.0926C89.6706 12.0926 89.928 12.0302 90.1464 11.9054C90.3649 11.7806 90.5326 11.6051 90.6496 11.3788C90.7744 11.1526 90.8368 10.8873 90.8368 10.5831C90.8368 10.2789 90.7744 10.0136 90.6496 9.78739C90.5248 9.55335 90.3532 9.37392 90.1347 9.24911C89.9163 9.11649 89.6628 9.05018 89.3741 9.05018C89.0777 9.05018 88.8124 9.11649 88.5784 9.24911C88.3522 9.37392 88.1727 9.55335 88.0401 9.78739C87.9153 10.0136 87.8529 10.2789 87.8529 10.5831C87.8529 10.8795 87.9153 11.1409 88.0401 11.3671C88.1727 11.5933 88.3522 11.7728 88.5784 11.9054C88.8124 12.0302 89.0777 12.0926 89.3741 12.0926ZM93.6504 14V7.61087H95.2886V8.87465L95.195 8.59381C95.3432 8.21155 95.5811 7.93071 95.9088 7.75129C96.2442 7.56406 96.6343 7.47045 97.079 7.47045C97.5626 7.47045 97.9839 7.57186 98.3427 7.77469C98.7094 7.97752 98.9941 8.26226 99.197 8.62892C99.3998 8.98777 99.5012 9.40903 99.5012 9.8927V14H97.746V10.2672C97.746 10.0175 97.6952 9.80299 97.5938 9.62356C97.5002 9.44413 97.3637 9.30371 97.1843 9.2023C97.0126 9.10088 96.8098 9.05018 96.5758 9.05018C96.3495 9.05018 96.1467 9.10088 95.9673 9.2023C95.7879 9.30371 95.6474 9.44413 95.546 9.62356C95.4524 9.80299 95.4056 10.0175 95.4056 10.2672V14H93.6504ZM102.715 14.1404C102.2 14.1404 101.759 14.0312 101.393 13.8128C101.034 13.5865 100.761 13.2745 100.573 12.8766C100.386 12.4788 100.293 12.0146 100.293 11.4841V7.61087H102.048V11.3437C102.048 11.5855 102.095 11.8001 102.188 11.9873C102.29 12.1667 102.43 12.3072 102.61 12.4086C102.789 12.51 102.992 12.5607 103.218 12.5607C103.452 12.5607 103.655 12.51 103.827 12.4086C104.006 12.3072 104.142 12.1667 104.236 11.9873C104.338 11.8001 104.388 11.5855 104.388 11.3437V7.61087H106.143V14H104.505V12.7362L104.599 13.0171C104.451 13.3993 104.209 13.6841 103.873 13.8713C103.546 14.0507 103.16 14.1404 102.715 14.1404ZM107.192 16.3403V7.61087H108.831V8.82784L108.678 8.47679C108.889 8.15695 109.174 7.91121 109.533 7.73959C109.899 7.56016 110.317 7.47045 110.785 7.47045C111.393 7.47045 111.943 7.61867 112.435 7.91511C112.926 8.21155 113.316 8.61331 113.605 9.12039C113.894 9.61966 114.038 10.1813 114.038 10.8054C114.038 11.4217 113.894 11.9834 113.605 12.4905C113.324 12.9976 112.938 13.3993 112.446 13.6958C111.955 13.9922 111.397 14.1404 110.773 14.1404C110.336 14.1404 109.931 14.0624 109.556 13.9064C109.189 13.7426 108.893 13.5046 108.667 13.1926L108.948 12.8298V16.3403H107.192ZM110.562 12.5607C110.89 12.5607 111.179 12.4866 111.428 12.3384C111.678 12.1901 111.873 11.9834 112.013 11.7182C112.154 11.4529 112.224 11.1487 112.224 10.8054C112.224 10.4622 112.154 10.1618 112.013 9.9044C111.873 9.63916 111.678 9.43243 111.428 9.28421C111.179 9.12819 110.89 9.05018 110.562 9.05018C110.25 9.05018 109.97 9.12429 109.72 9.27251C109.478 9.42073 109.287 9.62746 109.147 9.8927C109.014 10.1579 108.948 10.4622 108.948 10.8054C108.948 11.1487 109.014 11.4529 109.147 11.7182C109.287 11.9834 109.478 12.1901 109.72 12.3384C109.97 12.4866 110.25 12.5607 110.562 12.5607Z"
          fill="#2D324A"/>
    <path d="M115.698 14V12.2447H117.453V14H115.698ZM119.374 14V5.14181H121.13V14H119.374ZM124.158 14.1404C123.697 14.1404 123.3 14.0663 122.964 13.9181C122.629 13.7699 122.371 13.5592 122.192 13.2862C122.012 13.0054 121.923 12.6738 121.923 12.2916C121.923 11.9327 122.005 11.6168 122.168 11.3437C122.332 11.0629 122.582 10.8288 122.917 10.6416C123.261 10.4544 123.686 10.3218 124.193 10.2438L126.147 9.92781V11.215L124.509 11.5075C124.259 11.5543 124.068 11.6363 123.935 11.7533C123.803 11.8625 123.736 12.0224 123.736 12.233C123.736 12.4281 123.811 12.5802 123.959 12.6894C124.107 12.7986 124.29 12.8532 124.509 12.8532C124.797 12.8532 125.051 12.7908 125.269 12.666C125.488 12.5412 125.656 12.3735 125.773 12.1628C125.897 11.9444 125.96 11.7065 125.96 11.449V9.78739C125.96 9.54555 125.862 9.34272 125.667 9.1789C125.48 9.01507 125.223 8.93316 124.895 8.93316C124.583 8.93316 124.306 9.01897 124.064 9.1906C123.83 9.36222 123.658 9.58846 123.549 9.8693L122.145 9.2023C122.27 8.84345 122.469 8.5353 122.742 8.27786C123.015 8.02043 123.342 7.8215 123.725 7.68108C124.107 7.54066 124.524 7.47045 124.977 7.47045C125.515 7.47045 125.991 7.56796 126.404 7.76299C126.818 7.95802 127.138 8.23106 127.364 8.58211C127.598 8.92536 127.715 9.32712 127.715 9.78739V14H126.077V12.9702L126.475 12.9C126.287 13.1809 126.081 13.4149 125.854 13.6021C125.628 13.7816 125.375 13.9142 125.094 14C124.813 14.0936 124.501 14.1404 124.158 14.1404ZM128.768 14V7.61087H130.407V8.87465L130.313 8.59381C130.461 8.21155 130.699 7.93071 131.027 7.75129C131.362 7.56406 131.752 7.47045 132.197 7.47045C132.681 7.47045 133.102 7.57186 133.461 7.77469C133.827 7.97752 134.112 8.26226 134.315 8.62892C134.518 8.98777 134.619 9.40903 134.619 9.8927V14H132.864V10.2672C132.864 10.0175 132.813 9.80299 132.712 9.62356C132.618 9.44413 132.482 9.30371 132.302 9.2023C132.131 9.10088 131.928 9.05018 131.694 9.05018C131.467 9.05018 131.265 9.10088 131.085 9.2023C130.906 9.30371 130.765 9.44413 130.664 9.62356C130.57 9.80299 130.524 10.0175 130.524 10.2672V14H128.768ZM138.547 14.1404C137.923 14.1404 137.365 13.9922 136.873 13.6958C136.382 13.3993 135.992 12.9976 135.703 12.4905C135.422 11.9834 135.282 11.4217 135.282 10.8054C135.282 10.1813 135.426 9.61966 135.715 9.12039C136.003 8.61331 136.393 8.21155 136.885 7.91511C137.376 7.61867 137.926 7.47045 138.535 7.47045C139.003 7.47045 139.416 7.56016 139.775 7.73959C140.142 7.91121 140.431 8.15695 140.641 8.47679L140.372 8.82784V5.14181H142.127V14H140.489V12.8298L140.653 13.1926C140.434 13.5046 140.138 13.7426 139.764 13.9064C139.389 14.0624 138.983 14.1404 138.547 14.1404ZM138.757 12.5607C139.077 12.5607 139.358 12.4866 139.6 12.3384C139.842 12.1901 140.029 11.9834 140.161 11.7182C140.302 11.4529 140.372 11.1487 140.372 10.8054C140.372 10.4622 140.302 10.1579 140.161 9.8927C140.029 9.62746 139.842 9.42073 139.6 9.27251C139.358 9.12429 139.077 9.05018 138.757 9.05018C138.437 9.05018 138.149 9.12819 137.891 9.28421C137.642 9.43243 137.447 9.63916 137.306 9.9044C137.166 10.1618 137.096 10.4622 137.096 10.8054C137.096 11.1487 137.166 11.4529 137.306 11.7182C137.447 11.9834 137.642 12.1901 137.891 12.3384C138.149 12.4866 138.437 12.5607 138.757 12.5607Z"
          fill="#2D324A" fill-opacity="0.5"/>
</svg>
