<svg width="300" height="201" viewBox="0 0 300 201" fill="none" xmlns="http://www.w3.org/2000/svg">
<rect width="300" height="200" transform="translate(-0.00012207 0.5)" fill="#C0C9CE"/>
<g clip-path="url(#clip0_2035_3605)">
<path d="M109.6 125.256C109.6 129.41 111.063 132.926 113.989 135.802C116.915 138.678 120.453 140.142 124.602 140.196H174.477C178.574 140.196 182.085 138.731 185.011 135.802C187.937 132.872 189.4 129.357 189.4 125.256V75.3239C189.4 71.1696 187.937 67.6278 185.011 64.6984C182.085 61.7691 178.574 60.3044 174.477 60.3044H124.602C120.453 60.3044 116.915 61.7691 113.989 64.6984C111.063 67.6278 109.6 71.1696 109.6 75.3239V125.256ZM119.575 125.256V75.3239C119.575 73.9392 120.054 72.7674 121.011 71.8087C121.969 70.85 123.166 70.3441 124.602 70.2908H174.477C175.807 70.2908 176.978 70.7968 177.989 71.8087C178.999 72.8207 179.478 73.9924 179.425 75.3239V125.256C179.425 126.641 178.946 127.813 177.989 128.771C177.031 129.73 175.861 130.209 174.477 130.209H124.602C123.219 130.209 122.022 129.73 121.011 128.771C120.001 127.813 119.522 126.641 119.575 125.256ZM124.602 120.223C124.602 121.608 125.081 122.806 126.039 123.818C126.996 124.83 128.167 125.309 129.55 125.256H169.45C170.833 125.256 172.004 124.777 172.961 123.818C173.919 122.859 174.424 121.661 174.477 120.223V117.906C174.105 117.16 173.174 114.923 171.684 111.195C170.195 107.467 168.865 104.484 167.694 102.247C166.524 100.01 165.46 98.2528 164.502 96.9745C163.598 96.0158 162.667 95.5098 161.709 95.4566C160.752 95.4033 159.794 95.7229 158.837 96.4152C157.879 97.1076 156.921 98.0397 155.964 99.2114C155.006 100.383 154.022 101.688 153.011 103.126C152 104.564 151.043 105.976 150.138 107.36C149.234 108.745 148.276 110.077 147.266 111.355C146.255 112.633 145.35 113.619 144.552 114.311C143.754 115.003 142.85 115.376 141.839 115.429C140.882 115.429 139.498 114.231 137.69 111.834C137.424 111.515 137.025 111.009 136.493 110.316C134.631 107.813 133.301 106.295 132.503 105.763C131.226 104.91 130.242 105.203 129.55 106.641C129.178 107.494 128.406 109.358 127.236 112.234C126.065 115.11 125.188 117.24 124.602 118.625V120.223ZM129.102 86.5837C129.102 88.6609 129.821 90.4185 131.257 91.8566C132.693 93.2946 134.449 94.0136 136.524 94.0136C138.599 94.0136 140.381 93.2946 141.87 91.8566C143.36 90.4185 144.078 88.6609 144.025 86.5837C143.972 84.5066 143.254 82.7223 141.87 81.231C140.487 79.7397 138.705 79.0207 136.524 79.0739C134.343 79.1272 132.587 79.8462 131.257 81.231C129.927 82.6158 129.209 84.4 129.102 86.5837Z" fill="#90A1AB"/>
</g>
<defs>
<clipPath id="clip0_2035_3605">
<rect width="57" height="52.5" fill="white" transform="translate(121 74)"/>
</clipPath>
</defs>
</svg>
