<svg width="5" height="17" viewBox="0 0 5 17" fill="none" xmlns="http://www.w3.org/2000/svg">
<path fill-rule="evenodd" clip-rule="evenodd" d="M2.49609 12.3811C3.60066 12.3811 4.49609 13.2765 4.49609 14.3811C4.49609 15.4857 3.60066 16.3811 2.49609 16.3811C1.39153 16.3811 0.496094 15.4857 0.496094 14.3811C0.496094 13.2765 1.39153 12.3811 2.49609 12.3811Z" fill="#565F72"/>
<path fill-rule="evenodd" clip-rule="evenodd" d="M2.49609 6.3811C3.60066 6.3811 4.49609 7.27654 4.49609 8.3811C4.49609 9.48567 3.60066 10.3811 2.49609 10.3811C1.39153 10.3811 0.496094 9.48567 0.496094 8.3811C0.496094 7.27654 1.39153 6.3811 2.49609 6.3811Z" fill="#565F72"/>
<path fill-rule="evenodd" clip-rule="evenodd" d="M2.49609 0.381104C3.60066 0.381104 4.49609 1.27654 4.49609 2.3811C4.49609 3.48567 3.60066 4.3811 2.49609 4.3811C1.39153 4.3811 0.496094 3.48567 0.496094 2.3811C0.496094 1.27654 1.39153 0.381104 2.49609 0.381104Z" fill="#565F72"/>
</svg>
