<svg width="59" height="59" viewBox="0 0 59 59" fill="none" xmlns="http://www.w3.org/2000/svg">
<path fill-rule="evenodd" clip-rule="evenodd" d="M29.5 58.7856C29.9594 58.7856 30.4186 58.6937 30.878 58.5559C32.7613 57.9129 34.0933 56.1674 34.0933 54.1463C34.0933 51.5742 32.0263 49.5072 29.4541 49.5072C28.9488 49.5072 28.5355 49.4612 28.1221 49.3694C28.0761 49.3694 28.0301 49.3694 27.9843 49.3234C24.9527 48.5886 22.7938 45.9244 22.7938 42.801C22.7938 39.1264 25.7794 36.1408 29.4541 36.1408L51.3639 36.0949C55.7275 36.0949 58.4375 33.7064 58.4375 29.8021C58.4375 13.9094 45.4386 0.910522 29.5 0.910522C13.5614 0.910522 0.5625 13.9094 0.5625 29.848C0.5625 45.7866 13.5614 58.7856 29.5 58.7856ZM12.7807 29.8021C15.261 29.8021 17.2821 31.8232 17.2821 34.3035C17.2821 36.7839 15.2611 38.8049 12.7807 38.8049C10.3003 38.8049 8.2793 36.7839 8.2793 34.3035C8.2793 31.8232 10.3003 29.8021 12.7807 29.8021Z" fill="#F3F3F3"/>
</svg>
