<svg width="394" height="424" viewBox="0 0 394 424" fill="none" xmlns="http://www.w3.org/2000/svg">
<g clip-path="url(#clip0_211_217)">
<path d="M207.526 252.679L210.67 246.861C211.059 246.773 211.389 246.713 211.652 246.667C212.23 247.442 212.805 248.054 213.194 248.442C212.913 249.188 212.584 250.178 212.332 251.245C211.122 251.837 209.131 252.58 207.526 252.682V252.679Z" fill="#995B31"/>
<path d="M213.499 241.462C214.014 241.25 214.543 241.148 215.118 241.148C217.467 241.148 219.938 242.93 221.494 244.452L215.087 245.91C214.039 244.79 212.885 243.149 212.984 242.17C212.998 242.039 213.022 241.772 213.499 241.462Z" fill="#995B31"/>
<path d="M226.846 244.67C226.215 244.367 225.669 244.159 225.276 244.043C224.652 243.194 223.562 241.993 222.171 240.888C223.022 240.106 224.309 239.468 225.953 240.292C226.909 240.775 227.162 241.345 227.271 241.736C227.411 242.24 227.372 242.817 227.256 243.37C227.253 243.374 227.246 243.377 227.242 243.384L227.253 243.395C227.155 243.853 227.001 244.29 226.843 244.67H226.846Z" fill="#995B31"/>
<path d="M220.201 250.858C218.97 250.143 218.017 249.322 217.33 248.604L224.312 247.012C224.947 247.188 226.843 247.875 228.998 250.062L220.201 250.858Z" fill="#995B31"/>
<path d="M389.566 184.44L389.475 184.521L375.644 189.902C375.409 188.325 375.072 186.86 374.757 185.676L386.776 180.408C388.304 179.999 390.218 179.788 390.716 180.584C391.252 182.204 390.477 183.634 389.563 184.44H389.566Z" fill="#F4D6BD"/>
<path d="M299.014 135.346C300.882 137.456 301.66 140.386 301.334 144.052C301.11 146.56 300.167 148.458 298.446 149.86C295.652 152.138 291.492 152.501 289.07 152.497C288.59 145.331 289.003 137.974 291.169 131.624C292.775 131.817 296.553 132.557 299.014 135.343V135.346Z" fill="#F4D6BD"/>
<path d="M293.802 286.932C292.561 275.102 294.173 266.664 295.137 261.62C295.404 260.219 295.625 259.053 295.723 258.077C296.014 258.084 296.326 258.113 296.606 258.113C296.655 258.113 296.697 258.109 296.746 258.109C296.553 260.515 296.743 263.952 297.079 267.449C297.707 273.978 301.986 280.613 301.986 280.613C301.958 280.444 299.168 263.959 299.887 257.922C301.899 257.701 303.62 257.292 305.078 256.774C309.684 261.504 316.032 273.38 316.098 273.503C316.098 273.503 316.596 267.822 313.918 263.557C312.095 260.655 310.006 257.606 308.064 255.408C308.835 254.961 309.477 254.503 310.017 254.059C311.531 256.239 315.72 261.138 327.809 274.095C333.747 280.458 336.312 288.425 334.514 294.891C333.046 300.163 328.801 304.03 322.562 305.78C318.874 306.812 315.474 307.337 312.46 307.337C301.499 307.337 295.221 300.473 293.802 286.932Z" fill="#995B31"/>
<path d="M346.197 190.121C346.099 187.244 346.905 184.461 348.528 182.084L357.27 169.254C357.641 169.543 358.076 169.994 358.447 170.677C359.38 172.396 360.046 175.85 357.928 182.538L357.704 183.253L358.118 183.88C358.482 184.433 358.91 187.539 358.058 190.801C357.634 192.421 356.621 196.062 354.875 196.953C354.875 196.953 358.766 197.538 361.069 191.589C362.212 188.642 361.854 184.94 361.097 182.94C370.281 179.742 380.607 176.745 382.479 177.182C383.067 177.312 383.474 177.53 383.597 177.777C383.681 177.949 383.667 178.185 383.632 178.379L370.978 183.926L371.118 184.246L371.073 184.264C371.707 185.8 372.853 188.92 373.625 191.952C374.238 194.368 374.357 199.739 374.357 199.739C375.626 198.07 375.994 195.639 375.934 193.146L390.172 187.606C390.491 188.142 390.656 188.691 390.614 189.23C390.568 189.793 390.309 190.343 389.899 190.822L378.732 196.435L382.177 196.235C384.315 196.108 386.418 195.622 388.399 194.794L388.497 194.752C387.533 199.214 382.636 200.662 382.398 200.728L382.219 200.788L347.616 215.214C346.768 204.888 346.361 194.949 346.2 190.128L346.197 190.121Z" fill="#F4D6BD"/>
<path d="M236.506 276.5L242.577 275.088C245.375 276.465 248.385 278.282 250.134 280.075L244.8 282.396C241.168 280.673 238.15 278.338 236.506 276.5Z" fill="#995B31"/>
<path d="M260.846 286.34C260.994 286.738 260.703 287.28 260.117 287.692C258.607 288.749 254.502 289.157 248.631 284.139L254.109 281.755L254.071 281.667C256.973 282.801 260.254 284.748 260.85 286.34H260.846Z" fill="#995B31"/>
<path d="M213.453 268.421C214.831 269.576 216.776 271.415 218.725 273.943V273.95L218.746 273.971C219.058 274.376 219.366 274.788 219.675 275.229L219.811 275.134C220.558 276.285 221.112 278.279 221.459 280.064L214.736 275.144C213.772 273.077 213.355 270.478 213.45 268.425L213.453 268.421Z" fill="#995B31"/>
<path d="M227.099 266.178L227.025 265.945L231.147 266.688L231.343 266.773C233.822 267.854 237.239 270.453 239.209 272.661L233.583 273.971C230.706 272.277 227.989 269.076 227.095 266.181L227.099 266.178Z" fill="#995B31"/>
<path d="M213.628 264.61C213.404 262.378 213.825 259.641 214.361 257.704L217.999 263.068C218.413 264.737 218.728 267.195 218.883 269.298C216.538 266.759 214.494 265.213 213.628 264.607V264.61Z" fill="#995B31"/>
<path d="M222.921 284.917L224.067 287.055C225.29 288.872 225.322 290.629 224.719 291.429C224.351 291.918 223.727 292.017 222.865 291.732C220.73 291.017 217.533 284.396 216.051 279.969L222.882 284.97L222.921 284.917Z" fill="#995B31"/>
<path d="M219.626 254.077C219.398 255.753 219.072 257.433 218.76 258.634L215.111 253.256C215.188 252.672 215.339 251.974 215.549 251.235C216.552 252.207 217.912 253.242 219.622 254.08L219.626 254.077Z" fill="#995B31"/>
<path d="M234.768 165.123C232.108 167.018 227.19 169.458 221.946 166.835C223.352 164.369 228.413 163.295 230.446 163.087C231.785 163.841 233.236 164.531 234.768 165.123Z" fill="#D87271"/>
<path d="M222.497 256.855L222.342 256.869C222.388 256.612 222.433 256.341 222.479 256.059C223.755 256.729 225.273 257.158 226.952 257.299C227.618 258.493 228.928 261.036 229.756 263.258L224.372 262.29C223.324 260.37 222.637 258.306 222.497 256.855Z" fill="#995B31"/>
<path d="M207.852 119.702C208.854 119.702 209.668 120.519 209.668 121.527C209.668 122.534 208.854 123.351 207.852 123.351C206.849 123.351 206.036 122.534 206.036 121.527C206.036 120.519 206.849 119.702 207.852 119.702Z" fill="#F0F0F1"/>
<path d="M244.803 121.266C245.806 121.266 246.619 122.083 246.619 123.09C246.619 124.098 245.806 124.915 244.803 124.915C243.801 124.915 242.988 124.098 242.988 123.09C242.988 122.083 243.801 121.266 244.803 121.266Z" fill="#F0F0F1"/>
<path d="M206.818 157.259C203.246 156.167 198.63 153.484 196.912 146.922C195.889 141.84 197.056 139.044 198.23 137.579C198.749 139.999 200.014 143.172 203.092 143.894C205.202 144.256 206.807 143.186 208.353 142.15C209.608 141.312 210.807 140.513 212.254 140.375C212.083 143.792 213.769 146.69 216.797 148.162C220.449 149.934 225.083 149.275 228.739 146.577C229.945 147.563 231.529 148.201 232.945 148.201C234.27 148.201 235.385 147.658 236.089 146.669C237.046 145.324 237.057 143.362 236.85 141.781C239.034 142.407 242.462 143.858 245.129 147.134C246.538 148.863 248.617 149.877 250.832 149.923C252.911 149.986 254.919 149.102 256.283 147.553C258 145.609 258.705 143.372 258.361 141.122C259.938 142.186 261.719 144.204 262.736 146.915C263.854 149.898 264.698 155.611 257.797 160.369C245.616 168.934 230.039 161.316 225.448 155.001L224.442 153.621L223.162 154.751C220.057 157.498 213.096 159.189 206.818 157.266V157.259Z" fill="#A5A7AA"/>
<path d="M219.307 165.193C216.899 163.408 216.033 161.858 215.728 160.971C218.816 160.559 221.718 159.576 223.941 158.076C224.715 158.932 225.651 159.791 226.72 160.626C224.126 161.305 220.828 162.647 219.307 165.193Z" fill="#221F20"/>
<path d="M136.722 125.013L136.312 124.876L132.621 124.182L150.21 120.984C150.76 120.886 151.314 121.006 151.773 121.326C152.232 121.647 152.537 122.129 152.635 122.678L152.793 123.573C152.993 124.7 152.243 125.785 151.121 125.996L141.009 127.894C138.839 126.098 136.873 125.091 136.718 125.013H136.722Z" fill="#995B31"/>
<path d="M316.915 172.783L317.686 174.1C320.932 179.647 321.345 189.431 318.892 196.457C318.499 195.949 318.092 195.407 317.651 194.787C306.967 171.952 295.81 168.846 291.453 168.578C290.588 164.641 289.806 160.214 289.34 155.625C292.238 155.6 296.963 155.086 300.395 152.297C302.775 150.363 304.135 147.683 304.436 144.33C304.846 139.756 303.798 136.026 301.324 133.244C298.281 129.821 293.928 128.831 291.776 128.546C291.881 126.26 291.6 123.538 291.6 123.538C279.785 141.745 288.951 173.339 292 182.493C289.396 181.957 285.887 180.887 284.18 179.073L281.579 176.308L281.495 180.112C281.348 186.543 282.003 201.465 290.619 207.188C284.993 213.326 271.611 215.64 263.899 213.055L260.152 211.801L262.038 215.284C267.404 225.191 262.567 235.915 260.461 239.747C257.765 237.764 251.193 233.721 238.739 230.227C223.587 226.339 204.084 217.612 197.056 198.077C196.954 197.791 196.867 197.552 196.793 197.365L194.862 192.375L193.817 197.622C193.453 199.457 193.134 201.884 192.892 203.986C190.568 199.626 187.084 191.265 185.412 178.193C183.291 161.591 189.99 146.292 192.689 140.95C192.938 141.284 193.197 141.622 193.474 141.964C193.344 143.566 193.442 145.44 193.884 147.634C195.531 153.931 199.794 158.382 205.914 160.252C208.027 160.901 210.309 161.186 212.577 161.179C212.945 162.943 214.421 166.183 220.053 169.395C222.279 170.61 224.505 171.096 226.629 171.096C231.561 171.096 235.904 168.479 238.34 166.275C240.695 166.891 243.173 167.257 245.697 167.257C250.362 167.257 255.164 166.032 259.57 162.933C264.488 159.541 266.178 155.649 266.518 152.314C269.76 150.839 272.091 148.553 273.444 145.496C275.628 140.562 274.821 134.6 273.223 130.286C278.179 125.401 278.4 119.206 278.029 115.716C292.34 120.731 303.255 125.866 311.576 130.786C311.219 135.339 310.322 153.779 318.685 158.273C323.052 160.756 326.088 158.65 327.956 156.452C329.281 161.837 325.962 167.159 318.212 171.977L316.918 172.78L316.915 172.783ZM237.348 176.773C237.25 179.591 235.739 181.144 234.61 181.915L232.507 177.115L224.705 180.531L221.389 175.435L215.244 178.221C214.967 177.682 214.757 176.844 215.104 175.724C215.104 175.724 212.451 175.322 211.862 177.689C211.301 179.936 213.713 181.281 213.8 181.355L214.547 181.968L220.239 179.383L223.537 184.447L230.905 181.221L232.984 185.969L234.319 185.539C234.502 185.479 238.052 184.542 239.433 181.038C240.457 178.45 237.344 176.766 237.344 176.766L237.348 176.773Z" fill="#A5A7AA"/>
<path d="M193.33 99.0119C191.623 103.326 188.563 113.539 192.135 124.936C191.441 126.003 190.891 127.031 190.466 128.035C173.316 122.439 160.641 108.345 158.811 104.418C160.848 102.428 172.422 98.7126 193.33 99.0119Z" fill="#F0F0F1"/>
<path d="M268.729 109.352C261.232 107.021 254.099 105.059 247.302 103.397L247.295 103.291C247.183 103.298 247.092 103.312 246.998 103.323C201.872 92.3416 172.446 95.2612 161.023 99.755C165.408 94.8421 176.421 86.8371 200.158 79.2863C251.239 72.4611 314.969 108.581 319.6 111.254C325.983 119.784 339.782 141.164 339.786 153.713C335.639 144.035 320.897 125.573 268.736 109.348L268.729 109.352Z" fill="#B293E2"/>
<path d="M201.946 75.9264C202.871 72.9751 204.165 70.1401 205.181 69.4005C258.75 66.6641 304.131 90.3658 316.792 97.7123C318.383 98.635 319.456 100.269 319.663 102.09C319.989 104.957 319.922 106.696 319.757 107.767C309.2 101.854 250.611 70.5909 201.942 75.9299L201.946 75.9264Z" fill="#F8ED55"/>
<path d="M320.181 155.533C314.734 152.607 314.226 139.632 314.577 132.62C334.423 145.172 337.658 155.998 338.18 159.27C336.358 160.883 333.385 161.309 331.086 161.302C331.819 157.699 330.844 154.589 329.74 152.459L328.485 150.029L327.041 152.349C324.608 156.259 322.88 157.062 320.181 155.53V155.533Z" fill="#F0F0F1"/>
<path d="M259.406 114.265C255.932 112.606 249.164 109.908 242.91 110.313C242.879 110.324 242.802 110.324 242.718 110.194C242.63 110.067 242.577 109.852 242.683 109.63C243.359 108.2 244.509 107.27 246.202 106.784C246.514 106.693 246.721 106.612 246.906 106.538C246.913 106.538 246.917 106.534 246.92 106.531C250.205 107.334 253.58 108.218 257.047 109.183L258.189 110.246C259.15 111.285 259.774 112.504 259.907 113.684C259.945 114.029 259.753 114.194 259.697 114.237C259.553 114.339 259.455 114.286 259.402 114.265H259.406Z" fill="#F0F0F1"/>
<path d="M318.324 56.0142C317.16 50.1011 312.183 45.4664 312.183 45.4664C313.785 49.8827 317.518 62.5119 315.555 67.8333L315.348 68.3968L315.569 68.9568C315.625 69.0977 320.683 82.1495 317.051 94.2574C302.884 86.2242 259.336 64.4137 207.869 66.171C208.742 55.4155 229.317 37.0739 248.694 24.1806C251.838 22.0887 254.947 19.6164 258.484 16.401C265.883 9.67435 285.239 -1.87363 297.829 5.38128C314.57 14.633 331.727 43.4625 339.975 57.3172C340.855 58.7964 341.647 60.1276 342.337 61.2652C343.813 63.7023 346.793 64.6708 349.418 63.5614C351.43 62.7126 354.476 61.3744 357.585 59.9938L357.96 60.0642L358.009 59.8072C358.787 59.462 359.565 59.1134 360.329 58.7717C365.026 56.6728 367.978 51.9078 367.978 51.9078C367.901 51.943 363.526 53.9258 358.689 56.0846L359.776 50.168C361.451 41.0254 364.932 41.0254 368.616 41.0254C371.598 41.0254 374.084 50.6012 376.274 59.0464L376.705 60.6982C379.096 69.8725 353.617 86.5165 344.563 91.2181C339.922 93.6305 328.208 86.4954 321.356 81.0612C320.858 74.8769 319.253 69.957 318.667 68.344C319.635 65.0687 319.182 60.3777 318.324 56.0142Z" fill="#B293E2"/>
<path d="M194.399 137.998C191.672 133.846 191.981 130.613 195.125 126.07L195.573 125.422L195.321 124.675C191.346 112.898 195.388 102.055 196.674 99.0964C208.924 99.5085 224.088 101.273 242.164 105.404C241.196 106.175 240.415 107.14 239.871 108.295C239.311 109.479 239.416 110.884 240.145 111.958C240.828 112.965 241.95 113.504 243.121 113.437C248.662 113.064 254.87 115.564 258.07 117.093C258.543 117.318 259.041 117.427 259.535 117.427C260.226 117.427 260.913 117.209 261.509 116.783C262.585 116.012 263.156 114.687 263.002 113.332C262.9 112.426 262.623 111.528 262.203 110.655C264.05 111.197 265.911 111.754 267.808 112.342C270.191 113.085 272.487 113.828 274.713 114.578C275.161 116.783 276.027 123.781 270.366 128.683L269.504 129.43L269.953 130.483C271.477 134.057 272.561 139.801 270.601 144.225C269.742 146.165 268.337 147.704 266.43 148.835C266.244 147.606 265.929 146.563 265.645 145.806C263.703 140.618 259.209 136.734 255.638 137.171L253.223 137.459L254.498 139.541C255.774 141.622 255.589 143.619 253.952 145.471C253.181 146.348 252.066 146.817 250.888 146.792C249.584 146.768 248.361 146.165 247.53 145.147C242.437 138.9 235.248 138.231 234.947 138.206L232.651 138.012L233.334 140.224C233.78 141.664 234.102 144.073 233.552 144.845C233.51 144.904 233.394 145.066 232.942 145.066C232.002 145.066 230.709 144.369 230.12 143.542L229.097 142.105L227.803 143.299C224.498 146.341 220.572 146.517 218.147 145.341C217.014 144.792 215.15 143.418 215.367 140.393C215.43 139.523 215.732 138.949 216.355 138.534C218.953 136.801 225.623 138.495 227.754 139.22C227.754 139.22 226.611 137.086 224.824 135.787C225.325 133.744 225.357 131.384 225.139 129.081C224.677 124.189 220.12 120.329 220.12 120.329C221.014 122.999 222.857 130.25 221.88 134.765C219.293 134.512 216.534 134.663 214.634 135.931C214.088 136.297 213.628 136.737 213.264 137.248C210.397 137.033 208.315 138.417 206.629 139.544C205.489 140.305 204.512 140.967 203.702 140.826C201.602 140.33 201.013 136.093 200.982 134.653L200.933 132.434L198.872 133.226C198.686 133.297 195.924 134.42 194.403 137.998H194.399ZM247.783 134.036C252.364 134.036 256.079 130.303 256.079 125.7C256.079 121.097 252.364 117.364 247.783 117.364C243.201 117.364 239.486 121.097 239.486 125.7C239.486 130.303 243.201 134.036 247.783 134.036ZM210.831 132.473C215.413 132.473 219.128 128.739 219.128 124.136C219.128 119.533 215.413 115.8 210.831 115.8C206.25 115.8 202.535 119.533 202.535 124.136C202.535 128.739 206.25 132.473 210.831 132.473ZM199.215 112.113C199.85 112.927 200.782 113.391 201.774 113.391C202.139 113.391 202.5 113.328 202.854 113.205C205.118 112.409 209.562 111.074 213.909 111.074C215.136 111.074 216.285 111.18 217.326 111.391C218.588 111.648 219.787 111.127 220.558 110.084C221.263 109.13 221.48 107.873 221.136 106.728C220.432 104.386 218.119 100.459 210.526 100.459L209.945 100.466C204.217 101.129 199.587 104.583 198.546 108.876C198.265 110.035 198.507 111.215 199.212 112.113H199.215Z" fill="#F4D6BD"/>
<path d="M210.169 103.583H210.533C214.789 103.587 217.354 104.95 218.164 107.633C218.241 107.883 218.147 108.087 218.104 108.161C218.038 108.281 217.961 108.323 217.947 108.327C216.699 108.077 215.342 107.947 213.912 107.947C209.349 107.947 204.823 109.2 201.83 110.25L201.777 110.26C201.749 110.26 201.704 110.225 201.665 110.179C201.627 110.127 201.501 109.933 201.578 109.612C202.293 106.661 205.987 104.069 210.169 103.58V103.583Z" fill="#F0F0F1"/>
<path d="M122.333 140.354C122.796 138.209 121.892 135.818 121.001 134.124L121.825 133.994C122.796 134.783 123.883 135.575 125.106 136.364C125.614 138.692 126.582 140.886 127.85 142.728C129.449 145.052 134.798 144.672 134.798 144.672C132.109 143.721 128.923 140.132 128.033 135.124L127.91 134.441L127.325 134.075C121.177 130.229 119.743 127.302 119.435 125.904C119.343 125.499 119.333 125.154 119.354 124.872L135.513 127.905C136.536 128.465 141.629 131.416 143.333 135.776C144.475 138.695 146.761 157.167 147.353 173.72L132.19 154.625C132.561 154.614 132.95 154.603 133.304 154.589C135.579 154.498 137.675 151.233 137.675 151.233C134.37 151.451 129.256 151.656 126.007 151.543C125.779 150.219 125.193 148.947 124.615 148.004C125.095 146.831 125.13 145.507 124.71 144.126C124.251 142.608 123.29 141.235 122.333 140.358V140.354Z" fill="#F4D6BD"/>
<path d="M192.489 252.178C192.548 251.981 192.727 251.383 194.08 250.928C195.51 250.358 196.474 250.072 197.105 249.932L196.18 254.334C195.153 254.866 194.035 255.165 193.348 255.274C192.811 254.387 192.226 253.059 192.489 252.178Z" fill="#995B31"/>
<path d="M122.971 152.895L122.845 153.367C122.761 153.526 122.624 153.688 122.351 153.832C118.425 153.797 112.259 153.079 109.848 149.219L121.965 149.634C122.603 150.67 123.08 151.994 122.971 152.892V152.895Z" fill="#F4D6BD"/>
<path d="M199.478 253.781L200.456 249.136C202.033 248.1 204.845 246.653 207.151 246.825L204.137 252.407C201.75 253.358 200.372 253.774 199.482 253.781H199.478Z" fill="#995B31"/>
<path d="M145.229 199.524C144.952 200.017 144.665 200.348 144.416 200.461C142.516 199.869 139.827 188.818 138.741 177.073C138.741 177.073 136.413 180.017 137.192 186.141C138.292 194.812 140.388 203.602 144.479 203.602C144.552 203.602 144.626 203.602 144.7 203.592C146.095 203.349 147.132 202.503 147.942 201.052C153.985 190.202 148.089 139.41 146.224 134.638C146.081 134.272 145.919 133.913 145.744 133.568C146.999 133.673 148.149 134.135 149.211 134.962C155.737 140.041 157.346 157.467 157.416 163.753C157.416 163.753 160.462 159.245 159.782 154.075C159.768 153.97 159.751 153.86 159.737 153.751C166.291 163.88 178.791 183.243 178.791 183.243C178.332 180.094 177.182 176.643 175.65 173.153C175.033 171.748 174.346 170.339 173.624 168.937L182.142 166.042C181.781 170.036 181.77 174.255 182.324 178.59C185.072 200.091 192.468 209.293 192.78 209.674L195.205 212.622L195.531 208.811C195.531 208.772 195.738 206.409 196.057 203.701C204.711 221.338 223.292 229.495 237.933 233.249C253.927 237.732 259.742 243.166 259.802 243.219L261.127 244.483L262.164 242.976C262.553 242.405 270.98 229.794 266.15 216.816C275.715 218.433 289.266 215.03 294.257 207.599L295.277 206.082L293.626 205.307C286.255 201.852 284.786 190.339 284.608 183.236C288.6 185.43 293.9 185.976 294.177 186.004L296.662 186.247L295.782 183.898C295.73 183.76 293.949 178.914 292.21 171.839C296.262 172.529 305.621 176.368 314.892 196.249L315.036 196.495C316.466 198.51 317.668 199.968 318.552 200.964C318.313 201.126 318.064 201.292 317.833 201.454C310.43 206.659 308.793 213.925 308.793 213.925C308.877 213.812 317.276 202.947 332.937 196.953C332.947 201.584 336.505 205.261 336.505 205.261C336.484 205.141 334.297 193.241 338.983 187.402C340.241 185.835 341.871 184.87 343.925 184.468C343.316 186.31 343.025 188.251 343.091 190.233C343.557 204.025 345.17 237.19 350.112 247.276L350.27 247.597L350.55 247.815C350.995 248.167 351.514 248.35 352.029 248.35C352.366 248.35 352.706 248.273 353.025 248.118C354.756 247.273 356.029 243.413 356.698 239.292C357.992 231.347 354.816 228.413 354.816 228.413C354.816 232.763 353.459 241.124 352.212 244.247C350.203 238.771 348.829 228.677 347.9 218.478L360.424 213.259C360.88 221.585 361.746 248.252 354.711 255.908C353.586 257.13 352.348 257.725 350.925 257.725C347.105 257.528 342.366 241.729 340.213 227.209C340.213 227.209 338.212 234.541 339.491 239.965C339.765 241.116 340.059 242.296 340.375 243.476C325.797 250.643 315.726 249.988 313.192 249.653C314.454 246.463 317.588 237.123 313.651 231.136L313.49 230.928C312.043 229.371 309.992 228.547 307.559 228.547C304.969 228.547 302.547 229.463 301.594 229.875C301.453 229.864 301.282 229.854 301.089 229.843C296.862 223.039 296.017 213.724 296.01 213.625C296.01 213.625 293.353 218.912 295.13 224.258C295.765 226.166 296.595 228.149 297.619 230.044C294.548 230.537 290.426 232.069 288.148 236.584C284.713 237.824 281.18 240.454 280.906 244.423C280.798 245.984 281.215 247.942 282.915 250.118C282.428 250.069 281.947 250.048 281.485 250.065C278.288 248.164 275.063 247.431 270.65 247.544C267.801 245.797 262.774 244.621 258.659 245.441C256.156 243.473 250.418 243.458 247.236 244.314C245.059 243.166 241.396 241.525 236.149 242.645C235.813 242.578 235.448 242.497 235.069 242.416C233.681 242.11 232.006 241.754 230.443 241.902C230.411 241.571 230.366 241.236 230.271 240.905C229.864 239.437 228.855 238.26 227.348 237.503C223.902 235.774 221.14 237.352 219.5 239.169C218.143 238.486 216.657 238.024 215.115 238.024C214.084 238.024 213.089 238.232 212.156 238.641L211.978 238.732C210.411 239.676 209.976 240.958 209.885 241.867C209.822 242.511 209.931 243.159 210.12 243.786C209.804 243.856 209.461 243.934 209.089 244.033C205.006 242.705 200.204 245.543 198.483 246.706C197.273 246.586 195.475 247.008 193.015 247.998C192.194 248.273 191.56 248.636 191.062 249.033C188.609 246.132 185.812 239.835 185.805 236.926C189.289 227.533 189.671 216.707 188.213 209.061C186.723 201.253 183.337 199.309 183.337 199.309C183.368 199.425 185.111 206.173 185.524 214.858C179.558 217.623 172.646 220.211 171.241 219.873C169.152 218.873 157.185 208.688 154.388 203.718C154.83 202.715 155.233 201.679 155.59 200.637C158.068 193.435 155.089 189.438 155.089 189.438C154.696 196.319 149.712 209.248 145.303 210.339C144.02 210.663 142.705 209.695 141.38 207.48C135.502 197.636 132.954 169.406 132.232 159.692L147.479 178.897C147.598 188.23 147.038 196.273 145.229 199.524Z" fill="url(#paint0_linear_211_217)"/>
<path d="M190.284 361.407C197.032 363.281 205.216 366.545 214.298 370.222C207.544 369.162 198.753 368.961 190.284 372.233V361.407Z" fill="#3D238E"/>
<path d="M198.22 256.774C198.609 256.869 199.015 256.912 199.443 256.912C198.795 258.507 198.241 260.486 197.61 262.867C196.614 266.625 198.037 273.64 198.037 273.64C199.124 267.822 201.581 257.919 203.569 255.968C204.007 255.809 204.459 255.64 204.95 255.447C207.2 256.295 210.081 255.531 212.03 254.785C212.037 254.82 212.03 254.858 212.037 254.894C210.961 257.384 210.011 262.356 210.66 265.942C209.965 268.787 210.327 273.475 212.153 276.986C212.538 280.782 217.284 293.162 221.879 294.701C222.514 294.915 223.134 295.018 223.727 295.018C225.125 295.018 226.359 294.433 227.197 293.324C228.715 291.309 228.508 288.125 226.689 285.378L224.925 282.071C224.768 280.627 224.074 275.531 222.058 272.911C222.234 270.566 221.82 265.875 221.115 262.751C221.922 264.441 222.973 266.121 224.252 267.477C225.598 271.355 229.293 275.429 233.113 277.257C235.21 280.342 240.618 284.484 246.615 286.53C250.878 290.172 254.635 291.517 257.565 291.517C259.332 291.517 260.801 291.027 261.894 290.263C263.668 289.023 264.418 287.009 263.763 285.248C262.35 281.462 255.459 278.595 252.339 277.856C249.423 274.894 244.344 272.425 242.307 271.51C240.187 268.734 236.226 265.723 233.334 264.265C232.756 261.916 231.319 258.926 230.393 257.137C230.691 257.007 232.83 255.993 233.513 253.865C234.849 254.07 236.412 254.073 238.035 254.073C238.886 254.063 239.693 254.073 240.306 254.108C242.521 255.281 247.611 255.996 251.579 255.264C253.734 256.211 258.557 256.81 262.105 256.017C264.351 257.76 269.553 258.933 273.514 258.852C275.666 260.247 279.374 261.18 282.817 261.187C285.228 263.311 289.641 264.339 291.425 264.681C290.531 269.974 289.683 277.465 290.707 287.266C292.298 302.449 299.82 310.471 312.46 310.471C314.037 310.471 315.705 310.334 317.444 310.08C319.999 326.552 325.548 335.916 330.409 341.128C334.935 345.982 340.091 344.358 340.091 344.358L339.642 345.855L340.098 344.361C340.014 344.333 335.173 342.699 330.168 335.821C332.888 333.571 338.647 331.599 343.095 332.775C346.722 333.74 348.769 336.61 349.18 341.301C349.523 355.874 346.901 366.898 340.841 375.047L340.806 375.019C340.701 375.135 329.26 387.549 292.585 387.475C266.661 388.056 239.079 376.903 216.913 367.922C203.481 362.481 191.879 357.78 183.467 356.808C175.401 355.874 169.961 356.903 167.196 359.815C167.178 359.569 167.157 359.315 167.147 359.083C166.081 297.367 189.856 263.103 193.334 258.433C194.662 258.31 196.614 257.757 198.223 256.785L198.22 256.774ZM226.271 318.265C228.9 326.605 233.446 337.67 241.07 348.26C243.534 351.683 251.68 356.079 251.68 356.079C230.53 334.448 226.093 304.498 226.051 304.199C226.051 304.199 223.835 310.542 226.268 318.261L226.271 318.265Z" fill="url(#paint1_linear_211_217)"/>
<path d="M183.106 359.9C184.367 360.044 185.745 360.312 187.172 360.632V384.066C175.156 378.069 170.2 370.874 168.279 365.13C168.258 364.221 168.43 363.235 169.036 362.379C170.27 360.646 173.712 358.811 183.106 359.896V359.9Z" fill="#3D238E"/>
<path d="M115.263 119.319L118.537 121.541L117.671 121.379L117.09 122.147C117.019 122.238 116.651 122.777 116.42 123.665L110.086 124.851L109.792 125.718C109.774 125.764 107.959 130.831 102.498 133.117C99.7461 134.269 98.2003 134.015 97.4747 133.483L105.098 122.108L115.26 119.322L115.263 119.319Z" fill="#F4D6BD"/>
<path d="M58.3573 141.735C59.9556 142.217 61.3332 142.629 62.5179 142.629C64.3511 142.629 65.6795 141.252 67.0886 139.798C67.9754 138.879 68.8938 137.931 69.9804 137.248C71.6103 136.596 85.3294 133.247 95.5014 130.831L93.8504 133.297L94.1133 134.043C94.1379 134.11 94.25 134.395 94.4884 134.762C89.1746 136.012 79.2375 138.364 75.6166 139.298C71.2107 140.678 68.0806 143.26 65.7987 145.144C64.8138 145.957 63.8849 146.722 63.3977 146.905C62.5424 147.141 59.1705 145.82 57.155 145.038C55.2412 144.295 53.4325 143.594 52.062 143.32C50.4497 142.992 47.2319 143.457 42.854 144.256C46.4853 142.696 50.355 141.182 52.1111 140.77C53.8391 140.389 56.2367 141.104 58.3573 141.742V141.735Z" fill="#995B31"/>
<path d="M198.129 385.493C203.527 385.514 209.149 385.834 209.149 385.834C208.697 385.665 199.254 380.953 190.284 383.58V375.6C205.135 369.257 222.076 375.146 224.575 376.082C224.284 381.988 223.657 396.308 224.13 401.665C224.89 410.311 224.855 413.456 224.747 414.59C218.753 415.953 176.684 420.774 172.131 420.869C168.755 420.221 159.085 413.942 158.131 412.575C158.061 412.448 157.29 410.913 155.31 399.981C154.956 398.027 155.331 396.019 156.368 394.329C159.614 389.043 160.95 387.176 161.472 386.528C163.207 386.753 167.515 387.725 168.503 388.437C168.664 388.895 169.008 389.997 169.341 391.075C171.381 397.636 173.719 404.845 175.633 407.359L178.104 405.461C177.003 404.014 175.503 399.964 174.216 396.107C176.491 394.677 181.483 391.599 188.132 387.842C191.336 386.031 194.907 385.475 198.129 385.489V385.493Z" fill="#995B31"/>
<path d="M119.329 139.431L103.868 140.263C102.659 139.491 101.485 138.188 101.302 137.206L117.703 134.642C118.541 136.008 119.484 138.033 119.329 139.435V139.431Z" fill="#F4D6BD"/>
<path d="M121.769 145.158C121.906 145.658 121.913 146.102 121.818 146.507L107.689 146.021L107.682 146.207C106.935 145.496 106.206 144.306 105.828 143.291L120.086 142.527C120.563 142.911 121.443 143.957 121.769 145.162V145.158Z" fill="#F4D6BD"/>
<path d="M112.375 127.598L116.48 126.831C116.855 128.303 117.668 129.785 118.961 131.275L108.481 132.913C110.637 130.923 111.835 128.768 112.375 127.595V127.598Z" fill="#995B31"/>
<path d="M280.721 400.126C282.617 398.738 285.926 395.554 288.365 393.128C289.301 392.198 290.539 391.67 291.853 391.649L293.749 391.617C295.242 391.642 296.585 392.191 297.566 393.258C298.411 394.177 299.575 395.399 301.135 396.967L301.317 397.122C304.181 399.228 307.805 403.007 310.339 405.81C312.688 408.405 314.048 411.734 314.195 415.199C314.072 418.661 313.301 419.534 313.112 419.696L312.943 419.703C294.759 420.323 274.331 420.598 271.604 419.904C271.442 419.636 271.299 419.045 271.225 417.928H271.246C270.713 407.743 279.694 400.876 280.721 400.126Z" fill="#995B31"/>
<path d="M292.68 257.151C292.68 257.884 292.365 259.543 292.081 261.029C292.049 261.201 292.011 261.409 291.976 261.589C290.156 261.24 287.647 260.522 285.947 259.564L290.787 256.183C291.383 256.503 292.011 256.824 292.677 257.148L292.68 257.151Z" fill="#995B31"/>
<path d="M256.241 247.583L250.205 252.245L250.243 252.295C247.8 252.598 245.035 252.302 243.261 251.862C245.473 249.981 247.993 247.861 248.96 247.114C251.561 246.639 254.863 246.97 256.241 247.579V247.583Z" fill="#995B31"/>
<path d="M244.705 246.561C242.858 248.104 240.629 250.005 239.535 250.942C239.058 250.932 238.55 250.932 238.028 250.939C236.84 250.939 234.628 250.939 233.461 250.678L237.614 245.568C240.555 245.107 242.777 245.684 244.709 246.561H244.705Z" fill="#995B31"/>
<path d="M289.732 239.349L290.409 239.137L290.696 238.486C292.806 233.668 297.636 232.949 300.325 232.949C301.092 232.949 301.59 233.013 301.636 233.016L302.102 233.08L302.529 232.872C302.554 232.861 305.025 231.667 307.556 231.667C309.095 231.667 310.262 232.094 311.124 232.964C314.734 238.697 309.946 249.336 309.897 249.442L309.834 249.6L309.691 250.034L309.613 249.988C309.473 250.22 306.147 255.475 294.986 254.925C294.871 254.816 294.755 254.707 294.608 254.619L294.468 254.545C287.608 251.309 283.794 247.699 284.008 244.642C284.18 242.159 287.005 240.194 289.729 239.349H289.732ZM304.987 243.293C308.639 240.958 307.531 237.51 307.531 237.51L307.493 237.563C306.515 238.845 304.867 239.415 303.276 239.172L301.113 238.841C294.25 238.841 294.583 243.511 293.364 244.18C292.147 244.846 289.378 244.846 288.495 244.846C293.917 249.294 301.334 245.624 304.987 243.289V243.293Z" fill="#995B31"/>
<path d="M287.633 254.58L282.68 258.039C280.671 258.018 278.698 257.648 277.166 257.123L283.731 253.404C285.098 253.675 286.536 254.154 287.633 254.58Z" fill="#995B31"/>
<path d="M267.79 249.59L262.399 252.661L262.087 252.781C259.809 253.517 256.538 253.288 254.488 252.886L260.331 248.371C262.848 248.132 265.715 248.685 267.793 249.593L267.79 249.59Z" fill="#995B31"/>
<path d="M303.255 394.674C301.769 393.181 300.661 392.015 299.852 391.135C299.62 390.881 299.347 390.684 299.091 390.465C303.686 390.286 307.857 389.916 311.615 389.398C311.629 392.55 311.818 398.351 312.817 403.919C312.758 403.848 312.705 403.774 312.642 403.707C310.038 400.83 306.308 396.942 303.255 394.674Z" fill="#562E19"/>
<path d="M279.217 252.372L273.314 255.718C270.436 255.774 267.489 255.091 265.655 254.401L272.2 250.675C274.965 250.745 277.117 251.259 279.217 252.372Z" fill="#995B31"/>
<path d="M314.749 390.786C314.735 390.074 314.728 389.448 314.728 388.919C320.388 387.965 325.04 386.694 328.822 385.331C324.784 387.574 320.104 389.377 314.749 390.786Z" fill="#132C54"/>
<path d="M286.655 390.515C286.497 390.649 286.325 390.758 286.178 390.906C282.838 394.23 280.251 396.607 278.891 397.597C278.239 398.073 274.762 400.728 271.93 405.046C272.052 403.883 272.182 402.665 272.34 401.327C272.855 396.939 272.403 391.99 272 388.93C276.886 389.765 281.783 390.321 286.655 390.518V390.515Z" fill="#562E19"/>
<path d="M268.771 388.328C269.017 389.997 269.339 392.674 269.43 395.554C253.668 396.03 239.44 395.593 227.081 394.255C227.148 387.683 227.533 379.312 227.716 375.596C240.53 380.611 254.555 385.549 268.771 388.324V388.328Z" fill="#3D238E"/>
<path d="M233.787 245.332L231.491 248.157C230.814 247.442 230.148 246.843 229.507 246.343C229.665 246.015 229.829 245.631 229.984 245.184C230.874 244.779 232.43 245.04 233.787 245.332Z" fill="#995B31"/>
<path d="M229.324 254.172C227.582 254.33 225.942 254.108 224.624 253.598L230.474 253.069C230.225 253.57 229.675 253.975 229.321 254.172H229.324Z" fill="#995B31"/>
<path d="M247.46 285.857C247.46 285.857 265.739 308.717 270.99 316.145C276.241 323.569 287.324 337.247 278.379 348.387C265.739 355.811 242.206 348.193 229.955 321.811L225.872 305.594C225.872 305.594 223.537 332.363 218.094 337.638C211.676 342.914 198.647 345.844 192.422 328.063C186.975 312.627 188.728 307.351 188.728 307.351C188.728 307.351 171.419 317.708 173.557 357.959C180.168 357.375 197.284 360.107 200.785 363.041C204.287 365.971 247.849 381.214 247.849 381.214L297.051 380.238L324.083 366.168L315.138 324.745C315.138 324.745 289.662 300.906 289.662 299.93C289.662 298.955 285.579 275.31 285.579 275.31L270.019 260.264L245.711 257.137L233.46 257.919L233.268 265.734L243.38 273.158L256.02 280.582L262.049 284.685C262.049 284.685 263.408 287.03 262.245 288.594C261.078 290.157 257.187 290.157 257.187 290.157L247.464 285.857H247.46Z" fill="#7944D6"/>
<path d="M298.022 172.526C298.022 172.526 299.967 186.398 298.8 186.398C297.633 186.398 286.353 192.259 286.353 192.259L298.215 206.131L295.102 216.879L300.353 231.34C300.353 231.34 308.52 228.213 310.465 230.364C312.411 232.513 314.419 237.986 314.419 237.986L338.275 232.71L348.195 251.858C348.195 251.858 347.417 257.915 349.555 258.306C351.693 258.697 355.194 258.113 355.194 258.113C355.194 258.113 368.03 235.837 361.223 211.998C354.805 213.953 345.664 217.468 345.664 217.468L344.886 182.295C344.886 182.295 337.886 183.662 336.522 187.962C335.163 192.262 334.577 194.801 334.577 194.801L319.214 202.422L317.658 197.34L311.436 185.032C311.436 185.032 304.24 173.896 298.018 172.526" fill="#7944D6"/>
<path d="M192.033 206.458C192.033 206.458 197.48 234.594 184.774 237.461C188.665 248.403 191.255 249.706 191.255 249.706L199.811 247.361L207.33 245.015H211.999L212.258 240.064L214.852 239.803L219.521 240.064L224.708 237.979L219.521 226.255L202.668 216.094L192.037 206.455L192.033 206.458Z" fill="#7944D6"/>
<path d="M184.774 201.51C183.996 201.51 162.993 183.014 162.993 183.014C162.993 183.014 161.955 173.375 159.102 167.381C157.546 176.238 152.881 187.962 150.027 189.265L148.99 178.583L136.802 163.993C136.802 163.993 137.321 181.968 137.84 187.441C138.359 192.914 142.249 209.065 145.877 210.368C149.768 211.671 153.396 203.595 153.396 203.595L165.843 218.707C165.843 218.707 171.546 221.313 172.324 220.792C173.102 220.271 186.846 216.101 186.846 216.101L184.77 201.51H184.774Z" fill="#7944D6"/>
<path d="M296.746 258.106C296.746 258.106 286.224 311.454 318.31 307.545C329.589 305.981 329.912 304.808 329.912 304.808L336.719 292.109L332.439 276.282L310.658 252.64C310.658 252.64 317.269 237.986 311.825 231.731C306.378 226.258 301.906 231.537 301.906 231.537C301.906 231.537 291.793 232.904 289.655 238.376L286.35 239.549C286.35 239.549 282.07 250.298 299.768 255.961C299.186 258.306 296.743 258.106 296.743 258.106H296.746Z" fill="#784425"/>
<path d="M293.679 258.697C293.679 258.697 290.048 258.567 288.106 257.264C285.382 256.873 281.495 255.961 280.198 254.658C277.086 254.397 268.789 253.876 267.492 251.921C265.158 251.27 256.602 251.14 255.823 250.097C253.23 250.488 247.397 249.706 246.1 248.533C242.858 249.576 235.599 249.055 234.561 247.882C232.746 248.273 229.114 246.97 229.114 246.97L233.135 252.052L239.616 252.312L250.376 254.788H260.878L265.547 255.764L270.734 257.521L279.42 259.476L285.253 260.257L292.642 263.906L293.679 258.697Z" fill="#562E19"/>
<path d="M213.558 240.328C213.558 240.328 217.319 245.149 219.521 245.927C220.688 247.23 223.282 250.227 226.002 251.397C228.466 253.482 230.411 254.654 230.411 254.654L223.8 255.045L217.968 250.745C217.968 250.745 213.04 247.618 212.78 247.096C212.521 246.575 210.575 243.709 210.705 243.187C210.835 242.666 213.558 240.321 213.558 240.321V240.328Z" fill="#562E19"/>
<path d="M225.224 256.091C225.224 256.091 226.103 261.821 228.725 264.297C229.892 267.164 236.373 273.936 238.189 274.327C239.745 275.5 248.042 281.621 249.469 281.751C249.469 282.533 259.84 287.611 261.786 287.872C258.673 289.957 255.564 291.26 255.305 290.869C255.045 290.478 244.803 284.357 244.803 284.357C244.803 284.357 238.711 280.969 238.322 280.708C237.933 280.448 231.582 274.979 231.582 274.979L226.394 268.597L221.855 262.216L221.077 256.355V254.661L225.227 256.095L225.224 256.091Z" fill="#562E19"/>
<path d="M217.575 252.443C217.575 252.443 217.575 256.743 216.667 258.433C216.019 260.258 217.056 267.291 215.889 268.463C216.278 270.418 218.742 276.669 217.964 279.145C219.91 282.012 224.186 291.651 224.186 293.215C226.78 291.521 226.78 289.045 226.78 289.045C226.78 289.045 223.538 284.354 223.538 283.963C223.538 283.572 222.759 277.581 222.759 277.581L221.073 270.679C221.073 270.679 219.906 263.124 219.777 262.603C219.647 262.082 220.555 255.57 220.555 255.179C220.555 254.788 220.684 253.224 220.684 253.224L217.572 252.443H217.575Z" fill="#562E19"/>
<path d="M212.78 247.104C212.78 247.104 210.057 248.928 207.982 248.928C206.036 249.188 201.63 251.925 198.777 250.882C196.313 252.185 190.999 253.098 190.999 253.098L192.296 256.616L199.685 255.443L210.835 253.228L213.429 251.273L214.466 247.755L212.78 247.104Z" fill="#562E19"/>
<path d="M364.469 39.7224L361.616 56.1339L373.544 48.5797L373.285 42.1982C373.285 42.1982 369.135 38.9405 364.469 39.7224Z" fill="#5A33B6"/>
<path d="M254.527 19.4016C254.527 19.4016 224.189 48.8404 219.002 56.9194C213.558 65.5161 213.299 67.8616 213.299 67.8616C213.299 67.8616 259.714 70.989 265.417 73.8522C271.379 76.4583 298.867 33.7318 298.867 33.7318L284.864 18.6198L257.639 16.0137L254.527 19.4016Z" fill="#7944D6"/>
<path d="M252.452 82.9701C252.452 82.9701 229.114 98.3427 210.446 98.3427C191.777 98.3427 168.699 98.864 168.699 98.864C168.699 98.864 208.63 79.5856 223.93 77.5007C235.858 77.7613 252.452 82.9701 252.452 82.9701Z" fill="#7944D6"/>
<path d="M180.172 98.3744C180.172 98.3744 158.002 101.403 156.933 103.749C155.864 106.094 164.031 112.934 164.031 112.934L180.561 126.221L180.172 98.3779V98.3744Z" fill="#7944D6"/>
<path d="M226.846 292.306C226.846 292.306 231.319 289.569 228.403 283.318L226.846 281.17C226.846 281.17 226.654 275.894 225.679 273.746C225.097 271.598 224.708 266.713 224.708 266.713L221.403 260.071L220.821 267.301L221.014 274.14L222.763 282.152C222.763 282.152 226.846 287.819 226.846 292.313V292.306Z" fill="#5A33B6"/>
<path d="M212.065 257.718C212.065 257.718 208.174 259.673 205.454 258.5C202.342 258.5 199.622 270.418 198.066 272.57C197.676 263.973 198.647 262.212 198.647 262.212L202.342 255.179L205.647 253.224L209.538 253.615L213.621 253.031L212.065 257.722V257.718Z" fill="#5A33B6"/>
<path d="M305.867 400.295C305.867 400.295 298.348 396.386 294.976 396.386C291.085 396.386 289.273 396.907 289.273 396.907C289.273 396.907 273.714 407.849 271.123 415.664C269.308 421.655 271.383 421.394 271.383 421.394H279.161C279.161 421.394 287.457 407.324 293.423 407.585C299.385 407.846 312.351 422.176 313.389 421.915C314.426 421.655 315.464 419.57 315.464 419.57L314.945 408.106L305.87 400.291L305.867 400.295Z" fill="#784425"/>
<path d="M193.071 385.443C193.071 385.443 175.18 397.689 174.921 400.816C173.884 397.949 170.512 391.959 170.512 391.959C170.512 391.959 162.734 389.874 160.918 391.177C158.324 393.262 154.178 398.731 154.178 398.731L156.512 411.237L177.774 416.449L223.152 401.337L212.261 384.926L193.074 385.447L193.071 385.443Z" fill="#784425"/>
<path d="M189.443 375.022L188.665 384.14H204.484L203.965 371.634C203.965 371.634 192.037 371.374 189.443 375.022Z" fill="#784425"/>
<path d="M248.627 182.295C248.627 182.295 265.739 175.065 275.466 201.052C272.161 204.18 251.351 200.077 248.627 182.295Z" fill="#F0F0F1"/>
<path d="M213.04 179.95L214.985 184.641L219.265 183.274L223.155 187.184L232.297 186.402C232.297 186.402 246.493 198.517 246.3 219.422C236.188 213.756 228.992 215.71 217.323 207.504C205.654 199.299 199.043 183.081 198.458 173.311C194.178 177.805 193.011 185.229 193.011 185.229C193.011 185.229 184.259 175.851 186.204 157.287C188.928 147.518 192.037 139.703 192.037 139.703L194.371 140.485L195.342 150.645L197.676 154.357C197.676 154.357 197.287 163.151 200.4 167.447C200.789 164.711 201.956 162.954 201.956 162.954C201.956 162.954 214.014 169.596 213.236 176.826C213.236 179.365 213.043 179.953 213.043 179.953L213.04 179.95Z" fill="#F0F0F1"/>
<path d="M244.544 145.235C244.544 145.235 247.008 148.363 250.895 152.529C253.23 154.484 246.745 159.432 236.892 154.744C227.039 150.053 225.872 150.444 225.353 147.19C227.817 145.105 228.466 144.845 228.466 144.845L232.616 146.669L234.821 145.887L235.08 140.935L235.728 139.763C235.728 139.763 243.766 143.151 244.544 145.232V145.235Z" fill="#F0F0F1"/>
<path d="M223.93 148.102C223.93 148.102 215.115 160.738 204.094 156.96C196.057 152.399 194.76 144.193 195.149 142.499C195.538 140.805 198.651 135.205 198.651 135.205C198.651 135.205 200.467 142.76 202.671 143.281C204.876 143.802 206.821 146.278 213.302 143.802C215.767 146.408 223.934 148.102 223.934 148.102H223.93Z" fill="#F0F0F1"/>
<path d="M254.267 114.687L253.296 122.111L252.714 131.49L255.827 139.111C255.827 139.111 262.245 137.547 265.357 150.835C270.219 149.86 276.248 143.996 271.775 129.535C276.444 122.502 278.386 115.663 275.277 112.342C270.804 109.215 258.554 108.433 258.554 108.433C258.554 108.433 263.612 113.708 260.499 115.857C257.387 115.272 254.278 114.684 254.278 114.684L254.267 114.687Z" fill="#E49C72"/>
<path d="M241.235 108.436C241.235 108.436 223.345 106.873 220.232 107.461C218.094 103.749 210.313 98.0822 202.924 105.115L199.811 108.827L200.004 110.975L192.419 113.906C192.419 113.906 192.03 102.379 196.891 98.2723C203.698 95.5359 242.981 104.524 242.981 104.524L241.231 108.433L241.235 108.436Z" fill="#E49C72"/>
<path d="M107.114 124.133L118.393 120.354L119.431 122.569L117.486 125.566L117.545 125.693C115.638 125.753 113.728 125.999 111.912 126.581C110.251 127.112 109.249 128.563 109.263 130.222C109.059 130.278 108.849 130.331 108.614 130.377C107.464 130.602 106.816 131.983 107.107 133.047C107.433 134.237 108.621 134.786 109.764 134.561C110.602 134.395 111.411 134.1 112.175 133.712C112.736 133.835 113.311 133.843 113.854 133.666C114.285 133.529 114.717 133.402 115.158 133.297C115.344 133.251 115.53 133.212 115.716 133.177C115.919 133.145 116.045 133.124 116.087 133.113C116.136 133.106 116.178 133.103 116.245 133.096C116.501 133.071 116.757 133.054 117.012 133.04C117.409 133.018 117.801 133.015 118.197 133.011C119.242 133.004 120.146 132.564 120.798 131.874L127.468 134.677L147.823 153.955L148.212 178.185L130.97 155.389L127.468 152.652L122.67 155.91L110.612 152.913L106.981 148.613L105.165 145.225L100.496 139.882L98.8102 134.022L107.107 124.122L107.114 124.133Z" fill="#E49C72"/>
<path d="M260.619 114.233C260.619 114.233 253.1 107.721 241.302 109.021C244.674 105.503 245.322 104.981 245.322 104.981L258.547 108.433C258.547 108.433 261.66 111.754 260.622 114.23L260.619 114.233Z" fill="#A5A7AA"/>
<path d="M219.132 106.809C219.132 106.809 203.053 105.767 200.463 110.327C200.852 106.288 205.521 102.773 209.538 102.382C213.558 101.991 218.613 102.903 219.132 106.813V106.809Z" fill="#A5A7AA"/>
<path d="M290.048 133.251C290.048 133.251 301.426 133.934 298.8 146.148C297.731 148.493 292.673 151.62 288.008 149.761C287.812 147.905 290.051 133.251 290.051 133.251H290.048Z" fill="#E49C72"/>
<path d="M266.518 261.43C266.518 261.43 282.077 269.833 285.575 283.315C289.077 296.796 283.826 297.969 288.102 307.347C292.382 316.726 325.443 361.668 314.356 370.462C303.273 379.255 252.126 382.379 221.399 371.046L251.155 382.77L290.633 389.219C290.633 389.219 341.195 389.219 346.642 367.725C352.089 346.232 352.671 336.853 345.282 331.968C337.308 328.256 327.584 335.289 327.584 335.289C327.584 335.289 319.807 319.656 319.807 308.714C310.861 308.908 304.443 310.471 295.498 299.529C289.859 286.438 293.164 263.575 293.164 263.575L286.746 261.818L275.855 259.081L265.547 255.76L257.38 254.003L247.849 253.418L237.541 252.833L232.483 251.858L229.177 256.352L229.759 260.455L233.65 266.903L240.457 272.179L249.598 276.87L253.878 280.582L262.045 284.685C262.045 284.685 261.852 278.627 253.682 274.524C250.766 270.224 245.708 268.467 245.708 268.467C245.708 268.467 243.569 264.558 238.122 262.018L237.344 259.479C237.344 259.479 245.708 260.652 249.402 259.285C251.151 260.652 259.125 260.849 260.485 260.261C261.653 261.627 266.514 261.434 266.514 261.434L266.518 261.43Z" fill="#5A33B6"/>
<path d="M357.466 213.495C357.466 213.495 358.503 236.943 353.575 245.279C353.834 247.104 351.759 257.003 347.613 257.525C344.241 251.273 342.169 245.019 342.169 245.019C342.169 245.019 322.463 253.355 311.573 251.53C313.907 246.839 314.426 237.982 314.426 237.982L334.651 229.646L338.282 213.752C338.282 213.752 342.432 230.164 347.616 237.2C347.616 231.731 346.838 216.879 346.838 216.879L357.469 213.491L357.466 213.495Z" fill="#5A33B6"/>
<path d="M302.235 174.935L303.013 188.483L295.495 191.089L304.051 205.68C304.051 205.68 296.792 213.756 295.235 215.059C294.457 217.665 299.904 231.992 299.904 231.992C299.904 231.992 295.495 230.428 292.386 234.076L289.273 237.725C289.273 237.725 283.051 240.331 282.792 242.937C282.533 245.543 286.423 252.055 286.423 252.055L279.683 251.013L269.052 248.667L258.68 246.843C258.68 246.843 251.421 246.061 249.087 246.061C246.752 246.061 238.974 243.194 236.38 243.976C234.565 244.758 228.862 242.413 228.862 242.413C228.862 242.413 227.565 238.243 224.712 237.982C221.859 237.721 194.375 221.049 194.634 205.937L194.893 197.601C194.893 197.601 202.671 214.016 206.562 216.619C210.453 219.225 228.602 228.864 232.753 230.428C236.903 231.992 255.571 238.243 255.571 238.243L260.24 243.194C260.24 243.194 267.24 231.21 266.202 224.958C265.165 218.707 262.571 214.277 262.571 214.277C262.571 214.277 284.611 218.186 292.908 207.244C286.168 202.292 283.055 194.999 283.314 179.629C285.13 182.496 294.205 184.842 294.205 184.842L290.055 170.251C290.055 170.251 299.908 171.554 302.242 174.942L302.235 174.935Z" fill="#5A33B6"/>
<path d="M329.877 301.97C329.877 301.97 334.679 295.564 326.273 295.722C317.865 295.88 308.884 302.501 310.602 305.502C311.895 307.763 314.251 307.626 323.718 305.301C328.173 303.988 329.88 301.97 329.88 301.97H329.877Z" fill="#562E19"/>
<path d="M247.653 21.483C247.653 21.483 281.492 15.2318 281.103 35.1616C280.714 55.0915 260.1 73.4577 260.1 73.4577C260.1 73.4577 309.105 86.7454 318.443 96.5149C319.61 91.433 319.999 82.0544 319.999 82.0544L334.78 91.8239L343.337 93.7785C343.337 93.7785 378.732 73.8486 378.732 63.2973C376.786 55.4824 373.288 42.1947 373.288 42.1947C373.288 42.1947 369.008 55.0915 352.285 59.779L346.838 62.5155L342.558 60.5609L326.224 32.8161C326.224 32.8161 315.334 16.401 311.054 14.4499C306.774 12.4953 300.553 1.94403 288.106 1.16219C275.659 0.380351 259.714 12.1044 259.714 12.1044L247.656 21.483H247.653Z" fill="#5A33B6"/>
<path d="M320.648 110.324C320.648 110.324 346.06 141.326 339.575 158.263C333.873 145.235 323.497 135.596 309.498 127.26C295.495 118.924 236.377 101.727 236.377 101.727L214.336 98.5998C214.336 98.5998 244.414 89.4819 251.417 82.9666C261.011 82.9666 311.313 102.245 320.651 110.32L320.648 110.324Z" fill="#5A33B6"/>
<path d="M260.748 73.2006L251.414 82.97C251.414 82.97 277.864 89.0909 287.457 94.3032C297.051 99.5154 320.648 110.327 320.648 110.327C320.648 110.327 323.89 100.428 318.443 96.5184C312.999 92.6092 260.748 73.2006 260.748 73.2006Z" fill="#E3A141"/>
<path d="M214.01 67.5974L209.342 76.7823C209.342 76.7823 245.515 79.1278 256.405 83.6216C261.074 80.1034 262.823 73.8522 262.823 73.8522C262.823 73.8522 220.817 66.231 214.01 67.601V67.5974Z" fill="#EEC246"/>
<path d="M313.97 130.712C313.97 130.712 311.054 149.666 317.276 154.942C323.497 160.217 324.083 157.481 324.083 157.481L329.526 153.378L329.719 161.193L332.053 163.538L340.22 160.608C340.22 160.608 333.61 139.505 313.967 130.712H313.97Z" fill="#5A33B6"/>
<path d="M178.423 97.5574C178.423 97.5574 168.31 105.242 172.201 114.36C176.221 123.478 178.812 124.911 178.812 124.911L190.61 129.472L193.334 125.693L191.129 113.057L195.927 97.4236L178.426 97.5539L178.423 97.5574Z" fill="#5A33B6"/>
<path d="M313.644 420.355C313.644 420.355 308.976 404.461 296.013 401.858L291.085 402.119C291.085 402.119 275.266 407.071 274.751 421.137C280.454 422.179 313.644 420.355 313.644 420.355Z" fill="#562E19"/>
<path d="M202.149 371.634L201.371 383.88C201.371 383.88 210.705 384.401 215.115 399.513C209.927 396.907 207.337 394.822 202.927 397.949C198.518 401.077 176.737 409.413 172.071 411.498C167.662 406.546 165.072 400.295 165.072 400.295L158.072 398.21L154.44 403.161L157.553 413.582L171.037 422.961L226.009 415.407L226.268 382.059L225.49 375.547C225.49 375.547 210.709 367.472 202.153 371.638L202.149 371.634Z" fill="#562E19"/>
<path d="M153.529 123.09L131.748 125.827C131.748 125.827 138.229 128.303 141.668 129.736C145.947 129.736 152.751 127 152.751 127L153.529 123.09Z" fill="#562E19"/>
<path d="M118.912 127.975L108.996 129.539L104.524 134.814L122.025 132.275L118.912 127.975Z" fill="#562E19"/>
<path d="M95.964 132.275L70.6813 138.917C70.6813 138.917 65.8197 143.411 62.7071 144.387C59.0127 144.58 53.9548 141.848 51.8166 141.848C49.4822 141.848 39.9552 145.169 39.9552 145.169L52.5948 144.971L63.6781 149.074L71.8451 142.432L96.5423 135.79L95.9605 132.272L95.964 132.275Z" fill="#562E19"/>
<path d="M308.912 242.282C314.454 235.249 307.356 230.167 307.356 230.167C307.356 230.167 306.385 228.801 310.469 230.364C314.552 231.928 313.192 242.87 313.192 242.87L310.665 252.64C310.665 252.64 310.686 252.668 311.145 253.256C311.033 253.295 310.924 253.341 310.812 253.379C310.206 253.358 309.575 253.404 308.888 253.598C307.612 253.961 306.515 254.711 305.407 255.436C303.451 256.144 301.46 256.722 299.385 256.972L299.778 255.961C299.778 255.961 289.469 251.53 288.109 248.407C295.305 251.337 304.832 246.191 308.919 242.286L308.912 242.282Z" fill="#562E19"/>
<path d="M306.872 241.208C306.872 241.208 308.429 238.278 307.163 235.834C305.705 233.685 289.662 236.616 288.979 245.019C291.506 245.702 293.84 246.484 293.84 246.484L306.869 241.208" fill="#562E19"/>
<path d="M301.457 278.888C301.457 278.888 302.105 257.915 303.532 256.612C301.976 255.831 298.348 257.525 298.348 257.525C298.348 257.525 300.293 275.891 301.46 278.888" fill="#562E19"/>
<path d="M315.527 271.006C315.527 271.006 327.875 286.541 324.181 295.821C326.869 302.114 328.426 304.287 328.426 304.287C328.426 304.287 338.149 299.857 336.982 292.563C335.815 285.269 328.037 272.242 328.037 272.242C328.037 272.242 315.33 259.345 314.941 258.824C314.552 258.303 310.662 252.636 310.662 252.636L307.03 254.654L313.382 265.987L315.846 272.629" fill="#562E19"/>
<path d="M8.29669 135.452L8.49999 145.957L0 152.082L10.0072 155.135L13.1794 165.151L19.1627 156.53L29.622 156.597L23.3093 148.215L26.6041 138.241L16.7231 141.678L8.29669 135.452Z" fill="#E3A141"/>
<path d="M41.3958 157.917L42.0583 164.394L37.1195 168.617L43.4568 169.987L45.9279 176.009L49.1807 170.374L55.6442 169.878L51.3189 165.024L52.8471 158.696L46.9164 161.33L41.3958 157.917Z" fill="#E3A141"/>
<path d="M40.3583 111.976L41.1645 119.886L35.1356 125.041L42.875 126.714L45.8894 134.068L49.8643 127.19L57.7579 126.58L52.4756 120.657L54.3403 112.926L47.0987 116.142L40.3583 111.976Z" fill="#E3A141"/>
<path d="M146.14 140.287C146.14 140.287 155.474 148.363 158.587 154.096C158.328 159.048 158.846 158.006 158.846 158.006C158.846 158.006 172.85 175.72 177.774 181.454L173.884 173.118L183.218 170.251L182.958 164.26L172.327 167.909L158.584 149.412C158.584 149.412 155.99 132.997 145.099 131.177C144.84 133.001 146.137 140.294 146.137 140.294L146.14 140.287Z" fill="#B293E2"/>
<path d="M196.443 256.743C196.443 256.743 181.661 279.148 176.477 302.857C171.03 324.22 169.996 354.18 170.774 359.132L166.106 361.738L164.549 348.711L170.252 308.591L177.511 283.318L190.642 256.82L196.439 256.746L196.443 256.743Z" fill="#B293E2"/>
<path d="M344.795 194.703C344.795 194.703 348.198 207.501 357.045 207.209C366.67 203.595 375.23 198.221 375.423 194.703C375.423 191.089 373.285 184.736 373.285 184.736L377.368 183.37C377.368 183.37 381.259 185.518 381.939 195.386C387.579 195.094 390.106 194.312 390.106 194.312L384.175 202.324L346.351 217.175L344.795 194.706V194.703Z" fill="#E49C72"/>
<path d="M356.074 196.464C356.074 196.464 369.59 195.583 364.143 181.126L359.281 182.102C359.281 182.102 362.296 190.015 356.074 196.464Z" fill="#E49C72"/>
<path d="M209.948 100.466L210.53 100.459C218.122 100.459 220.435 104.386 221.14 106.728C221.483 107.876 221.266 109.13 220.562 110.084C219.79 111.127 218.588 111.648 217.33 111.391C216.289 111.18 215.139 111.074 213.912 111.074C209.566 111.074 205.121 112.409 202.857 113.205C202.503 113.328 202.142 113.391 201.777 113.391C200.786 113.391 199.853 112.927 199.219 112.113C198.518 111.215 198.272 110.035 198.553 108.876C199.594 104.583 204.221 101.128 209.951 100.466H209.948ZM201.662 110.18C201.7 110.229 201.746 110.261 201.774 110.261L201.827 110.25C204.82 109.2 209.342 107.947 213.909 107.947C215.339 107.947 216.695 108.073 217.943 108.327C217.957 108.327 218.031 108.281 218.101 108.162C218.143 108.084 218.234 107.883 218.161 107.633C217.354 104.95 214.789 103.587 210.53 103.587H210.165C205.984 104.069 202.289 106.665 201.574 109.616C201.497 109.937 201.623 110.13 201.662 110.183V110.18Z" fill="#221F20"/>
<path d="M234.319 185.543L232.984 185.972L230.905 181.225L223.538 184.451L220.239 179.386L214.547 181.971L213.8 181.359C213.713 181.285 211.298 179.943 211.862 177.692C212.454 175.329 215.104 175.727 215.104 175.727C214.757 176.844 214.967 177.682 215.244 178.224L221.389 175.438L224.705 180.535L232.507 177.118L234.61 181.919C235.742 181.147 237.253 179.594 237.348 176.777C237.348 176.777 240.457 178.46 239.437 181.049C238.052 184.553 234.502 185.49 234.323 185.55L234.319 185.543Z" fill="#221F20"/>
<path d="M32.3947 146.341C33.5093 144.337 48.9425 138.301 51.4206 137.716C53.9583 137.153 56.7695 137.998 59.2476 138.741C60.555 139.132 61.7888 139.506 62.5179 139.506C63.0332 139.506 64.0041 138.505 64.8559 137.621C65.8548 136.589 66.987 135.417 68.4521 134.522L68.6029 134.441C70.5938 133.508 93.3983 128.112 97.948 127.042L97.9725 127.148L103.171 119.393L115.828 115.924L125.285 122.34L149.663 117.906C151.033 117.66 152.418 117.959 153.557 118.759C154.7 119.558 155.46 120.755 155.702 122.132L155.86 123.027C156.354 125.834 154.49 128.546 151.696 129.07L144.279 130.462C146.796 130.24 149.092 130.905 151.121 132.483C154.633 135.216 156.831 140.393 158.212 145.757L158.233 145.739C158.717 146.331 166.27 155.618 172.134 166.137L182.548 162.598C184.374 149.972 189.443 140.27 190.775 137.882C189.618 135.554 189.226 133.321 189.587 131.036C172.306 125.425 157.515 110.486 155.678 104.668L155.482 104.678C155.471 104.485 155.503 104.295 155.534 104.101C155.478 103.798 155.46 103.523 155.499 103.291C156.288 98.5435 166.319 86.8969 198.525 76.5322C199.268 73.7253 201.161 67.7735 204.101 66.4317L204.368 66.3084L204.662 66.2908C204.701 66.2908 204.736 66.2908 204.771 66.2873C205.626 49.5799 242.669 24.4413 246.98 21.571C249.991 19.5671 252.984 17.1899 256.402 14.0801C264.348 6.85341 285.312 -5.44119 299.357 2.65191C316.81 12.2981 334.262 41.6171 342.65 55.7078C343.526 57.1799 344.311 58.5006 344.998 59.6311C345.667 60.7369 347.02 61.1807 348.216 60.6736C349.975 59.9305 352.541 58.807 355.247 57.6096L356.719 49.594C358.7 38.7961 363.684 37.891 368.619 37.891C374.007 37.891 376.338 46.8751 379.289 58.2506L379.717 59.9023C383.358 73.8627 346.372 93.7961 345.997 93.9933C344.91 94.5568 343.663 94.8033 342.317 94.8033C335.559 94.8033 326.242 88.6049 321.499 85.0937C321.464 88.6049 320.995 92.3451 319.764 96.0324C321.415 97.4869 322.509 99.5155 322.761 101.727C323.185 105.429 323.077 108.098 322.446 109.863C326.368 115.205 348.594 146.496 341.482 160.281L341.398 160.418L341.342 160.51C338.818 163.824 334.199 164.429 331.16 164.429C330.764 164.429 330.399 164.419 330.063 164.401C328.646 167.402 325.912 170.621 321.082 173.843C324.388 180.788 324.433 191.699 321.173 199.193C321.184 199.207 321.198 199.218 321.209 199.232C324.647 197.122 328.682 195.101 333.291 193.47C333.775 190.586 334.749 187.698 336.565 185.437C338.706 182.767 341.7 181.334 345.454 181.147C345.622 180.866 345.79 180.587 345.976 180.313L356.081 165.486L357.112 165.722C357.361 165.778 359.59 166.356 361.108 169.022C362.541 171.54 362.815 175.005 361.97 179.334C367.82 177.351 380.021 173.431 383.166 174.121C385.135 174.562 386.012 175.597 386.397 176.389C386.531 176.66 386.622 176.935 386.685 177.203C388.946 176.696 392.202 176.534 393.555 179.249L393.625 179.415C394.393 181.535 394.007 183.856 392.668 185.666C393.65 187.113 393.804 188.487 393.73 189.466C393.618 190.924 392.92 192.308 391.788 193.371C391.68 199.633 386.345 202.835 383.341 203.701L363.481 211.981C363.936 219.07 365.317 248.974 357.01 258.018C355.293 259.888 353.249 260.839 350.866 260.839H350.859C346.716 260.624 343.533 253.925 341.269 246.519C330.073 251.932 321.412 252.964 316.48 252.964C314.889 252.964 313.704 252.858 312.929 252.76C314.924 255.426 320.672 261.849 330.094 271.95C336.87 279.212 339.649 288.101 337.525 295.725C335.751 302.093 330.739 306.731 323.413 308.784C322.432 309.059 321.464 309.302 320.518 309.51C322.197 320.385 325.243 327.964 328.443 333.194C332.096 330.31 338.657 328.341 343.904 329.736C348.791 331.035 351.77 335.043 352.296 341.111C352.66 356.505 349.737 368.303 343.161 377.051C343.161 377.051 343.144 377.072 343.137 377.079C336.999 385.221 327.683 390.712 314.878 393.973C315.085 398.044 315.604 403.228 316.841 407.539L316.89 407.782C317.244 410.659 317.388 413.107 317.325 415.146C317.325 415.199 317.335 415.252 317.335 415.305C317.356 416.062 317.335 416.594 317.265 416.978L317.195 416.963C316.925 419.383 316.273 421.059 315.222 422.003C314.44 422.707 313.567 422.898 312.926 422.824C303.196 423.158 292.379 423.444 284.012 423.444C276.5 423.444 270.966 423.215 269.974 422.577C269.006 421.957 268.424 420.591 268.207 418.083H268.155C268.141 417.812 268.158 417.548 268.155 417.277C267.979 413.896 268.354 408.722 269.262 400.95C269.35 400.21 269.402 399.446 269.434 398.675C265.329 398.798 261.309 398.868 257.411 398.868C246.388 398.868 236.244 398.372 227.088 397.396C227.102 398.995 227.151 400.372 227.239 401.387C228.399 414.614 227.796 415.833 227.47 416.488L227.358 416.717L227.179 416.897C225.209 418.876 172.496 423.996 172.015 423.996H171.893L171.773 423.975C167.606 423.313 156.971 416.446 155.552 414.312C155.25 413.857 154.448 412.649 152.257 400.538C151.766 397.822 152.288 395.033 153.729 392.684C159.463 383.351 159.923 383.351 160.932 383.351C161.02 383.351 170.151 384.323 171.307 387.035C171.476 387.426 171.752 388.321 172.32 390.138C172.576 390.962 172.888 391.959 173.232 393.047C175.478 391.645 179.457 389.212 184.595 386.267C174.441 380.939 169.201 374.705 166.565 369.173C166.565 369.173 165.923 367.979 165.208 365.753C164.413 363.242 164.108 360.977 164.041 359.15C162.983 297.719 186.299 262.786 190.656 256.81C189.965 255.665 189.103 253.753 189.425 251.83C186.337 248.727 182.492 240.715 182.713 236.524L182.811 236.049C184.963 230.371 185.636 224.039 185.619 218.246C180.887 220.401 174.599 222.955 171.363 222.955C170.806 222.955 170.336 222.877 169.986 222.712C167.879 221.711 157.273 213.044 152.8 206.899C150.914 210.195 148.59 212.738 146.056 213.365C145.671 213.46 145.25 213.52 144.798 213.52C143.024 213.52 140.816 212.579 138.723 209.075C131.787 197.457 129.14 161.809 128.713 155.234L128.278 154.688H128.275C127.37 154.688 126.494 154.674 125.695 154.639C125.323 155.438 124.612 156.312 123.245 156.843L122.975 156.945H122.687C113.981 156.945 108.215 154.177 106.357 149.127C104.52 147.856 102.985 145.176 102.571 143.101C100.703 141.999 98.2985 139.675 98.2003 137.083C95.4102 137.738 80.927 141.14 76.4789 142.281C72.7284 143.46 69.8717 145.817 67.7862 147.535C66.4963 148.602 65.4728 149.441 64.5053 149.807C64.1303 149.948 63.7097 150.015 63.24 150.015C61.568 150.015 59.2651 149.176 56.0474 147.93C54.3404 147.268 52.5738 146.581 51.4662 146.359C49.9695 146.067 44.3717 147.12 40.6668 147.824C33.8668 149.113 32.8188 149.31 32.2755 147.666L32.0757 146.922L32.4122 146.32L32.3947 146.341ZM115.263 119.319L105.102 122.104L97.4783 133.48C98.2039 134.012 99.7496 134.265 102.501 133.113C107.962 130.828 109.778 125.76 109.795 125.714L110.09 124.848L116.424 123.661C116.655 122.773 117.023 122.235 117.093 122.143L117.675 121.375L118.541 121.537L115.267 119.315L115.263 119.319ZM122.333 140.354C123.29 141.231 124.251 142.605 124.71 144.123C125.13 145.503 125.095 146.827 124.615 148C125.194 148.944 125.779 150.215 126.007 151.54C129.256 151.652 134.374 151.448 137.675 151.23C137.675 151.23 135.579 154.498 133.304 154.586C132.95 154.6 132.561 154.611 132.19 154.621L147.353 173.716C146.757 157.164 144.472 138.695 143.333 135.772C141.626 131.412 136.536 128.461 135.513 127.901L119.354 124.869C119.329 125.147 119.343 125.492 119.435 125.901C119.743 127.299 121.177 130.226 127.325 134.071L127.91 134.438L128.033 135.121C128.923 140.129 132.109 143.714 134.798 144.668C134.798 144.668 129.445 145.049 127.85 142.724C126.582 140.879 125.618 138.685 125.106 136.361C123.883 135.572 122.796 134.783 121.825 133.99L121.001 134.121C121.892 135.818 122.796 138.206 122.333 140.351V140.354ZM118.965 131.279C117.671 129.789 116.858 128.303 116.483 126.834L112.379 127.602C111.839 128.775 110.64 130.93 108.484 132.92L118.965 131.282V131.279ZM152.797 123.573L152.639 122.678C152.541 122.125 152.236 121.646 151.777 121.326C151.317 121.006 150.764 120.886 150.213 120.984L132.624 124.182L136.315 124.876L136.725 125.013C136.88 125.091 138.843 126.102 141.016 127.894L151.128 125.996C152.25 125.785 152.996 124.7 152.8 123.573H152.797ZM230.45 163.087C228.417 163.299 223.355 164.369 221.95 166.835C227.193 169.455 232.111 167.018 234.772 165.123C233.24 164.531 231.789 163.841 230.45 163.087ZM219.307 165.194C220.828 162.647 224.126 161.305 226.72 160.626C225.651 159.791 224.715 158.932 223.941 158.076C221.718 159.576 218.816 160.559 215.728 160.971C216.033 161.858 216.899 163.408 219.307 165.194ZM223.162 154.744L224.442 153.614L225.448 154.994C230.04 161.305 245.616 168.923 257.797 160.362C264.699 155.604 263.854 149.888 262.736 146.908C261.719 144.197 259.939 142.182 258.361 141.115C258.701 143.365 258 145.602 256.283 147.546C254.916 149.095 252.907 149.979 250.832 149.916C248.617 149.87 246.538 148.856 245.129 147.127C242.462 143.851 239.034 142.4 236.85 141.774C237.06 143.355 237.046 145.316 236.089 146.662C235.388 147.651 234.27 148.194 232.945 148.194C231.529 148.194 229.945 147.556 228.739 146.57C225.083 149.271 220.449 149.927 216.797 148.155C213.772 146.686 212.083 143.785 212.254 140.368C210.807 140.506 209.608 141.305 208.353 142.143C206.807 143.179 205.202 144.249 203.092 143.887C200.014 143.165 198.749 139.992 198.23 137.572C197.053 139.037 195.889 141.837 196.912 146.915C198.63 153.476 203.246 156.16 206.818 157.252C213.096 159.175 220.057 157.481 223.162 154.737V154.744ZM198.872 133.226L200.933 132.434L200.982 134.652C201.013 136.096 201.602 140.33 203.702 140.826C204.515 140.964 205.493 140.305 206.629 139.544C208.318 138.417 210.4 137.033 213.264 137.248C213.628 136.737 214.084 136.297 214.634 135.931C216.534 134.667 219.296 134.515 221.88 134.765C222.858 130.254 221.014 122.999 220.12 120.329C220.12 120.329 224.677 124.189 225.139 129.081C225.357 131.384 225.325 133.747 224.824 135.786C226.612 137.083 227.754 139.22 227.754 139.22C225.623 138.495 218.949 136.801 216.355 138.533C215.735 138.946 215.43 139.52 215.367 140.393C215.15 143.418 217.018 144.792 218.147 145.341C220.572 146.517 224.498 146.341 227.803 143.298L229.097 142.105L230.12 143.541C230.709 144.369 232.002 145.066 232.942 145.066C233.394 145.066 233.51 144.904 233.552 144.845C234.099 144.073 233.776 141.668 233.334 140.224L232.651 138.012L234.947 138.206C235.248 138.231 242.441 138.9 247.53 145.147C248.361 146.165 249.584 146.764 250.888 146.792C252.066 146.817 253.177 146.348 253.952 145.471C255.589 143.619 255.774 141.622 254.499 139.541L253.223 137.459L255.638 137.171C259.209 136.734 263.7 140.618 265.645 145.806C265.929 146.56 266.241 147.606 266.43 148.835C268.337 147.704 269.742 146.165 270.601 144.225C272.561 139.798 271.477 134.054 269.953 130.483L269.504 129.43L270.366 128.683C276.027 123.781 275.161 116.783 274.713 114.578C272.487 113.828 270.191 113.081 267.808 112.342C265.911 111.75 264.05 111.197 262.203 110.655C262.627 111.528 262.9 112.426 263.002 113.331C263.156 114.687 262.585 116.012 261.509 116.783C260.913 117.213 260.226 117.427 259.535 117.427C259.041 117.427 258.543 117.315 258.07 117.093C254.87 115.568 248.662 113.064 243.121 113.437C241.95 113.504 240.828 112.965 240.145 111.958C239.416 110.88 239.311 109.479 239.872 108.295C240.415 107.14 241.196 106.175 242.164 105.404C224.084 101.273 208.921 99.5084 196.674 99.0964C195.388 102.055 191.346 112.902 195.321 124.675L195.573 125.422L195.125 126.07C191.981 130.613 191.669 133.846 194.399 137.998C195.92 134.42 198.682 133.297 198.868 133.226H198.872ZM246.924 106.534C246.924 106.534 246.913 106.538 246.91 106.541C246.724 106.615 246.517 106.7 246.205 106.788C244.512 107.274 243.363 108.204 242.686 109.634C242.581 109.855 242.637 110.07 242.721 110.197C242.809 110.324 242.882 110.327 242.914 110.317C249.167 109.912 255.932 112.61 259.409 114.268C259.462 114.289 259.56 114.342 259.704 114.24C259.763 114.198 259.956 114.032 259.914 113.687C259.781 112.507 259.157 111.292 258.196 110.25L257.054 109.186C253.587 108.225 250.212 107.341 246.927 106.534H246.924ZM190.466 128.035C190.894 127.028 191.441 125.999 192.135 124.936C188.563 113.543 191.623 103.326 193.33 99.0119C172.422 98.7125 160.848 102.428 158.811 104.418C160.641 108.341 173.316 122.439 190.466 128.035ZM161.02 99.7585C172.446 95.2647 201.872 92.3451 246.994 103.326C247.092 103.316 247.18 103.301 247.292 103.294L247.299 103.4C254.095 105.059 261.228 107.02 268.726 109.355C320.886 125.58 335.629 144.038 339.775 153.719C339.775 141.171 325.972 119.79 319.589 111.261C314.959 108.584 251.232 72.4645 200.148 79.2933C176.411 86.8405 165.398 94.8491 161.013 99.762L161.02 99.7585ZM344.563 91.2216C353.614 86.52 379.096 69.876 376.706 60.7017L376.274 59.05C374.084 50.6047 371.599 41.029 368.616 41.029C364.932 41.029 361.451 41.029 359.776 50.1716L358.689 56.0882C363.523 53.9293 367.897 51.9465 367.978 51.9113C367.978 51.9113 365.026 56.6798 360.33 58.7753C359.565 59.1169 358.787 59.4656 358.009 59.8107L357.96 60.0678L357.585 59.9974C354.479 61.3779 351.43 62.7162 349.418 63.565C346.793 64.6708 343.817 63.7023 342.338 61.2687C341.647 60.1312 340.858 58.8035 339.975 57.3208C331.728 43.466 314.57 14.6366 297.829 5.38482C285.239 -1.87008 265.883 9.6779 258.484 16.4045C254.947 19.6199 251.838 22.0958 248.694 24.1842C229.321 37.0775 208.742 55.419 207.869 66.1746C259.336 64.4172 302.884 86.2277 317.051 94.261C320.683 82.153 315.625 69.0977 315.569 68.9604L315.348 68.4004L315.555 67.8369C317.518 62.5155 313.785 49.8863 312.183 45.4699C312.183 45.4699 317.16 50.1011 318.324 56.0177C319.183 60.3812 319.635 65.0723 318.667 68.3476C319.253 69.9641 320.858 74.884 321.356 81.0648C328.208 86.4989 339.923 93.6341 344.563 91.2216ZM319.663 102.09C319.456 100.273 318.383 98.6386 316.792 97.7123C304.131 90.3659 258.75 66.6641 205.181 69.4006C204.161 70.1366 202.868 72.9752 201.946 75.9265C250.615 70.5874 309.203 101.854 319.761 107.764C319.922 106.696 319.992 104.957 319.666 102.086L319.663 102.09ZM338.177 159.273C337.655 155.998 334.419 145.176 314.573 132.624C314.223 139.632 314.728 152.607 320.178 155.537C322.877 157.065 324.609 156.266 327.038 152.357L328.482 150.036L329.737 152.466C330.841 154.6 331.815 157.706 331.083 161.309C333.378 161.316 336.354 160.89 338.177 159.277V159.273ZM317.682 174.1L316.911 172.783L318.205 171.98C325.955 167.162 329.274 161.841 327.949 156.456C326.081 158.65 323.045 160.76 318.678 158.277C310.315 153.783 311.212 135.343 311.569 130.789C303.248 125.869 292.333 120.734 278.022 115.719C278.393 119.209 278.172 125.404 273.216 130.289C274.814 134.6 275.621 140.566 273.437 145.5C272.08 148.56 269.753 150.842 266.511 152.318C266.171 155.653 264.478 159.545 259.563 162.936C255.158 166.035 250.355 167.261 245.69 167.261C243.166 167.261 240.692 166.891 238.333 166.278C235.897 168.483 231.554 171.1 226.622 171.1C224.498 171.1 222.269 170.614 220.046 169.399C214.414 166.187 212.938 162.947 212.57 161.182C210.302 161.189 208.02 160.904 205.907 160.256C199.79 158.382 195.524 153.931 193.877 147.637C193.435 145.443 193.337 143.57 193.467 141.967C193.19 141.626 192.931 141.288 192.682 140.953C189.983 146.296 183.284 161.594 185.405 178.196C187.077 191.269 190.561 199.63 192.885 203.99C193.127 201.891 193.446 199.461 193.81 197.626L194.855 192.378L196.786 197.369C196.86 197.559 196.947 197.798 197.049 198.08C204.08 217.616 223.58 226.343 238.732 230.231C251.19 233.724 257.758 237.767 260.454 239.75C262.56 235.918 267.397 225.194 262.031 215.288L260.145 211.805L263.892 213.058C271.604 215.643 284.986 213.329 290.612 207.191C281.993 201.468 281.341 186.546 281.488 180.115L281.572 176.312L284.173 179.076C285.88 180.89 289.389 181.964 291.993 182.496C288.944 173.343 279.778 141.749 291.594 123.541C291.594 123.541 291.874 126.264 291.769 128.549C293.921 128.834 298.274 129.824 301.317 133.247C303.791 136.029 304.84 139.763 304.429 144.334C304.128 147.683 302.771 150.367 300.388 152.3C296.956 155.089 292.231 155.607 289.333 155.628C289.802 160.217 290.581 164.644 291.446 168.581C295.803 168.849 306.96 171.955 317.644 194.791C318.085 195.411 318.492 195.953 318.885 196.46C321.338 189.431 320.925 179.65 317.679 174.104L317.682 174.1ZM291.166 131.627C289 137.977 288.583 145.334 289.066 152.501C291.488 152.504 295.645 152.142 298.443 149.863C300.164 148.461 301.11 146.563 301.331 144.056C301.66 140.389 300.879 137.459 299.01 135.35C296.546 132.564 292.771 131.824 291.166 131.631V131.627ZM390.716 180.587C390.218 179.788 388.304 180.003 386.776 180.411L374.757 185.68C375.072 186.86 375.409 188.328 375.644 189.906L389.475 184.525L389.566 184.444C390.481 183.641 391.255 182.211 390.719 180.587H390.716ZM382.391 200.721C382.626 200.655 387.522 199.207 388.49 194.745L388.392 194.787C386.415 195.615 384.312 196.104 382.17 196.228L378.725 196.428L389.892 190.815C390.306 190.336 390.565 189.786 390.607 189.223C390.649 188.684 390.484 188.138 390.165 187.599L375.927 193.139C375.987 195.629 375.619 198.059 374.35 199.732C374.35 199.732 374.231 194.361 373.618 191.945C372.846 188.913 371.7 185.793 371.066 184.257L371.111 184.239L370.971 183.919L383.625 178.372C383.66 178.178 383.674 177.942 383.59 177.77C383.467 177.523 383.06 177.305 382.472 177.175C380.6 176.738 370.277 179.732 361.09 182.933C361.847 184.933 362.205 188.635 361.062 191.582C358.759 197.534 354.868 196.946 354.868 196.946C356.614 196.055 357.627 192.413 358.051 190.793C358.906 187.532 358.475 184.426 358.111 183.873L357.697 183.246L357.922 182.531C360.039 175.843 359.373 172.392 358.44 170.67C358.069 169.987 357.638 169.536 357.263 169.247L348.521 182.077C346.898 184.454 346.092 187.236 346.19 190.114C346.351 194.935 346.761 204.87 347.606 215.2L382.209 200.774L382.387 200.714L382.391 200.721ZM301.632 233.02C301.587 233.013 301.089 232.953 300.321 232.953C297.633 232.953 292.806 233.671 290.693 238.489L290.405 239.141L289.729 239.352C287.005 240.197 284.18 242.162 284.008 244.645C283.795 247.702 287.608 251.312 294.468 254.549L294.608 254.623C294.755 254.711 294.871 254.82 294.987 254.929C306.147 255.478 309.473 250.224 309.613 249.991L309.691 250.037L309.834 249.604L309.897 249.446C309.947 249.34 314.735 238.701 311.124 232.967C310.265 232.097 309.098 231.671 307.556 231.671C305.022 231.671 302.554 232.861 302.53 232.875L302.102 233.083L301.636 233.02H301.632ZM229.98 245.184C229.826 245.631 229.661 246.015 229.503 246.343C230.145 246.839 230.811 247.442 231.487 248.157L233.783 245.332C232.43 245.04 230.87 244.779 229.98 245.184ZM227.271 241.74C227.162 241.349 226.909 240.775 225.953 240.296C224.309 239.472 223.019 240.109 222.171 240.891C223.562 241.997 224.652 243.194 225.276 244.047C225.669 244.166 226.212 244.371 226.846 244.673C227.004 244.297 227.158 243.86 227.256 243.399L227.246 243.388C227.246 243.388 227.256 243.381 227.26 243.374C227.376 242.817 227.414 242.243 227.274 241.74H227.271ZM211.648 246.67C211.385 246.716 211.056 246.776 210.667 246.864L207.522 252.682C209.128 252.58 211.119 251.837 212.328 251.245C212.58 250.178 212.91 249.188 213.19 248.442C212.798 248.058 212.226 247.445 211.648 246.667V246.67ZM193.344 255.278C194.031 255.165 195.149 254.866 196.176 254.337L197.102 249.935C196.471 250.076 195.507 250.361 194.077 250.932C192.724 251.386 192.541 251.985 192.485 252.182C192.223 253.062 192.804 254.39 193.344 255.278ZM200.453 249.136L199.475 253.781C200.368 253.774 201.742 253.358 204.13 252.407L207.144 246.825C204.838 246.653 202.026 248.104 200.449 249.136H200.453ZM224.063 287.058L222.917 284.921L222.879 284.973L216.047 279.972C217.53 284.399 220.73 291.02 222.861 291.735C223.723 292.021 224.347 291.922 224.715 291.432C225.318 290.633 225.287 288.876 224.063 287.058ZM214.736 275.144L221.459 280.064C221.108 278.279 220.555 276.285 219.812 275.134L219.675 275.229C219.366 274.788 219.058 274.376 218.746 273.971L218.721 273.95V273.943C216.773 271.414 214.827 269.576 213.45 268.421C213.355 270.478 213.772 273.073 214.736 275.141V275.144ZM213.625 264.614C214.491 265.22 216.534 266.766 218.879 269.305C218.725 267.202 218.406 264.744 217.996 263.075L214.358 257.711C213.821 259.645 213.401 262.381 213.625 264.617V264.614ZM248.624 284.142C254.499 289.161 258.603 288.752 260.11 287.696C260.696 287.287 260.99 286.745 260.839 286.343C260.243 284.748 256.963 282.804 254.06 281.67L254.099 281.758L248.62 284.142H248.624ZM244.793 282.403L250.128 280.082C248.375 278.289 245.368 276.472 242.57 275.095L236.5 276.507C238.143 278.345 241.161 280.68 244.793 282.403ZM233.58 273.978L239.206 272.668C237.236 270.46 233.818 267.865 231.34 266.78L231.144 266.695L227.022 265.952L227.095 266.185C227.989 269.08 230.706 272.281 233.583 273.975L233.58 273.978ZM224.305 247.023L217.323 248.614C218.01 249.333 218.963 250.157 220.194 250.868L228.992 250.072C226.836 247.885 224.943 247.195 224.305 247.023ZM218.753 258.644C219.065 257.444 219.391 255.76 219.619 254.087C217.912 253.253 216.552 252.214 215.546 251.242C215.335 251.981 215.181 252.682 215.108 253.263L218.756 258.641L218.753 258.644ZM224.617 253.608C225.932 254.119 227.575 254.341 229.318 254.182C229.668 253.985 230.222 253.58 230.471 253.08L224.621 253.608H224.617ZM224.361 262.3L229.745 263.269C228.918 261.043 227.607 258.504 226.941 257.31C225.262 257.169 223.744 256.739 222.468 256.07C222.423 256.352 222.377 256.623 222.332 256.88L222.486 256.866C222.623 258.317 223.313 260.384 224.361 262.3ZM215.076 245.917L221.484 244.459C219.924 242.937 217.456 241.155 215.108 241.155C214.536 241.155 214.004 241.257 213.488 241.469C213.012 241.779 212.987 242.046 212.973 242.177C212.875 243.156 214.028 244.8 215.076 245.917ZM237.604 245.575L233.45 250.685C234.617 250.946 236.829 250.946 238.017 250.946C238.54 250.942 239.048 250.942 239.525 250.949C240.622 250.013 242.851 248.107 244.695 246.568C242.763 245.691 240.541 245.114 237.6 245.575H237.604ZM248.953 247.125C247.986 247.868 245.466 249.991 243.254 251.872C245.031 252.312 247.793 252.608 250.236 252.305L250.198 252.256L256.234 247.593C254.853 246.984 251.554 246.653 248.953 247.128V247.125ZM260.324 248.375L254.481 252.89C256.532 253.291 259.802 253.52 262.08 252.784L262.392 252.664L267.783 249.593C265.708 248.685 262.841 248.132 260.321 248.371L260.324 248.375ZM272.193 250.682L265.648 254.408C267.482 255.098 270.429 255.785 273.307 255.725L279.21 252.379C277.107 251.263 274.958 250.752 272.193 250.682ZM292.074 261.039C292.358 259.55 292.677 257.891 292.673 257.162C292.007 256.838 291.38 256.517 290.784 256.197L285.943 259.578C287.643 260.536 290.149 261.251 291.972 261.603C292.007 261.423 292.046 261.215 292.077 261.043L292.074 261.039ZM282.673 258.049L287.626 254.591C286.529 254.161 285.091 253.686 283.724 253.415L277.159 257.134C278.691 257.662 280.664 258.032 282.673 258.049ZM334.507 294.898C336.309 288.432 333.739 280.466 327.802 274.102C315.712 261.145 311.524 256.246 310.01 254.066C309.47 254.51 308.825 254.968 308.057 255.415C309.999 257.613 312.092 260.662 313.911 263.564C316.589 267.829 316.091 273.51 316.091 273.51C316.024 273.387 309.677 261.511 305.071 256.781C303.616 257.299 301.892 257.708 299.88 257.93C299.161 263.962 301.951 280.448 301.979 280.62C301.979 280.62 297.7 273.989 297.072 267.456C296.736 263.959 296.546 260.518 296.739 258.116C296.69 258.116 296.648 258.12 296.599 258.12C296.318 258.12 296.003 258.092 295.716 258.085C295.617 259.06 295.397 260.226 295.13 261.627C294.166 266.671 292.554 275.109 293.795 286.939C295.214 300.48 301.492 307.344 312.453 307.344C315.471 307.344 318.867 306.819 322.555 305.787C328.794 304.037 333.038 300.17 334.507 294.898ZM328.815 385.338C325.036 386.701 320.381 387.972 314.721 388.926C314.721 389.455 314.728 390.082 314.742 390.793C320.097 389.384 324.777 387.581 328.815 385.338ZM311.608 389.405C307.85 389.923 303.679 390.296 299.084 390.472C299.343 390.691 299.613 390.888 299.845 391.142C300.654 392.022 301.762 393.188 303.248 394.681C306.301 396.953 310.031 400.841 312.635 403.714C312.698 403.781 312.751 403.855 312.81 403.926C311.811 398.358 311.622 392.557 311.608 389.405ZM271.6 419.911C274.327 420.605 294.755 420.33 312.94 419.71L313.108 419.703C313.301 419.541 314.069 418.668 314.191 415.206C314.044 411.741 312.684 408.416 310.336 405.817C307.801 403.017 304.177 399.235 301.313 397.129L301.131 396.974C299.568 395.403 298.408 394.181 297.563 393.265C296.578 392.198 295.239 391.649 293.746 391.624L291.849 391.656C290.535 391.677 289.298 392.202 288.362 393.135C285.922 395.561 282.617 398.745 280.717 400.133C279.69 400.883 270.71 407.75 271.243 417.935H271.222C271.295 419.052 271.439 419.647 271.6 419.911ZM278.887 397.604C280.244 396.611 282.831 394.234 286.175 390.913C286.322 390.765 286.494 390.656 286.651 390.522C281.783 390.325 276.886 389.768 271.996 388.933C272.399 391.994 272.852 396.942 272.336 401.33C272.179 402.668 272.045 403.891 271.926 405.049C274.758 400.735 278.235 398.08 278.887 397.601V397.604ZM269.427 395.561C269.336 392.681 269.013 390.001 268.768 388.335C254.555 385.56 240.527 380.622 227.712 375.607C227.526 379.319 227.144 387.694 227.078 394.265C239.437 395.604 253.664 396.04 269.427 395.565V395.561ZM190.281 372.24C198.749 368.972 207.54 369.173 214.294 370.229C205.213 366.552 197.028 363.288 190.281 361.414V372.24ZM172.138 399.668C171.188 396.984 170.231 393.973 169.334 391.085C169.001 390.008 168.657 388.905 168.496 388.447C167.508 387.736 163.2 386.764 161.465 386.539C160.946 387.19 159.611 389.053 156.361 394.339C155.324 396.026 154.949 398.034 155.303 399.992C157.283 410.924 158.054 412.463 158.124 412.586C159.078 413.952 168.749 420.232 172.124 420.88C176.677 420.785 218.746 415.963 224.74 414.6C224.848 413.463 224.883 410.321 224.123 401.675C223.653 396.319 224.277 381.999 224.568 376.093C222.069 375.156 205.128 369.268 190.277 375.61V383.591C199.243 380.964 208.69 385.672 209.142 385.845C209.142 385.845 203.52 385.524 198.122 385.503C194.9 385.489 191.329 386.049 188.125 387.856C181.476 391.614 176.484 394.692 174.21 396.121C175.496 399.974 176.996 404.028 178.097 405.475C178.097 405.475 173.347 403.084 172.138 399.671V399.668ZM187.168 384.073V360.639C185.741 360.319 184.364 360.055 183.102 359.907C173.708 358.822 170.27 360.657 169.032 362.39C168.426 363.242 168.254 364.232 168.275 365.14C170.196 370.881 175.152 378.076 187.168 384.077V384.073ZM167.136 359.076C167.143 359.308 167.168 359.562 167.185 359.808C169.951 356.896 175.391 355.867 183.456 356.801C191.872 357.773 203.471 362.474 216.902 367.915C239.069 376.896 266.651 388.046 292.575 387.468C329.249 387.542 340.69 375.128 340.795 375.012L340.83 375.04C346.891 366.891 349.513 355.867 349.169 341.294C348.759 336.603 346.716 333.736 343.084 332.768C338.64 331.591 332.881 333.56 330.157 335.814C335.163 342.692 340.003 344.326 340.087 344.355L339.632 345.848L340.08 344.351C340.08 344.351 334.928 345.975 330.399 341.121C325.537 335.909 319.989 326.545 317.434 310.073C315.695 310.33 314.026 310.464 312.449 310.464C299.81 310.464 292.288 302.442 290.696 287.259C289.669 277.458 290.521 269.967 291.415 264.674C289.631 264.332 285.218 263.307 282.806 261.18C279.364 261.17 275.656 260.24 273.503 258.845C269.543 258.926 264.341 257.753 262.094 256.01C258.547 256.806 253.724 256.204 251.568 255.256C247.6 255.989 242.511 255.274 240.296 254.101C239.682 254.063 238.876 254.052 238.024 254.066C236.401 254.066 234.838 254.063 233.503 253.858C232.819 255.986 230.681 257 230.383 257.13C231.308 258.919 232.746 261.909 233.324 264.258C236.216 265.716 240.18 268.727 242.297 271.503C244.334 272.422 249.413 274.887 252.329 277.849C255.448 278.588 262.34 281.455 263.752 285.241C264.408 287.002 263.657 289.016 261.884 290.256C260.787 291.024 259.322 291.51 257.555 291.51C254.625 291.51 250.867 290.168 246.605 286.523C240.604 284.477 235.199 280.335 233.103 277.25C229.282 275.422 225.585 271.348 224.242 267.47C222.966 266.114 221.915 264.438 221.105 262.744C221.813 265.864 222.223 270.555 222.048 272.904C224.067 275.524 224.757 280.617 224.915 282.064L226.678 285.371C228.497 288.118 228.704 291.302 227.186 293.317C226.349 294.426 225.115 295.011 223.716 295.011C223.124 295.011 222.503 294.908 221.869 294.694C217.274 293.158 212.528 280.775 212.142 276.979C210.316 273.464 209.955 268.777 210.649 265.935C210.001 262.349 210.951 257.38 212.027 254.887C212.02 254.851 212.027 254.813 212.02 254.778C210.071 255.528 207.189 256.292 204.939 255.44C204.448 255.633 203.996 255.802 203.558 255.961C201.567 257.915 199.114 267.815 198.027 273.633C198.027 273.633 196.604 266.618 197.599 262.86C198.23 260.479 198.784 258.5 199.433 256.905C199.005 256.905 198.602 256.866 198.209 256.767C196.597 257.739 194.645 258.292 193.32 258.416C189.843 263.085 166.067 297.349 167.133 359.065L167.136 359.076ZM141.373 207.483C142.695 209.699 144.013 210.671 145.296 210.343C149.705 209.251 154.689 196.323 155.082 189.441C155.082 189.441 158.061 193.438 155.583 200.64C155.226 201.683 154.823 202.715 154.381 203.722C157.182 208.691 169.145 218.876 171.234 219.877C172.639 220.215 179.551 217.626 185.517 214.861C185.104 206.177 183.361 199.429 183.33 199.313C183.33 199.313 186.712 201.257 188.206 209.065C189.667 216.71 189.285 227.536 185.798 236.929C185.805 239.838 188.602 246.135 191.055 249.037C191.553 248.639 192.187 248.276 193.008 248.002C195.468 247.012 197.266 246.589 198.476 246.709C200.197 245.547 204.999 242.708 209.082 244.036C209.454 243.937 209.797 243.856 210.113 243.79C209.924 243.163 209.815 242.515 209.878 241.87C209.969 240.962 210.404 239.68 211.971 238.736L212.149 238.644C213.082 238.236 214.077 238.028 215.108 238.028C216.65 238.028 218.136 238.489 219.493 239.172C221.129 237.355 223.892 235.774 227.341 237.507C228.848 238.264 229.861 239.44 230.264 240.909C230.355 241.24 230.404 241.574 230.436 241.905C231.999 241.757 233.674 242.113 235.062 242.42C235.441 242.504 235.806 242.585 236.142 242.648C241.389 241.525 245.052 243.17 247.229 244.318C250.412 243.465 256.146 243.48 258.652 245.445C262.771 244.624 267.797 245.8 270.643 247.547C275.056 247.438 278.281 248.167 281.478 250.069C281.94 250.051 282.421 250.072 282.908 250.122C281.204 247.945 280.791 245.984 280.899 244.427C281.176 240.458 284.706 237.824 288.141 236.587C290.419 232.072 294.538 230.537 297.612 230.047C296.585 228.153 295.758 226.17 295.123 224.261C293.346 218.915 296.003 213.629 296.003 213.629C296.01 213.727 296.855 223.046 301.082 229.847C301.271 229.857 301.447 229.868 301.587 229.878C302.544 229.466 304.962 228.551 307.552 228.551C309.985 228.551 312.036 229.375 313.483 230.931L313.644 231.139C317.577 237.126 314.447 246.466 313.185 249.657C315.719 249.991 325.79 250.646 340.368 243.48C340.049 242.3 339.754 241.124 339.484 239.968C338.205 234.545 340.206 227.212 340.206 227.212C342.362 241.733 347.101 257.532 350.918 257.729C352.341 257.729 353.582 257.134 354.704 255.912C361.739 248.255 360.873 221.588 360.417 213.263L347.893 218.482C348.822 228.681 350.196 238.774 352.205 244.251C353.452 241.127 354.809 232.766 354.809 228.417C354.809 228.417 357.985 231.347 356.691 239.296C356.022 243.416 354.749 247.273 353.018 248.121C352.699 248.276 352.359 248.354 352.022 248.354C351.507 248.354 350.988 248.171 350.543 247.818L350.263 247.6L350.105 247.28C345.163 237.19 343.55 204.028 343.084 190.237C343.018 188.254 343.312 186.314 343.918 184.472C341.864 184.873 340.231 185.838 338.976 187.406C334.29 193.241 336.477 205.145 336.498 205.265C336.498 205.265 332.94 201.588 332.93 196.957C317.272 202.951 308.874 213.815 308.786 213.928C308.786 213.928 310.427 206.663 317.826 201.458C318.057 201.295 318.306 201.13 318.545 200.968C317.665 199.975 316.463 198.513 315.029 196.499L314.885 196.252C305.614 176.372 296.255 172.533 292.203 171.843C293.942 178.918 295.723 183.764 295.775 183.901L296.655 186.25L294.17 186.007C293.893 185.979 288.593 185.433 284.601 183.239C284.78 190.343 286.248 201.855 293.62 205.31L295.27 206.085L294.25 207.603C289.259 215.034 275.708 218.436 266.143 216.82C270.973 229.794 262.546 242.409 262.157 242.979L261.12 244.487L259.795 243.223C259.739 243.17 253.92 237.739 237.926 233.252C223.285 229.495 204.704 221.342 196.05 203.704C195.731 206.413 195.524 208.776 195.524 208.815L195.198 212.625L192.773 209.677C192.461 209.297 185.065 200.095 182.317 178.594C181.763 174.259 181.77 170.036 182.135 166.046L173.617 168.941C174.339 170.342 175.026 171.751 175.643 173.156C177.178 176.65 178.325 180.098 178.784 183.246C178.784 183.246 166.284 163.883 159.73 153.755C159.744 153.86 159.761 153.973 159.775 154.079C160.455 159.249 157.409 163.757 157.409 163.757C157.339 157.47 155.73 140.041 149.204 134.966C148.142 134.138 146.992 133.677 145.737 133.571C145.912 133.92 146.074 134.276 146.217 134.642C148.086 139.414 153.981 190.205 147.935 201.056C147.125 202.507 146.088 203.356 144.693 203.595C144.619 203.602 144.545 203.606 144.472 203.606C140.381 203.606 138.285 194.815 137.185 186.145C136.406 180.024 138.734 177.076 138.734 177.076C139.821 188.821 142.509 199.873 144.409 200.464C144.654 200.355 144.945 200.024 145.222 199.528C147.034 196.277 147.595 188.233 147.472 178.9L132.225 159.696C132.943 169.406 135.495 197.636 141.373 207.483ZM122.344 153.836C122.617 153.691 122.754 153.529 122.838 153.371L122.964 152.899C123.073 151.997 122.596 150.677 121.958 149.641L109.841 149.226C112.256 153.082 118.418 153.8 122.344 153.839V153.836ZM107.675 146.211L107.682 146.024L121.811 146.51C121.906 146.105 121.899 145.665 121.762 145.162C121.436 143.961 120.556 142.911 120.079 142.527L105.821 143.291C106.199 144.306 106.928 145.496 107.675 146.207V146.211ZM103.861 140.266L119.322 139.435C119.477 138.03 118.537 136.008 117.696 134.642L101.295 137.206C101.478 138.192 102.652 139.495 103.861 140.263V140.266ZM52.055 143.316C53.4256 143.591 55.2342 144.292 57.148 145.035C59.1635 145.817 62.5354 147.137 63.3907 146.901C63.8779 146.718 64.8068 145.95 65.7917 145.14C68.0736 143.256 71.2037 140.678 75.6097 139.294C79.2305 138.361 89.1641 136.012 94.4814 134.758C94.2465 134.392 94.1309 134.107 94.1063 134.04L93.8434 133.293L95.4944 130.828C85.3259 133.244 71.6068 136.593 69.9734 137.245C68.8868 137.928 67.9684 138.875 67.0816 139.794C65.6726 141.249 64.3441 142.626 62.5109 142.626C61.3262 142.626 59.9486 142.21 58.3503 141.731C56.2332 141.097 53.8322 140.379 52.1041 140.759C50.348 141.171 46.4819 142.682 42.847 144.246C47.2249 143.446 50.4427 142.982 52.055 143.309V143.316Z" fill="#221F20"/>
<path d="M307.493 237.559L307.531 237.507C307.531 237.507 308.639 240.954 304.987 243.289C301.334 245.624 293.917 249.294 288.495 244.846C289.382 244.846 292.147 244.846 293.364 244.18C294.58 243.511 294.25 238.841 301.113 238.841L303.276 239.172C304.867 239.415 306.515 238.845 307.493 237.563V237.559Z" fill="#221F20"/>
<path d="M251.68 356.078C251.68 356.078 243.531 351.683 241.07 348.26C233.447 337.667 228.9 326.605 226.271 318.265C223.839 310.545 226.054 304.202 226.054 304.202C226.096 304.502 230.534 334.451 251.684 356.082L251.68 356.078Z" fill="#221F20"/>
<path d="M247.783 117.36C252.364 117.36 256.079 121.094 256.079 125.697C256.079 130.3 252.364 134.033 247.783 134.033C243.201 134.033 239.486 130.3 239.486 125.697C239.486 121.094 243.201 117.36 247.783 117.36ZM244.8 124.915C245.802 124.915 246.615 124.098 246.615 123.09C246.615 122.083 245.802 121.266 244.8 121.266C243.797 121.266 242.984 122.083 242.984 123.09C242.984 124.098 243.797 124.915 244.8 124.915Z" fill="#221F20"/>
<path d="M210.835 115.797C215.416 115.797 219.131 119.53 219.131 124.133C219.131 128.736 215.416 132.469 210.835 132.469C206.254 132.469 202.538 128.736 202.538 124.133C202.538 119.53 206.254 115.797 210.835 115.797ZM207.852 123.351C208.854 123.351 209.668 122.534 209.668 121.527C209.668 120.519 208.854 119.702 207.852 119.702C206.849 119.702 206.036 120.519 206.036 121.527C206.036 122.534 206.849 123.351 207.852 123.351Z" fill="#221F20"/>
</g>
<defs>
<linearGradient id="paint0_linear_211_217" x1="132.232" y1="195.639" x2="360.715" y2="195.639" gradientUnits="userSpaceOnUse">
<stop stop-color="#945CF2"/>
<stop offset="0.88" stop-color="#6434C1"/>
</linearGradient>
<linearGradient id="paint1_linear_211_217" x1="167.108" y1="320.67" x2="349.204" y2="320.67" gradientUnits="userSpaceOnUse">
<stop stop-color="#945CF2"/>
<stop offset="0.88" stop-color="#6434C1"/>
</linearGradient>
<clipPath id="clip0_211_217">
<rect width="394" height="424" fill="white"/>
</clipPath>
</defs>
</svg>
