<svg width="46" height="48" viewBox="0 0 46 48" fill="none" xmlns="http://www.w3.org/2000/svg">
<path opacity="0.31" fill-rule="evenodd" clip-rule="evenodd" d="M37 -0.000244141C41.9706 -0.000244141 46 4.02921 46 8.99976V38.9998C46 43.9703 41.9706 47.9998 37 47.9998H8.99999C4.02942 47.9998 0 43.9703 0 38.9998V8.99976C0 4.02921 4.02942 -0.000244141 8.99999 -0.000244141H37Z" fill="white"/>
<path fill-rule="evenodd" clip-rule="evenodd" d="M18.8677 33.3209C18.8677 34.1789 19.5632 34.8744 20.4212 34.8744C21.2791 34.8744 21.9747 34.1789 21.9747 33.3209V14.679C21.9747 13.821 21.2791 13.1255 20.4212 13.1255C19.5632 13.1255 18.8677 13.821 18.8677 14.679V33.3209Z" fill="white"/>
<path fill-rule="evenodd" clip-rule="evenodd" d="M12.6538 33.3209C12.6538 34.1788 13.3493 34.8743 14.2073 34.8743C15.0653 34.8743 15.7608 34.1788 15.7608 33.3209V23.9999C15.7608 23.1419 15.0653 22.4464 14.2073 22.4464C13.3493 22.4464 12.6538 23.1419 12.6538 23.9999V33.3209Z" fill="white"/>
<path fill-rule="evenodd" clip-rule="evenodd" d="M25.082 33.3209C25.082 34.1789 25.7776 34.8744 26.6355 34.8744C27.4935 34.8744 28.189 34.1789 28.189 33.3209V19.3395C28.189 18.4815 27.4935 17.786 26.6355 17.786C25.7776 17.786 25.082 18.4815 25.082 19.3395V33.3209Z" fill="white"/>
<path fill-rule="evenodd" clip-rule="evenodd" d="M31.2959 33.3209C31.2959 34.1789 31.9914 34.8744 32.8494 34.8744C33.7074 34.8744 34.4029 34.1789 34.4029 33.3209V29.4372C34.4029 28.5792 33.7074 27.8837 32.8494 27.8837C31.9914 27.8837 31.2959 28.5792 31.2959 29.4372V33.3209Z" fill="white"/>
</svg>
