<svg width="46" height="48" viewBox="0 0 46 48" fill="none" xmlns="http://www.w3.org/2000/svg">
<path opacity="0.31" fill-rule="evenodd" clip-rule="evenodd" d="M37 0C41.9706 0 46 4.02946 46 9V39C46 43.9705 41.9706 48 37 48H8.99999C4.02942 48 0 43.9705 0 39V9C0 4.02946 4.02942 0 8.99999 0H37Z" fill="white"/>
<path fill-rule="evenodd" clip-rule="evenodd" d="M24.0083 27.8414V30.7225C24.0083 32.3138 25.3624 33.6036 27.0334 33.6036H30.0586C31.7296 33.6036 33.0837 32.3138 33.0837 30.7225V27.8414C33.0837 26.2501 31.7296 24.9603 30.0586 24.9603H27.0334C25.3624 24.9603 24.0083 26.2501 24.0083 27.8414Z" fill="white"/>
<path fill-rule="evenodd" clip-rule="evenodd" d="M12.9165 27.8414V30.7225C12.9165 32.3138 14.2706 33.6036 15.9416 33.6036H18.9668C20.6378 33.6036 21.9919 32.3138 21.9919 30.7225V27.8414C21.9919 26.2501 20.6378 24.9603 18.9668 24.9603H15.9416C14.2706 24.9603 12.9165 26.2501 12.9165 27.8414Z" fill="white"/>
<path fill-rule="evenodd" clip-rule="evenodd" d="M24.0083 17.2774V20.1585C24.0083 21.7498 25.3624 23.0396 27.0334 23.0396H30.0586C31.7296 23.0396 33.0837 21.7498 33.0837 20.1585V17.2774C33.0837 15.6861 31.7296 14.3964 30.0586 14.3964H27.0334C25.3624 14.3964 24.0083 15.6861 24.0083 17.2774Z" fill="white"/>
<path fill-rule="evenodd" clip-rule="evenodd" d="M18.9668 23.0396H15.9416C14.2706 23.0396 12.9165 21.7498 12.9165 20.1585V17.2774C12.9165 15.6861 14.2706 14.3964 15.9416 14.3964H18.9668C20.6378 14.3964 21.9919 15.6861 21.9919 17.2774V20.1585C21.9919 21.7498 20.6378 23.0396 18.9668 23.0396Z" fill="white"/>
</svg>
