<svg width="30" height="34" viewBox="0 0 30 34" fill="none" xmlns="http://www.w3.org/2000/svg">
<path opacity="0.09" fill-rule="evenodd" clip-rule="evenodd" d="M24 -0.000244141C27.3137 -0.000244141 30 2.68606 30 5.99977V27.9997C30 31.3134 27.3137 33.9998 24 33.9998H6C2.68629 33.9998 0 31.3134 0 27.9997V5.99977C0 2.68606 2.68629 -0.000244141 6 -0.000244141H24Z" fill="#FFCC58"/>
<path fill-rule="evenodd" clip-rule="evenodd" d="M9.47548 22.4418C11.0015 23.9678 13.0022 24.7308 14.986 24.7308C16.9867 24.7308 18.9875 23.9678 20.4965 22.4418C23.5654 19.3898 23.5654 14.4388 20.5135 11.4038C17.4784 8.36881 12.5275 8.36881 9.47548 11.4038C6.44046 14.4388 6.44046 19.3898 9.47548 22.4418ZM19.0556 21.9332C16.5293 23.9678 12.7991 23.8322 10.4423 21.4754C8.10242 19.1186 7.94982 15.3884 9.98446 12.8621L19.0556 21.9332Z" fill="#FFD400"/>
<path fill-rule="evenodd" clip-rule="evenodd" d="M15.003 10.4713C16.6477 10.4713 18.3093 11.0987 19.564 12.3534C21.9039 14.7102 22.0565 18.4404 20.0218 20.9667L10.9507 11.8956C12.1206 10.9461 13.5618 10.4713 15.003 10.4713Z" fill="#FFD400" stroke="#FFD400" stroke-width="0.5"/>
</svg>
