<svg width="46" height="48" viewBox="0 0 46 48" fill="none" xmlns="http://www.w3.org/2000/svg">
<path opacity="0.31" fill-rule="evenodd" clip-rule="evenodd" d="M37 -0.00012207C41.9706 -0.00012207 46 4.02933 46 8.99988V38.9999C46 43.9704 41.9706 47.9999 37 47.9999H8.99999C4.02942 47.9999 0 43.9704 0 38.9999V8.99988C0 4.02933 4.02942 -0.00012207 8.99999 -0.00012207H37Z" fill="white"/>
<path fill-rule="evenodd" clip-rule="evenodd" d="M17.6132 19.2841H21.5308V29.568C21.5308 30.3809 22.187 31.0371 23 31.0371C23.8129 31.0371 24.4691 30.3809 24.4691 29.568V19.2841H28.3868C29.1997 19.2841 29.8559 18.6279 29.8559 17.815C29.8559 17.002 29.1997 16.3458 28.3868 16.3458H17.6132C16.8003 16.3458 16.144 17.002 16.144 17.815C16.144 18.6279 16.8003 19.2841 17.6132 19.2841Z" fill="white"/>
</svg>
