<svg width="30" height="35" viewBox="0 0 30 35" fill="none" xmlns="http://www.w3.org/2000/svg">
<path opacity="0.05" fill-rule="evenodd" clip-rule="evenodd" d="M24 0.499878C27.3137 0.499878 30 3.18618 30 6.49989V28.4999C30 31.8136 27.3137 34.4999 24 34.4999H6C2.68629 34.4999 0 31.8136 0 28.4999V6.49989C0 3.18618 2.68629 0.499878 6 0.499878H24V0.499878Z" fill="#F05482"/>
<path fill-rule="evenodd" clip-rule="evenodd" d="M14.9996 25.1946C19.2319 25.1946 22.6946 21.7319 22.6946 17.4997C22.6946 13.2674 19.2319 9.80469 14.9996 9.80469C10.7674 9.80469 7.30469 13.2674 7.30469 17.4997C7.30469 21.7319 10.7674 25.1946 14.9996 25.1946ZM14.9997 19.8082C15.4614 19.8082 15.7692 20.116 15.7692 20.5777C15.7692 21.0394 15.4614 21.3472 14.9997 21.3472C14.538 21.3472 14.2302 21.0394 14.2302 20.5777C14.2302 20.116 14.538 19.8082 14.9997 19.8082Z" fill="#F05482"/>
<path fill-rule="evenodd" clip-rule="evenodd" d="M14.2305 17.4998V14.4218C14.2305 13.9601 14.5383 13.6523 15 13.6523C15.4617 13.6523 15.7695 13.9601 15.7695 14.4218V17.4998C15.7695 17.9615 15.4617 18.2693 15 18.2693C14.5383 18.2693 14.2305 17.9615 14.2305 17.4998Z" fill="#F05482"/>
</svg>
