<svg width="30" height="34" viewBox="0 0 30 34" fill="none" xmlns="http://www.w3.org/2000/svg">
<path opacity="0.09" fill-rule="evenodd" clip-rule="evenodd" d="M24 -0.000244141C27.3137 -0.000244141 30 2.68606 30 5.99977V27.9997C30 31.3134 27.3137 33.9998 24 33.9998H6C2.68629 33.9998 0 31.3134 0 27.9997V5.99977C0 2.68606 2.68629 -0.000244141 6 -0.000244141H24Z" fill="url(#paint0_linear_75_3721)"/>
<path fill-rule="evenodd" clip-rule="evenodd" d="M11.9828 21.5868L7.7209 17.325C7.28443 16.8885 7.28443 16.1796 7.7209 15.7431C8.15737 15.3067 8.8663 15.3067 9.30277 15.7431L12.7751 19.2154L19.7169 12.2708C20.1534 11.8344 20.8623 11.8344 21.2988 12.2708C21.7352 12.7073 21.7352 13.4162 21.2988 13.8527L13.5646 21.5868C13.3478 21.8037 13.0614 21.9149 12.7751 21.9149C12.4887 21.9149 12.2024 21.8065 11.9828 21.5868Z" fill="url(#paint1_linear_75_3721)"/>
<defs>
<linearGradient id="paint0_linear_75_3721" x1="15" y1="-0.000244141" x2="15" y2="33.9998" gradientUnits="userSpaceOnUse">
<stop stop-color="#9A61F8"/>
<stop offset="1" stop-color="#5E2FBA"/>
</linearGradient>
<linearGradient id="paint1_linear_75_3721" x1="14.5098" y1="11.9435" x2="14.5098" y2="21.9149" gradientUnits="userSpaceOnUse">
<stop stop-color="#9A61F8"/>
<stop offset="1" stop-color="#5E2FBA"/>
</linearGradient>
</defs>
</svg>
