<svg width="70" height="98" viewBox="0 0 70 98" fill="none" xmlns="http://www.w3.org/2000/svg">
<path opacity="0.07" fill-rule="evenodd" clip-rule="evenodd" d="M54 0C62.8366 0 70 7.16341 70 16V82C70 90.8366 62.8366 98 54 98H16C7.16345 98 0 90.8366 0 82V16C0 7.16341 7.16345 0 16 0H54Z" fill="url(#paint0_linear_518_6)"/>
<path fill-rule="evenodd" clip-rule="evenodd" d="M36.8682 54.2111V58.1195C36.8682 60.2782 38.7051 62.0279 40.972 62.0279H45.0757C47.3426 62.0279 49.1795 60.2782 49.1795 58.1195V54.2111C49.1795 52.0524 47.3426 50.3027 45.0757 50.3027H40.972C38.7051 50.3027 36.8682 52.0524 36.8682 54.2111Z" fill="#7B49CD"/>
<path fill-rule="evenodd" clip-rule="evenodd" d="M21.8208 54.2111V58.1195C21.8208 60.2782 23.6577 62.0279 25.9246 62.0279H30.0284C32.2952 62.0279 34.1322 60.2782 34.1322 58.1195V54.2111C34.1322 52.0524 32.2952 50.3027 30.0284 50.3027H25.9246C23.6577 50.3027 21.8208 52.0524 21.8208 54.2111Z" fill="#7B49CD"/>
<path fill-rule="evenodd" clip-rule="evenodd" d="M36.8682 39.8805V43.7889C36.8682 45.9476 38.7051 47.6973 40.972 47.6973H45.0757C47.3426 47.6973 49.1795 45.9476 49.1795 43.7889V39.8805C49.1795 37.7218 47.3426 35.9722 45.0757 35.9722H40.972C38.7051 35.9722 36.8682 37.7218 36.8682 39.8805Z" fill="#7B49CD"/>
<path fill-rule="evenodd" clip-rule="evenodd" d="M30.0284 47.6973H25.9246C23.6577 47.6973 21.8208 45.9476 21.8208 43.7889V39.8805C21.8208 37.7218 23.6577 35.9722 25.9246 35.9722H30.0284C32.2952 35.9722 34.1322 37.7218 34.1322 39.8805V43.7889C34.1322 45.9476 32.2952 47.6973 30.0284 47.6973Z" fill="#7B49CD"/>
<defs>
<linearGradient id="paint0_linear_518_6" x1="35" y1="0" x2="35" y2="98" gradientUnits="userSpaceOnUse">
<stop stop-color="#9A61F8"/>
<stop offset="1" stop-color="#5E2FBA"/>
</linearGradient>
</defs>
</svg>
