<svg width="16" height="33" viewBox="0 0 16 33" fill="none" xmlns="http://www.w3.org/2000/svg">
<path d="M8.59467 32.9675C5.81801 32.8823 3.51464 31.6833 1.87073 28.9161C-0.303265 25.256 1.29331 20.9585 5.13646 19.1284C5.47408 18.9675 5.60345 18.7592 5.60029 18.3995C5.59083 13.5751 5.59083 8.75063 5.58136 3.92303C5.58136 3.54123 5.71704 3.17522 5.96 2.88493C6.60999 2.10557 7.23474 1.30413 7.8721 0.512149C7.91943 0.452198 7.96676 0.392249 8.01725 0.335453C8.28545 0.0325449 8.74297 0.0609422 9.00486 0.373316C9.79053 1.31675 10.5667 2.26649 11.3556 3.20993C11.5102 3.39609 11.4944 3.53177 11.3272 3.699C10.9422 4.07763 10.5793 4.47835 10.1976 4.86015C10.0556 4.99898 10.0524 5.22301 10.1849 5.36815C10.5888 5.80042 10.9832 6.23586 11.3808 6.67444C11.5228 6.82905 11.5196 7.0657 11.3808 7.22346C10.9864 7.65258 10.592 8.08486 10.2007 8.51713C9.99878 8.73801 10.0019 8.8232 10.2039 9.04722C10.5951 9.47635 10.9895 9.90547 11.3808 10.3346C11.5228 10.4923 11.5165 10.7353 11.3682 10.8836C11.0053 11.2433 10.6393 11.5999 10.2733 11.9596C9.99877 12.2278 10.0019 12.3445 10.2733 12.6316C10.6582 13.0418 11.0337 13.4646 11.4187 13.8748C11.5827 14.0515 11.5638 14.203 11.4029 14.3702C11.0053 14.793 10.6172 15.2253 10.226 15.6576C9.99562 15.91 9.99246 15.9794 10.207 16.235C10.5257 16.6136 10.8444 16.9923 11.1694 17.3646C11.4565 17.6927 11.6395 18.0619 11.5733 18.5036C11.5228 18.8476 11.6616 19.0274 11.9519 19.182C13.8009 20.1696 15.0188 21.6842 15.571 23.7004C16.7322 27.919 13.9587 32.1819 9.63276 32.8602C9.29199 32.9139 8.94491 32.936 8.60098 32.9738L8.59467 32.9675ZM10.9391 28.3671C10.9454 27.0671 9.83786 25.9344 8.55365 25.9281C7.14954 25.9217 6.06412 27.004 6.05781 28.4144C6.0515 29.7144 7.1527 30.7998 8.47792 30.803C9.84732 30.803 10.9327 29.7302 10.9391 28.3671Z" fill="white"/>
</svg>
