<svg width="70" height="98" viewBox="0 0 70 98" fill="none" xmlns="http://www.w3.org/2000/svg">
<path opacity="0.07" fill-rule="evenodd" clip-rule="evenodd" d="M54 0C62.8366 0 70 7.16341 70 16V82C70 90.8366 62.8366 98 54 98H16C7.16345 98 0 90.8366 0 82V16C0 7.16341 7.16345 0 16 0H54Z" fill="url(#paint0_linear_518_5)"/>
<path fill-rule="evenodd" clip-rule="evenodd" d="M44.4871 34.4815L31.6541 45.7322C30.9904 45.5927 29.964 45.4068 29.2965 45.4068C24.1704 45.4068 20 49.5773 20 54.7033C20 59.8294 24.1704 63.9999 29.2965 63.9999C34.4227 63.9999 38.5931 59.8294 38.5931 54.7033C38.5931 53.1806 38.303 52.1598 37.9739 51.312L41.1385 50.2373C41.523 50.1066 41.7782 49.7415 41.7688 49.3355L41.6907 45.8066L45.2419 45.5593C45.7179 45.5261 46.0915 45.1381 46.1065 44.6612L46.2385 40.4239L49.0201 39.8066C49.4457 39.7124 49.7487 39.3352 49.7489 38.8992V35.1806C49.7489 34.6672 49.3327 34.251 48.8192 34.251H45.1006C44.8757 34.251 44.6581 34.3328 44.4871 34.4815ZM26.5076 60.2102C24.9948 60.2102 23.7577 59.0046 23.7186 57.4923C23.7186 55.9528 24.9681 54.7034 26.5076 54.7034C28.0472 54.7049 29.295 55.9527 29.2965 57.4923C29.2575 59.0046 28.0204 60.2102 26.5076 60.2102Z" fill="#7B49CD"/>
<defs>
<linearGradient id="paint0_linear_518_5" x1="35" y1="0" x2="35" y2="98" gradientUnits="userSpaceOnUse">
<stop stop-color="#9A61F8"/>
<stop offset="1" stop-color="#5E2FBA"/>
</linearGradient>
</defs>
</svg>
