<svg width="70" height="98" viewBox="0 0 70 98" fill="none" xmlns="http://www.w3.org/2000/svg">
<path opacity="0.07" fill-rule="evenodd" clip-rule="evenodd" d="M54 0C62.8366 0 70 7.16341 70 16V82C70 90.8366 62.8366 98 54 98H16C7.16345 98 0 90.8366 0 82V16C0 7.16341 7.16345 0 16 0H54Z" fill="url(#paint0_linear_518_3)"/>
<path fill-rule="evenodd" clip-rule="evenodd" d="M28.6787 61.6419C28.6787 62.8055 29.622 63.7489 30.7857 63.7489C31.9494 63.7489 32.8927 62.8055 32.8927 61.6419V36.358C32.8927 35.1943 31.9494 34.251 30.7857 34.251C29.622 34.251 28.6787 35.1943 28.6787 36.358V61.6419Z" fill="#7B49CD"/>
<path fill-rule="evenodd" clip-rule="evenodd" d="M20.251 61.642C20.251 62.8057 21.1943 63.749 22.358 63.749C23.5216 63.749 24.465 62.8057 24.465 61.642V49.0001C24.465 47.8364 23.5216 46.8931 22.358 46.8931C21.1943 46.8931 20.251 47.8364 20.251 49.0001V61.642Z" fill="#7B49CD"/>
<path fill-rule="evenodd" clip-rule="evenodd" d="M37.1069 61.642C37.1069 62.8056 38.0503 63.749 39.2139 63.749C40.3776 63.749 41.3209 62.8056 41.3209 61.642V42.679C41.3209 41.5153 40.3776 40.572 39.2139 40.572C38.0503 40.572 37.1069 41.5153 37.1069 42.679V61.642Z" fill="#7B49CD"/>
<path fill-rule="evenodd" clip-rule="evenodd" d="M45.5347 61.6421C45.5347 62.8057 46.478 63.7491 47.6417 63.7491C48.8053 63.7491 49.7487 62.8057 49.7487 61.6421V56.3746C49.7487 55.2109 48.8053 54.2676 47.6417 54.2676C46.478 54.2676 45.5347 55.2109 45.5347 56.3746V61.6421Z" fill="#7B49CD"/>
<defs>
<linearGradient id="paint0_linear_518_3" x1="35" y1="0" x2="35" y2="98" gradientUnits="userSpaceOnUse">
<stop stop-color="#9A61F8"/>
<stop offset="1" stop-color="#5E2FBA"/>
</linearGradient>
</defs>
</svg>
