<svg xmlns="http://www.w3.org/2000/svg" width="19" height="43" viewBox="0 0 19 43" fill="none">
<path d="M9.44323 42.8361C7.42068 42.773 5.74206 41.9021 4.54621 39.8859C2.96225 37.2197 4.12655 34.0896 6.9253 32.7549C7.17141 32.6382 7.26292 32.4867 7.26292 32.2248C7.2566 28.7098 7.2566 25.1948 7.25029 21.6798C7.25029 21.4022 7.34811 21.1371 7.52481 20.9226C7.9981 20.3546 8.45246 19.7709 8.91629 19.1934C8.951 19.1493 8.98571 19.1051 9.02041 19.0641C9.21604 18.8432 9.5505 18.8653 9.73982 19.0925C10.3141 19.7803 10.8789 20.4713 11.4531 21.1592C11.5667 21.2949 11.5541 21.3927 11.4311 21.5157C11.1502 21.7934 10.8852 22.0837 10.6075 22.3614C10.5066 22.4623 10.5002 22.6264 10.5981 22.7305C10.8915 23.0429 11.1786 23.3616 11.4689 23.6834C11.5699 23.797 11.5699 23.9706 11.4689 24.081C11.1818 24.3934 10.8947 24.7089 10.6075 25.0213C10.4624 25.1822 10.4624 25.2453 10.6107 25.4094C10.8947 25.7218 11.1818 26.0341 11.4689 26.3465C11.573 26.4601 11.5699 26.6368 11.4595 26.7472C11.1944 27.0091 10.9294 27.271 10.6612 27.5297C10.4624 27.7254 10.4624 27.8106 10.6612 28.0188C10.942 28.3186 11.2165 28.6246 11.4973 28.9244C11.6172 29.0537 11.6014 29.1642 11.4879 29.2872C11.1976 29.5965 10.9136 29.912 10.6296 30.2244C10.4624 30.4074 10.4592 30.4579 10.6138 30.644C10.8442 30.9185 11.0777 31.1962 11.3143 31.4644C11.5226 31.7042 11.6551 31.9724 11.6078 32.2942C11.5699 32.5435 11.674 32.676 11.8854 32.7865C13.2327 33.5059 14.1194 34.6102 14.5233 36.0774C15.3689 39.1507 13.3495 42.2555 10.1973 42.7509C9.94807 42.7887 9.69565 42.8077 9.44638 42.8329L9.44323 42.8361ZM11.1502 39.4852C11.1534 38.5386 10.3488 37.7119 9.41483 37.7087C8.39251 37.7024 7.60053 38.4912 7.59738 39.5199C7.59422 40.4664 8.39567 41.2584 9.36119 41.2584C10.3583 41.2584 11.1471 40.4759 11.1534 39.4852H11.1502Z" fill="#ffffff"/>
<path d="M10.6107 12.2613C8.87842 13.6117 8.06435 14.9622 7.64154 15.9688C7.13038 17.1899 7.26922 17.7231 6.53719 19.1083C5.63477 20.8153 5.05104 20.708 4.72289 21.9228C4.33164 23.3774 4.82386 24.8099 5.11415 25.6176C5.58113 26.9208 6.31947 28.0598 7.3197 29.0222C7.35125 29.0538 7.39543 29.0822 7.41751 29.12C7.43329 29.1453 7.43014 29.1958 7.41436 29.2178C7.39858 29.2368 7.35125 29.2399 7.3197 29.2336C7.2913 29.2273 7.26922 29.2021 7.24398 29.1831C5.52118 27.9179 3.8899 26.5516 2.52365 24.8919C1.51396 23.6645 0.703046 22.3298 0.321256 20.7711C-0.0920881 19.083 0.122472 17.4549 0.79455 15.8709C1.38775 14.4763 2.23021 13.2363 3.1484 12.0404C4.16441 10.7152 5.21196 9.41205 6.2185 8.07736C7.00733 7.02665 7.69518 5.91283 8.11799 4.65386C8.61022 3.18034 8.54395 1.74468 7.82139 0.353197C7.7993 0.309023 7.78037 0.258538 7.7362 0.163879C7.84032 0.233296 7.90027 0.271159 7.95707 0.315333C9.76821 1.65318 11.3522 3.20874 12.5133 5.15556C13.4031 6.64801 13.9774 8.24144 13.9774 10.0021C13.9774 10.8162 13.807 11.5955 13.5419 12.3623C13.3779 12.8355 13.2769 13.3341 13.1949 13.8295C13.1633 14.0282 13.2233 14.2586 13.2958 14.4542C13.4284 14.8076 13.747 14.9559 14.1162 14.8676C14.5516 14.7634 14.8577 14.4763 15.0943 14.1166C15.5424 13.4351 15.6749 12.6715 15.6118 11.8732C15.5803 11.463 15.4982 11.056 15.4351 10.63C15.5045 10.7057 15.5708 10.7751 15.6339 10.8477C16.8676 12.2392 17.8742 13.7632 18.439 15.5523C19.2467 18.1144 18.9627 20.5881 17.7574 22.9546C16.3218 25.7723 14.1572 27.8863 11.3869 29.3882C11.3679 29.3977 11.349 29.404 11.267 29.4324C11.3837 29.2936 11.4658 29.1989 11.5446 29.1011C12.1694 28.3154 12.8352 27.5582 13.4094 26.7378C14.2677 25.5041 14.6305 24.1094 14.5453 22.6043C14.4885 21.5978 14.1698 20.6765 13.5735 19.8687C13.1128 19.2471 12.589 18.676 12.0905 18.0828C11.8476 17.7957 11.5951 17.518 11.3553 17.2309C11.0777 16.9027 10.5444 16.1391 10.3141 15.1673C10.0143 13.8989 10.393 12.7851 10.6201 12.2581L10.6107 12.2613Z" fill="#ffffff"/>
</svg>