<svg width="27" height="27" viewBox="0 0 27 27" fill="none" xmlns="http://www.w3.org/2000/svg">
<path fill-rule="evenodd" clip-rule="evenodd" d="M15.1555 2.15961C14.8801 2.37024 14.6581 2.56178 14.4571 2.76226L10.0354 7.18486C9.64962 7.57069 9.64962 8.19626 10.0356 8.58196C10.4215 8.96792 11.0471 8.96779 11.4327 8.58182L15.8536 4.16029C15.9883 4.02723 16.1577 3.88035 16.3566 3.72834C18.3336 2.21244 21.1529 2.39818 22.9152 4.16055C24.8452 6.10825 24.8575 9.28117 22.9165 11.2229L18.4959 15.6441C18.11 16.0299 18.11 16.6555 18.496 17.0412C18.689 17.234 18.9418 17.3305 19.1946 17.3305C19.4473 17.3305 19.7002 17.234 19.8932 17.0411L24.314 12.6199C27.0304 9.90226 27.0304 5.48097 24.3137 2.76424C21.8519 0.320845 17.9077 0.0490786 15.1555 2.15961Z" fill="white"/>
<path fill-rule="evenodd" clip-rule="evenodd" d="M11.1496 22.9877C10.6612 23.4683 10.0622 23.8643 9.41857 24.1124C7.57504 24.8261 5.48152 24.3851 4.08613 22.9896C2.14079 21.0421 2.14079 17.8733 4.08613 15.9265L8.50649 11.5079C8.6917 11.3225 8.79589 11.0712 8.79589 10.8091C8.79589 10.2633 8.35368 9.82019 7.80794 9.82019C7.5267 9.82019 7.27287 9.9381 7.09294 10.1269L2.68864 14.5294C-0.0262494 17.2467 -0.026515 21.6684 2.68837 24.3863C4.01817 25.7163 5.80081 26.4253 7.61642 26.4253C8.46131 26.4252 9.31358 26.2716 10.1303 25.9555C11.0421 25.6042 11.8543 25.0769 12.5443 24.3885L16.9651 19.9666C17.3509 19.5806 17.3509 18.9552 16.9649 18.5694C16.5794 18.1837 15.9538 18.1837 15.5678 18.5694L11.1496 22.9877Z" fill="white"/>
<path fill-rule="evenodd" clip-rule="evenodd" d="M9.14426 18.9208C9.39704 18.9208 9.64997 18.8244 9.84281 18.6316L18.5584 9.91638C18.9443 9.53056 18.9443 8.90498 18.5585 8.5193C18.1727 8.13333 17.5471 8.13346 17.1614 8.51916L8.44584 17.2343C8.05976 17.62 8.05976 18.2456 8.44559 18.6314C8.63856 18.8244 8.89135 18.9208 9.14426 18.9208Z" fill="white"/>
</svg>
