<svg width="1635" height="51" viewBox="0 0 1635 51" fill="none" xmlns="http://www.w3.org/2000/svg">
<path opacity="0.48" fill-rule="evenodd" clip-rule="evenodd" d="M1629 22V29H6.99902V22H1629Z" fill="#F7F7F7"/>
<path fill-rule="evenodd" clip-rule="evenodd" d="M806.999 22V29H6.99902V22H806.999Z" fill="#9A61F8"/>
<path fill-rule="evenodd" clip-rule="evenodd" d="M25.3964 0.316528C39.3048 0.316528 50.5799 11.5916 50.5799 25.5C50.5799 39.4085 39.3048 50.6835 25.3964 50.6835C11.4879 50.6835 0.212891 39.4085 0.212891 25.5C0.212891 11.5916 11.4879 0.316528 25.3964 0.316528Z" fill="white"/>
<path fill-rule="evenodd" clip-rule="evenodd" d="M25.3964 10.3165C33.782 10.3165 40.5799 17.1144 40.5799 25.5C40.5799 33.8856 33.782 40.6835 25.3964 40.6835C17.0108 40.6835 10.2129 33.8856 10.2129 25.5C10.2129 17.1144 17.0108 10.3165 25.3964 10.3165Z" fill="#5E2FBA"/>
<path fill-rule="evenodd" clip-rule="evenodd" d="M25.6652 29.6393L24.6927 30.6119C24.2232 31.0813 23.4184 31.0813 22.9489 30.6119L18.69 26.3194C18.2205 25.8499 18.2205 25.0451 18.69 24.5756L19.6625 23.6031C20.132 23.1336 20.9368 23.1336 21.4063 23.6031L25.6652 27.8955C26.1347 28.365 26.1347 29.1699 25.6652 29.6393Z" fill="white"/>
<path fill-rule="evenodd" clip-rule="evenodd" d="M31.1318 20.4843L32.1043 21.4568C32.5738 21.9263 32.5738 22.7311 32.1043 23.2006L24.7266 30.5447C24.2571 31.0142 23.4523 31.0142 22.9828 30.5447L22.0103 29.5722C21.5408 29.1027 21.5408 28.2979 22.0103 27.8284L29.3879 20.4843C29.8575 20.0148 30.6623 20.0148 31.1318 20.4843Z" fill="white"/>
<path fill-rule="evenodd" clip-rule="evenodd" d="M1609.82 0.316406C1623.72 0.316406 1635 11.5915 1635 25.4999C1635 39.4083 1623.72 50.6834 1609.82 50.6834C1595.91 50.6834 1584.63 39.4083 1584.63 25.4999C1584.63 11.5915 1595.91 0.316406 1609.82 0.316406Z" fill="white"/>
<g opacity="0.41">
<path fill-rule="evenodd" clip-rule="evenodd" d="M1609.82 10.3164C1618.2 10.3164 1625 17.1143 1625 25.4999C1625 33.8855 1618.2 40.6834 1609.82 40.6834C1601.43 40.6834 1594.63 33.8855 1594.63 25.4999C1594.63 17.1143 1601.43 10.3164 1609.82 10.3164Z" fill="#DFDFDF"/>
<path fill-rule="evenodd" clip-rule="evenodd" d="M1610.08 29.6391L1609.11 30.6116C1608.64 31.0811 1607.84 31.0811 1607.37 30.6116L1603.11 26.3192C1602.64 25.8497 1602.64 25.0448 1603.11 24.5754L1604.08 23.6028C1604.55 23.1334 1605.36 23.1334 1605.83 23.6028L1610.08 27.8953C1610.55 28.3648 1610.55 29.1696 1610.08 29.6391Z" fill="white"/>
<path fill-rule="evenodd" clip-rule="evenodd" d="M1615.55 20.4842L1616.52 21.4567C1616.99 21.9262 1616.99 22.731 1616.52 23.2005L1609.14 30.5446C1608.68 31.0141 1607.87 31.0141 1607.4 30.5446L1606.43 29.5721C1605.96 29.1026 1605.96 28.2978 1606.43 27.8283L1613.81 20.4842C1614.28 20.0147 1615.08 20.0147 1615.55 20.4842Z" fill="white"/>
</g>
</svg>
