<svg width="20" height="23" viewBox="0 0 20 23" fill="none" xmlns="http://www.w3.org/2000/svg">
<path fill-rule="evenodd" clip-rule="evenodd" d="M18.3005 3.12838C19.0614 3.12838 19.6839 2.50582 19.6839 1.74491C19.6839 0.984009 19.0614 0.36145 18.3005 0.36145H1.69889C0.937996 0.36145 0.31543 0.984009 0.31543 1.74491C0.31543 2.50582 0.937996 3.12838 1.69889 3.12838H18.3005V3.12838Z" fill="white"/>
<path fill-rule="evenodd" clip-rule="evenodd" d="M5.84978 21.1135C5.84978 21.8744 6.47235 22.4969 7.23325 22.4969H12.7671C13.528 22.4969 14.1506 21.8744 14.1506 21.1135V14.1962H16.3503C17.5815 14.1962 18.2041 12.702 17.3325 11.8304L10.9824 5.48034C10.4429 4.94079 9.5713 4.94079 9.03175 5.48034L2.68164 11.8304C1.81007 12.702 2.41878 14.1962 3.65008 14.1962H5.84978V21.1135V21.1135Z" fill="white"/>
</svg>
