<svg width="12" height="14" viewBox="0 0 12 14" fill="none" xmlns="http://www.w3.org/2000/svg">
<path fill-rule="evenodd" clip-rule="evenodd" d="M5.99988 0.418335C3.23677 0.418335 0.299805 2.42619 0.299805 6.14836C0.299805 6.93539 0.937802 7.57339 1.72482 7.57339C2.51183 7.57339 3.14984 6.93539 3.14984 6.14836C3.14984 4.169 4.62759 3.26839 5.99988 3.26839C7.06437 3.26839 8.84991 3.58047 8.84991 5.67383C8.84991 6.41627 8.65469 7.28269 7.21257 8.07786C6.23216 8.6151 4.57486 10.0102 4.57486 11.8186C4.57486 12.6056 5.21286 13.2436 5.99988 13.2436C6.7869 13.2436 7.4249 12.6056 7.4249 11.8186C7.4249 11.5535 7.98778 10.9023 8.58629 10.5731C10.6511 9.4359 11.7 7.78715 11.7 5.67383C11.7 2.0443 8.83709 0.418335 5.99988 0.418335Z" fill="white"/>
</svg>
