<svg xmlns="http://www.w3.org/2000/svg" width="21" height="37" viewBox="0 0 21 37" fill="none">
<path d="M10.4842 17.8973C9.02019 17.8531 7.8054 17.2189 6.93769 15.7612C5.79232 13.8333 6.63163 11.5646 8.66048 10.6023C8.83718 10.5171 8.9066 10.4098 8.9066 10.2173C8.90029 7.67416 8.90344 5.13099 8.89713 2.58782C8.89713 2.38588 8.9697 2.19341 9.09591 2.0388C9.43984 1.62861 9.76799 1.2058 10.1025 0.786149C10.1277 0.754596 10.1529 0.723043 10.1782 0.69149C10.3202 0.53057 10.56 0.546346 10.6988 0.710421C11.1121 1.20896 11.5223 1.71065 11.9388 2.20603C12.0209 2.30385 12.0114 2.37642 11.9231 2.46477C11.7211 2.66355 11.5286 2.87495 11.3267 3.07689C11.2541 3.14946 11.2478 3.26937 11.3204 3.34509C11.5318 3.57227 11.7401 3.80261 11.9515 4.03295C12.0272 4.11499 12.024 4.2412 11.9515 4.32008C11.7432 4.54726 11.535 4.77444 11.3299 5.00162C11.2226 5.11837 11.2257 5.16254 11.3299 5.28244C11.535 5.50962 11.7432 5.73365 11.9515 5.96083C12.0272 6.04287 12.024 6.17224 11.9451 6.25112C11.7527 6.44044 11.5602 6.62976 11.3677 6.81907C11.2226 6.96106 11.2257 7.02101 11.3677 7.17247C11.5697 7.39018 11.7685 7.61105 11.9735 7.82877C12.0587 7.92027 12.0493 8.00231 11.9641 8.09066C11.7558 8.31468 11.5507 8.54186 11.3425 8.76905C11.2226 8.90157 11.2194 8.93943 11.333 9.07195C11.5003 9.27074 11.6675 9.46952 11.841 9.66515C11.9925 9.83869 12.0903 10.0343 12.0524 10.2647C12.024 10.4445 12.0998 10.5392 12.2512 10.6212C13.2262 11.1418 13.8667 11.9401 14.1602 13.0035C14.7723 15.2279 13.3114 17.4745 11.0301 17.8342C10.8503 17.8626 10.6673 17.8752 10.4874 17.8942L10.4842 17.8973ZM11.7211 15.4709C11.7211 14.7862 11.1405 14.1867 10.4653 14.1835C9.72697 14.1804 9.15271 14.7515 9.14955 15.4961C9.14955 16.1808 9.72697 16.7551 10.4243 16.7551C11.1469 16.7551 11.718 16.1903 11.7211 15.4709Z" fill="#ffffff"/>
<path d="M19.0824 33.9641H1.9176C1.23972 33.9641 0.690186 34.5129 0.690186 35.1899C0.690186 35.867 1.23972 36.4158 1.9176 36.4158H19.0824C19.7603 36.4158 20.3098 35.867 20.3098 35.1899C20.3098 34.5129 19.7603 33.9641 19.0824 33.9641Z" fill="#ffffff"/>
<path d="M19.0824 26.303H1.9176C1.23972 26.303 0.690186 26.8519 0.690186 27.5289C0.690186 28.2059 1.23972 28.7547 1.9176 28.7547H19.0824C19.7603 28.7547 20.3098 28.2059 20.3098 27.5289C20.3098 26.8519 19.7603 26.303 19.0824 26.303Z" fill="#ffffff"/>
<path d="M19.0824 18.642H1.9176C1.23972 18.642 0.690186 19.1908 0.690186 19.8678C0.690186 20.5448 1.23972 21.0936 1.9176 21.0936H19.0824C19.7603 21.0936 20.3098 20.5448 20.3098 19.8678C20.3098 19.1908 19.7603 18.642 19.0824 18.642Z" fill="#ffffff"/>
</svg>