<svg width="30" height="26" viewBox="0 0 30 26" fill="none" xmlns="http://www.w3.org/2000/svg">
<path fill-rule="evenodd" clip-rule="evenodd" d="M2.24975 22.912C1.44955 22.912 0.800781 23.5607 0.800781 24.361C0.800781 25.1612 1.44955 25.8099 2.24975 25.8099H27.7519C28.5521 25.8099 29.2008 25.1612 29.2008 24.361C29.2008 23.5607 28.5521 22.912 27.7519 22.912H2.24975Z" fill="white"/>
<path fill-rule="evenodd" clip-rule="evenodd" d="M8.28596 20.7868C8.79282 20.7868 9.20365 20.3759 9.20365 19.8691V7.31125C9.20365 6.8044 8.79282 6.39355 8.28596 6.39355H3.74582C3.23896 6.39355 2.82812 6.8044 2.82812 7.31125V19.8691C2.82812 20.3759 3.23896 20.7868 3.74582 20.7868H8.28596Z" fill="white"/>
<path fill-rule="evenodd" clip-rule="evenodd" d="M17.2703 20.7868C17.7772 20.7868 18.188 20.3759 18.188 19.8691V1.0323C18.188 0.525462 17.7772 0.114624 17.2703 0.114624H12.7302C12.2233 0.114624 11.8125 0.525462 11.8125 1.0323V19.8691C11.8125 20.3759 12.2233 20.7868 12.7302 20.7868H17.2703Z" fill="white"/>
<path fill-rule="evenodd" clip-rule="evenodd" d="M26.2527 20.7868C26.7596 20.7868 27.1704 20.376 27.1704 19.8692V9.72627C27.1704 9.21942 26.7596 8.80859 26.2527 8.80859H21.7126C21.2057 8.80859 20.7949 9.21942 20.7949 9.72627V19.8692C20.7949 20.376 21.2057 20.7868 21.7126 20.7868H26.2527Z" fill="white"/>
</svg>
