<svg width="24" height="28" viewBox="0 0 24 28" fill="none" xmlns="http://www.w3.org/2000/svg">
<path d="M24 19.6875V1.3125C24 0.585156 23.4268 0 22.7143 0H5.14286C2.30357 0 0 2.35156 0 5.25V22.75C0 25.6484 2.30357 28 5.14286 28H22.7143C23.4268 28 24 27.4148 24 26.6875V25.8125C24 25.4023 23.8125 25.0305 23.5232 24.7898C23.2982 23.9477 23.2982 21.5469 23.5232 20.7047C23.8125 20.4695 24 20.0977 24 19.6875ZM6.85714 7.32812C6.85714 7.14766 7.00179 7 7.17857 7H18.5357C18.7125 7 18.8571 7.14766 18.8571 7.32812V8.42188C18.8571 8.60234 18.7125 8.75 18.5357 8.75H7.17857C7.00179 8.75 6.85714 8.60234 6.85714 8.42188V7.32812ZM6.85714 10.8281C6.85714 10.6477 7.00179 10.5 7.17857 10.5H18.5357C18.7125 10.5 18.8571 10.6477 18.8571 10.8281V11.9219C18.8571 12.1023 18.7125 12.25 18.5357 12.25H7.17857C7.00179 12.25 6.85714 12.1023 6.85714 11.9219V10.8281ZM20.4321 24.5H5.14286C4.19464 24.5 3.42857 23.718 3.42857 22.75C3.42857 21.7875 4.2 21 5.14286 21H20.4321C20.3304 21.9352 20.3304 23.5648 20.4321 24.5Z" fill="#333333"/>
</svg>
