<svg width="28" height="27" viewBox="0 0 28 27" fill="none" xmlns="http://www.w3.org/2000/svg">
<path d="M27.1657 15.1875H14.9523L23.0861 23.5212C23.397 23.8397 23.9086 23.8655 24.2283 23.557C26.2202 21.6343 27.5903 19.0424 27.9923 16.1288C28.0613 15.6299 27.6572 15.1875 27.1657 15.1875V15.1875ZM26.3509 11.7702C25.9268 5.47052 21.0134 0.436443 14.8648 0.0019069C14.3954 -0.0313161 14.0001 0.374216 14.0001 0.856213V12.6562H25.5176C25.988 12.6562 26.3833 12.2512 26.3509 11.7702ZM11.5295 15.1875V2.67399C11.5295 2.17037 11.0977 1.7564 10.6113 1.82706C4.47752 2.71512 -0.210916 8.20536 0.00731835 14.7851C0.231729 21.5426 5.91046 27.0839 12.509 26.999C15.1031 26.9658 17.5001 26.1094 19.4709 24.6771C19.8775 24.3818 19.9042 23.7685 19.5517 23.4073L11.5295 15.1875Z" fill="#333333"/>
</svg>
