<svg width="27" height="27" viewBox="0 0 27 27" fill="none" xmlns="http://www.w3.org/2000/svg">
<path fill-rule="evenodd" clip-rule="evenodd" d="M19.239 21.67C17.2302 23.1744 14.7356 24.0655 12.0328 24.0655C5.38725 24.0655 0 18.6783 0 12.0328C0 5.38725 5.38725 0 12.0328 0C18.6783 0 24.0655 5.38725 24.0655 12.0328C24.0655 14.7356 23.1744 17.2302 21.67 19.239L27 24.569L24.569 27L19.239 21.67ZM9.60178 14.4638L7.1708 16.8947C4.4856 14.2095 4.4856 9.85599 7.1708 7.1708C9.85599 4.4856 14.2095 4.4856 16.8947 7.1708L14.4638 9.60178C13.1212 8.25919 10.9444 8.25919 9.60178 9.60178C8.25919 10.9444 8.25919 13.1212 9.60178 14.4638Z" fill="#333333"/>
</svg>
