<svg width="28" height="28" viewBox="0 0 28 28" fill="none" xmlns="http://www.w3.org/2000/svg">
<path fill-rule="evenodd" clip-rule="evenodd" d="M19.7608 7.63985C18.2862 6.26125 16.3182 5.51022 14.282 5.54108C10.5561 5.54108 7.39163 8.00506 6.26332 11.3229C5.66507 13.0616 5.66507 14.9444 6.26332 16.6831H6.26856C7.4021 19.9959 10.5613 22.4599 14.2873 22.4599C16.2106 22.4599 17.8618 21.9776 19.1416 21.1259V21.1224C20.6477 20.1451 21.6763 18.607 21.9964 16.8683H14.2821V11.4774H27.7534C27.9213 12.4136 28 13.3704 28 14.322C28 18.58 26.4476 22.18 23.7464 24.6182L23.7492 24.6204C21.3824 26.7603 18.134 28 14.282 28C8.88199 28 3.94375 25.0165 1.51924 20.2891C-0.506419 16.3333 -0.506414 11.6728 1.51926 7.71705C3.94377 2.98452 8.88199 0.000943411 14.282 0.000943411C17.8296 -0.040209 21.2565 1.26638 23.8384 3.64293L19.7608 7.63985Z" fill="#333333"/>
</svg>
