<svg width="28" height="28" viewBox="0 0 28 28" fill="none" xmlns="http://www.w3.org/2000/svg">
<path fill-rule="evenodd" clip-rule="evenodd" d="M17.4999 20.9999C23.2989 20.9999 27.9999 16.2989 27.9999 10.5C27.9999 4.70099 23.2989 0 17.4999 0C11.701 0 6.99997 4.70099 6.99997 10.5C6.99997 16.2989 11.701 20.9999 17.4999 20.9999ZM22.1798 6.07931L20.8391 7.64354L21.7425 8.40354L20.6159 9.7427L19.7001 8.97229L18.5135 10.3567C18.975 10.9496 19.2499 11.695 19.2499 12.5046C19.2499 14.4376 17.6829 16.0046 15.7499 16.0046C13.8169 16.0046 12.2499 14.4376 12.2499 12.5046C12.2499 10.5716 13.8169 9.00461 15.7499 9.00461C16.2387 9.00461 16.704 9.10479 17.1266 9.28574L22.0855 3.50031L22.2786 3.6658L24.9254 5.84532L23.7011 7.33205L22.1798 6.07931ZM15.7499 14.2546C16.7164 14.2546 17.4999 13.4711 17.4999 12.5046C17.4999 11.5381 16.7164 10.7546 15.7499 10.7546C14.7834 10.7546 13.9999 11.5381 13.9999 12.5046C13.9999 13.4711 14.7834 14.2546 15.7499 14.2546Z" fill="#333333"/>
<rect width="10.8166" height="5.04157" rx="2.52079" transform="matrix(0.705256 -0.708953 0.722065 0.691825 0 24.5119)" fill="#333333"/>
<rect width="7.39588" height="1.42949" transform="matrix(0.709375 -0.704831 0.718024 0.696018 5.67462 21.4118)" fill="#333333"/>
</svg>
