<svg width="184" height="32" viewBox="0 0 184 32" fill="none" xmlns="http://www.w3.org/2000/svg">
<path d="M37.8531 15.8721C38.67 15.8721 39.3793 15.7708 39.9812 15.5681C40.5938 15.3655 41.0935 15.0881 41.4804 14.7361C41.8781 14.3735 42.1737 13.9468 42.3671 13.4561C42.5606 12.9655 42.6573 12.4268 42.6573 11.8401C42.6573 10.6668 42.265 9.76546 41.4804 9.13612C40.7066 8.50679 39.519 8.19212 37.9176 8.19212H35.1447V15.8721H37.8531ZM49.0091 28.0001H45.0916C44.35 28.0001 43.8127 27.7121 43.4795 27.1361L38.5786 19.7281C38.3959 19.4508 38.1917 19.2535 37.966 19.1361C37.751 19.0188 37.4286 18.9601 36.9987 18.9601H35.1447V28.0001H30.8081V4.86412H37.9176C39.4975 4.86412 40.8517 5.02945 41.9802 5.36012C43.1194 5.68012 44.0491 6.13345 44.7692 6.72012C45.5 7.30679 46.0374 8.01079 46.3813 8.83212C46.7253 9.64279 46.8972 10.5388 46.8972 11.5201C46.8972 12.2988 46.779 13.0348 46.5425 13.7281C46.3168 14.4215 45.9837 15.0508 45.543 15.6161C45.1131 16.1815 44.5757 16.6775 43.9309 17.1041C43.2968 17.5308 42.5713 17.8668 41.7545 18.1121C42.0339 18.2721 42.2919 18.4641 42.5283 18.6881C42.7648 18.9015 42.9797 19.1575 43.1732 19.4561L49.0091 28.0001Z" fill="#FEC200"/>
<path d="M59.5852 20.9921C58.4352 21.0455 57.468 21.1468 56.6834 21.2961C55.8988 21.4348 55.2701 21.6161 54.7972 21.8401C54.3243 22.0641 53.9857 22.3255 53.7815 22.6241C53.5773 22.9228 53.4752 23.2481 53.4752 23.6001C53.4752 24.2935 53.6794 24.7895 54.0878 25.0881C54.507 25.3868 55.0497 25.5361 55.7161 25.5361C56.5329 25.5361 57.2369 25.3921 57.828 25.1041C58.4299 24.8055 59.0156 24.3575 59.5852 23.7601V20.9921ZM50.4605 13.8721C52.3629 12.1441 54.6521 11.2801 57.3282 11.2801C58.2955 11.2801 59.1607 11.4401 59.9238 11.7601C60.6868 12.0695 61.3317 12.5068 61.8583 13.0721C62.385 13.6268 62.7826 14.2935 63.0513 15.0721C63.3307 15.8508 63.4705 16.7041 63.4705 17.6321V28.0001H61.6649C61.2887 28.0001 60.9985 27.9468 60.7943 27.8401C60.5901 27.7228 60.4289 27.4935 60.3107 27.1521L59.956 25.9681C59.5369 26.3415 59.1285 26.6721 58.7308 26.9601C58.3331 27.2375 57.9193 27.4721 57.4894 27.6641C57.0595 27.8561 56.5974 28.0001 56.103 28.0961C55.6194 28.2028 55.082 28.2561 54.4909 28.2561C53.7923 28.2561 53.1474 28.1655 52.5563 27.9841C51.9652 27.7921 51.4547 27.5095 51.0248 27.1361C50.5949 26.7628 50.2617 26.2988 50.0253 25.7441C49.7888 25.1895 49.6706 24.5441 49.6706 23.8081C49.6706 23.3921 49.7404 22.9815 49.8802 22.5761C50.0199 22.1601 50.2456 21.7655 50.5573 21.3921C50.8797 21.0188 51.2935 20.6668 51.7986 20.3361C52.3037 20.0055 52.9217 19.7175 53.6526 19.4721C54.3941 19.2268 55.254 19.0295 56.232 18.8801C57.21 18.7201 58.3278 18.6241 59.5852 18.5921V17.6321C59.5852 16.5335 59.3488 15.7228 58.8759 15.2001C58.403 14.6668 57.7205 14.4001 56.8285 14.4001C56.1836 14.4001 55.6462 14.4748 55.2163 14.6241C54.7972 14.7735 54.4264 14.9441 54.104 15.1361C53.7815 15.3175 53.486 15.4828 53.2173 15.6321C52.9593 15.7815 52.6692 15.8561 52.3467 15.8561C52.0673 15.8561 51.8309 15.7868 51.6374 15.6481C51.4439 15.4988 51.2881 15.3281 51.1699 15.1361L50.4605 13.8721Z" fill="#FEC200"/>
<path d="M71.4042 23.7441C71.8556 24.2881 72.3446 24.6721 72.8712 24.8961C73.4086 25.1201 73.9729 25.2321 74.564 25.2321C75.1766 25.2321 75.7247 25.1255 76.2084 24.9121C76.7027 24.6881 77.1219 24.3468 77.4658 23.8881C77.8097 23.4188 78.0731 22.8268 78.2558 22.1121C78.4385 21.3868 78.5298 20.5228 78.5298 19.5201C78.5298 17.7175 78.2289 16.4161 77.627 15.6161C77.0252 14.8055 76.16 14.4001 75.0315 14.4001C74.2684 14.4001 73.6021 14.5761 73.0324 14.9281C72.4628 15.2695 71.9201 15.7548 71.4042 16.3841V23.7441ZM71.4042 13.6001C72.0705 12.9068 72.8067 12.3575 73.6128 11.9521C74.4296 11.5361 75.3593 11.3281 76.4018 11.3281C77.3583 11.3281 78.2181 11.5148 78.9812 11.8881C79.755 12.2615 80.4106 12.8001 80.948 13.5041C81.4962 14.1975 81.9153 15.0401 82.2055 16.0321C82.4957 17.0241 82.6408 18.1388 82.6408 19.3761C82.6408 20.7095 82.4742 21.9201 82.141 23.0081C81.8078 24.0961 81.3296 25.0295 80.7062 25.8081C80.0936 26.5761 79.352 27.1735 78.4815 27.6001C77.6109 28.0268 76.6436 28.2401 75.5796 28.2401C75.0637 28.2401 74.5962 28.1868 74.1771 28.0801C73.7579 27.9841 73.371 27.8455 73.0163 27.6641C72.6617 27.4828 72.3339 27.2641 72.0329 27.0081C71.7427 26.7415 71.4633 26.4481 71.1946 26.1281L71.0173 27.2321C70.9528 27.5095 70.8399 27.7068 70.6787 27.8241C70.5283 27.9415 70.3187 28.0001 70.05 28.0001H67.4222V4.22412H71.4042V13.6001Z" fill="#FEC200"/>
<path d="M89.8997 23.7441C90.3511 24.2881 90.8401 24.6721 91.3667 24.8961C91.9041 25.1201 92.4683 25.2321 93.0594 25.2321C93.6721 25.2321 94.2202 25.1255 94.7038 24.9121C95.1982 24.6881 95.6174 24.3468 95.9613 23.8881C96.3052 23.4188 96.5685 22.8268 96.7512 22.1121C96.9339 21.3868 97.0253 20.5228 97.0253 19.5201C97.0253 17.7175 96.7244 16.4161 96.1225 15.6161C95.5206 14.8055 94.6555 14.4001 93.527 14.4001C92.7639 14.4001 92.0975 14.5761 91.5279 14.9281C90.9583 15.2695 90.4155 15.7548 89.8997 16.3841V23.7441ZM89.8997 13.6001C90.566 12.9068 91.3022 12.3575 92.1083 11.9521C92.9251 11.5361 93.8548 11.3281 94.8973 11.3281C95.8538 11.3281 96.7136 11.5148 97.4767 11.8881C98.2505 12.2615 98.9061 12.8001 99.4435 13.5041C99.9916 14.1975 100.411 15.0401 100.701 16.0321C100.991 17.0241 101.136 18.1388 101.136 19.3761C101.136 20.7095 100.97 21.9201 100.636 23.0081C100.303 24.0961 99.825 25.0295 99.2017 25.8081C98.5891 26.5761 97.8475 27.1735 96.9769 27.6001C96.1064 28.0268 95.1391 28.2401 94.0751 28.2401C93.5592 28.2401 93.0917 28.1868 92.6725 28.0801C92.2534 27.9841 91.8665 27.8455 91.5118 27.6641C91.1571 27.4828 90.8293 27.2641 90.5284 27.0081C90.2382 26.7415 89.9588 26.4481 89.6901 26.1281L89.5127 27.2321C89.4483 27.5095 89.3354 27.7068 89.1742 27.8241C89.0237 27.9415 88.8142 28.0001 88.5455 28.0001H85.9177V4.22412H89.8997V13.6001Z" fill="#FEC200"/>
<path d="M108.54 11.5841V28.0001H104.542V11.5841H108.54ZM109.088 6.80012C109.088 7.14145 109.018 7.46145 108.879 7.76012C108.739 8.05879 108.551 8.32012 108.315 8.54412C108.089 8.76812 107.82 8.94945 107.508 9.08812C107.197 9.21612 106.864 9.28012 106.509 9.28012C106.165 9.28012 105.837 9.21612 105.526 9.08812C105.225 8.94945 104.961 8.76812 104.736 8.54412C104.51 8.32012 104.327 8.05879 104.187 7.76012C104.058 7.46145 103.994 7.14145 103.994 6.80012C103.994 6.44812 104.058 6.11745 104.187 5.80812C104.327 5.49879 104.51 5.23212 104.736 5.00812C104.961 4.78412 105.225 4.60812 105.526 4.48012C105.837 4.34145 106.165 4.27212 106.509 4.27212C106.864 4.27212 107.197 4.34145 107.508 4.48012C107.82 4.60812 108.089 4.78412 108.315 5.00812C108.551 5.23212 108.739 5.49879 108.879 5.80812C109.018 6.11745 109.088 6.44812 109.088 6.80012Z" fill="#FEC200"/>
<path d="M118.315 28.2561C116.875 28.2561 115.768 27.8561 114.994 27.0561C114.231 26.2455 113.849 25.1308 113.849 23.7121V14.5441H112.156C111.941 14.5441 111.759 14.4748 111.608 14.3361C111.458 14.1975 111.383 13.9895 111.383 13.7121V12.1441L114.043 11.7121L114.881 7.23212C114.935 7.01879 115.037 6.85345 115.187 6.73612C115.338 6.61879 115.531 6.56012 115.768 6.56012H117.831V11.7281H122.248V14.5441H117.831V23.4401C117.831 23.9521 117.955 24.3521 118.202 24.6401C118.46 24.9281 118.809 25.0721 119.25 25.0721C119.497 25.0721 119.701 25.0455 119.862 24.9921C120.034 24.9281 120.179 24.8641 120.298 24.8001C120.427 24.7361 120.54 24.6775 120.636 24.6241C120.733 24.5601 120.83 24.5281 120.926 24.5281C121.045 24.5281 121.141 24.5601 121.217 24.6241C121.292 24.6775 121.372 24.7628 121.458 24.8801L122.651 26.8001C122.071 27.2801 121.405 27.6428 120.652 27.8881C119.9 28.1335 119.121 28.2561 118.315 28.2561Z" fill="#FEC200"/>
<path d="M138.042 9.07212C137.913 9.29612 137.773 9.46145 137.622 9.56812C137.483 9.66412 137.305 9.71212 137.09 9.71212C136.865 9.71212 136.617 9.63212 136.349 9.47212C136.091 9.30145 135.779 9.11479 135.414 8.91212C135.048 8.70946 134.618 8.52812 134.124 8.36812C133.64 8.19745 133.065 8.11212 132.399 8.11212C131.797 8.11212 131.271 8.18679 130.819 8.33612C130.368 8.47479 129.986 8.67212 129.675 8.92812C129.374 9.18412 129.148 9.49345 128.997 9.85612C128.847 10.2081 128.772 10.5975 128.772 11.0241C128.772 11.5681 128.922 12.0215 129.223 12.3841C129.535 12.7468 129.943 13.0561 130.448 13.3121C130.954 13.5681 131.529 13.7975 132.173 14.0001C132.818 14.2028 133.479 14.4215 134.156 14.6561C134.833 14.8801 135.494 15.1468 136.139 15.4561C136.784 15.7548 137.359 16.1388 137.864 16.6081C138.369 17.0668 138.772 17.6321 139.073 18.3041C139.385 18.9761 139.541 19.7921 139.541 20.7521C139.541 21.7975 139.358 22.7788 138.993 23.6961C138.638 24.6028 138.111 25.3975 137.413 26.0801C136.725 26.7521 135.881 27.2855 134.882 27.6801C133.882 28.0641 132.738 28.2561 131.448 28.2561C130.706 28.2561 129.975 28.1815 129.255 28.0321C128.535 27.8935 127.842 27.6908 127.176 27.4241C126.52 27.1575 125.902 26.8375 125.322 26.4641C124.741 26.0908 124.226 25.6748 123.774 25.2161L125.048 23.1521C125.155 23.0028 125.295 22.8801 125.467 22.7841C125.639 22.6775 125.822 22.6241 126.015 22.6241C126.284 22.6241 126.574 22.7361 126.886 22.9601C127.197 23.1735 127.568 23.4135 127.998 23.6801C128.428 23.9468 128.928 24.1921 129.497 24.4161C130.078 24.6295 130.771 24.7361 131.577 24.7361C132.813 24.7361 133.769 24.4481 134.446 23.8721C135.124 23.2855 135.462 22.4481 135.462 21.3601C135.462 20.7521 135.306 20.2561 134.995 19.8721C134.694 19.4881 134.291 19.1681 133.785 18.9121C133.28 18.6455 132.705 18.4215 132.061 18.2401C131.416 18.0588 130.76 17.8615 130.094 17.6481C129.427 17.4348 128.772 17.1788 128.127 16.8801C127.482 16.5815 126.907 16.1921 126.402 15.7121C125.897 15.2321 125.488 14.6348 125.177 13.9201C124.876 13.1948 124.725 12.3041 124.725 11.2481C124.725 10.4055 124.892 9.58412 125.225 8.78412C125.569 7.98412 126.063 7.27479 126.708 6.65612C127.353 6.03745 128.148 5.54145 129.094 5.16812C130.04 4.79479 131.125 4.60812 132.351 4.60812C133.726 4.60812 134.995 4.82146 136.155 5.24812C137.316 5.67479 138.305 6.27212 139.122 7.04012L138.042 9.07212Z" fill="#FEC200"/>
<path d="M147.878 8.28812V14.7041H156.035V18.0161H147.878V24.5601H158.228V28.0001H143.525V4.86412H158.228V8.28812H147.878Z" fill="#FEC200"/>
<path d="M184 16.4321C184 18.1281 183.715 19.7015 183.146 21.1521C182.587 22.5921 181.792 23.8401 180.76 24.8961C179.728 25.9521 178.487 26.7788 177.036 27.3761C175.585 27.9628 173.973 28.2561 172.199 28.2561C170.437 28.2561 168.83 27.9628 167.379 27.3761C165.928 26.7788 164.681 25.9521 163.639 24.8961C162.607 23.8401 161.807 22.5921 161.237 21.1521C160.667 19.7015 160.382 18.1281 160.382 16.4321C160.382 14.7361 160.667 13.1681 161.237 11.7281C161.807 10.2775 162.607 9.02412 163.639 7.96812C164.681 6.91212 165.928 6.09079 167.379 5.50412C168.83 4.90679 170.437 4.60812 172.199 4.60812C173.382 4.60812 174.494 4.74679 175.537 5.02412C176.579 5.29079 177.536 5.67479 178.406 6.17612C179.277 6.66679 180.056 7.26945 180.744 7.98412C181.442 8.68812 182.033 9.47745 182.517 10.3521C183.001 11.2268 183.366 12.1761 183.613 13.2001C183.871 14.2241 184 15.3015 184 16.4321ZM179.567 16.4321C179.567 15.1628 179.395 14.0268 179.051 13.0241C178.707 12.0108 178.218 11.1521 177.584 10.4481C176.95 9.74412 176.176 9.20545 175.262 8.83212C174.36 8.45879 173.339 8.27212 172.199 8.27212C171.06 8.27212 170.034 8.45879 169.12 8.83212C168.217 9.20545 167.444 9.74412 166.799 10.4481C166.165 11.1521 165.676 12.0108 165.332 13.0241C164.988 14.0268 164.816 15.1628 164.816 16.4321C164.816 17.7015 164.988 18.8428 165.332 19.8561C165.676 20.8588 166.165 21.7121 166.799 22.4161C167.444 23.1095 168.217 23.6428 169.12 24.0161C170.034 24.3895 171.06 24.5761 172.199 24.5761C173.339 24.5761 174.36 24.3895 175.262 24.0161C176.176 23.6428 176.95 23.1095 177.584 22.4161C178.218 21.7121 178.707 20.8588 179.051 19.8561C179.395 18.8428 179.567 17.7015 179.567 16.4321Z" fill="#FEC200"/>
<mask id="path-2-inside-1_11_826" fill="white">
<path fill-rule="evenodd" clip-rule="evenodd" d="M9.5151 13.4515H12.6778C12.6778 13.4515 15.2749 -3.45812 19.0031 0.662064C20.2434 2.03274 20.5055 3.25321 20.8742 4.96985C20.9082 5.1282 20.9431 5.29078 20.9798 5.45809C21.9299 9.79231 19.0031 16.6488 19.0031 16.6488C19.0031 16.6488 22.1209 20.2518 22.1658 23.0435C22.2386 27.5692 18.5448 30.1268 14.2591 31.4365C11.7468 32.2043 10.0604 32.1712 7.53843 31.4365C3.13259 30.1531 -0.343238 27.6637 0.0270754 23.0435C0.269181 20.0229 3.58508 16.6488 3.58508 16.6488C3.58508 16.6488 -0.066505 9.87324 0.817744 5.45809C0.830669 5.39355 0.843413 5.32973 0.856019 5.2666C1.23188 3.38429 1.48582 2.11257 2.79442 0.662064C6.56426 -3.51657 9.5151 13.4515 9.5151 13.4515ZM9.01958 23.3804L11.0738 26.3779L13.128 23.3804H9.01958Z"/>
</mask>
<path fill-rule="evenodd" clip-rule="evenodd" d="M9.5151 13.4515H12.6778C12.6778 13.4515 15.2749 -3.45812 19.0031 0.662064C20.2434 2.03274 20.5055 3.25321 20.8742 4.96985C20.9082 5.1282 20.9431 5.29078 20.9798 5.45809C21.9299 9.79231 19.0031 16.6488 19.0031 16.6488C19.0031 16.6488 22.1209 20.2518 22.1658 23.0435C22.2386 27.5692 18.5448 30.1268 14.2591 31.4365C11.7468 32.2043 10.0604 32.1712 7.53843 31.4365C3.13259 30.1531 -0.343238 27.6637 0.0270754 23.0435C0.269181 20.0229 3.58508 16.6488 3.58508 16.6488C3.58508 16.6488 -0.066505 9.87324 0.817744 5.45809C0.830669 5.39355 0.843413 5.32973 0.856019 5.2666C1.23188 3.38429 1.48582 2.11257 2.79442 0.662064C6.56426 -3.51657 9.5151 13.4515 9.5151 13.4515ZM9.01958 23.3804L11.0738 26.3779L13.128 23.3804H9.01958Z" fill="#FEC200"/>
<path d="M12.6778 13.4515V14.4515H13.5359L13.6662 13.6033L12.6778 13.4515ZM9.5151 13.4515L8.52989 13.6228L8.674 14.4515H9.5151V13.4515ZM19.0031 0.662064L19.7446 -0.00889324V-0.00889349L19.0031 0.662064ZM20.8742 4.96985L21.8519 4.75988V4.75987L20.8742 4.96985ZM20.9798 5.45809L21.9566 5.24397V5.24396L20.9798 5.45809ZM19.0031 16.6488L18.0834 16.2562L17.8382 16.8308L18.2469 17.3032L19.0031 16.6488ZM22.1658 23.0435L21.1659 23.0596L22.1658 23.0435ZM14.2591 31.4365L14.5514 32.3929L14.2591 31.4365ZM7.53843 31.4365L7.8181 30.4764L7.53843 31.4365ZM0.0270754 23.0435L-0.969728 22.9636L0.0270754 23.0435ZM3.58508 16.6488L4.29831 17.3497L4.81531 16.8237L4.46538 16.1744L3.58508 16.6488ZM0.817744 5.45809L-0.162784 5.26171H-0.162784L0.817744 5.45809ZM0.856019 5.2666L-0.124622 5.07078L-0.124622 5.07078L0.856019 5.2666ZM2.79442 0.662064L3.53691 1.33192L2.79442 0.662064ZM11.0738 26.3779L10.2489 26.9432L11.0738 28.1469L11.8987 26.9432L11.0738 26.3779ZM9.01958 23.3804V22.3804H7.12198L8.19469 23.9457L9.01958 23.3804ZM13.128 23.3804L13.9529 23.9457L15.0256 22.3804H13.128V23.3804ZM12.6778 12.4515H9.5151V14.4515H12.6778V12.4515ZM19.7446 -0.00889349C19.1516 -0.664282 18.3896 -1.09983 17.5038 -0.958918C16.6945 -0.83018 16.0848 -0.258002 15.647 0.315467C14.759 1.47885 14.0436 3.36345 13.4846 5.22396C12.914 7.12334 12.4657 9.14301 12.1609 10.6791C12.0082 11.4492 11.8906 12.102 11.8112 12.5631C11.7714 12.7937 11.7412 12.9766 11.7208 13.1024C11.7106 13.1653 11.7028 13.214 11.6976 13.2472C11.6949 13.2639 11.6929 13.2766 11.6916 13.2854C11.6909 13.2898 11.6904 13.2932 11.69 13.2956C11.6898 13.2968 11.6897 13.2977 11.6896 13.2984C11.6895 13.2987 11.6895 13.299 11.6894 13.2992C11.6894 13.2995 11.6894 13.2996 12.6778 13.4515C13.6662 13.6033 13.6662 13.6033 13.6662 13.6033C13.6662 13.6032 13.6662 13.6032 13.6662 13.603C13.6663 13.6026 13.6664 13.602 13.6665 13.6012C13.6668 13.5994 13.6672 13.5967 13.6678 13.593C13.6689 13.5856 13.6707 13.5741 13.6731 13.5589C13.6779 13.5284 13.6852 13.4826 13.6949 13.4227C13.7144 13.3028 13.7436 13.1264 13.7821 12.9027C13.8593 12.4552 13.9737 11.8192 14.1227 11.0683C14.4214 9.56262 14.8554 7.61241 15.4001 5.79941C15.9564 3.94756 16.5893 2.3773 17.2368 1.52894C17.5669 1.09654 17.7717 1.02362 17.818 1.01625C17.8252 1.01511 17.8454 1.01028 17.9014 1.03594C17.9689 1.06682 18.0918 1.14534 18.2616 1.33302L19.7446 -0.00889349ZM21.8519 4.75987C21.4828 3.04116 21.181 1.57844 19.7446 -0.00889324L18.2616 1.33302C19.3059 2.48704 19.5283 3.46527 19.8965 5.17983L21.8519 4.75987ZM21.9566 5.24396C21.9205 5.07905 21.886 4.91851 21.8519 4.75988L19.8965 5.17982C19.9304 5.3379 19.9658 5.50251 20.003 5.67221L21.9566 5.24396ZM19.0031 16.6488C19.9228 17.0414 19.9229 17.0412 19.923 17.041C19.9231 17.0409 19.9232 17.0407 19.9232 17.0405C19.9234 17.04 19.9236 17.0395 19.9239 17.0389C19.9244 17.0376 19.9251 17.036 19.926 17.0339C19.9278 17.0297 19.9302 17.0239 19.9334 17.0165C19.9396 17.0017 19.9485 16.9804 19.9599 16.9529C19.9826 16.8979 20.0151 16.8183 20.0558 16.7163C20.1372 16.5122 20.2514 16.2183 20.3849 15.8529C20.6515 15.123 20.9971 14.1028 21.3128 12.941C21.931 10.6655 22.4872 7.66449 21.9566 5.24397L20.003 5.6722C20.4225 7.5859 19.9903 10.1803 19.3827 12.4166C19.0855 13.5106 18.7588 14.4755 18.5063 15.1666C18.3802 15.5117 18.2732 15.7873 18.1982 15.9752C18.1608 16.0691 18.1314 16.141 18.1117 16.1886C18.1018 16.2124 18.0944 16.2301 18.0896 16.2415C18.0872 16.2472 18.0855 16.2513 18.0845 16.2537C18.0839 16.255 18.0836 16.2558 18.0834 16.2562C18.0833 16.2564 18.0833 16.2565 18.0833 16.2565L18.0833 16.2564C18.0834 16.2563 18.0834 16.2562 19.0031 16.6488ZM23.1657 23.0274C23.1385 21.3358 22.2104 19.5344 21.4144 18.2673C21.0011 17.6093 20.5907 17.0455 20.284 16.6462C20.1302 16.446 20.0015 16.2859 19.9101 16.1746C19.8644 16.1189 19.828 16.0754 19.8024 16.045C19.7896 16.0298 19.7794 16.0179 19.7722 16.0094C19.7686 16.0052 19.7657 16.0018 19.7635 15.9993C19.7624 15.9981 19.7616 15.997 19.7609 15.9962C19.7605 15.9958 19.7602 15.9955 19.7599 15.9952C19.7598 15.995 19.7597 15.9948 19.7596 15.9948C19.7594 15.9946 19.7593 15.9944 19.0031 16.6488C18.2469 17.3032 18.2468 17.303 18.2467 17.3029C18.2467 17.3029 18.2466 17.3028 18.2466 17.3028C18.2465 17.3027 18.2465 17.3027 18.2465 17.3027C18.2466 17.3028 18.2468 17.303 18.2473 17.3035C18.2481 17.3045 18.2497 17.3063 18.252 17.309C18.2565 17.3143 18.2639 17.323 18.2739 17.3349C18.294 17.3587 18.3246 17.3952 18.3642 17.4435C18.4435 17.5401 18.5587 17.6833 18.698 17.8646C18.9772 18.2281 19.3491 18.7395 19.7208 19.3312C20.495 20.5636 21.1482 21.9595 21.1659 23.0596L23.1657 23.0274ZM14.5514 32.3929C18.9333 31.0538 23.2499 28.268 23.1657 23.0274L21.1659 23.0596C21.2272 26.8704 18.1564 29.1999 13.9669 30.4802L14.5514 32.3929ZM7.25876 32.3966C8.57308 32.7795 9.7228 32.9953 10.8985 32.9999C12.0768 33.0046 13.2291 32.797 14.5514 32.3929L13.9669 30.4802C12.7768 30.8439 11.8298 31.0036 10.9063 30.9999C9.98023 30.9963 9.02576 30.8282 7.8181 30.4764L7.25876 32.3966ZM-0.969728 22.9636C-1.1793 25.5784 -0.286922 27.6419 1.28798 29.2018C2.82738 30.7265 4.97584 31.7316 7.25876 32.3966L7.8181 30.4764C5.69519 29.858 3.90281 28.9767 2.69541 27.7808C1.52352 26.6201 0.863141 25.1288 1.02388 23.1234L-0.969728 22.9636ZM3.58508 16.6488C2.87186 15.9479 2.8717 15.948 2.87154 15.9482C2.87147 15.9483 2.87129 15.9484 2.87114 15.9486C2.87085 15.9489 2.87051 15.9492 2.87012 15.9496C2.86934 15.9504 2.86836 15.9514 2.86718 15.9526C2.86482 15.9551 2.86167 15.9583 2.85774 15.9623C2.8499 15.9704 2.83898 15.9817 2.82518 15.9962C2.79758 16.025 2.75843 16.0664 2.70932 16.1193C2.61114 16.225 2.47283 16.3773 2.30709 16.5687C1.97643 16.9508 1.53246 17.4936 1.07905 18.1379C0.199157 19.3884 -0.826174 21.1726 -0.969728 22.9636L1.02388 23.1234C1.12243 21.8938 1.8761 20.4806 2.71469 19.2889C3.12052 18.7121 3.52066 18.2227 3.81929 17.8777C3.9682 17.7056 4.09084 17.5707 4.17495 17.4801C4.21698 17.4348 4.24931 17.4007 4.2704 17.3787C4.28094 17.3677 4.28867 17.3597 4.29339 17.3548C4.29575 17.3524 4.29735 17.3507 4.29818 17.3499C4.2986 17.3494 4.29882 17.3492 4.29884 17.3492C4.29885 17.3492 4.29881 17.3492 4.29873 17.3493C4.29868 17.3494 4.29858 17.3495 4.29856 17.3495C4.29844 17.3496 4.29831 17.3497 3.58508 16.6488ZM-0.162784 5.26171C-0.662598 7.75734 0.119022 10.781 0.928119 13.0456C1.34236 14.205 1.78413 15.2194 2.12211 15.9439C2.29136 16.3067 2.43527 16.5983 2.53765 16.8006C2.58886 16.9018 2.62973 16.9807 2.65825 17.0352C2.67251 17.0625 2.68368 17.0836 2.69152 17.0984C2.69544 17.1058 2.69853 17.1115 2.70075 17.1157C2.70186 17.1178 2.70275 17.1194 2.70343 17.1207C2.70377 17.1213 2.70405 17.1218 2.70427 17.1223C2.70439 17.1225 2.70452 17.1227 2.70457 17.1228C2.70469 17.123 2.70479 17.1232 3.58508 16.6488C4.46538 16.1744 4.46545 16.1745 4.46551 16.1746C4.46551 16.1746 4.46556 16.1747 4.46556 16.1747C4.46557 16.1747 4.46552 16.1746 4.46541 16.1744C4.4652 16.174 4.46478 16.1732 4.46414 16.1721C4.46285 16.1697 4.46072 16.1657 4.45775 16.1601C4.45183 16.1489 4.44261 16.1315 4.43034 16.108C4.40579 16.0611 4.36908 15.9902 4.32216 15.8975C4.2283 15.712 4.09384 15.4397 3.93458 15.0984C3.61551 14.4144 3.19965 13.459 2.81152 12.3727C2.01589 10.1457 1.41384 7.57399 1.79827 5.65446L-0.162784 5.26171ZM-0.124622 5.07078C-0.137237 5.13396 -0.149925 5.1975 -0.162784 5.26171L1.79827 5.65446C1.81126 5.5896 1.82406 5.5255 1.83666 5.46241L-0.124622 5.07078ZM2.05192 -0.00779013C0.542225 1.66562 0.2514 3.18766 -0.124622 5.07078L1.83666 5.46241C2.21236 3.58092 2.42941 2.55952 3.53691 1.33192L2.05192 -0.00779013ZM9.5151 13.4515C10.5003 13.2801 10.5003 13.2799 10.5002 13.2797C10.5002 13.2795 10.5002 13.2792 10.5001 13.2788C10.5 13.2782 10.4998 13.2772 10.4996 13.276C10.4992 13.2736 10.4986 13.2702 10.4978 13.2658C10.4963 13.257 10.494 13.2442 10.491 13.2275C10.4851 13.1941 10.4763 13.1452 10.4647 13.0821C10.4417 12.9558 10.4075 12.7723 10.3628 12.5409C10.2734 12.0781 10.1417 11.4231 9.97178 10.6507C9.63283 9.10973 9.13813 7.08413 8.51948 5.18067C7.91325 3.31541 7.14586 1.42927 6.21417 0.270827C5.75322 -0.302312 5.1241 -0.859499 4.30916 -0.977753C3.42056 -1.10669 2.65384 -0.67498 2.05192 -0.00779012L3.53691 1.33192C3.7085 1.14172 3.83553 1.05941 3.90925 1.02547C3.97235 0.996434 4.00283 0.998743 4.02195 1.00152C4.08995 1.01138 4.30985 1.09427 4.65568 1.52426C5.33754 2.37208 6.01471 3.94446 6.61742 5.79887C7.20771 7.61508 7.68633 9.57033 8.01848 11.0803C8.18411 11.8333 8.31238 12.4713 8.3991 12.9202C8.44244 13.1446 8.47536 13.3215 8.49734 13.4417C8.50833 13.5019 8.51658 13.5478 8.52203 13.5783C8.52475 13.5936 8.52678 13.6051 8.52809 13.6125C8.52874 13.6162 8.52922 13.619 8.52952 13.6207C8.52967 13.6216 8.52978 13.6222 8.52984 13.6225C8.52987 13.6227 8.52988 13.6228 8.5299 13.6228C8.5299 13.6228 8.52989 13.6228 9.5151 13.4515ZM11.8987 25.8126L9.84446 22.8151L8.19469 23.9457L10.2489 26.9432L11.8987 25.8126ZM12.3031 22.8151L10.2489 25.8126L11.8987 26.9432L13.9529 23.9457L12.3031 22.8151ZM9.01958 24.3804H13.128V22.3804H9.01958V24.3804Z" fill="#FEC200" mask="url(#path-2-inside-1_11_826)"/>
</svg>
