<svg width="38" height="26" viewBox="0 0 38 26" fill="none" xmlns="http://www.w3.org/2000/svg">
<path d="M5.7 11.1429C7.79594 11.1429 9.5 9.47723 9.5 7.42857C9.5 5.37991 7.79594 3.71429 5.7 3.71429C3.60406 3.71429 1.9 5.37991 1.9 7.42857C1.9 9.47723 3.60406 11.1429 5.7 11.1429ZM32.3 11.1429C34.3959 11.1429 36.1 9.47723 36.1 7.42857C36.1 5.37991 34.3959 3.71429 32.3 3.71429C30.2041 3.71429 28.5 5.37991 28.5 7.42857C28.5 9.47723 30.2041 11.1429 32.3 11.1429ZM34.2 13H30.4C29.355 13 28.4109 13.4121 27.7222 14.0795C30.115 15.3621 31.8131 17.6777 32.1812 20.4286H36.1C37.1509 20.4286 38 19.5987 38 18.5714V16.7143C38 14.6656 36.2959 13 34.2 13ZM19 13C22.6753 13 25.65 10.0924 25.65 6.5C25.65 2.90759 22.6753 0 19 0C15.3247 0 12.35 2.90759 12.35 6.5C12.35 10.0924 15.3247 13 19 13ZM23.56 14.8571H23.0672C21.8322 15.4375 20.4606 15.7857 19 15.7857C17.5394 15.7857 16.1737 15.4375 14.9328 14.8571H14.44C10.6637 14.8571 7.6 17.8518 7.6 21.5429V23.2143C7.6 24.7522 8.87656 26 10.45 26H27.55C29.1234 26 30.4 24.7522 30.4 23.2143V21.5429C30.4 17.8518 27.3362 14.8571 23.56 14.8571ZM10.2778 14.0795C9.58906 13.4121 8.645 13 7.6 13H3.8C1.70406 13 0 14.6656 0 16.7143V18.5714C0 19.5987 0.849062 20.4286 1.9 20.4286H5.81281C6.18688 17.6777 7.885 15.3621 10.2778 14.0795Z" fill="#333333"/>
</svg>
