<svg width="67" height="67" viewBox="0 0 67 67" fill="none" xmlns="http://www.w3.org/2000/svg">
<path d="M65.8899 22.1799L65.5937 20.9949C65.2012 19.8439 64.6823 18.74 64.0466 17.7033C62.6012 15.29 60.5316 13.3113 58.0557 11.9758L40.7745 2.62745C38.4893 1.41135 35.9404 0.77533 33.3518 0.77533C30.7632 0.77533 28.2142 1.41135 25.9291 2.62745L8.64783 11.9758C6.17202 13.3113 4.10236 15.29 2.657 17.7033C2.01335 18.7311 1.50446 19.8374 1.14284 20.9949V21.4558C0.774179 22.7739 0.585937 24.1359 0.583252 25.5045V50.587C0.591949 54.7311 2.24204 58.703 5.17237 61.6333C8.10269 64.5637 12.0746 66.2138 16.2187 66.2225H50.7812C52.8344 66.2225 54.8676 65.818 56.7646 65.0323C58.6616 64.2465 60.3852 63.0948 61.8371 61.6429C63.289 60.1911 64.4407 58.4674 65.2264 56.5705C66.0122 54.6735 66.4166 52.6403 66.4166 50.587V25.4716C66.3576 24.3589 66.1811 23.2555 65.8899 22.1799ZM38.7007 33.207C37.0692 34.1301 35.2264 34.6153 33.3518 34.6153C31.4772 34.6153 29.6344 34.1301 28.0028 33.207L6.50825 20.7645C6.607 20.5122 6.7277 20.2708 6.87034 20.0404C7.86378 18.3877 9.28543 17.0343 10.9849 16.1233L28.2662 6.77495C29.8211 5.92774 31.5646 5.48622 33.3353 5.4912C35.1165 5.48634 36.8706 5.92768 38.4374 6.77495L55.7187 16.1233C57.7521 17.2226 59.3704 18.9565 60.327 21.0608L38.7007 33.207Z" fill="url(#paint0_linear_1420_2652)"/>
<defs>
<linearGradient id="paint0_linear_1420_2652" x1="-22" y1="-18.5001" x2="79.5" y2="96.9999" gradientUnits="userSpaceOnUse">
<stop stop-color="#B8CBB8"/>
<stop stop-color="#B8CBB8"/>
<stop stop-color="#B465DA"/>
<stop offset="0.33" stop-color="#CF6CC9"/>
<stop offset="0.66" stop-color="#EE609C"/>
<stop offset="1" stop-color="#EE609C"/>
</linearGradient>
</defs>
</svg>
