<svg width="20" height="21" viewBox="0 0 20 21" fill="none" xmlns="http://www.w3.org/2000/svg">
    <path d="M4.375 9.875H16.875C17.0408 9.875 17.1997 9.94085 17.3169 10.0581C17.4342 10.1753 17.5 10.3342 17.5 10.5C17.5 10.6658 17.4342 10.8247 17.3169 10.9419C17.1997 11.0592 17.0408 11.125 16.875 11.125H4.375C4.20924 11.125 4.05027 11.0592 3.93306 10.9419C3.81585 10.8247 3.75 10.6658 3.75 10.5C3.75 10.3342 3.81585 10.1753 3.93306 10.0581C4.05027 9.94085 4.20924 9.875 4.375 9.875Z"
          fill="#90A1AB"/>
    <path d="M4.63389 10.4998L9.81764 15.6823C9.935 15.7997 10.0009 15.9588 10.0009 16.1248C10.0009 16.2908 9.935 16.45 9.81764 16.5673C9.70028 16.6847 9.54111 16.7506 9.37514 16.7506C9.20917 16.7506 9.05 16.6847 8.93264 16.5673L3.30764 10.9423C3.24944 10.8843 3.20326 10.8153 3.17175 10.7394C3.14024 10.6634 3.12402 10.582 3.12402 10.4998C3.12402 10.4176 3.14024 10.3362 3.17175 10.2603C3.20326 10.1843 3.24944 10.1154 3.30764 10.0573L8.93264 4.43231C9.05 4.31495 9.20917 4.24902 9.37514 4.24902C9.54111 4.24902 9.70028 4.31495 9.81764 4.43231C9.935 4.54967 10.0009 4.70884 10.0009 4.87481C10.0009 5.04078 9.935 5.19995 9.81764 5.31731L4.63389 10.4998Z"
          fill="#90A1AB"/>
</svg>
