<svg width="28" height="25" viewBox="0 0 28 25" fill="none" xmlns="http://www.w3.org/2000/svg">
<path d="M14.3563 6.14695C15.7217 6.14695 16.9589 6.69108 17.8539 7.57026C18.7489 8.44944 19.3028 9.66477 19.3028 11.006C19.3028 12.3473 18.7489 13.5626 17.8539 14.4406C16.9589 15.3198 15.7216 15.8639 14.3563 15.8639C12.9908 15.8639 11.7536 15.3198 10.8586 14.4406C10.6128 14.1991 10.3941 13.9334 10.2036 13.6457C10.1471 13.6527 10.0907 13.655 10.0366 13.655H9.13097C8.71934 13.655 8.34534 13.4886 8.07485 13.2241C7.83845 12.993 7.67968 12.6846 7.64205 12.3426H7.01048C7.13044 12.9803 7.33624 13.6053 7.62793 14.198C7.98194 14.9189 8.46529 15.5947 9.07334 16.1931C10.5293 17.6245 12.4418 18.3396 14.3539 18.3396C16.2661 18.3396 18.1785 17.6234 19.6345 16.1931C20.1238 15.7102 20.5307 15.1822 20.853 14.6254C21.187 14.0489 21.4351 13.4343 21.5975 12.8024C21.6574 12.5655 21.9032 12.4211 22.1443 12.4801C22.3854 12.539 22.5324 12.7804 22.4724 13.0173C22.2913 13.7231 22.0126 14.4117 21.6363 15.0621C21.5292 15.247 21.414 15.4295 21.2917 15.6074L22.2196 16.5189C22.3831 16.3918 22.5818 16.3283 22.7794 16.3283C23.0099 16.3283 23.2428 16.415 23.418 16.5871L27.7683 20.864C27.9224 21.0326 28 21.2452 28 21.4555C28 21.6807 27.9118 21.9072 27.7366 22.0805L25.5996 24.1785C25.4279 24.331 25.2115 24.4072 24.9963 24.4072C24.7658 24.4072 24.5341 24.3206 24.3577 24.1484L20.0074 19.8716C19.8533 19.7041 19.7757 19.4903 19.7757 19.2789C19.7757 19.0848 19.8416 18.8907 19.9709 18.729L19.043 17.8175C17.6305 18.7567 15.9934 19.2258 14.3564 19.2258C12.2148 19.2258 10.0721 18.4229 8.43724 16.8159C7.75629 16.147 7.21646 15.3891 6.81894 14.5815C6.46611 13.8653 6.22501 13.1097 6.09684 12.3403H4.82548V13.6308C4.82548 13.8757 4.62319 14.0744 4.37386 14.0744H2.03816C1.78883 14.0744 1.58654 13.8757 1.58654 13.6308V12.3403H1.36309C1.00321 12.3403 0.675065 12.2005 0.430439 11.9752L0.399861 11.9475C0.154058 11.7061 0 11.3699 0 11.0013C0 10.634 0.154067 10.3001 0.399861 10.0575C0.648016 9.81371 0.98907 9.66353 1.36307 9.66353H6.09691C6.22511 8.89411 6.46622 8.13858 6.81784 7.4223C7.21653 6.61244 7.75636 5.85458 8.43614 5.18683C10.0709 3.58098 12.2138 2.77807 14.3553 2.77807C16.4969 2.77807 18.6397 3.58098 20.2745 5.18567C20.8896 5.78989 21.3918 6.47036 21.7787 7.19818C22.1786 7.95027 22.4515 8.74741 22.5985 9.55842C22.6408 9.79988 22.4773 10.0298 22.2315 10.0714C21.9857 10.113 21.7517 9.95238 21.7093 9.71091C21.5776 8.9831 21.3353 8.27143 20.9813 7.60714C20.6403 6.96595 20.1922 6.35942 19.6371 5.81415C18.1787 4.38158 16.2677 3.66533 14.3565 3.66533C12.4453 3.66533 10.5343 4.38161 9.07587 5.81299C8.46549 6.41257 7.98329 7.08842 7.62928 7.80701C7.33761 8.40082 7.13181 9.02584 7.01183 9.66238H7.64223C7.67986 9.32043 7.83746 9.01196 8.07268 8.78089L8.10208 8.75432C8.37022 8.50478 8.73248 8.34997 9.12999 8.34997H10.0356C10.0908 8.34997 10.1473 8.35344 10.2049 8.36037C10.3943 8.07386 10.613 7.80929 10.8577 7.56784L10.86 7.56553C11.7562 6.6875 12.9911 6.14338 14.354 6.14338L14.3563 6.14695ZM18.1456 20.7175C17.9233 20.8261 17.6529 20.7383 17.5423 20.5199C17.4317 20.3016 17.5211 20.0359 17.7434 19.9273L17.7646 19.9169C17.9869 19.8083 18.2573 19.8961 18.3679 20.1144C18.4785 20.3328 18.3891 20.5985 18.1668 20.7071L18.1456 20.7175ZM23.6978 5.70687C23.8225 5.91829 23.7495 6.18978 23.5343 6.31109C23.3191 6.43355 23.0427 6.36193 22.9192 6.15051C21.9149 4.44302 20.4636 3.14804 18.796 2.32644C17.0754 1.47961 15.1207 1.13536 13.1872 1.36063C12.9402 1.38951 12.7156 1.21506 12.6862 0.972456C12.6568 0.729848 12.8343 0.50919 13.0813 0.480295C15.1877 0.235377 17.3187 0.610843 19.198 1.53622C21.0198 2.4327 22.604 3.84559 23.6978 5.70687ZM10.5515 1.30076C10.7691 1.18292 11.0443 1.26148 11.1631 1.47521C11.2831 1.68894 11.2031 1.95927 10.9855 2.07594L10.9784 2.07941C10.7609 2.19724 10.4857 2.11868 10.3669 1.90496C10.2469 1.69123 10.3269 1.4209 10.5445 1.30423L10.5515 1.30076ZM5.01442 16.3043C4.88976 16.0928 4.96267 15.8214 5.1779 15.7C5.39312 15.5776 5.6695 15.6492 5.793 15.8606C6.79736 17.5681 8.24865 18.8631 9.91626 19.6847C11.6369 20.5315 13.5915 20.8758 15.525 20.6505C15.772 20.6216 15.9966 20.7961 16.0261 21.0387C16.0555 21.2813 15.8779 21.5019 15.6309 21.5308C13.5245 21.7758 11.3935 21.4003 9.5142 20.4749C7.69244 19.5784 6.10824 18.1655 5.01442 16.3043ZM20.7421 16.3227C20.5951 16.4937 20.4387 16.6601 20.2752 16.8207C20.1117 16.9813 19.9424 17.1338 19.7683 17.2782L20.6045 18.0996L21.5771 17.1441L20.7409 16.3227H20.7421ZM22.7203 11.3216C22.7121 11.5653 22.5039 11.7571 22.2557 11.749C22.0076 11.7409 21.8123 11.5365 21.8206 11.2927L21.8229 11.2268C21.8312 10.9831 22.0393 10.7913 22.2875 10.7994C22.5356 10.8075 22.7309 11.0119 22.7226 11.2557L22.7203 11.3216ZM22.7803 17.2171L20.6786 19.2804L24.9961 23.5215L27.0966 21.457L22.7803 17.2159L22.7803 17.2171ZM3.92166 12.344H2.4892V13.1908H3.92166V12.344ZM7.63335 11.4567V10.5545H1.3613C1.23546 10.5545 1.11902 10.6053 1.03671 10.6862C0.95438 10.767 0.902634 10.8814 0.902634 11.005C0.902634 11.1286 0.954383 11.2418 1.03788 11.3227L1.05317 11.3389C1.1355 11.4105 1.2437 11.4556 1.3613 11.4556H7.63335L7.63335 11.4567ZM9.74442 12.7691C9.52802 12.2227 9.40805 11.6277 9.40805 11.005C9.40805 10.3823 9.52801 9.78736 9.74559 9.24093H9.13049C8.97525 9.24093 8.83412 9.29985 8.72828 9.39458L8.71064 9.41191C8.60244 9.5182 8.5354 9.66376 8.5354 9.82319V12.1846C8.5354 12.344 8.60244 12.4907 8.71064 12.5959C8.81649 12.7021 8.96585 12.7668 9.12932 12.7668H9.74325L9.74442 12.7691ZM14.3545 8.05337C15.1837 8.05337 15.9352 8.38378 16.4785 8.91753L16.5032 8.9441C17.0325 9.47669 17.3582 10.2045 17.3582 11.0051C17.3582 11.8173 17.0219 12.5555 16.4785 13.0904L16.4762 13.0927C15.9316 13.6265 15.1813 13.9557 14.3545 13.9557C13.5254 13.9557 12.7727 13.6253 12.2293 13.0916C11.686 12.5578 11.3496 11.8196 11.3496 11.0051C11.3496 10.1907 11.686 9.45129 12.2293 8.91754C12.7727 8.3838 13.5242 8.05337 14.3545 8.05337ZM15.8399 9.54485C15.46 9.1717 14.9343 8.94063 14.3545 8.94063C13.7747 8.94063 13.249 9.17168 12.8679 9.54485C12.4881 9.918 12.2528 10.4344 12.2528 11.0051C12.2528 11.5747 12.4881 12.0911 12.8679 12.4642C13.2478 12.8374 13.7735 13.0685 14.3545 13.0685C14.9355 13.0685 15.4612 12.8374 15.8399 12.4654C16.221 12.0911 16.455 11.5747 16.455 11.004C16.455 10.4437 16.2292 9.93533 15.8623 9.56448L15.8399 9.54369L15.8399 9.54485ZM17.2124 8.19663C16.4809 7.47804 15.4694 7.03326 14.3533 7.03326C13.2361 7.03326 12.2246 7.47689 11.4943 8.19432C10.7357 8.93947 10.31 9.94343 10.31 11.004C10.31 12.1003 10.7628 13.0939 11.4943 13.8125C12.2258 14.531 13.2373 14.9758 14.3533 14.9758C15.4694 14.9758 16.4809 14.531 17.2124 13.8125C17.9439 13.0939 18.3967 12.1015 18.3967 11.0051C18.3967 9.90877 17.9439 8.91522 17.2124 8.19663Z" fill="url(#paint0_linear_848_9954)"/>
<defs>
<linearGradient id="paint0_linear_848_9954" x1="-2.32555" y1="26.4006" x2="17.9876" y2="2.70205" gradientUnits="userSpaceOnUse">
<stop stop-color="#FECBA1"/>
<stop offset="1" stop-color="#E86A00"/>
</linearGradient>
</defs>
</svg>
