<svg width="21" height="20" viewBox="0 0 21 20" fill="none" xmlns="http://www.w3.org/2000/svg">
    <path d="M6.5 15.2219L1.5 9.99999M1.5 9.99999L6.5 4.77807M1.5 9.99999H13.5M10.5 15.2219C10.5 15.5307 10.5 15.685 10.511 15.8187C10.6252 17.2084 11.6051 18.3519 12.915 18.6238C13.041 18.6499 13.188 18.6671 13.4817 18.7011L14.5031 18.8196C16.0375 18.9977 16.8048 19.0867 17.4143 18.883C18.2271 18.6114 18.8906 17.9911 19.2388 17.1775C19.5 16.5673 19.5 15.7611 19.5 14.1486V5.85137C19.5 4.23891 19.5 3.43269 19.2388 2.82247C18.8906 2.00885 18.2271 1.38861 17.4143 1.117C16.8048 0.913277 16.0375 1.00231 14.5031 1.18037L13.4817 1.2989C13.1879 1.333 13.041 1.35004 12.915 1.3762C11.6051 1.64819 10.6252 2.79168 10.511 4.18131C10.5 4.31502 10.5 4.46937 10.5 4.77807"
          stroke="#DC3545" stroke-width="1.5" stroke-linecap="round" stroke-linejoin="round"/>
</svg>
