<svg width="24" height="24" viewBox="0 0 24 24" fill="none" xmlns="http://www.w3.org/2000/svg">
<path fill-rule="evenodd" clip-rule="evenodd" d="M9 2.221V7H4.221C4.31598 6.8154 4.43912 6.64671 4.586 6.5L8.5 2.586C8.64664 2.43877 8.81533 2.31628 9 2.221ZM11 2V7C11 7.53043 10.7893 8.03914 10.4142 8.41421C10.0391 8.78929 9.53043 9 9 9H4C3.46957 9 2.96086 9.21071 2.58579 9.58579C2.21071 9.96086 2 10.4696 2 11V18C2 18.5304 2.21071 19.0391 2.58579 19.4142C2.96086 19.7893 3.46957 20 4 20C4 20.5304 4.21071 21.0391 4.58579 21.4142C4.96086 21.7893 5.46957 22 6 22H18C18.5304 22 19.0391 21.7893 19.4142 21.4142C19.7893 21.0391 20 20.5304 20 20C20.5304 20 21.0391 19.7893 21.4142 19.4142C21.7893 19.0391 22 18.5304 22 18V11C22 10.4696 21.7893 9.96086 21.4142 9.58579C21.0391 9.21071 20.5304 9 20 9V4C20 3.46957 19.7893 2.96086 19.4142 2.58579C19.0391 2.21071 18.5304 2 18 2H11ZM5 11C4.73478 11 4.48043 11.1054 4.29289 11.2929C4.10536 11.4804 4 11.7348 4 12V17C4 17.2652 4.10536 17.5196 4.29289 17.7071C4.48043 17.8946 4.73478 18 5 18C5.26522 18 5.51957 17.8946 5.70711 17.7071C5.89464 17.5196 6 17.2652 6 17V16H6.5C7.16304 16 7.79893 15.7366 8.26777 15.2678C8.73661 14.7989 9 14.163 9 13.5C9 12.837 8.73661 12.2011 8.26777 11.7322C7.79893 11.2634 7.16304 11 6.5 11H5ZM6.5 14H6V13H6.5C6.63261 13 6.75979 13.0527 6.85355 13.1464C6.94732 13.2402 7 13.3674 7 13.5C7 13.6326 6.94732 13.7598 6.85355 13.8536C6.75979 13.9473 6.63261 14 6.5 14ZM11 11C10.7348 11 10.4804 11.1054 10.2929 11.2929C10.1054 11.4804 10 11.7348 10 12V17C10 17.2652 10.1054 17.5196 10.2929 17.7071C10.4804 17.8946 10.7348 18 11 18H12.376C13.0719 17.9995 13.7392 17.7227 14.2312 17.2305C14.7232 16.7383 14.9997 16.0709 15 15.375V13.625C14.9997 12.9289 14.7231 12.2614 14.2309 11.7691C13.7386 11.2769 13.0711 11.0003 12.375 11H11ZM12 16V13H12.375C12.5409 13.0003 12.6998 13.0663 12.817 13.1837C12.9342 13.3011 13 13.4601 13 13.626V15.374C13.0001 15.4562 12.984 15.5377 12.9526 15.6137C12.9212 15.6897 12.8751 15.7588 12.8169 15.8169C12.7588 15.8751 12.6897 15.9212 12.6137 15.9526C12.5377 15.984 12.4562 16.0001 12.374 16H12ZM17 11C16.7348 11 16.4804 11.1054 16.2929 11.2929C16.1054 11.4804 16 11.7348 16 12V17C16 17.2652 16.1054 17.5196 16.2929 17.7071C16.4804 17.8946 16.7348 18 17 18C17.2652 18 17.5196 17.8946 17.7071 17.7071C17.8946 17.5196 18 17.2652 18 17V16H19C19.2652 16 19.5196 15.8946 19.7071 15.7071C19.8946 15.5196 20 15.2652 20 15C20 14.7348 19.8946 14.4804 19.7071 14.2929C19.5196 14.1054 19.2652 14 19 14H18V13H19C19.2652 13 19.5196 12.8946 19.7071 12.7071C19.8946 12.5196 20 12.2652 20 12C20 11.7348 19.8946 11.4804 19.7071 11.2929C19.5196 11.1054 19.2652 11 19 11H17Z" fill="url(#paint0_linear_1240_3255)"/>
<defs>
<linearGradient id="paint0_linear_1240_3255" x1="12" y1="2" x2="12" y2="22" gradientUnits="userSpaceOnUse">
<stop stop-color="#FB8A90"/>
<stop offset="1" stop-color="#EA5D6E"/>
</linearGradient>
</defs>
</svg>
