<svg width="24" height="24" viewBox="0 0 24 24" fill="none" xmlns="http://www.w3.org/2000/svg">
<path fill-rule="evenodd" clip-rule="evenodd" d="M9 2.221V7H4.221C4.31598 6.8154 4.43912 6.64671 4.586 6.5L8.5 2.586C8.64664 2.43877 8.81533 2.31628 9 2.221ZM11 2V7C11 7.53043 10.7893 8.03914 10.4142 8.41421C10.0391 8.78929 9.53043 9 9 9H4C3.46957 9 2.96086 9.21071 2.58579 9.58579C2.21071 9.96086 2 10.4696 2 11V18C2 18.5304 2.21071 19.0391 2.58579 19.4142C2.96086 19.7893 3.46957 20 4 20C4 20.5304 4.21071 21.0391 4.58579 21.4142C4.96086 21.7893 5.46957 22 6 22H18C18.5304 22 19.0391 21.7893 19.4142 21.4142C19.7893 21.0391 20 20.5304 20 20C20.5304 20 21.0391 19.7893 21.4142 19.4142C21.7893 19.0391 22 18.5304 22 18V11C22 10.4696 21.7893 9.96086 21.4142 9.58579C21.0391 9.21071 20.5304 9 20 9V4C20 3.46957 19.7893 2.96086 19.4142 2.58579C19.0391 2.21071 18.5304 2 18 2H11Z" fill="url(#paint0_linear_1240_3260)"/>
<path d="M4.5 12L8.71875 16.6875M4.5 16.6875L8.71875 12M16.3359 16.1016C16.3359 16.425 16.6903 16.6875 17.127 16.6875H18.4453C18.725 16.6875 18.9933 16.6052 19.1911 16.4587C19.3889 16.3122 19.5 16.1135 19.5 15.9062V15.125C19.5 14.9178 19.3889 14.7191 19.1911 14.5726C18.9933 14.4261 18.725 14.3438 18.4453 14.3438H17.3906C17.1109 14.3438 16.8426 14.2614 16.6448 14.1149C16.4471 13.9684 16.3359 13.7697 16.3359 13.5625V12.7812C16.3359 12.574 16.4471 12.3753 16.6448 12.2288C16.8426 12.0823 17.1109 12 17.3906 12H18.709C18.9188 12 19.12 12.0617 19.2683 12.1716C19.4167 12.2815 19.5 12.4305 19.5 12.5859M10.9453 12V16.6875H14.1094" stroke="white" stroke-width="1.875" stroke-linecap="round" stroke-linejoin="round"/>
<defs>
<linearGradient id="paint0_linear_1240_3260" x1="12" y1="2" x2="12" y2="22" gradientUnits="userSpaceOnUse">
<stop stop-color="#85CB74"/>
<stop offset="1" stop-color="#65AC54"/>
</linearGradient>
</defs>
</svg>
