<svg width="20" height="20" viewBox="0 0 20 20" fill="none" xmlns="http://www.w3.org/2000/svg">
<circle cx="10" cy="10" r="10" fill="#FEC200"/>
<mask id="path-2-inside-1_1_35" fill="white">
<path d="M14.643 9.68827L12.986 11.3453C12.7016 11.6297 12.364 11.8553 11.9924 12.0093C11.6208 12.1632 11.2225 12.2424 10.8203 12.2424C10.4181 12.2424 10.0199 12.1632 9.64829 12.0093C9.27671 11.8553 8.93909 11.6297 8.65471 11.3453C8.5846 11.2869 8.52743 11.2146 8.48684 11.1329C8.44625 11.0512 8.42314 10.962 8.41898 10.8708C8.41482 10.7797 8.4297 10.6887 8.46268 10.6037C8.49566 10.5186 8.54601 10.4414 8.61051 10.3769C8.67501 10.3124 8.75225 10.262 8.8373 10.2291C8.92235 10.1961 9.01334 10.1812 9.10447 10.1854C9.19559 10.1895 9.28485 10.2126 9.36654 10.2532C9.44824 10.2938 9.52057 10.351 9.57893 10.4211C9.90863 10.7474 10.3537 10.9304 10.8176 10.9304C11.2815 10.9304 11.7266 10.7474 12.0563 10.4211L13.7133 8.76405C14.0418 8.43554 14.2264 7.98997 14.2264 7.52538C14.2264 7.06079 14.0418 6.61523 13.7133 6.28671C13.3848 5.95819 12.9392 5.77364 12.4746 5.77364C12.01 5.77364 11.5645 5.95819 11.236 6.28671L10.711 6.81718C10.5877 6.94046 10.4205 7.00972 10.2461 7.00972C10.0718 7.00972 9.90456 6.94046 9.78127 6.81718C9.65799 6.69389 9.58873 6.52669 9.58873 6.35234C9.58873 6.17798 9.65799 6.01078 9.78127 5.88749L10.3117 5.35702C10.8861 4.78266 11.6651 4.45999 12.4774 4.45999C13.2896 4.45999 14.0686 4.78266 14.643 5.35702C15.2174 5.93138 15.54 6.71038 15.54 7.52265C15.54 8.33491 15.2174 9.11391 14.643 9.68827ZM9.28908 13.1828L8.76408 13.7133C8.43557 14.0418 7.99 14.2263 7.52541 14.2263C7.06082 14.2263 6.61526 14.0418 6.28674 13.7133C5.95822 13.3848 5.77367 12.9392 5.77367 12.4746C5.77367 12.01 5.95822 11.5644 6.28674 11.2359L7.94377 9.5789C8.27347 9.25262 8.71859 9.0696 9.18244 9.0696C9.6463 9.0696 10.0914 9.25262 10.4211 9.5789C10.5469 9.68362 10.7073 9.73755 10.8709 9.73008C11.0344 9.72262 11.1892 9.65431 11.305 9.53855C11.4207 9.4228 11.4891 9.26797 11.4965 9.10444C11.504 8.94091 11.4501 8.7805 11.3453 8.65468C11.0613 8.36961 10.7238 8.14343 10.3522 7.98909C9.98056 7.83476 9.58211 7.75531 9.17971 7.75531C8.77731 7.75531 8.37886 7.83476 8.00723 7.98909C7.6356 8.14343 7.2981 8.36961 7.01408 8.65468L5.35705 10.3117C4.78269 10.8861 4.46002 11.6651 4.46002 12.4773C4.46002 13.2896 4.78269 14.0686 5.35705 14.643C5.93141 15.2173 6.71041 15.54 7.52268 15.54C8.33494 15.54 9.11394 15.2173 9.6883 14.643L10.2188 14.1125C10.3421 13.9892 10.4113 13.822 10.4113 13.6476C10.4113 13.4733 10.3421 13.3061 10.2188 13.1828C10.0955 13.0595 9.92828 12.9903 9.75393 12.9903C9.57958 12.9903 9.41237 13.0595 9.28908 13.1828Z"/>
</mask>
<path d="M14.643 9.68827L12.986 11.3453C12.7016 11.6297 12.364 11.8553 11.9924 12.0093C11.6208 12.1632 11.2225 12.2424 10.8203 12.2424C10.4181 12.2424 10.0199 12.1632 9.64829 12.0093C9.27671 11.8553 8.93909 11.6297 8.65471 11.3453C8.5846 11.2869 8.52743 11.2146 8.48684 11.1329C8.44625 11.0512 8.42314 10.962 8.41898 10.8708C8.41482 10.7797 8.4297 10.6887 8.46268 10.6037C8.49566 10.5186 8.54601 10.4414 8.61051 10.3769C8.67501 10.3124 8.75225 10.262 8.8373 10.2291C8.92235 10.1961 9.01334 10.1812 9.10447 10.1854C9.19559 10.1895 9.28485 10.2126 9.36654 10.2532C9.44824 10.2938 9.52057 10.351 9.57893 10.4211C9.90863 10.7474 10.3537 10.9304 10.8176 10.9304C11.2815 10.9304 11.7266 10.7474 12.0563 10.4211L13.7133 8.76405C14.0418 8.43554 14.2264 7.98997 14.2264 7.52538C14.2264 7.06079 14.0418 6.61523 13.7133 6.28671C13.3848 5.95819 12.9392 5.77364 12.4746 5.77364C12.01 5.77364 11.5645 5.95819 11.236 6.28671L10.711 6.81718C10.5877 6.94046 10.4205 7.00972 10.2461 7.00972C10.0718 7.00972 9.90456 6.94046 9.78127 6.81718C9.65799 6.69389 9.58873 6.52669 9.58873 6.35234C9.58873 6.17798 9.65799 6.01078 9.78127 5.88749L10.3117 5.35702C10.8861 4.78266 11.6651 4.45999 12.4774 4.45999C13.2896 4.45999 14.0686 4.78266 14.643 5.35702C15.2174 5.93138 15.54 6.71038 15.54 7.52265C15.54 8.33491 15.2174 9.11391 14.643 9.68827ZM9.28908 13.1828L8.76408 13.7133C8.43557 14.0418 7.99 14.2263 7.52541 14.2263C7.06082 14.2263 6.61526 14.0418 6.28674 13.7133C5.95822 13.3848 5.77367 12.9392 5.77367 12.4746C5.77367 12.01 5.95822 11.5644 6.28674 11.2359L7.94377 9.5789C8.27347 9.25262 8.71859 9.0696 9.18244 9.0696C9.6463 9.0696 10.0914 9.25262 10.4211 9.5789C10.5469 9.68362 10.7073 9.73755 10.8709 9.73008C11.0344 9.72262 11.1892 9.65431 11.305 9.53855C11.4207 9.4228 11.4891 9.26797 11.4965 9.10444C11.504 8.94091 11.4501 8.7805 11.3453 8.65468C11.0613 8.36961 10.7238 8.14343 10.3522 7.98909C9.98056 7.83476 9.58211 7.75531 9.17971 7.75531C8.77731 7.75531 8.37886 7.83476 8.00723 7.98909C7.6356 8.14343 7.2981 8.36961 7.01408 8.65468L5.35705 10.3117C4.78269 10.8861 4.46002 11.6651 4.46002 12.4773C4.46002 13.2896 4.78269 14.0686 5.35705 14.643C5.93141 15.2173 6.71041 15.54 7.52268 15.54C8.33494 15.54 9.11394 15.2173 9.6883 14.643L10.2188 14.1125C10.3421 13.9892 10.4113 13.822 10.4113 13.6476C10.4113 13.4733 10.3421 13.3061 10.2188 13.1828C10.0955 13.0595 9.92828 12.9903 9.75393 12.9903C9.57958 12.9903 9.41237 13.0595 9.28908 13.1828Z" fill="white"/>
<path d="M12.986 11.3453L8.74332 7.10266L8.7431 7.10288L12.986 11.3453ZM8.65471 11.3453L12.8976 7.10288L12.7038 6.90911L12.4932 6.73381L8.65471 11.3453ZM9.57893 10.4211L4.96744 14.2596L5.15265 14.4821L5.35843 14.6858L9.57893 10.4211ZM12.0563 10.4211L16.2768 14.6858L16.2879 14.6748L16.2989 14.6637L12.0563 10.4211ZM13.7133 8.76405L9.47066 4.52141L9.47066 4.52141L13.7133 8.76405ZM12.4746 5.77364V11.7736V5.77364ZM11.236 6.28671L6.99332 2.04407L6.98233 2.05506L6.97139 2.06611L11.236 6.28671ZM10.711 6.81718L14.9536 11.0598L14.9646 11.0488L14.9755 11.0378L10.711 6.81718ZM9.78127 5.88749L14.0239 10.1301L14.0239 10.1301L9.78127 5.88749ZM10.3117 5.35702L6.0691 1.11438L6.0691 1.11438L10.3117 5.35702ZM12.4774 4.45999V-1.54001V4.45999ZM8.76408 13.7133L13.0067 17.9559L13.0177 17.9449L13.0287 17.9339L8.76408 13.7133ZM5.77367 12.4746H11.7737H5.77367ZM7.94377 9.5789L3.72328 5.31423L3.71217 5.32521L3.70113 5.33626L7.94377 9.5789ZM9.18244 9.0696V3.0696V9.0696ZM10.4211 9.5789L6.20062 13.8436L6.38415 14.0252L6.58261 14.1904L10.4211 9.5789ZM11.3453 8.65468L15.9568 4.81617L15.7852 4.60994L15.5958 4.41986L11.3453 8.65468ZM9.17971 7.75531V13.7553V7.75531ZM7.01408 8.65468L11.2567 12.8973L11.2645 12.8895L7.01408 8.65468ZM5.35705 10.3117L1.11441 6.06907L1.11441 6.06907L5.35705 10.3117ZM4.46002 12.4773H-1.53998H4.46002ZM10.4113 13.6476H4.41132H10.4113ZM9.75393 12.9903V18.9903V12.9903ZM10.4003 5.44563L8.74332 7.10266L17.2286 15.5879L18.8856 13.9309L10.4003 5.44563ZM8.7431 7.10288C9.01588 6.83008 9.33972 6.61367 9.69613 6.46603L14.2886 17.5525C15.3882 17.097 16.3873 16.4294 17.2288 15.5877L8.7431 7.10288ZM9.69613 6.46603C10.0525 6.31839 10.4346 6.2424 10.8203 6.2424V18.2424C12.0105 18.2424 13.189 18.008 14.2886 17.5525L9.69613 6.46603ZM10.8203 6.2424C11.2061 6.2424 11.5881 6.31839 11.9445 6.46603L7.35205 17.5525C8.45163 18.008 9.63015 18.2424 10.8203 18.2424V6.2424ZM11.9445 6.46603C12.301 6.61368 12.6248 6.83008 12.8976 7.10288L4.41185 15.5877C5.25339 16.4294 6.25248 17.097 7.35205 17.5525L11.9445 6.46603ZM12.4932 6.73381C13.0641 7.20902 13.5297 7.79802 13.8602 8.46323L3.1135 13.8026C3.52518 14.6312 4.10508 15.3649 4.8162 15.9568L12.4932 6.73381ZM13.8602 8.46323C14.1907 9.12844 14.3789 9.85525 14.4127 10.5973L2.42522 11.1444C2.46741 12.0687 2.70182 12.974 3.1135 13.8026L13.8602 8.46323ZM14.4127 10.5973C14.4466 11.3393 14.3254 12.0802 14.0569 12.7728L2.86849 8.43458C2.534 9.29724 2.38303 10.2202 2.42522 11.1444L14.4127 10.5973ZM14.0569 12.7728C13.7883 13.4653 13.3784 14.0943 12.8531 14.6195L4.36787 6.13424C3.71362 6.78848 3.20297 7.57193 2.86849 8.43458L14.0569 12.7728ZM12.8531 14.6195C12.3279 15.1448 11.6989 15.5547 11.0064 15.8233L6.66821 4.63486C5.80556 4.96935 5.02211 5.48 4.36787 6.13424L12.8531 14.6195ZM11.0064 15.8233C10.3139 16.0918 9.57293 16.213 8.83089 16.1791L9.37804 4.19159C8.45376 4.14941 7.53085 4.30038 6.66821 4.63486L11.0064 15.8233ZM8.83089 16.1791C8.08887 16.1452 7.36206 15.9571 6.69685 15.6266L12.0362 4.87988C11.2076 4.4682 10.3023 4.23378 9.37804 4.19159L8.83089 16.1791ZM6.69685 15.6266C6.03165 15.2961 5.44264 14.8305 4.96744 14.2596L14.1904 6.58258C13.5985 5.87145 12.8648 5.29155 12.0362 4.87988L6.69685 15.6266ZM5.35843 14.6858C6.8115 16.1238 8.77327 16.9304 10.8176 16.9304V4.93039C11.9342 4.93039 13.0058 5.37097 13.7994 6.15642L5.35843 14.6858ZM10.8176 16.9304C12.8619 16.9304 14.8237 16.1238 16.2768 14.6858L7.83578 6.15642C8.62945 5.37096 9.70098 4.93039 10.8176 4.93039V16.9304ZM16.2989 14.6637L17.9559 13.0067L9.47066 4.52141L7.81363 6.17844L16.2989 14.6637ZM17.9559 13.0067C19.4097 11.553 20.2264 9.58128 20.2264 7.52538H8.22638C8.22638 6.39867 8.67396 5.31811 9.47066 4.52141L17.9559 13.0067ZM20.2264 7.52538C20.2264 5.46949 19.4097 3.4978 17.9559 2.04407L9.47066 10.5294C8.67396 9.73265 8.22638 8.65209 8.22638 7.52538H20.2264ZM17.9559 2.04407C16.5022 0.590335 14.5305 -0.226365 12.4746 -0.226365V11.7736C11.3479 11.7736 10.2674 11.3261 9.47066 10.5294L17.9559 2.04407ZM12.4746 -0.226365C10.4187 -0.226365 8.44705 0.590335 6.99332 2.04407L15.4786 10.5294C14.6819 11.3261 13.6013 11.7736 12.4746 11.7736V-0.226365ZM6.97139 2.06611L6.44639 2.59658L14.9755 11.0378L15.5005 10.5073L6.97139 2.06611ZM6.46832 2.57454C7.47025 1.5726 8.82917 1.00972 10.2461 1.00972V13.0097C12.0118 13.0097 13.7051 12.3083 14.9536 11.0598L6.46832 2.57454ZM10.2461 1.00972C11.6631 1.00972 13.022 1.5726 14.0239 2.57454L5.53863 11.0598C6.78714 12.3083 8.48047 13.0097 10.2461 13.0097V1.00972ZM14.0239 2.57454C15.0259 3.57648 15.5887 4.93539 15.5887 6.35234H3.58873C3.58873 8.11798 4.29013 9.81131 5.53863 11.0598L14.0239 2.57454ZM15.5887 6.35234C15.5887 7.76928 15.0258 9.1282 14.0239 10.1301L5.53863 1.64485C4.29013 2.89336 3.58873 4.58669 3.58873 6.35234H15.5887ZM14.0239 10.1301L14.5544 9.59966L6.0691 1.11438L5.53863 1.64485L14.0239 10.1301ZM14.5544 9.59966C14.0035 10.1505 13.2564 10.46 12.4774 10.46V-1.54001C10.0738 -1.54001 7.76868 -0.585197 6.0691 1.11438L14.5544 9.59966ZM12.4774 10.46C11.6983 10.46 10.9512 10.1505 10.4003 9.59966L18.8856 1.11438C17.1861 -0.585196 14.8809 -1.54001 12.4774 -1.54001V10.46ZM10.4003 9.59966C9.84949 9.04881 9.54002 8.30168 9.54002 7.52265H21.54C21.54 5.11908 20.5852 2.81396 18.8856 1.11438L10.4003 9.59966ZM9.54002 7.52265C9.54002 6.74361 9.84949 5.99649 10.4003 5.44563L18.8856 13.9309C20.5852 12.2313 21.54 9.92621 21.54 7.52265H9.54002ZM5.02452 8.9622L4.49952 9.49267L13.0287 17.9339L13.5536 17.4034L5.02452 8.9622ZM4.52144 9.47063C5.31814 8.67393 6.3987 8.22635 7.52541 8.22635V20.2263C9.58131 20.2263 11.553 19.4096 13.0067 17.9559L4.52144 9.47063ZM7.52541 8.22635C8.65212 8.22635 9.73268 8.67393 10.5294 9.47063L2.0441 17.9559C3.49783 19.4096 5.46952 20.2263 7.52541 20.2263V8.22635ZM10.5294 9.47063C11.3261 10.2673 11.7737 11.3479 11.7737 12.4746H-0.226334C-0.226334 14.5305 0.590366 16.5022 2.0441 17.9559L10.5294 9.47063ZM11.7737 12.4746C11.7737 13.6013 11.3261 14.6819 10.5294 15.4786L2.0441 6.99329C0.590366 8.44702 -0.226334 10.4187 -0.226334 12.4746H11.7737ZM10.5294 15.4786L12.1864 13.8215L3.70113 5.33626L2.0441 6.99329L10.5294 15.4786ZM12.1643 13.8436C11.3706 14.629 10.2991 15.0696 9.18244 15.0696V3.0696C7.13811 3.0696 5.17634 3.87621 3.72328 5.31423L12.1643 13.8436ZM9.18244 15.0696C8.06582 15.0696 6.99429 14.629 6.20062 13.8436L14.6416 5.31423C13.1885 3.87621 11.2268 3.0696 9.18244 3.0696V15.0696ZM6.58261 14.1904C7.85875 15.2526 9.48581 15.7995 11.1444 15.7238L10.5973 3.73632C11.9289 3.67555 13.2351 4.11463 14.2596 4.96741L6.58261 14.1904ZM11.1444 15.7238C12.8031 15.6481 14.3736 14.9553 15.5476 13.7812L7.06235 5.29591C8.00492 4.35335 9.26572 3.7971 10.5973 3.73632L11.1444 15.7238ZM15.5476 13.7812C16.7217 12.6071 17.4146 11.0366 17.4903 9.37801L5.50276 8.83086C5.56354 7.49929 6.11978 6.23848 7.06235 5.29591L15.5476 13.7812ZM17.4903 9.37801C17.566 7.71938 17.0191 6.09232 15.9568 4.81617L6.73384 12.4932C5.88106 11.4687 5.44198 10.1624 5.50276 8.83086L17.4903 9.37801ZM15.5958 4.41986C14.7543 3.5753 13.7544 2.90518 12.6534 2.44793L8.05098 13.5303C7.69322 13.3817 7.36831 13.1639 7.09489 12.8895L15.5958 4.41986ZM12.6534 2.44793C11.5524 1.99068 10.3719 1.75531 9.17971 1.75531V13.7553C8.79233 13.7553 8.40875 13.6788 8.05098 13.5303L12.6534 2.44793ZM9.17971 1.75531C7.98752 1.75531 6.80706 1.99068 5.70603 2.44793L10.3084 13.5303C9.95067 13.6788 9.56709 13.7553 9.17971 13.7553V1.75531ZM5.70603 2.44793C4.605 2.90518 3.60509 3.5753 2.76364 4.41986L11.2645 12.8895C10.9911 13.1639 10.6662 13.3817 10.3084 13.5303L5.70603 2.44793ZM2.77144 4.41204L1.11441 6.06907L9.59969 14.5544L11.2567 12.8973L2.77144 4.41204ZM1.11441 6.06907C-0.585166 7.76865 -1.53998 10.0738 -1.53998 12.4773H10.46C10.46 13.2564 10.1506 14.0035 9.59969 14.5544L1.11441 6.06907ZM-1.53998 12.4773C-1.53998 14.8809 -0.585165 17.186 1.11441 18.8856L9.59969 10.4003C10.1506 10.9512 10.46 11.6983 10.46 12.4773H-1.53998ZM1.11441 18.8856C2.81399 20.5852 5.11911 21.54 7.52268 21.54V9.53999C8.30171 9.53999 9.04884 9.84946 9.59969 10.4003L1.11441 18.8856ZM7.52268 21.54C9.92624 21.54 12.2314 20.5852 13.9309 18.8856L5.44566 10.4003C5.99652 9.84946 6.74365 9.53999 7.52268 9.53999V21.54ZM13.9309 18.8856L14.4614 18.3551L5.97613 9.86985L5.44566 10.4003L13.9309 18.8856ZM14.4614 18.3551C15.7099 17.1066 16.4113 15.4133 16.4113 13.6476H4.41132C4.41132 12.2307 4.9742 10.8718 5.97613 9.86985L14.4614 18.3551ZM16.4113 13.6476C16.4113 11.882 15.7099 10.1887 14.4614 8.94016L5.97613 17.4254C4.9742 16.4235 4.41132 15.0646 4.41132 13.6476H16.4113ZM14.4614 8.94016C13.2129 7.69166 11.5196 6.99026 9.75393 6.99026V18.9903C8.33698 18.9903 6.97807 18.4274 5.97613 17.4254L14.4614 8.94016ZM9.75393 6.99026C7.98828 6.99026 6.29495 7.69166 5.04644 8.94016L13.5317 17.4254C12.5298 18.4274 11.1709 18.9903 9.75393 18.9903V6.99026Z" fill="white" mask="url(#path-2-inside-1_1_35)"/>
</svg>
