<svg width="40" height="40" viewBox="0 0 40 40" fill="none" xmlns="http://www.w3.org/2000/svg">
<circle cx="20" cy="20" r="20" fill="#F1D3FF"/>
<path d="M15.7606 22.5397L22.5506 15.7597C22.7807 15.5682 23.074 15.4696 23.373 15.4832C23.6721 15.4969 23.9552 15.6218 24.1669 15.8335C24.3785 16.0451 24.5034 16.3283 24.5171 16.6273C24.5307 16.9263 24.4321 17.2196 24.2406 17.4497L17.4506 24.2397C17.2259 24.4626 16.9222 24.5877 16.6056 24.5877C16.2891 24.5877 15.9854 24.4626 15.7606 24.2397C15.6488 24.1282 15.56 23.9957 15.4994 23.8499C15.4389 23.704 15.4077 23.5476 15.4077 23.3897C15.4077 23.2318 15.4389 23.0754 15.4994 22.9295C15.56 22.7837 15.6488 22.6512 15.7606 22.5397ZM20.8506 24.2397L18.0206 27.0697C17.3408 27.721 16.433 28.08 15.4916 28.07C14.5502 28.0599 13.6503 27.6814 12.9846 27.0157C12.3189 26.3501 11.9405 25.4501 11.9304 24.5087C11.9203 23.5674 12.2794 22.6595 12.9306 21.9797L15.7606 19.1497C15.8725 19.0382 15.9613 18.9057 16.0218 18.7599C16.0824 18.614 16.1136 18.4576 16.1136 18.2997C16.1136 18.1418 16.0824 17.9854 16.0218 17.8395C15.9613 17.6937 15.8725 17.5612 15.7606 17.4497C15.5329 17.2286 15.228 17.1049 14.9106 17.1049C14.5932 17.1049 14.2883 17.2286 14.0606 17.4497L11.2306 20.2797C10.1048 21.4055 9.47229 22.9325 9.47229 24.5247C9.47229 26.1169 10.1048 27.6439 11.2306 28.7697C12.3565 29.8955 13.8834 30.528 15.4756 30.528C17.0678 30.528 18.5948 29.8955 19.7206 28.7697L22.5406 25.9397C22.6525 25.8282 22.7413 25.6957 22.8018 25.5499C22.8624 25.404 22.8936 25.2476 22.8936 25.0897C22.8936 24.9318 22.8624 24.7754 22.8018 24.6295C22.7413 24.4837 22.6525 24.3512 22.5406 24.2397C22.43 24.1281 22.2984 24.0396 22.1533 23.9791C22.0083 23.9187 21.8527 23.8876 21.6956 23.8876C21.5385 23.8876 21.3829 23.9187 21.2379 23.9791C21.0929 24.0396 20.9613 24.1281 20.8506 24.2397ZM28.7706 11.2297C27.6439 10.1055 26.1173 9.47412 24.5256 9.47412C22.934 9.47412 21.4073 10.1055 20.2806 11.2297L17.4506 14.0597C17.2295 14.2874 17.1058 14.5923 17.1058 14.9097C17.1058 15.2271 17.2295 15.532 17.4506 15.7597C17.5621 15.8716 17.6946 15.9603 17.8404 16.0209C17.9863 16.0815 18.1427 16.1126 18.3006 16.1126C18.4586 16.1126 18.6149 16.0815 18.7608 16.0209C18.9067 15.9603 19.0391 15.8716 19.1506 15.7597L21.9806 12.9297C22.3122 12.5836 22.7095 12.3073 23.1492 12.1168C23.589 11.9263 24.0624 11.8255 24.5416 11.8204C25.0208 11.8152 25.4962 11.9058 25.94 12.0869C26.3837 12.2679 26.7869 12.5357 27.1258 12.8746C27.4646 13.2135 27.7324 13.6166 27.9135 14.0603C28.0945 14.5041 28.1851 14.9795 28.18 15.4587C28.1748 15.938 28.0741 16.4113 27.8836 16.8511C27.6931 17.2909 27.4167 17.6882 27.0706 18.0197L24.2406 20.8497C24.077 21.0193 23.9664 21.2331 23.9225 21.4646C23.8786 21.6962 23.9034 21.9356 23.9936 22.1533C24.0839 22.3711 24.2358 22.5577 24.4307 22.6903C24.6256 22.8229 24.855 22.8957 25.0906 22.8997C25.2493 22.9005 25.4065 22.869 25.5526 22.8071C25.6988 22.7452 25.8308 22.6542 25.9406 22.5397L28.7706 19.7197C29.3285 19.1625 29.771 18.5007 30.073 17.7723C30.3749 17.044 30.5303 16.2632 30.5303 15.4747C30.5303 14.6862 30.3749 13.9054 30.073 13.1771C29.771 12.4487 29.3285 11.7869 28.7706 11.2297Z" fill="#D148E8"/>
</svg>
