<svg width="17" height="16" viewBox="0 0 17 16" fill="none" xmlns="http://www.w3.org/2000/svg">
<path d="M0.5 4.66667V2.16667C0.5 1.70833 0.663055 1.31583 0.989167 0.989167C1.31583 0.663055 1.70833 0.5 2.16667 0.5H14.6667C15.125 0.5 15.5175 0.663055 15.8442 0.989167C16.1703 1.31583 16.3333 1.70833 16.3333 2.16667V4.66667H0.5ZM4.66667 6.33333V15.5H2.16667C1.70833 15.5 1.31583 15.3369 0.989167 15.0108C0.663055 14.6842 0.5 14.2917 0.5 13.8333V6.33333H4.66667ZM12.1667 6.33333H16.3333V13.8333C16.3333 14.2917 16.1703 14.6842 15.8442 15.0108C15.5175 15.3369 15.125 15.5 14.6667 15.5H12.1667V6.33333ZM10.5 6.33333V15.5H6.33333V6.33333H10.5Z" fill="#FFB13D"/>
</svg>
