<svg width="40" height="40" viewBox="0 0 40 40" fill="none" xmlns="http://www.w3.org/2000/svg">
<circle cx="20" cy="20" r="20" fill="#BFFFB5"/>
<path d="M18.3531 25.4118L26.6472 17.1177L25.0002 15.4706L18.3531 22.1177L15.0002 18.7647L13.3531 20.4118L18.3531 25.4118ZM20.0002 31.7647C18.3727 31.7647 16.8433 31.4557 15.4119 30.8377C13.9806 30.2204 12.7355 29.3824 11.6767 28.3236C10.6178 27.2647 9.77979 26.0196 9.16253 24.5883C8.54449 23.1569 8.23547 21.6275 8.23547 20C8.23547 18.3726 8.54449 16.8432 9.16253 15.4118C9.77979 13.9804 10.6178 12.7353 11.6767 11.6765C12.7355 10.6177 13.9806 9.77924 15.4119 9.1612C16.8433 8.54395 18.3727 8.23532 20.0002 8.23532C21.6276 8.23532 23.157 8.54395 24.5884 9.1612C26.0198 9.77924 27.2649 10.6177 28.3237 11.6765C29.3825 12.7353 30.2206 13.9804 30.8378 15.4118C31.4559 16.8432 31.7649 18.3726 31.7649 20C31.7649 21.6275 31.4559 23.1569 30.8378 24.5883C30.2206 26.0196 29.3825 27.2647 28.3237 28.3236C27.2649 29.3824 26.0198 30.2204 24.5884 30.8377C23.157 31.4557 21.6276 31.7647 20.0002 31.7647Z" fill="#1BB003"/>
</svg>
