<svg width="23" height="23" viewBox="0 0 23 23" fill="none" xmlns="http://www.w3.org/2000/svg">
<path d="M16.9871 18.2671C16.5605 16.9871 15.3871 16.1338 14.0005 16.1338C12.1871 16.1338 10.8005 17.5205 10.8005 19.3338C10.8005 21.1471 12.1871 22.5338 14.0005 22.5338C15.3871 22.5338 16.5605 21.6805 16.9871 20.4005H18.2671V22.5338H20.4005V20.4005H22.5338V18.2671H16.9871ZM14.0005 20.7205C13.2538 20.7205 12.6138 20.0805 12.6138 19.3338C12.6138 18.5871 13.2538 17.9471 14.0005 17.9471C14.7471 17.9471 15.3871 18.5871 15.3871 19.3338C15.3871 20.0805 14.7471 20.7205 14.0005 20.7205ZM14.0005 14.0005C15.1738 14.0005 16.3471 14.4271 17.2005 15.0671V3.33379C17.2005 2.69379 17.6271 2.26712 18.2671 2.26712C18.9071 2.26712 19.3338 2.69379 19.3338 3.33379V4.40046H21.4671V3.33379C21.4671 1.52046 20.0805 0.133789 18.2671 0.133789H6.53379C4.72046 0.133789 3.33379 1.52046 3.33379 3.33379V15.0671H10.8005C11.6538 14.4271 12.8271 14.0005 14.0005 14.0005ZM6.53379 4.40046H14.0005V6.53379H6.53379V4.40046ZM6.53379 8.66712H12.9338V10.8005H6.53379V8.66712ZM9.09379 21.4671H3.33379C1.52046 21.4671 0.133789 20.0805 0.133789 18.2671V17.2005H9.09379C8.77379 17.8405 8.66712 18.5871 8.66712 19.3338C8.66712 20.0805 8.77379 20.8271 9.09379 21.4671Z" fill="#1C9808"/>
</svg>
