<svg width="27" height="27" viewBox="0 0 27 27" fill="none" xmlns="http://www.w3.org/2000/svg">
<circle cx="13.3333" cy="13.3334" r="13.3333" fill="#D7ECFF"/>
<path d="M16.392 9.608C15.456 8.672 14.232 8.2 13 8.2V13L9.608 16.392C11.48 18.264 14.52 18.264 16.4 16.392C18.272 14.52 18.272 11.48 16.392 9.608ZM13 5C8.584 5 5 8.584 5 13C5 17.416 8.584 21 13 21C17.416 21 21 17.416 21 13C21 8.584 17.416 5 13 5ZM13 19.4C9.464 19.4 6.6 16.536 6.6 13C6.6 9.464 9.464 6.6 13 6.6C16.536 6.6 19.4 9.464 19.4 13C19.4 16.536 16.536 19.4 13 19.4Z" fill="#00407A"/>
</svg>
