<svg width="40" height="40" viewBox="0 0 40 40" fill="none" xmlns="http://www.w3.org/2000/svg">
<circle cx="20" cy="20" r="20" fill="#BFFFB5"/>
<g clip-path="url(#clip0_1_3)">
<path fill-rule="evenodd" clip-rule="evenodd" d="M22.8009 25.5996C27.4401 25.5996 31.2009 21.8388 31.2009 17.1997C31.2009 12.5605 27.4401 8.79971 22.8009 8.79971C18.1618 8.79971 14.401 12.5605 14.401 17.1997C14.401 21.8388 18.1618 25.5996 22.8009 25.5996ZM26.5449 13.6632L25.4723 14.9145L26.195 15.5225L25.2937 16.5939L24.5611 15.9775L23.6118 17.0851C23.981 17.5594 24.2009 18.1557 24.2009 18.8034C24.2009 20.3498 22.9473 21.6034 21.4009 21.6034C19.8545 21.6034 18.6009 20.3498 18.6009 18.8034C18.6009 17.257 19.8545 16.0034 21.4009 16.0034C21.792 16.0034 22.1642 16.0835 22.5023 16.2283L26.4694 11.6L26.6239 11.7324L28.7413 13.476L27.7619 14.6654L26.5449 13.6632ZM21.4009 20.2034C22.1741 20.2034 22.8009 19.5766 22.8009 18.8034C22.8009 18.0302 22.1741 17.4034 21.4009 17.4034C20.6277 17.4034 20.0009 18.0302 20.0009 18.8034C20.0009 19.5766 20.6277 20.2034 21.4009 20.2034Z" fill="#1BB003"/>
<path d="M13.4811 23.7042L10.2228 26.9796C9.43736 27.7692 9.45253 29.0339 10.2567 29.8044C11.0609 30.5749 12.3496 30.5595 13.1351 29.7699L16.3934 26.4945C17.1789 25.7049 17.1637 24.4402 16.3595 23.6697C15.5553 22.8991 14.2666 22.9146 13.4811 23.7042Z" fill="#1BB003"/>
<path d="M17.5368 21.759L13.3397 25.9293L14.1608 26.7253L18.3579 22.555L17.5368 21.759Z" fill="#1BB003"/>
</g>
<defs>
<clipPath id="clip0_1_3">
<rect width="22.4" height="22.4" fill="white" transform="translate(8.8006 8.7999)"/>
</clipPath>
</defs>
</svg>
