<svg width="58" height="60" viewBox="0 0 58 60" fill="none" xmlns="http://www.w3.org/2000/svg">
<ellipse cx="29" cy="29.5801" rx="20" ry="20.4" fill="#FEC200"/>
<ellipse cx="29" cy="29.58" rx="29" ry="29.58" fill="#FEC200" fill-opacity="0.1"/>
<path d="M23 17.9801C19.6667 17.9801 17 20.6467 17 23.9801C17 27.3134 19.6667 29.9801 23 29.9801C25.6667 29.9801 27.8 28.3801 28.6 25.9801H33V29.9801H37V25.9801H41V21.9801H28.6C27.8 19.5801 25.6667 17.9801 23 17.9801ZM23 21.9801C24.0667 21.9801 25 22.9134 25 23.9801C25 25.0467 24.0667 25.9801 23 25.9801C21.9333 25.9801 21 25.0467 21 23.9801C21 22.9134 21.9333 21.9801 23 21.9801ZM29 32.6467L27.5333 36.1134L23.6667 36.5134L26.6 39.0467L25.6667 42.7801L29 40.7801L32.2 42.7801L31.4 39.0467L34.3333 36.5134L30.4667 36.2467L29 32.6467Z" fill="white"/>
</svg>
