<svg width="20" height="20" viewBox="0 0 20 20" fill="none" xmlns="http://www.w3.org/2000/svg">
<circle cx="10" cy="10" r="10" fill="#FEC200"/>
<path d="M7.08301 13.5C6.11079 13.5 5.2844 13.1597 4.60384 12.4792C3.92329 11.7986 3.58301 10.9722 3.58301 10C3.58301 9.02778 3.92329 8.20139 4.60384 7.52083C5.2844 6.84028 6.11079 6.5 7.08301 6.5C7.87051 6.5 8.55845 6.72108 9.14684 7.16325C9.73484 7.60581 10.1455 8.1625 10.3788 8.83333H16.4163V11.1667H15.2497V13.5H12.9163V11.1667H10.3788C10.1455 11.8375 9.73484 12.3942 9.14684 12.8368C8.55845 13.2789 7.87051 13.5 7.08301 13.5ZM7.08301 11.1667C7.40384 11.1667 7.6784 11.0523 7.90667 10.8237C8.13534 10.5954 8.24967 10.3208 8.24967 10C8.24967 9.67917 8.13534 9.40442 7.90667 9.17575C7.6784 8.94747 7.40384 8.83333 7.08301 8.83333C6.76217 8.83333 6.48762 8.94747 6.25934 9.17575C6.03067 9.40442 5.91634 9.67917 5.91634 10C5.91634 10.3208 6.03067 10.5954 6.25934 10.8237C6.48762 11.0523 6.76217 11.1667 7.08301 11.1667Z" fill="white"/>
</svg>
