<svg width="23" height="18" viewBox="0 0 23 18" fill="none" xmlns="http://www.w3.org/2000/svg">
<path d="M6.34001 7.80001C6.82001 5.40001 8.98001 3.60001 11.5 3.60001C13.3 3.60001 14.74 4.44001 15.7 5.76001L17.74 3.36001C16.3 1.68001 14.02 0.600006 11.5 0.600006C7.30001 0.600006 3.82001 3.72001 3.22001 7.80001H0.700012L4.90001 12.6L9.10001 7.80001H6.34001ZM18.1 5.40001L13.9 10.2H16.66C16.06 12.6 14.02 14.4 11.5 14.4C9.70001 14.4 8.26001 13.56 7.30001 12.24L5.26001 14.52C6.70001 16.32 8.98001 17.4 11.5 17.4C15.7 17.4 19.18 14.28 19.78 10.2H22.3L18.1 5.40001Z" fill="white"/>
</svg>
