<svg width="25" height="24" viewBox="0 0 25 24" fill="none" xmlns="http://www.w3.org/2000/svg">
<path d="M7.34001 10.8C7.82001 8.40001 9.98001 6.60001 12.5 6.60001C14.3 6.60001 15.74 7.44001 16.7 8.76001L18.74 6.36001C17.3 4.68001 15.02 3.60001 12.5 3.60001C8.30001 3.60001 4.82001 6.72001 4.22001 10.8H1.70001L5.90001 15.6L10.1 10.8H7.34001ZM19.1 8.40001L14.9 13.2H17.66C17.06 15.6 15.02 17.4 12.5 17.4C10.7 17.4 9.26001 16.56 8.30001 15.24L6.26001 17.52C7.70001 19.32 9.98001 20.4 12.5 20.4C16.7 20.4 20.18 17.28 20.78 13.2H23.3L19.1 8.40001Z" fill="#0075E0"/>
</svg>
