<svg width="20" height="20" viewBox="0 0 20 20" fill="none" xmlns="http://www.w3.org/2000/svg">
<circle cx="10" cy="10" r="10" fill="#D7ECFF"/>
<path d="M8.51602 10.0003C8.11602 10.0003 7.78268 9.85033 7.51602 9.55033C7.24935 9.25033 7.14379 8.90033 7.19935 8.50033L7.41602 6.86699C7.5049 6.23366 7.79379 5.70877 8.28268 5.29233C8.77157 4.87544 9.34379 4.66699 9.99935 4.66699C10.6549 4.66699 11.2271 4.87544 11.716 5.29233C12.2049 5.70877 12.4938 6.23366 12.5827 6.86699L12.7993 8.50033C12.8549 8.90033 12.7493 9.25033 12.4827 9.55033C12.216 9.85033 11.8827 10.0003 11.4827 10.0003H8.51602ZM4.66602 15.3337V13.467C4.66602 13.0892 4.76335 12.7419 4.95802 12.425C5.15224 12.1085 5.41046 11.867 5.73268 11.7003C6.42157 11.3559 7.12157 11.0974 7.83268 10.925C8.54379 10.753 9.26602 10.667 9.99935 10.667C10.7327 10.667 11.4549 10.753 12.166 10.925C12.8771 11.0974 13.5771 11.3559 14.266 11.7003C14.5882 11.867 14.8465 12.1085 15.0407 12.425C15.2353 12.7419 15.3327 13.0892 15.3327 13.467V15.3337H4.66602Z" fill="#00407A"/>
</svg>
