<svg width="50" height="50" viewBox="0 0 50 50" fill="none" xmlns="http://www.w3.org/2000/svg">
<circle cx="25" cy="25" r="25" fill="#FEC200" fill-opacity="0.1"/>
<path d="M28.7334 15.1507L37.668 30.032C38.952 32.1693 38.3214 34.9813 36.2587 36.312C35.5664 36.7603 34.7594 36.9992 33.9347 37H16.064C13.636 37 11.6667 34.96 11.6667 32.4413C11.6667 31.5893 11.8974 30.756 12.3307 30.032L21.2667 15.1507C22.5494 13.0133 25.2614 12.3587 27.324 13.6893C27.8947 14.0573 28.3774 14.5573 28.7334 15.1507ZM25 31.6667C25.3536 31.6667 25.6928 31.5262 25.9428 31.2761C26.1929 31.0261 26.3334 30.687 26.3334 30.3333C26.3334 29.9797 26.1929 29.6406 25.9428 29.3905C25.6928 29.1405 25.3536 29 25 29C24.6464 29 24.3073 29.1405 24.0572 29.3905C23.8072 29.6406 23.6667 29.9797 23.6667 30.3333C23.6667 30.687 23.8072 31.0261 24.0572 31.2761C24.3073 31.5262 24.6464 31.6667 25 31.6667ZM25 19.6667C24.6464 19.6667 24.3073 19.8071 24.0572 20.0572C23.8072 20.3072 23.6667 20.6464 23.6667 21V26.3333C23.6667 26.687 23.8072 27.0261 24.0572 27.2761C24.3073 27.5262 24.6464 27.6667 25 27.6667C25.3536 27.6667 25.6928 27.5262 25.9428 27.2761C26.1929 27.0261 26.3334 26.687 26.3334 26.3333V21C26.3334 20.6464 26.1929 20.3072 25.9428 20.0572C25.6928 19.8071 25.3536 19.6667 25 19.6667Z" fill="#E4A951"/>
</svg>
