<svg width="18" height="14" viewBox="0 0 18 14" fill="none" xmlns="http://www.w3.org/2000/svg">
<path d="M7.33366 8.4585L6.41699 6.62516C6.34755 6.47239 6.24338 6.35766 6.10449 6.281C5.9656 6.20489 5.81977 6.16683 5.66699 6.16683H0.666992V2.00016C0.666992 1.54183 0.830326 1.14961 1.15699 0.823496C1.4831 0.496829 1.87533 0.333496 2.33366 0.333496H15.667C16.1253 0.333496 16.5178 0.496829 16.8445 0.823496C17.1706 1.14961 17.3337 1.54183 17.3337 2.00016V6.16683H12.8545L11.417 3.29183C11.3475 3.13905 11.2434 3.03127 11.1045 2.9685C10.9656 2.90627 10.8198 2.87516 10.667 2.87516C10.5142 2.87516 10.3684 2.90627 10.2295 2.9685C10.0906 3.03127 9.98644 3.13905 9.91699 3.29183L7.33366 8.4585ZM2.33366 13.6668C1.87533 13.6668 1.4831 13.5038 1.15699 13.1777C0.830326 12.851 0.666992 12.4585 0.666992 12.0002V7.8335H5.14616L6.58366 10.7085C6.6531 10.8613 6.75727 10.976 6.89616 11.0527C7.03505 11.1288 7.18088 11.1668 7.33366 11.1668C7.48644 11.1668 7.63227 11.1288 7.77116 11.0527C7.91005 10.976 8.01421 10.8613 8.08366 10.7085L10.667 5.54183L11.5837 7.37516C11.6531 7.52794 11.7573 7.64266 11.8962 7.71933C12.035 7.79544 12.1809 7.8335 12.3337 7.8335H17.3337V12.0002C17.3337 12.4585 17.1706 12.851 16.8445 13.1777C16.5178 13.5038 16.1253 13.6668 15.667 13.6668H2.33366Z" fill="#00407A"/>
</svg>
