<svg width="37" height="38" viewBox="0 0 37 38" fill="none" xmlns="http://www.w3.org/2000/svg">
<path fill-rule="evenodd" clip-rule="evenodd" d="M20.8671 2.79824C20.4745 3.09847 20.1581 3.3715 19.8716 3.65728L13.5687 9.96144C13.0187 10.5114 13.0187 11.4031 13.5689 11.9529C14.1191 12.5031 15.0108 12.5029 15.5604 11.9527L21.8621 5.65008C22.0542 5.46042 22.2956 5.25108 22.5792 5.03437C25.3972 2.87353 29.416 3.1383 31.928 5.65046C34.6792 8.4268 34.6967 12.9496 31.9299 15.7175L25.6286 22.0196C25.0786 22.5696 25.0786 23.4613 25.6287 24.0111C25.9038 24.286 26.2642 24.4234 26.6245 24.4234C26.9848 24.4234 27.3453 24.286 27.6204 24.0109L33.9219 17.7088C37.7941 13.8349 37.7941 7.53264 33.9215 3.66009C30.4123 0.177177 24.7902 -0.210211 20.8671 2.79824Z" fill="white"/>
<path fill-rule="evenodd" clip-rule="evenodd" d="M15.1585 32.4876C14.4623 33.1726 13.6085 33.737 12.6911 34.0908C10.0632 35.1081 7.07903 34.4795 5.08999 32.4902C2.317 29.7143 2.317 25.1973 5.08999 22.4222L11.3909 16.1237C11.655 15.8595 11.8035 15.5013 11.8035 15.1276C11.8035 14.3497 11.1731 13.718 10.3952 13.718C9.99434 13.718 9.63249 13.8861 9.37601 14.1551L3.09793 20.4307C-0.771983 24.304 -0.772362 30.6069 3.09756 34.4812C4.9931 36.377 7.53416 37.3876 10.1222 37.3876C11.3266 37.3875 12.5414 37.1685 13.7056 36.718C15.0053 36.2173 16.1631 35.4656 17.1466 34.4843L23.4482 28.1811C23.9981 27.631 23.9981 26.7394 23.448 26.1895C22.8984 25.6397 22.0067 25.6397 21.4565 26.1894L15.1585 32.4876Z" fill="white"/>
<path fill-rule="evenodd" clip-rule="evenodd" d="M12.297 26.6903C12.6574 26.6903 13.0179 26.5529 13.2928 26.278L25.7163 13.855C26.2665 13.305 26.2665 12.4133 25.7165 11.8635C25.1665 11.3133 24.2748 11.3135 23.725 11.8633L11.3015 24.2863C10.7511 24.8361 10.7511 25.7278 11.3011 26.2778C11.5762 26.5529 11.9365 26.6903 12.297 26.6903Z" fill="white"/>
</svg>
