<svg width="30" height="30" viewBox="0 0 30 30" fill="none" xmlns="http://www.w3.org/2000/svg">
<path d="M13.2192 2.87913C15.0627 1.03565 17.563 0 20.17 0C25.599 0 30 4.40102 30 9.82995C30 12.437 28.9644 14.9373 27.1209 16.7808L23.2766 20.625L20.625 17.9734L24.4692 14.1291C25.6094 12.9889 26.25 11.4425 26.25 9.82995C26.25 6.47209 23.5279 3.75 20.17 3.75C18.5575 3.75 17.0111 4.39056 15.8709 5.53078L12.0267 9.375L9.375 6.72335L13.2192 2.87913Z" fill="#FAC032"/>
<path d="M14.1291 24.4692L17.9734 20.625L20.625 23.2766L16.7808 27.1209C14.9373 28.9643 12.437 30 9.82995 30C4.40102 30 0 25.599 0 20.17C0 17.563 1.03565 15.0627 2.87912 13.2192L6.72335 9.375L9.375 12.0267L5.53077 15.8709C4.39056 17.0111 3.75 18.5575 3.75 20.17C3.75 23.5279 6.47209 26.25 9.82995 26.25C11.4425 26.25 12.9889 25.6094 14.1291 24.4692Z" fill="#FAC032"/>
<path d="M10.7008 21.9508L21.9508 10.7008L19.2992 8.04918L8.04918 19.2992L10.7008 21.9508Z" fill="#FAC032"/>
</svg>
