<svg width="70" height="98" viewBox="0 0 70 98" fill="none" xmlns="http://www.w3.org/2000/svg">
<path opacity="0.07" fill-rule="evenodd" clip-rule="evenodd" d="M54 0.00012207C62.8366 0.00012207 70 7.16353 70 16.0001V82.0002C70 90.8367 62.8366 98.0001 54 98.0001H16C7.16345 98.0001 0 90.8367 0 82.0002V16.0001C0 7.16353 7.16345 0.00012207 16 0.00012207H54Z" fill="url(#paint0_linear_75_6147)"/>
<path fill-rule="evenodd" clip-rule="evenodd" d="M33.7598 47.0894H36.3863V41.8364C36.3863 38.9025 38.7055 36.5833 41.6394 36.5833C44.5732 36.5833 46.8924 38.9025 46.8924 41.8364V47.0894H49.519V41.8364C49.519 37.4947 45.981 33.9568 41.6394 33.9568C37.2977 33.9568 33.7598 37.4947 33.7598 41.8364V47.0894Z" fill="url(#paint1_linear_75_6147)"/>
<path fill-rule="evenodd" clip-rule="evenodd" d="M35.2626 37.3838L36.5758 35.1092L29.7469 31.1694L28.4336 33.444L35.2626 37.3838Z" fill="url(#paint2_linear_75_6147)"/>
<path fill-rule="evenodd" clip-rule="evenodd" d="M45.7898 58.4424L52.6188 54.5026L51.3055 52.228L44.4766 56.1678L45.7898 58.4424Z" fill="url(#paint3_linear_75_6147)"/>
<path fill-rule="evenodd" clip-rule="evenodd" d="M29.6745 37.2807V34.6542H21.7949V37.2807H29.6745Z" fill="url(#paint4_linear_75_6147)"/>
<path fill-rule="evenodd" clip-rule="evenodd" d="M49.3855 58.4185V55.792H41.5059V58.4185H49.3855Z" fill="url(#paint5_linear_75_6147)"/>
<path fill-rule="evenodd" clip-rule="evenodd" d="M19.118 47.171L25.9469 43.2312L24.6337 40.9567L17.8047 44.8965L19.118 47.171Z" fill="url(#paint6_linear_75_6147)"/>
<path fill-rule="evenodd" clip-rule="evenodd" d="M44.6473 64.7768L45.9606 62.5022L39.1316 58.5624L37.8184 60.8369L44.6473 64.7768Z" fill="url(#paint7_linear_75_6147)"/>
<path fill-rule="evenodd" clip-rule="evenodd" d="M27.614 59.9488C31.9556 59.9488 35.4936 56.4109 35.4936 52.0692V46.8162H32.867V52.0692C32.867 55.0031 30.5478 57.3223 27.614 57.3223C24.6801 57.3223 22.3609 55.0031 22.3609 52.0692V46.8162H19.7344V52.0692C19.7344 56.4109 23.2723 59.9488 27.614 59.9488Z" fill="url(#paint8_linear_75_6147)"/>
<defs>
<linearGradient id="paint0_linear_75_6147" x1="35" y1="0.00012207" x2="35" y2="98.0001" gradientUnits="userSpaceOnUse">
<stop stop-color="#9A61F8"/>
<stop offset="1" stop-color="#5E2FBA"/>
</linearGradient>
<linearGradient id="paint1_linear_75_6147" x1="42.3047" y1="33.9568" x2="42.3047" y2="51.1764" gradientUnits="userSpaceOnUse">
<stop stop-color="#9A61F8"/>
<stop offset="1" stop-color="#5E2FBA"/>
</linearGradient>
<linearGradient id="paint2_linear_75_6147" x1="30.6016" y1="31.1694" x2="30.6016" y2="39.4416" gradientUnits="userSpaceOnUse">
<stop stop-color="#9A61F8"/>
<stop offset="1" stop-color="#5E2FBA"/>
</linearGradient>
<linearGradient id="paint3_linear_75_6147" x1="48.6299" y1="52.228" x2="48.6299" y2="57.0472" gradientUnits="userSpaceOnUse">
<stop stop-color="#9A61F8"/>
<stop offset="1" stop-color="#5E2FBA"/>
</linearGradient>
<linearGradient id="paint4_linear_75_6147" x1="25.4424" y1="34.6542" x2="25.4424" y2="42.2082" gradientUnits="userSpaceOnUse">
<stop stop-color="#9A61F8"/>
<stop offset="1" stop-color="#5E2FBA"/>
</linearGradient>
<linearGradient id="paint5_linear_75_6147" x1="45.1533" y1="55.792" x2="45.1533" y2="63.3461" gradientUnits="userSpaceOnUse">
<stop stop-color="#9A61F8"/>
<stop offset="1" stop-color="#5E2FBA"/>
</linearGradient>
<linearGradient id="paint6_linear_75_6147" x1="21.958" y1="40.9567" x2="21.958" y2="45.7758" gradientUnits="userSpaceOnUse">
<stop stop-color="#9A61F8"/>
<stop offset="1" stop-color="#5E2FBA"/>
</linearGradient>
<linearGradient id="paint7_linear_75_6147" x1="39.9854" y1="58.5624" x2="39.9854" y2="66.8345" gradientUnits="userSpaceOnUse">
<stop stop-color="#9A61F8"/>
<stop offset="1" stop-color="#5E2FBA"/>
</linearGradient>
<linearGradient id="paint8_linear_75_6147" x1="28.2793" y1="46.8162" x2="28.2793" y2="64.0358" gradientUnits="userSpaceOnUse">
<stop stop-color="#9A61F8"/>
<stop offset="1" stop-color="#5E2FBA"/>
</linearGradient>
</defs>
</svg>
