<svg width="12" height="16" viewBox="0 0 12 16" fill="none" xmlns="http://www.w3.org/2000/svg">
<path opacity="1" d="M3.03506 11.332C2.7635 11.0604 2.90506 11.137 2.25006 10.9616C1.95287 10.882 1.69162 10.7288 1.45537 10.5454L0.0375617 14.0216C-0.0996258 14.3582 0.156624 14.7238 0.519749 14.7101L2.16631 14.6473L3.29881 15.8435C3.54881 16.1073 3.98756 16.0251 4.12475 15.6885L5.75131 11.7004C5.41256 11.8891 5.03662 11.9998 4.64787 11.9998C4.0385 11.9998 3.466 11.7626 3.03506 11.332ZM11.9626 14.0216L10.5447 10.5454C10.3085 10.7291 10.0472 10.882 9.75006 10.9616C9.09162 11.1379 9.236 11.061 8.96506 11.332C8.53412 11.7626 7.96131 11.9998 7.35194 11.9998C6.96319 11.9998 6.58725 11.8888 6.2485 11.7004L7.87506 15.6885C8.01225 16.0251 8.45131 16.1073 8.701 15.8435L9.83381 14.6473L11.4804 14.7101C11.8435 14.7238 12.0997 14.3579 11.9626 14.0216ZM8.21881 10.6248C8.69631 10.1388 8.751 10.1807 9.431 9.99539C9.86506 9.87695 10.2044 9.53164 10.3207 9.08976C10.5544 8.20226 10.4938 8.30945 11.1316 7.66008C11.4494 7.33664 11.5735 6.86508 11.4572 6.4232C11.2238 5.53633 11.2235 5.66008 11.4572 4.77226C11.5735 4.33039 11.4494 3.85883 11.1316 3.53539C10.4938 2.88601 10.5544 2.99289 10.3207 2.1057C10.2044 1.66383 9.86506 1.31851 9.431 1.20008C8.55975 0.962264 8.66475 1.02445 8.02631 0.374764C7.7085 0.0513262 7.24506 -0.0752363 6.811 0.0432012C5.94006 0.280701 6.06162 0.281014 5.18912 0.0432012C4.75506 -0.0752363 4.29162 0.0510137 3.97381 0.374764C3.336 1.02414 3.441 0.962264 2.56944 1.20008C2.13537 1.31851 1.796 1.66383 1.67975 2.1057C1.44631 2.99289 1.50662 2.88601 0.868812 3.53539C0.550999 3.85883 0.426624 4.33039 0.543187 4.77226C0.776624 5.65851 0.776937 5.53476 0.543187 6.42289C0.426937 6.86476 0.550999 7.33633 0.868812 7.66008C1.50662 8.30945 1.446 8.20226 1.67975 9.08976C1.796 9.53164 2.13537 9.87695 2.56944 9.99539C3.26881 10.186 3.321 10.156 3.78131 10.6248C4.19475 11.0457 4.83881 11.121 5.33569 10.8066C5.53438 10.6805 5.76487 10.6135 6.00022 10.6135C6.23557 10.6135 6.46606 10.6805 6.66475 10.8066C7.16131 11.121 7.80537 11.0457 8.21881 10.6248ZM3.05194 5.49851C3.05194 3.84133 4.37194 2.49789 6.00006 2.49789C7.62819 2.49789 8.94819 3.84133 8.94819 5.49851C8.94819 7.1557 7.62819 8.49914 6.00006 8.49914C4.37194 8.49914 3.05194 7.1557 3.05194 5.49851Z" fill="#CACCCF"/>
</svg>
