<svg width="30" height="30" viewBox="0 0 30 30" fill="none" xmlns="http://www.w3.org/2000/svg">
<path d="M0.115967 16.875C0.435798 19.4398 1.40317 21.8036 2.84933 23.7975C2.92734 23.7538 3.00638 23.7101 3.08644 23.6665C5.87152 22.1473 9.92899 20.625 14.9999 20.625C20.0708 20.625 24.1283 22.1473 26.9134 23.6665C26.9935 23.7101 27.0725 23.7538 27.1505 23.7975C28.5967 21.8036 29.564 19.4398 29.8839 16.875L0.115967 16.875Z" fill="#16D090"/>
<path d="M14.9999 30C11.4039 30 8.10343 28.7346 5.5195 26.6248C7.8536 25.4522 11.0671 24.375 14.9999 24.375C18.9327 24.375 22.1462 25.4522 24.4803 26.6248C21.8964 28.7346 18.5959 30 14.9999 30Z" fill="#16D090"/>
<path d="M5.51948 3.37524C8.10341 1.26541 11.4039 0 14.9999 0C18.5959 0 21.8964 1.2654 24.4803 3.3752C22.1462 4.54776 18.9327 5.62499 14.9999 5.62499C11.0671 5.62499 7.85357 4.54779 5.51948 3.37524Z" fill="#16D090"/>
<path d="M2.84931 6.20255C2.9273 6.2462 3.00633 6.28988 3.08639 6.33354C5.87146 7.85267 9.92894 9.37499 14.9999 9.37499C20.0708 9.37499 24.1283 7.85267 26.9133 6.33354C26.9934 6.28986 27.0725 6.24617 27.1505 6.2025C28.5967 8.19639 29.564 10.5601 29.8839 13.125L0.115967 13.125C0.435797 10.5602 1.40316 8.19643 2.84931 6.20255Z" fill="#16D090"/>
</svg>
