<svg width="70" height="98" viewBox="0 0 70 98" fill="none" xmlns="http://www.w3.org/2000/svg">
<path opacity="0.07" fill-rule="evenodd" clip-rule="evenodd" d="M54 0.00012207C62.8366 0.00012207 70 7.16353 70 16.0001V82.0002C70 90.8367 62.8366 98.0001 54 98.0001H16C7.16345 98.0001 0 90.8367 0 82.0002V16.0001C0 7.16353 7.16345 0.00012207 16 0.00012207H54Z" fill="url(#paint0_linear_75_6204)"/>
<path fill-rule="evenodd" clip-rule="evenodd" d="M36.5376 35.5513C36.2131 35.7994 35.9517 36.025 35.7149 36.2612L30.5068 41.4704C30.0524 41.9248 30.0524 42.6617 30.507 43.116C30.9616 43.5706 31.6984 43.5704 32.1526 43.1158L37.3597 37.9078C37.5185 37.7511 37.718 37.5781 37.9523 37.3991C40.2809 35.6136 43.6016 35.8323 45.6773 37.9082C47.9507 40.2023 47.9651 43.9395 45.6789 46.2267L40.472 51.4342C40.0176 51.8886 40.0176 52.6254 40.4722 53.0797C40.6995 53.3069 40.9972 53.4205 41.2949 53.4205C41.5927 53.4205 41.8906 53.3069 42.1179 53.0796L47.3249 47.8721C50.5245 44.6711 50.5245 39.4634 47.3246 36.2635C44.4249 33.3855 39.7792 33.0654 36.5376 35.5513Z" fill="url(#paint1_linear_75_6204)"/>
<path fill-rule="evenodd" clip-rule="evenodd" d="M31.8193 60.084C31.244 60.65 30.5385 61.1164 29.7805 61.4087C27.609 62.2493 25.1432 61.7299 23.4996 60.0861C21.2083 57.7923 21.2083 54.0599 23.4996 51.7669L28.7062 46.5623C28.9243 46.344 29.047 46.048 29.047 45.7392C29.047 45.0964 28.5262 44.5745 27.8834 44.5745C27.5521 44.5745 27.2531 44.7133 27.0412 44.9356L21.8535 50.1213C18.6558 53.3218 18.6555 58.5299 21.8532 61.7313C23.4195 63.2979 25.5192 64.1329 27.6578 64.1329C28.6529 64.1328 29.6568 63.9518 30.6188 63.5796C31.6928 63.1658 32.6494 62.5447 33.4621 61.7339L38.6692 56.5255C39.1236 56.0709 39.1236 55.3342 38.669 54.8798C38.2149 54.4255 37.478 54.4255 37.0234 54.8797L31.8193 60.084Z" fill="url(#paint2_linear_75_6204)"/>
<path fill-rule="evenodd" clip-rule="evenodd" d="M29.4567 55.2936C29.7544 55.2936 30.0524 55.1801 30.2795 54.9529L40.5452 44.6877C40.9998 44.2332 40.9998 43.4964 40.5454 43.0421C40.0909 42.5875 39.3541 42.5876 38.8998 43.0419L28.6341 53.3072C28.1793 53.7615 28.1793 54.4983 28.6338 54.9528C28.8611 55.1801 29.1588 55.2936 29.4567 55.2936Z" fill="url(#paint3_linear_75_6204)"/>
<defs>
<linearGradient id="paint0_linear_75_6204" x1="35" y1="0.00012207" x2="35" y2="98.0001" gradientUnits="userSpaceOnUse">
<stop stop-color="#9A61F8"/>
<stop offset="1" stop-color="#5E2FBA"/>
</linearGradient>
<linearGradient id="paint1_linear_75_6204" x1="39.9453" y1="33.8674" x2="39.9453" y2="53.4205" gradientUnits="userSpaceOnUse">
<stop stop-color="#9A61F8"/>
<stop offset="1" stop-color="#5E2FBA"/>
</linearGradient>
<linearGradient id="paint2_linear_75_6204" x1="29.2325" y1="44.5745" x2="29.2325" y2="64.1329" gradientUnits="userSpaceOnUse">
<stop stop-color="#9A61F8"/>
<stop offset="1" stop-color="#5E2FBA"/>
</linearGradient>
<linearGradient id="paint3_linear_75_6204" x1="34.5896" y1="42.7012" x2="34.5896" y2="55.2936" gradientUnits="userSpaceOnUse">
<stop stop-color="#9A61F8"/>
<stop offset="1" stop-color="#5E2FBA"/>
</linearGradient>
</defs>
</svg>
