<svg width="70" height="98" viewBox="0 0 70 98" fill="none" xmlns="http://www.w3.org/2000/svg">
<path opacity="0.07" fill-rule="evenodd" clip-rule="evenodd" d="M54 0.00012207C62.8366 0.00012207 70 7.16353 70 16.0001V82.0002C70 90.8367 62.8366 98.0001 54 98.0001H16C7.16345 98.0001 0 90.8367 0 82.0002V16.0001C0 7.16353 7.16345 0.00012207 16 0.00012207H54Z" fill="url(#paint0_linear_75_6192)"/>
<path fill-rule="evenodd" clip-rule="evenodd" d="M37.2427 35.5513C36.9182 35.7994 36.6568 36.025 36.42 36.2612L31.2119 41.4704C30.7575 41.9248 30.7575 42.6617 31.2121 43.116C31.6667 43.5706 32.4035 43.5704 32.8576 43.1158L38.0648 37.9078C38.2236 37.7511 38.4231 37.5781 38.6574 37.3991C40.9859 35.6136 44.3067 35.8323 46.3824 37.9082C48.6558 40.2023 48.6702 43.9395 46.384 46.2267L41.1771 51.4342C40.7226 51.8886 40.7226 52.6254 41.1773 53.0797C41.4045 53.3069 41.7023 53.4205 42 53.4205C42.2978 53.4205 42.5957 53.3069 42.823 53.0796L48.03 47.8721C51.2296 44.6711 51.2296 39.4634 48.0297 36.2635C45.13 33.3855 40.4843 33.0654 37.2427 35.5513Z" fill="url(#paint1_linear_75_6192)"/>
<path fill-rule="evenodd" clip-rule="evenodd" d="M32.5244 60.084C31.9491 60.65 31.2436 61.1164 30.4855 61.4087C28.3141 62.2493 25.8482 61.7299 24.2047 60.0861C21.9133 57.7923 21.9133 54.0599 24.2047 51.7669L29.4112 46.5623C29.6294 46.344 29.7521 46.048 29.7521 45.7392C29.7521 45.0964 29.2312 44.5745 28.5884 44.5745C28.2572 44.5745 27.9582 44.7133 27.7463 44.9356L22.5586 50.1213C19.3609 53.3218 19.3606 58.5299 22.5583 61.7313C24.1246 63.2979 26.2243 64.1329 28.3629 64.1329C29.358 64.1328 30.3619 63.9518 31.3238 63.5796C32.3978 63.1658 33.3545 62.5447 34.1672 61.7339L39.3742 56.5255C39.8287 56.0709 39.8287 55.3342 39.3741 54.8798C38.9199 54.4255 38.1831 54.4255 37.7285 54.8797L32.5244 60.084Z" fill="url(#paint2_linear_75_6192)"/>
<path fill-rule="evenodd" clip-rule="evenodd" d="M30.1598 55.2936C30.4576 55.2936 30.7555 55.1801 30.9826 54.9529L41.2483 44.6877C41.7029 44.2332 41.7029 43.4964 41.2485 43.0421C40.794 42.5875 40.0572 42.5876 39.6029 43.0419L29.3372 53.3072C28.8824 53.7615 28.8824 54.4983 29.3369 54.9528C29.5642 55.1801 29.8619 55.2936 30.1598 55.2936Z" fill="url(#paint3_linear_75_6192)"/>
<defs>
<linearGradient id="paint0_linear_75_6192" x1="35" y1="0.00012207" x2="35" y2="98.0001" gradientUnits="userSpaceOnUse">
<stop stop-color="#9A61F8"/>
<stop offset="1" stop-color="#5E2FBA"/>
</linearGradient>
<linearGradient id="paint1_linear_75_6192" x1="40.6504" y1="33.8674" x2="40.6504" y2="53.4205" gradientUnits="userSpaceOnUse">
<stop stop-color="#9A61F8"/>
<stop offset="1" stop-color="#5E2FBA"/>
</linearGradient>
<linearGradient id="paint2_linear_75_6192" x1="29.9376" y1="44.5745" x2="29.9376" y2="64.1329" gradientUnits="userSpaceOnUse">
<stop stop-color="#9A61F8"/>
<stop offset="1" stop-color="#5E2FBA"/>
</linearGradient>
<linearGradient id="paint3_linear_75_6192" x1="35.2927" y1="42.7012" x2="35.2927" y2="55.2936" gradientUnits="userSpaceOnUse">
<stop stop-color="#9A61F8"/>
<stop offset="1" stop-color="#5E2FBA"/>
</linearGradient>
</defs>
</svg>
