<svg width="30" height="30" viewBox="0 0 30 30" fill="none" xmlns="http://www.w3.org/2000/svg">
<path fill-rule="evenodd" clip-rule="evenodd" d="M18.75 22.4999C24.9632 22.4999 29.9999 17.4632 29.9999 11.25C29.9999 5.03678 24.9632 0 18.75 0C12.5368 0 7.5 5.03678 7.5 11.25C7.5 17.4632 12.5368 22.4999 18.75 22.4999ZM23.7638 6.51348L22.3275 8.18915L23.2959 9.00383L22.0889 10.4386L21.1072 9.61281L19.8357 11.0962C20.3304 11.7316 20.625 12.5303 20.625 13.3979C20.625 15.469 18.9461 17.1479 16.875 17.1479C14.8039 17.1479 13.125 15.469 13.125 13.3979C13.125 11.3268 14.8039 9.6479 16.875 9.6479C17.3985 9.6479 17.897 9.75518 18.3496 9.94895L23.6626 3.75049L23.858 3.91803L26.7059 6.26311L25.3942 7.85603L23.7638 6.51348ZM16.875 15.2729C17.9105 15.2729 18.75 14.4334 18.75 13.3979C18.75 12.3624 17.9105 11.5229 16.875 11.5229C15.8395 11.5229 15 12.3624 15 13.3979C15 14.4334 15.8395 15.2729 16.875 15.2729Z" fill="#63C69C"/>
<rect width="11.5892" height="5.40169" rx="2.70085" transform="matrix(0.705256 -0.708953 0.722065 0.691825 0.00012207 26.2627)" fill="#63C69C"/>
<rect width="7.92417" height="1.5316" transform="matrix(0.709375 -0.704831 0.718024 0.696018 6.08008 22.9414)" fill="#63C69C"/>
</svg>
