<svg width="18" height="18" viewBox="0 0 18 18" fill="none" xmlns="http://www.w3.org/2000/svg">
<path fill-rule="evenodd" clip-rule="evenodd" d="M2 1.5H16C16.2761 1.5 16.5 1.72386 16.5 2V16C16.5 16.2761 16.2761 16.5 16 16.5H2C1.72386 16.5 1.5 16.2761 1.5 16V2C1.5 1.72386 1.72386 1.5 2 1.5ZM0 2C0 0.89543 0.895431 0 2 0H16C17.1046 0 18 0.895431 18 2V16C18 17.1046 17.1046 18 16 18H2C0.89543 18 0 17.1046 0 16V2ZM9 4C9.41421 4 9.75 4.33579 9.75 4.75V13.25C9.75 13.6642 9.41421 14 9 14C8.58579 14 8.25 13.6642 8.25 13.25V4.75C8.25 4.33579 8.58579 4 9 4ZM4 7C3.58579 7 3.25 7.33579 3.25 7.75V13.25C3.25 13.6642 3.58579 14 4 14C4.41421 14 4.75 13.6642 4.75 13.25V7.75C4.75 7.33579 4.41421 7 4 7ZM6.5 10C6.08579 10 5.75 10.3358 5.75 10.75V13.25C5.75 13.6642 6.08579 14 6.5 14C6.91421 14 7.25 13.6642 7.25 13.25V10.75C7.25 10.3358 6.91421 10 6.5 10ZM14 10C13.5858 10 13.25 10.3358 13.25 10.75V13.25C13.25 13.6642 13.5858 14 14 14C14.4142 14 14.75 13.6642 14.75 13.25V10.75C14.75 10.3358 14.4142 10 14 10ZM11.5 8C11.9142 8 12.25 8.33579 12.25 8.75V13.25C12.25 13.6642 11.9142 14 11.5 14C11.0858 14 10.75 13.6642 10.75 13.25V8.75C10.75 8.33579 11.0858 8 11.5 8Z" fill="#336CFB"/>
</svg>
