<svg width="40" height="40" viewBox="0 0 40 40" fill="none" xmlns="http://www.w3.org/2000/svg">
<rect x="0.5" y="0.5" width="39" height="39" rx="3.5" fill="white" stroke="#D7DBDE"/>
<mask id="mask0_516_8333" style="mask-type:alpha" maskUnits="userSpaceOnUse" x="11" y="10" width="18" height="20">
<path d="M27.5441 30H12.4559C11.6518 30 11 29.3604 11 28.5714V11.4286C11 10.6396 11.6518 10 12.4559 10H22.25L29 16.6234V28.5714C29 29.3604 28.3482 30 27.5441 30Z" fill="url(#paint0_linear_516_8333)"/>
</mask>
<g mask="url(#mask0_516_8333)">
<path d="M27.5441 30H12.4559C11.6518 30 11 29.3604 11 28.5714V11.4286C11 10.6396 11.6518 10 12.4559 10H22.25L29 16.6234V28.5714C29 29.3604 28.3482 30 27.5441 30Z" fill="url(#paint1_linear_516_8333)"/>
<g opacity="0.1">
<line x1="15.8308" y1="13.026" x2="24.169" y2="13.026" stroke="white" stroke-width="12"/>
<line x1="15.8308" y1="14.9742" x2="24.169" y2="14.9742" stroke="white" stroke-width="12"/>
<line x1="15.8308" y1="16.922" x2="24.169" y2="16.922" stroke="white" stroke-width="12"/>
<line x1="15.8308" y1="18.8701" x2="24.169" y2="18.8701" stroke="white" stroke-width="12"/>
<line x1="15.8308" y1="20.818" x2="24.169" y2="20.818" stroke="white" stroke-width="12"/>
</g>
<path d="M15.1173 24.1166C15.0511 24.1166 14.9954 24.0943 14.95 24.0499C14.9047 24.0054 14.8821 23.9507 14.8821 23.8857V20.7462C14.8821 20.6812 14.9047 20.6265 14.95 20.5821C14.9954 20.5342 15.0511 20.5103 15.1173 20.5103H16.3093C16.6404 20.5103 16.9105 20.565 17.1196 20.6744C17.3288 20.7838 17.4786 20.9241 17.5692 21.0951C17.6599 21.2661 17.7052 21.4507 17.7052 21.6491C17.7052 21.8474 17.6599 22.0321 17.5692 22.2031C17.4786 22.3741 17.3288 22.5143 17.1196 22.6238C16.9105 22.7332 16.6404 22.7879 16.3093 22.7879H15.3578V23.8857C15.3578 23.9507 15.3334 24.0054 15.2846 24.0499C15.2393 24.0943 15.1836 24.1166 15.1173 24.1166ZM16.2623 22.3467C16.6178 22.3467 16.867 22.2801 17.0099 22.1467C17.1562 22.0133 17.2294 21.8474 17.2294 21.6491C17.2294 21.4507 17.1562 21.2849 17.0099 21.1515C16.867 21.0181 16.6178 20.9514 16.2623 20.9514H15.3578V22.3467H16.2623Z" fill="white"/>
<path d="M18.9958 24.0909C18.9296 24.0909 18.8738 24.0687 18.8285 24.0242C18.7832 23.9798 18.7606 23.925 18.7606 23.8601V20.7462C18.7606 20.6812 18.7832 20.6265 18.8285 20.5821C18.8738 20.5342 18.9296 20.5103 18.9958 20.5103H20.0466C20.444 20.5103 20.7803 20.5975 21.0556 20.7719C21.3344 20.9429 21.5436 21.1652 21.683 21.4388C21.8224 21.7124 21.8921 21.9996 21.8921 22.3006C21.8921 22.6015 21.8224 22.8888 21.683 23.1624C21.5436 23.436 21.3344 23.66 21.0556 23.8344C20.7803 24.0054 20.444 24.0909 20.0466 24.0909H18.9958ZM19.9891 23.6549C20.2749 23.6549 20.5259 23.5984 20.7419 23.4856C20.958 23.3693 21.1253 23.2103 21.2438 23.0085C21.3623 22.8033 21.4216 22.5673 21.4216 22.3006C21.4216 22.0338 21.3623 21.7996 21.2438 21.5978C21.1253 21.3926 20.958 21.2336 20.7419 21.1207C20.5259 21.0044 20.2749 20.9463 19.9891 20.9463H19.2363V23.6549H19.9891Z" fill="white"/>
<path d="M23.2878 24.1166C23.2216 24.1166 23.1658 24.0943 23.1205 24.0499C23.0752 24.0054 23.0526 23.9507 23.0526 23.8857V20.7462C23.0526 20.6812 23.0752 20.6265 23.1205 20.5821C23.1658 20.5342 23.2216 20.5103 23.2878 20.5103H25.3215C25.3842 20.5103 25.4365 20.5325 25.4783 20.5769C25.5237 20.618 25.5463 20.6693 25.5463 20.7308C25.5463 20.7924 25.5237 20.8437 25.4783 20.8847C25.4365 20.9258 25.3842 20.9463 25.3215 20.9463H23.5283V22.08H25.1385C25.2013 22.08 25.2535 22.1022 25.2954 22.1467C25.3407 22.1877 25.3633 22.239 25.3633 22.3006C25.3633 22.3621 25.3407 22.4134 25.2954 22.4545C25.2535 22.4955 25.2013 22.516 25.1385 22.516H23.5283V23.8857C23.5283 23.9507 23.5039 24.0054 23.4551 24.0499C23.4098 24.0943 23.3541 24.1166 23.2878 24.1166Z" fill="white"/>
<path fill-rule="evenodd" clip-rule="evenodd" d="M16.9192 22.052L16.9198 22.0515C17.0389 21.943 17.0971 21.8118 17.0971 21.6491C17.0971 21.4863 17.0389 21.3551 16.9198 21.2466L16.9192 21.2461L16.9187 21.2456C16.8138 21.1477 16.6085 21.0813 16.2623 21.0813H15.4902V22.2169H16.2623C16.6085 22.2169 16.8138 22.1505 16.9187 22.0526L16.9192 22.052ZM15.3579 22.3467V20.9514H16.2623C16.6178 20.9514 16.867 21.0181 17.0099 21.1515C17.1563 21.2849 17.2295 21.4507 17.2295 21.6491C17.2295 21.8474 17.1563 22.0133 17.0099 22.1467C16.867 22.28 16.6178 22.3467 16.2623 22.3467H15.3579ZM15.1174 24.2464C15.0174 24.2464 14.9275 24.2114 14.8565 24.1417C14.7854 24.072 14.7498 23.9838 14.7498 23.8857V20.7462C14.7498 20.6489 14.7849 20.5614 14.8548 20.4919C14.9247 20.4189 15.0149 20.3804 15.1174 20.3804H16.3093C16.654 20.3804 16.9476 20.4371 17.182 20.5598C17.4097 20.679 17.5814 20.8364 17.6867 21.0351C17.7874 21.2252 17.8376 21.4305 17.8376 21.6491C17.8376 21.8677 17.7874 22.073 17.6867 22.263C17.5814 22.4617 17.4097 22.6192 17.182 22.7383C16.9476 22.861 16.654 22.9178 16.3093 22.9178H15.4902V23.8857C15.4902 23.9862 15.4509 24.0747 15.3765 24.1434C15.3057 24.212 15.2166 24.2464 15.1174 24.2464ZM15.2847 24.0499C15.3335 24.0054 15.3579 23.9507 15.3579 23.8857V22.7879H16.3093C16.6404 22.7879 16.9106 22.7332 17.1197 22.6237C17.3288 22.5143 17.4787 22.3741 17.5693 22.2031C17.6599 22.0321 17.7052 21.8474 17.7052 21.6491C17.7052 21.4507 17.6599 21.266 17.5693 21.095C17.4787 20.9241 17.3288 20.7838 17.1197 20.6744C16.9106 20.565 16.6404 20.5102 16.3093 20.5102H15.1174C15.0511 20.5102 14.9954 20.5342 14.9501 20.5821C14.9048 20.6265 14.8821 20.6812 14.8821 20.7462V23.8857C14.8821 23.9507 14.9048 24.0054 14.9501 24.0499C14.9954 24.0943 15.0511 24.1165 15.1174 24.1165C15.1836 24.1165 15.2394 24.0943 15.2847 24.0499ZM21.1268 23.9439L21.1264 23.9441C20.8257 24.1309 20.4635 24.2208 20.0467 24.2208H18.9958C18.8958 24.2208 18.806 24.1857 18.735 24.116C18.6639 24.0463 18.6282 23.9582 18.6282 23.86V20.7462C18.6282 20.6489 18.6633 20.5614 18.7332 20.4919C18.8032 20.4189 18.8934 20.3804 18.9958 20.3804H20.0467C20.4636 20.3804 20.8259 20.472 21.1266 20.6622C21.4245 20.8451 21.6506 21.0848 21.8014 21.3807C21.9498 21.672 22.0245 21.9791 22.0245 22.3006C22.0245 22.622 21.9498 22.9291 21.8014 23.2205C21.6506 23.5164 21.4245 23.7577 21.1268 23.9439ZM21.0557 20.7719C20.7803 20.5974 20.444 20.5102 20.0467 20.5102H18.9958C18.9296 20.5102 18.8739 20.5342 18.8286 20.5821C18.7832 20.6265 18.7606 20.6812 18.7606 20.7462V23.86C18.7606 23.925 18.7832 23.9797 18.8286 24.0242C18.8739 24.0687 18.9296 24.0909 18.9958 24.0909H20.0467C20.444 24.0909 20.7803 24.0054 21.0557 23.8344C21.3345 23.66 21.5436 23.436 21.683 23.1624C21.8224 22.8888 21.8921 22.6015 21.8921 22.3006C21.8921 21.9996 21.8224 21.7123 21.683 21.4387C21.5436 21.1652 21.3345 20.9429 21.0557 20.7719ZM21.1289 21.6622L21.1287 21.6618C21.0228 21.4785 20.8741 21.3368 20.6798 21.2353L20.6791 21.235L20.6783 21.2346C20.4847 21.1304 20.2563 21.0762 19.9892 21.0762H19.3687V23.525H19.9892C20.2566 23.525 20.4853 23.4724 20.6791 23.3713C20.8742 23.2661 21.0232 23.124 21.129 22.944C21.2346 22.7609 21.2893 22.5477 21.2893 22.3006C21.2893 22.0532 21.2345 21.842 21.1292 21.6626L21.1289 21.6622ZM20.742 23.4856C20.5259 23.5984 20.2749 23.6549 19.9892 23.6549H19.2363V20.9463H19.9892C20.2749 20.9463 20.5259 21.0044 20.742 21.1207C20.9581 21.2336 21.1254 21.3926 21.2439 21.5978C21.3624 21.7995 21.4216 22.0338 21.4216 22.3006C21.4216 22.5673 21.3624 22.8033 21.2439 23.0085C21.1254 23.2103 20.9581 23.3693 20.742 23.4856ZM23.2879 24.2464C23.1879 24.2464 23.098 24.2114 23.027 24.1417C22.9559 24.072 22.9203 23.9838 22.9203 23.8857V20.7462C22.9203 20.6489 22.9554 20.5614 23.0252 20.4919C23.0952 20.4189 23.1854 20.3804 23.2879 20.3804H25.3215C25.4187 20.3804 25.5051 20.4159 25.572 20.485C25.6425 20.5507 25.6787 20.6355 25.6787 20.7308C25.6787 20.8271 25.6418 20.9125 25.5701 20.9784C25.5021 21.0441 25.4161 21.0762 25.3215 21.0762H23.6607V21.9501H25.1386C25.2357 21.9501 25.3221 21.9857 25.389 22.0548C25.4595 22.1204 25.4957 22.2052 25.4957 22.3006C25.4957 22.3968 25.4588 22.4823 25.3871 22.5481C25.3191 22.6139 25.2332 22.6459 25.1386 22.6459H23.6607V23.8857C23.6607 23.9862 23.6214 24.0747 23.547 24.1434C23.4762 24.212 23.3871 24.2464 23.2879 24.2464ZM23.4552 24.0499C23.504 24.0054 23.5283 23.9507 23.5283 23.8857V22.516H25.1386C25.2013 22.516 25.2536 22.4955 25.2954 22.4545C25.3407 22.4134 25.3634 22.3621 25.3634 22.3006C25.3634 22.239 25.3407 22.1877 25.2954 22.1467C25.2536 22.1022 25.2013 22.08 25.1386 22.08H23.5283V20.9463H25.3215C25.3843 20.9463 25.4365 20.9258 25.4784 20.8847C25.5237 20.8437 25.5463 20.7924 25.5463 20.7308C25.5463 20.6693 25.5237 20.618 25.4784 20.5769C25.4365 20.5325 25.3843 20.5102 25.3215 20.5102H23.2879C23.2216 20.5102 23.1659 20.5342 23.1206 20.5821C23.0753 20.6265 23.0526 20.6812 23.0526 20.7462V23.8857C23.0526 23.9507 23.0753 24.0054 23.1206 24.0499C23.1659 24.0943 23.2216 24.1165 23.2879 24.1165C23.3541 24.1165 23.4098 24.0943 23.4552 24.0499Z" fill="white"/>
<mask id="mask1_516_8333" style="mask-type:alpha" maskUnits="userSpaceOnUse" x="11" y="10" width="18" height="20">
<path d="M27.5441 30H12.4559C11.6518 30 11 29.3604 11 28.5714V11.4286C11 10.6396 11.6518 10 12.4559 10H22.25L29 16.6234V28.5714C29 29.3604 28.3482 30 27.5441 30Z" fill="url(#paint2_linear_516_8333)"/>
</mask>
<g mask="url(#mask1_516_8333)">
<ellipse opacity="0.08" cx="9.18009" cy="9.57786" rx="14.7904" ry="13.9286" fill="url(#paint3_linear_516_8333)"/>
<ellipse opacity="0.08" cx="9.18012" cy="9.57788" rx="9.29779" ry="8.73377" fill="url(#paint4_linear_516_8333)"/>
</g>
<g filter="url(#filter0_d_516_8333)">
<path d="M29 16.6234H28.8734C25.2154 16.6234 22.25 13.658 22.25 10L29 16.6234Z" fill="url(#paint5_linear_516_8333)"/>
</g>
</g>
<defs>
<filter id="filter0_d_516_8333" x="-0.75" y="-14" width="56.75" height="56.6234" filterUnits="userSpaceOnUse" color-interpolation-filters="sRGB">
<feFlood flood-opacity="0" result="BackgroundImageFix"/>
<feColorMatrix in="SourceAlpha" type="matrix" values="0 0 0 0 0 0 0 0 0 0 0 0 0 0 0 0 0 0 127 0" result="hardAlpha"/>
<feOffset dx="2" dy="1"/>
<feGaussianBlur stdDeviation="12.5"/>
<feColorMatrix type="matrix" values="0 0 0 0 0 0 0 0 0 0 0 0 0 0 0 0 0 0 0.33 0"/>
<feBlend mode="normal" in2="BackgroundImageFix" result="effect1_dropShadow_516_8333"/>
<feBlend mode="normal" in="SourceGraphic" in2="effect1_dropShadow_516_8333" result="shape"/>
</filter>
<linearGradient id="paint0_linear_516_8333" x1="20" y1="10" x2="20" y2="30" gradientUnits="userSpaceOnUse">
<stop stop-color="#FF7979"/>
<stop offset="1" stop-color="#E85555"/>
</linearGradient>
<linearGradient id="paint1_linear_516_8333" x1="20" y1="10" x2="20" y2="30" gradientUnits="userSpaceOnUse">
<stop stop-color="#FF7981"/>
<stop offset="1" stop-color="#E85567"/>
</linearGradient>
<linearGradient id="paint2_linear_516_8333" x1="20" y1="10" x2="20" y2="30" gradientUnits="userSpaceOnUse">
<stop stop-color="#FF7981"/>
<stop offset="1" stop-color="#E85567"/>
</linearGradient>
<linearGradient id="paint3_linear_516_8333" x1="10.254" y1="10.0565" x2="14.5927" y2="21.7917" gradientUnits="userSpaceOnUse">
<stop stop-color="white" stop-opacity="0"/>
<stop offset="1" stop-color="white"/>
</linearGradient>
<linearGradient id="paint4_linear_516_8333" x1="9.85521" y1="9.87801" x2="12.5705" y2="17.2409" gradientUnits="userSpaceOnUse">
<stop stop-color="white" stop-opacity="0"/>
<stop offset="1" stop-color="white"/>
</linearGradient>
<linearGradient id="paint5_linear_516_8333" x1="25.625" y1="10" x2="25.625" y2="16.6234" gradientUnits="userSpaceOnUse">
<stop stop-color="#D03954"/>
<stop offset="1" stop-color="#C02A3C"/>
</linearGradient>
</defs>
</svg>
