<svg width="16" height="16" viewBox="0 0 16 16" fill="none" xmlns="http://www.w3.org/2000/svg">
<path d="M4.22876 4.22876C4.03349 4.42403 4.03349 4.74061 4.22876 4.93587L7.29288 8L4.22876 11.0641C4.03349 11.2594 4.03349 11.576 4.22876 11.7712C4.42402 11.9665 4.7406 11.9665 4.93586 11.7712L7.99999 8.70711L11.0641 11.7712C11.2594 11.9665 11.576 11.9665 11.7712 11.7712C11.9665 11.576 11.9665 11.2594 11.7712 11.0641L8.7071 8L11.7712 4.93587C11.9665 4.74061 11.9665 4.42403 11.7712 4.22876C11.576 4.0335 11.2594 4.0335 11.0641 4.22876L7.99999 7.29289L4.93586 4.22876C4.7406 4.0335 4.42402 4.0335 4.22876 4.22876Z" fill="white"/>
</svg>
