<svg width="18" height="16" viewBox="0 0 18 16" fill="none" xmlns="http://www.w3.org/2000/svg">
<path fill-rule="evenodd" clip-rule="evenodd" d="M14.5 1.5H16.5V14.5H14.5V1.5ZM13 1.5C13 0.671573 13.6716 0 14.5 0H16.5C17.3284 0 18 0.671573 18 1.5V14.5C18 15.3284 17.3284 16 16.5 16H14.5C13.6716 16 13 15.3284 13 14.5V1.5ZM10 5.5H8V14.5H10V5.5ZM8 4C7.17157 4 6.5 4.67157 6.5 5.5V14.5C6.5 15.3284 7.17157 16 8 16H10C10.8284 16 11.5 15.3284 11.5 14.5V5.5C11.5 4.67157 10.8284 4 10 4H8ZM3.5 10.5H1.5V14.5H3.5V10.5ZM1.5 9C0.671573 9 0 9.67157 0 10.5V14.5C0 15.3284 0.671573 16 1.5 16H3.5C4.32843 16 5 15.3284 5 14.5V10.5C5 9.67157 4.32843 9 3.5 9H1.5Z" fill="#336CFB"/>
</svg>
