<svg width="20" height="20" viewBox="0 0 20 20" fill="none" xmlns="http://www.w3.org/2000/svg">
<path fill-rule="evenodd" clip-rule="evenodd" d="M17.5 5C18.8807 5 20 3.88071 20 2.5C20 1.11929 18.8807 0 17.5 0C16.1193 0 15 1.11929 15 2.5C15 3.24654 15.3272 3.91667 15.846 4.37475L13.7833 9.01588C13.6903 9.00539 13.5958 9 13.5 9C13.0828 9 12.6894 9.10221 12.3436 9.28296L9.71704 6.65642C9.89779 6.3106 10 5.91724 10 5.5C10 4.11929 8.88071 3 7.5 3C6.11929 3 5 4.11929 5 5.5C5 6.12034 5.22592 6.68792 5.6 7.12491L3.12831 11.0796C2.92755 11.0276 2.717 11 2.5 11C1.11929 11 0 12.1193 0 13.5C0 14.8807 1.11929 16 2.5 16C3.88071 16 5 14.8807 5 13.5C5 12.8797 4.77406 12.3121 4.39999 11.8751L6.87165 7.92038C7.07242 7.97235 7.28298 8 7.5 8C7.91722 8 8.31057 7.89781 8.65638 7.71708L11.2829 10.3436C11.1022 10.6894 11 11.0828 11 11.5C11 12.8807 12.1193 14 13.5 14C14.8807 14 16 12.8807 16 11.5C16 10.7535 15.6728 10.0834 15.154 9.62527L17.2167 4.98415L17.2125 4.98364C17.3068 4.99445 17.4028 5 17.5 5ZM17.5 3.5C18.0523 3.5 18.5 3.05228 18.5 2.5C18.5 1.94772 18.0523 1.5 17.5 1.5C16.9477 1.5 16.5 1.94772 16.5 2.5C16.5 3.05228 16.9477 3.5 17.5 3.5ZM8.5 5.5C8.5 6.05228 8.05228 6.5 7.5 6.5C6.94772 6.5 6.5 6.05228 6.5 5.5C6.5 4.94772 6.94772 4.5 7.5 4.5C8.05228 4.5 8.5 4.94772 8.5 5.5ZM14.5 11.5C14.5 12.0523 14.0523 12.5 13.5 12.5C12.9477 12.5 12.5 12.0523 12.5 11.5C12.5 10.9477 12.9477 10.5 13.5 10.5C14.0523 10.5 14.5 10.9477 14.5 11.5ZM3.5 13.5C3.5 14.0523 3.05228 14.5 2.5 14.5C1.94772 14.5 1.5 14.0523 1.5 13.5C1.5 12.9477 1.94772 12.5 2.5 12.5C3.05228 12.5 3.5 12.9477 3.5 13.5Z" fill="#336CFB"/>
<path d="M20 18.75C20 18.3358 19.6642 18 19.25 18H0.75C0.335786 18 0 18.3358 0 18.75C0 19.1642 0.335787 19.5 0.75 19.5L19.25 19.5C19.6642 19.5 20 19.1642 20 18.75Z" fill="#336CFB"/>
</svg>
