<svg width="60" height="60" viewBox="0 0 60 60" fill="none" xmlns="http://www.w3.org/2000/svg">
<circle cx="30" cy="30" r="30" fill="white" fill-opacity="0.2"/>
<path d="M28.25 21.25V16H31.75V21.25H28.25Z" fill="white"/>
<path d="M16 31.75H21.25V28.25H16V31.75Z" fill="white"/>
<path d="M44 28.25H38.75V31.75H44V28.25Z" fill="white"/>
<path d="M22.5754 25.0503L18.8631 21.3379L21.3379 18.8631L25.0503 22.5754L22.5754 25.0503Z" fill="white"/>
<path d="M38.6621 18.8631L34.9497 22.5754L37.4246 25.0502L41.1369 21.3379L38.6621 18.8631Z" fill="white"/>
<g clip-path="url(#clip0_1283_2858)">
<path d="M26.8773 41.7481C26.8777 41.9938 26.9504 42.2344 27.0867 42.4391L27.7543 43.4426C27.8683 43.6142 28.023 43.7549 28.2046 43.8522C28.3861 43.9495 28.5889 44.0004 28.7949 44.0004H31.2055C31.4115 44.0004 31.6143 43.9495 31.7958 43.8522C31.9774 43.7549 32.1321 43.6142 32.2461 43.4426L32.9137 42.4391C33.0499 42.2344 33.1228 41.994 33.123 41.7481L33.1246 40.25H26.8754L26.8773 41.7481ZM23.125 30.875C23.125 32.6082 23.7676 34.1895 24.8266 35.3977C25.4719 36.134 26.4812 37.6723 26.866 38.97C26.8676 38.9801 26.8687 38.9903 26.8703 39.0004H33.1297C33.1312 38.9903 33.1324 38.9805 33.134 38.97C33.5188 37.6723 34.5281 36.134 35.1734 35.3977C36.2324 34.1895 36.875 32.6082 36.875 30.875C36.875 27.0707 33.7855 23.9883 29.9785 24C25.9937 24.0121 23.125 27.241 23.125 30.875ZM30 27.75C28.277 27.75 26.875 29.152 26.875 30.875C26.875 31.2203 26.5953 31.5 26.25 31.5C25.9047 31.5 25.625 31.2203 25.625 30.875C25.625 28.4625 27.5875 26.5 30 26.5C30.3453 26.5 30.625 26.7797 30.625 27.125C30.625 27.4703 30.3453 27.75 30 27.75Z" fill="white"/>
</g>
<defs>
<clipPath id="clip0_1283_2858">
<rect width="20" height="20" fill="white" transform="translate(20 24)"/>
</clipPath>
</defs>
</svg>
