<svg width="24" height="24" viewBox="0 0 24 24" fill="none" xmlns="http://www.w3.org/2000/svg">
<g clip-path="url(#clip0_691_4794)">
<path d="M23.8969 11.8025C23.6852 11.4356 23.2155 11.31 22.8477 11.5217L22.2666 11.8574C22.2875 11.6401 22.3016 11.4213 22.3085 11.2014L23.7313 9.77829C24.0312 9.47834 24.0312 8.99206 23.7313 8.6921C23.431 8.39215 22.9451 8.39215 22.6451 8.6921L22.1702 9.16718C22.1335 8.95099 22.0901 8.73649 22.04 8.52396L23.0474 6.77932C23.2595 6.41243 23.1335 5.94274 22.7662 5.73058C22.3993 5.51885 21.9296 5.64363 21.7174 6.01178L21.3795 6.59711C21.2886 6.39822 21.1915 6.20228 21.0883 6.00963L21.6105 4.05869C21.7199 3.64853 21.4765 3.22792 21.0672 3.11814C20.6575 3.00957 20.2365 3.25168 20.1267 3.66142L19.9521 4.31359C19.8132 4.14484 19.6689 3.98022 19.5193 3.82023L19.5189 1.80404C19.5189 1.37973 19.1753 1.03571 18.751 1.03613C18.3271 1.03613 17.9831 1.37973 17.9831 1.80367L17.9832 2.47412C17.717 2.28399 17.4407 2.10554 17.1544 1.94012C16.7871 1.72796 16.3174 1.85401 16.1053 2.2209C15.8931 2.58779 16.0187 3.05748 16.386 3.27006C19.0945 4.83466 20.7772 7.74701 20.7789 10.8723C20.7789 10.8757 20.7789 10.8792 20.779 10.8826C20.7767 14.2891 18.778 17.4151 15.6847 18.8483C15.3003 19.0267 15.1327 19.4827 15.3112 19.8679C15.4414 20.1483 15.7188 20.313 16.0084 20.313C16.1165 20.313 16.2268 20.2898 16.3304 20.2415C17.3479 19.77 18.2645 19.1424 19.0571 18.3953H21.0719C21.4962 18.3953 21.8398 18.0517 21.8398 17.6274C21.8398 17.2031 21.4962 16.8595 21.0719 16.8595H20.3949C20.5213 16.6818 20.6421 16.5 20.7572 16.3147L22.7093 15.7925C23.1194 15.6827 23.3624 15.2613 23.2526 14.852C23.1427 14.4418 22.7213 14.1984 22.312 14.3087L21.6586 14.4836C21.7355 14.2786 21.8056 14.0708 21.8695 13.8607L23.6162 12.8518C23.9834 12.6399 24.1091 12.1703 23.8969 11.8025Z" fill="#336CFB"/>
<path d="M12.0101 19.6561C12.0066 19.6561 12.0032 19.6556 11.9997 19.6556C11.9939 19.6556 11.9882 19.6558 11.9824 19.6558C7.93681 19.6477 4.52538 16.8892 3.52117 13.1545C3.52019 13.1506 3.51911 13.1468 3.51808 13.143C3.32467 12.4197 3.22098 11.6602 3.22098 10.8768C3.22098 7.75064 4.90408 4.83576 7.61267 3.26995C7.97998 3.05779 8.1056 2.58815 7.89345 2.22079C7.68129 1.8539 7.21245 1.72822 6.84429 1.94001C6.55849 2.10519 6.28254 2.28341 6.01676 2.47321L6.0169 1.80355C6.01732 1.37924 5.6733 1.03564 5.24899 1.03564C4.82468 1.03564 4.48108 1.37924 4.48108 1.80355L4.48071 3.81923C4.33094 3.97935 4.18656 4.14403 4.04758 4.31292L3.8733 3.66182C3.76347 3.25166 3.34206 3.00829 2.93275 3.11854C2.52302 3.22837 2.27964 3.64893 2.38947 4.05909L2.9117 6.00839C2.80839 6.20123 2.71122 6.39741 2.62019 6.59653L2.28255 6.01177C2.07123 5.64445 1.60154 5.5184 1.23381 5.73056C0.866496 5.9423 0.740449 6.41198 0.952606 6.7793L1.95962 8.52333C1.90947 8.73605 1.86606 8.95074 1.8294 9.16712L1.35447 8.69204C1.05493 8.39208 0.569074 8.39208 0.268276 8.69204C-0.0316774 8.99157 -0.0316774 9.47785 0.268276 9.77823L1.69122 11.2015C1.69806 11.4217 1.71194 11.6402 1.73242 11.8568L1.15229 11.5217C0.78498 11.3095 0.315292 11.4351 0.103135 11.8024C-0.109021 12.1697 0.0166039 12.6394 0.383917 12.8516L2.12523 13.8574C2.18908 14.0685 2.25934 14.2767 2.33612 14.4818L1.68845 14.3084C1.27872 14.1994 0.857684 14.4419 0.747902 14.8517C0.638496 15.2614 0.881449 15.6824 1.29118 15.7922L3.2387 16.3137C3.35439 16.4995 3.47538 16.6816 3.60231 16.8592H2.92769C2.50337 16.8592 2.15978 17.2028 2.15978 17.6271C2.15978 18.0514 2.50337 18.395 2.92769 18.395H4.94646C5.9883 19.3731 7.23265 20.1375 8.60918 20.618C8.18281 20.9285 7.81662 21.3133 7.51282 21.7725C7.27863 22.1261 7.37552 22.6024 7.72957 22.8366C7.86021 22.9231 8.00703 22.9647 8.15262 22.9647C8.40139 22.9647 8.64598 22.8436 8.79326 22.6203C9.42973 21.6589 10.4785 21.1913 11.9998 21.1913C11.9998 21.1913 11.9998 21.1913 11.9999 21.1913C12 21.1913 12.0001 21.1913 12.0002 21.1913C13.5215 21.1913 14.5702 21.6589 15.2067 22.6203C15.3539 22.8437 15.5985 22.9647 15.8477 22.9647C15.9929 22.9647 16.1402 22.9231 16.2704 22.837C16.6244 22.6028 16.7213 22.1265 16.4872 21.7729C15.5593 20.3705 14.053 19.6584 12.0101 19.6561Z" fill="#336CFB"/>
<path d="M4.50342 10.877C4.50342 15.0108 7.86591 18.3733 12.0001 18.3733C16.1334 18.3733 19.4963 15.0108 19.4967 10.877C19.4967 6.74324 16.1338 3.38037 12.0001 3.38037C7.86633 3.38037 4.50342 6.74281 4.50342 10.877ZM12.0001 4.91576C15.2869 4.91576 17.9609 7.59022 17.9609 10.877C17.9609 14.1633 15.2869 16.8374 12.0001 16.8374C8.71332 16.8374 6.03891 14.1633 6.03891 10.877C6.03886 7.59022 8.71332 4.91576 12.0001 4.91576Z" fill="#336CFB"/>
<path d="M7.13012 10.9357C7.42881 11.2382 7.91509 11.2398 8.21589 10.9411L8.94888 10.2156V13.366C8.94888 13.7903 9.29247 14.1339 9.71678 14.1339C10.1411 14.1339 10.4847 13.7903 10.4847 13.366V8.37401C10.4847 8.06407 10.2987 7.78455 10.0125 7.66516C9.72508 7.54577 9.39644 7.61027 9.17636 7.82866L7.13547 9.84996C6.83397 10.1482 6.83144 10.6341 7.13012 10.9357Z" fill="#336CFB"/>
<path d="M13.9444 14.1343C15.2706 14.1343 16.8194 13.2794 16.8194 10.8704C16.8194 8.46131 15.2706 7.60645 13.9444 7.60645C12.6186 7.60645 11.0703 8.46131 11.0703 10.8704C11.0703 13.2794 12.6182 14.1343 13.9444 14.1343ZM13.9444 9.14235C14.8326 9.14235 15.2839 9.72393 15.2839 10.8704C15.2839 12.0169 14.833 12.5985 13.9444 12.5985C13.0563 12.5985 12.6058 12.0169 12.6058 10.8704C12.6058 9.72393 13.0563 9.14235 13.9444 9.14235Z" fill="#336CFB"/>
</g>
<defs>
<clipPath id="clip0_691_4794">
<rect width="24" height="24" fill="white"/>
</clipPath>
</defs>
</svg>
