<svg width="24" height="24" viewBox="0 0 24 24" fill="none" xmlns="http://www.w3.org/2000/svg">
<path d="M22.5882 17.6474H16.2352V14.118C16.2352 13.6945 15.9529 13.4121 15.5293 13.4121H8.47052C8.04699 13.4121 7.76463 13.6945 7.76463 14.118V16.7298H1.41169C0.988164 16.7298 0.705811 17.0121 0.705811 17.4356V22.5886C0.705811 23.0121 0.988164 23.2945 1.41169 23.2945H8.47052H15.5293H22.5882C23.0117 23.2945 23.294 23.0121 23.294 22.5886V18.3533C23.294 17.9298 23.0117 17.6474 22.5882 17.6474ZM2.11758 18.1415H7.76463V21.8827H2.11758V18.1415ZM9.1764 17.4356V14.8239H14.8235V18.3533V21.8827H9.1764V17.4356ZM21.8823 21.8827H16.2352V19.0592H21.8823V21.8827Z" fill="#336CFB"/>
<path d="M17.8589 4.94142C17.7883 4.65906 17.5765 4.51789 17.2942 4.4473L14.0471 3.95318L12.6353 1.05906C12.4236 0.564947 11.5765 0.564947 11.3647 1.05906L9.95298 3.95318L6.70592 4.4473C6.42357 4.51789 6.2118 4.72965 6.14122 4.94142C6.07063 5.22377 6.14122 5.50612 6.35298 5.6473L8.68239 7.90612L8.11769 11.1532C8.0471 11.4355 8.18828 11.7179 8.40004 11.8591C8.6118 12.0002 8.89416 12.0708 9.17651 11.9297L12.0706 10.4473L14.9647 11.9297C15.1765 12.0708 15.4589 12.0002 15.7412 11.8591C15.953 11.7179 16.0942 11.4355 16.0236 11.1532L15.4589 7.90612L17.7177 5.6473C17.8589 5.50612 17.9295 5.22377 17.8589 4.94142V4.94142ZM14.1177 7.20024C13.9765 7.34142 13.9059 7.62377 13.9059 7.83553L14.2589 10.0238L12.2824 8.96495C12.2118 8.89436 12.0706 8.89436 11.9295 8.89436C11.7883 8.89436 11.7177 8.89436 11.5765 8.96495L9.60004 9.95318L9.95298 7.76495C10.0236 7.55318 9.88239 7.27083 9.74122 7.12965L8.32945 5.6473L10.5177 5.36495C10.7295 5.36495 10.9412 5.15318 11.0824 5.01201L12 2.96495L12.9883 4.94142C13.0589 5.15318 13.2706 5.29436 13.553 5.29436L15.6706 5.6473L14.1177 7.20024Z" fill="#336CFB"/>
</svg>
