<svg width="16" height="16" viewBox="0 0 16 16" fill="none" xmlns="http://www.w3.org/2000/svg">
<path d="M9.01597 9.08805C9.01597 9.64805 8.56272 10.1067 8.00269 10.1067C7.43733 10.1067 6.98401 9.64805 6.98401 9.08805C6.98401 8.52806 7.43733 8.07471 8.00269 8.07471C8.56272 8.07471 9.01597 8.52806 9.01597 9.08805Z" fill="#336CFB"/>
<path d="M13.0267 3.728H4.04006C3.72221 3.728 3.50673 3.45892 3.50673 3.19998C3.50673 2.90131 3.7467 2.66664 4.04006 2.66664H13.0267C13.32 2.66664 13.56 2.42667 13.56 2.13331C13.56 1.83998 13.32 1.59998 13.0267 1.59998H4.04006C3.15999 1.59998 2.44006 2.31466 2.44006 3.19998V12.8C2.44006 13.6377 3.08543 14.4 4.08264 14.4H12.2267C12.9574 14.4 13.56 13.7973 13.56 13.0666V4.27198C13.56 4.26664 13.56 4.26664 13.56 4.26134C13.56 3.96798 13.32 3.728 13.0267 3.728ZM11.16 9.38667C11.16 9.47198 11.0961 9.552 11.0054 9.56264L10.536 9.63198C10.4667 9.64266 10.4134 9.69598 10.3974 9.76001C10.3493 9.93598 10.2854 10.1013 10.2107 10.256C10.1787 10.3147 10.1787 10.384 10.216 10.4373L10.5093 10.8373C10.5627 10.9067 10.5574 11.0026 10.4933 11.0666L10.0187 11.5413C9.95999 11.6 9.86402 11.6053 9.79469 11.552L9.43199 11.2853C9.3734 11.2427 9.29866 11.2373 9.23473 11.2747C9.08004 11.3707 8.90934 11.4453 8.73336 11.4986C8.66936 11.52 8.62132 11.5733 8.6107 11.6373L8.54137 12.1013C8.52535 12.1867 8.45602 12.2507 8.37066 12.2507H7.69866C7.61337 12.2507 7.5387 12.1867 7.52802 12.1013L7.46402 11.6853C7.45335 11.616 7.40536 11.5573 7.33603 11.5467C7.14404 11.4933 6.96272 11.424 6.79202 11.3333C6.72802 11.3013 6.65868 11.3067 6.60536 11.3493L6.25335 11.6053C6.18401 11.6533 6.08798 11.648 6.02939 11.584L5.55465 11.1147C5.49605 11.0507 5.48538 10.9547 5.5387 10.8853L5.7734 10.5653C5.82131 10.5067 5.82131 10.432 5.78401 10.368C5.68264 10.1973 5.60269 10.016 5.54404 9.81866C5.52268 9.76001 5.4747 9.70665 5.40536 9.69598L4.98935 9.63198C4.904 9.62133 4.84534 9.552 4.84534 9.46134V8.78933C4.84534 8.70398 4.904 8.63465 4.98935 8.61866L5.38935 8.56001C5.45868 8.54933 5.512 8.49598 5.52802 8.42667C5.58134 8.23465 5.65601 8.05333 5.75738 7.888C5.78935 7.824 5.78935 7.75467 5.74671 7.69597L5.49072 7.34933C5.43733 7.27999 5.44801 7.184 5.50673 7.12L5.98134 6.64532C6.04006 6.58666 6.13603 6.58133 6.20536 6.62931L6.55204 6.88533C6.60536 6.92801 6.68004 6.93331 6.74404 6.89597C6.904 6.80532 7.08004 6.72534 7.26135 6.67732C7.33069 6.656 7.37867 6.60799 7.38935 6.53865L7.45868 6.08533C7.46936 5.99998 7.54404 5.93598 7.62939 5.93598H8.29605C8.38668 5.93598 8.45602 5.99998 8.47203 6.08533L8.54137 6.53865C8.55204 6.60799 8.60003 6.656 8.66402 6.67732C8.84007 6.72534 9.0107 6.79467 9.15999 6.87999C9.22405 6.91199 9.29332 6.91199 9.34671 6.87465L9.74671 6.58133C9.81598 6.52801 9.91201 6.53865 9.97066 6.59731L10.4453 7.07198C10.504 7.13064 10.5147 7.22667 10.4614 7.29597L10.1787 7.68533C10.136 7.73865 10.1307 7.81332 10.1681 7.87198C10.248 8.02133 10.3227 8.18667 10.3707 8.352C10.392 8.41599 10.4401 8.46398 10.5093 8.47465L11.0054 8.54933C11.0961 8.56001 11.16 8.63465 11.16 8.72V9.38667Z" fill="#336CFB"/>
<path d="M9.01597 9.08805C9.01597 9.64805 8.56272 10.1067 8.00269 10.1067C7.43733 10.1067 6.98401 9.64805 6.98401 9.08805C6.98401 8.52806 7.43733 8.07471 8.00269 8.07471C8.56272 8.07471 9.01597 8.52806 9.01597 9.08805Z" fill="#336CFB"/>
</svg>
