<svg width="16" height="20" viewBox="0 0 16 20" fill="none" xmlns="http://www.w3.org/2000/svg">
<path d="M16 13.7917V1.54175C16 1.05685 15.6179 0.666748 15.1429 0.666748H3.42857C1.53571 0.666748 0 2.23445 0 4.16675V15.8334C0 17.7657 1.53571 19.3334 3.42857 19.3334H15.1429C15.6179 19.3334 16 18.9433 16 18.4584V17.8751C16 17.6016 15.875 17.3537 15.6821 17.1933C15.5321 16.6319 15.5321 15.0313 15.6821 14.4699C15.875 14.3131 16 14.0652 16 13.7917ZM4.57143 5.55216C4.57143 5.43185 4.66786 5.33341 4.78571 5.33341H12.3571C12.475 5.33341 12.5714 5.43185 12.5714 5.55216V6.28133C12.5714 6.40164 12.475 6.50008 12.3571 6.50008H4.78571C4.66786 6.50008 4.57143 6.40164 4.57143 6.28133V5.55216ZM4.57143 7.88548C4.57143 7.76521 4.66786 7.66675 4.78571 7.66675H12.3571C12.475 7.66675 12.5714 7.76521 12.5714 7.88548V8.61468C12.5714 8.73495 12.475 8.83341 12.3571 8.83341H4.78571C4.66786 8.83341 4.57143 8.73495 4.57143 8.61468V7.88548ZM13.6214 17.0001H3.42857C2.79643 17.0001 2.28571 16.4787 2.28571 15.8334C2.28571 15.1917 2.8 14.6667 3.42857 14.6667H13.6214C13.5536 15.2902 13.5536 16.3766 13.6214 17.0001Z" fill="#0075E0"/>
</svg>
