<svg width="16" height="16" viewBox="0 0 16 16" fill="none" xmlns="http://www.w3.org/2000/svg">
<g opacity="1">
<path d="M7.99988 8.88014C8.48787 8.88014 8.8799 8.48414 8.8799 8.00013C8.8799 7.51612 8.48791 7.12012 7.99988 7.12012C7.51587 7.12012 7.11987 7.51612 7.11987 8.00013C7.11987 8.48414 7.51591 8.88014 7.99988 8.88014Z" fill="#336CFB"/>
<path d="M7.99998 0C3.58001 0 0 3.58001 0 7.99998C0 12.416 3.58001 16 7.99998 16C12.42 16 16 12.416 16 7.99998C16 3.58001 12.42 0 7.99998 0ZM9.75198 9.75198L3.19998 12.8L6.24798 6.24798L12.8 3.19999L9.75198 9.75198Z" fill="#336CFB"/>
</g>
</svg>
