<svg width="16" height="16" viewBox="0 0 16 16" fill="none" xmlns="http://www.w3.org/2000/svg">
<g clip-path="url(#clip0_1353_3865)">
<g opacity="1">
<path d="M8.01059 13.1662C9.02955 13.1662 10.0256 12.864 10.8729 12.2979C11.7201 11.7318 12.3804 10.9272 12.7704 9.98582C13.1603 9.04443 13.2623 8.00854 13.0635 7.00916C12.8648 6.00978 12.3741 5.09179 11.6536 4.37128C10.9331 3.65076 10.0151 3.16009 9.01569 2.9613C8.01631 2.76251 6.98042 2.86454 6.03903 3.25448C5.09763 3.64441 4.29301 4.30475 3.7269 5.15199C3.1608 5.99922 2.85864 6.9953 2.85864 8.01426C2.8607 9.38001 3.40416 10.6892 4.36989 11.655C5.33562 12.6207 6.64484 13.1641 8.01059 13.1662ZM7.43815 6.29694C7.43815 6.14512 7.49846 5.99952 7.60582 5.89216C7.71317 5.78481 7.85877 5.7245 8.01059 5.7245C8.16241 5.7245 8.30801 5.78481 8.41537 5.89216C8.52272 5.99952 8.58303 6.14512 8.58303 6.29694V7.77383L9.63059 8.82139C9.73766 8.92934 9.7976 9.0753 9.79729 9.22734C9.79698 9.37938 9.73644 9.5251 9.62894 9.6326C9.52143 9.74011 9.37571 9.80064 9.22368 9.80095C9.07164 9.80126 8.92567 9.74132 8.81773 9.63426L7.60416 8.42069C7.49914 8.31126 7.43977 8.16592 7.43815 8.01426V6.29694Z" fill="#336CFB"/>
<path d="M8.01054 1.24918e-05C7.85872 1.24918e-05 7.71312 0.0603228 7.60577 0.167676C7.49841 0.275029 7.4381 0.420631 7.4381 0.572451C7.4381 0.724271 7.49841 0.869873 7.60577 0.977226C7.71312 1.08458 7.85872 1.14489 8.01054 1.14489C9.61305 1.13827 11.1679 1.6898 12.408 2.70479C13.6481 3.71977 14.4961 5.13487 14.8064 6.70706C15.1167 8.27925 14.8699 9.91042 14.1084 11.3205C13.3469 12.7305 12.1183 13.8314 10.6334 14.4341C9.14856 15.0368 7.50018 15.1038 5.97136 14.6234C4.44253 14.143 3.12866 13.1453 2.25538 11.8017C1.38209 10.458 1.00389 8.85222 1.18572 7.26005C1.36755 5.66788 2.09806 4.1887 3.2518 3.07653L3.21299 3.37259C3.19326 3.52315 3.23414 3.67538 3.32664 3.7958C3.41915 3.91622 3.5557 3.99496 3.70626 4.0147C3.85682 4.03443 4.00906 3.99355 4.12948 3.90104C4.24989 3.80854 4.32863 3.67199 4.34837 3.52143L4.57116 1.81865C4.58479 1.66918 4.54153 1.52007 4.45003 1.40111C4.35852 1.28214 4.22551 1.20207 4.07755 1.17689L2.37477 0.954267C2.2992 0.942249 2.22199 0.945504 2.1477 0.963838C2.07341 0.982172 2.00356 1.01521 1.94226 1.06101C1.88096 1.10681 1.82946 1.16443 1.79081 1.23047C1.75216 1.29651 1.72715 1.36962 1.71724 1.4455C1.70734 1.52137 1.71274 1.59846 1.73314 1.67221C1.75354 1.74596 1.78852 1.81487 1.83601 1.87487C1.8835 1.93487 1.94253 1.98474 2.00962 2.02153C2.07672 2.05832 2.1505 2.08128 2.22662 2.08907L2.58308 2.13578C1.21651 3.40386 0.335723 5.1094 0.0928518 6.95779C-0.15002 8.80618 0.260278 10.6814 1.25288 12.2594C2.24547 13.8375 3.75804 15.0194 5.52931 15.6009C7.30057 16.1824 9.21932 16.127 10.9541 15.4444C12.6889 14.7617 14.1308 13.4946 15.0308 11.8619C15.9307 10.2293 16.2323 8.33354 15.8832 6.50222C15.5342 4.67091 14.5565 3.01899 13.1191 1.83181C11.6817 0.644621 9.87482 -0.00328061 8.01054 1.24918e-05Z" fill="#336CFB"/>
</g>
</g>
<defs>
<clipPath id="clip0_1353_3865">
<rect width="16" height="16" fill="white"/>
</clipPath>
</defs>
</svg>
