<svg width="16" height="16" viewBox="0 0 16 16" fill="none" xmlns="http://www.w3.org/2000/svg">
<g opacity="1">
<path fill-rule="evenodd" clip-rule="evenodd" d="M10 12C13.3137 12 16 9.31371 16 6C16 2.68629 13.3137 0 10 0C6.68629 0 4 2.68629 4 6C4 9.31371 6.68629 12 10 12ZM12.6742 3.4739L11.9081 4.36775L12.4243 4.80204L11.7806 5.56728L11.2573 5.12704L10.5792 5.91811C10.8429 6.25694 11 6.68288 11 7.14551C11 8.25008 10.1046 9.14551 9 9.14551C7.89543 9.14551 7 8.25008 7 7.14551C7 6.04094 7.89543 5.14551 9 5.14551C9.27929 5.14551 9.5452 5.20275 9.78666 5.30615L12.6203 2.00018L12.7307 2.09475L14.2431 3.34019L13.5436 4.18976L12.6742 3.4739ZM9 8.14551C9.55228 8.14551 10 7.69779 10 7.14551C10 6.59322 9.55228 6.14551 9 6.14551C8.44772 6.14551 8 6.59322 8 7.14551C8 7.69779 8.44772 8.14551 9 8.14551Z" fill="#336CFB"/>
<rect width="6.18091" height="2.88091" rx="1.44045" transform="matrix(0.705256 -0.708953 0.722065 0.691825 0 14.0068)" fill="#336CFB"/>
<rect width="4.22624" height="0.816854" transform="matrix(0.709375 -0.704831 0.718024 0.696018 3.24268 12.2354)" fill="#336CFB"/>
</g>
</svg>
