<svg width="15" height="16" viewBox="0 0 15 16" fill="none" xmlns="http://www.w3.org/2000/svg">
<path opacity="1" d="M15 10.8113V2.40023C15 1.66386 14.4403 1.06689 13.75 1.06689H1.25C0.559656 1.06689 0 1.66386 0 2.40023V10.8113C0 10.9586 0.111937 11.078 0.25 11.078H14.75C14.8881 11.078 15 10.9586 15 10.8113ZM2.4265 5.9669H5.83409C5.92478 5.9669 6.00834 6.0193 6.0525 6.1038L6.98297 7.8856C7.54403 6.81126 8.97931 4.0628 9.06231 3.90383C9.15756 3.7214 9.404 3.72169 9.49916 3.90383L10.5766 5.9669H12.5735C12.7115 5.9669 12.8235 6.0863 12.8235 6.23356C12.8235 6.38083 12.7115 6.50023 12.5735 6.50023H10.4296C10.3389 6.50023 10.2554 6.44783 10.2112 6.36333L9.28075 4.58156C8.71972 5.65593 7.28441 8.4044 7.20137 8.56336C7.10609 8.7458 6.85972 8.7454 6.76456 8.56336L5.68719 6.50023H2.4265C2.28844 6.50023 2.1765 6.38083 2.1765 6.23356C2.1765 6.0863 2.28844 5.9669 2.4265 5.9669ZM0 11.878V13.6002C0 14.3366 0.559656 14.9336 1.25 14.9336H13.75C14.4403 14.9336 15 14.3366 15 13.6002V11.878C15 11.7307 14.8881 11.6113 14.75 11.6113H0.25C0.111937 11.6113 0 11.7307 0 11.878H0ZM10.3437 13.5336H9.96875C9.83069 13.5336 9.71875 13.4142 9.71875 13.2669C9.71875 13.1196 9.83069 13.0002 9.96875 13.0002H10.3437C10.4818 13.0002 10.5937 13.1196 10.5937 13.2669C10.5937 13.4142 10.4818 13.5336 10.3437 13.5336ZM12.4375 13.8002C12.1618 13.8002 11.9375 13.561 11.9375 13.2669C11.9375 12.9728 12.1618 12.7336 12.4375 12.7336C12.7132 12.7336 12.9375 12.9728 12.9375 13.2669C12.9375 13.561 12.7132 13.8002 12.4375 13.8002Z" fill="#336CFB"/>
</svg>
