<svg width="20" height="16" viewBox="0 0 20 16" fill="none" xmlns="http://www.w3.org/2000/svg">
<g opacity="1">
<path d="M3.65368 1.11653C3.21653 2.46501 2.33335 5.18865 2.29779 5.29534C-0.569585 6.45118 -0.680723 7.20693 2.45338 8.14049C4.96067 8.88734 8.46227 8.6295 9.89966 8.40723C9.61071 8.17754 9.00611 7.2825 8.89942 5.53985C8.79273 3.7972 9.95153 2.44279 10.5443 1.98342L10.1664 1.11653C7.60577 -0.306043 4.75766 0.523792 3.65368 1.11653Z" fill="#336CFB"/>
<path d="M2.69727 10.9193V8.69653H3.27519C3.29741 9.0744 3.80865 9.67455 4.51994 9.67455C5.08897 9.67455 5.55723 9.18554 5.72023 8.94104H8.16528C8.23937 9.18554 8.55649 9.67455 9.23221 9.67455C9.90793 9.67455 10.314 9.31891 10.4325 9.14109L7.00944 14.4535C4.92893 14.4891 3.26778 12.1122 2.69727 10.9193Z" fill="#336CFB"/>
<path d="M8.19828 14.3643L11.7325 9.05188L12.8439 9.60757L9.99873 15.209C9.8135 15.4905 9.26077 15.9958 8.5317 15.7646C7.80263 15.5335 8.00564 14.7348 8.19828 14.3643Z" fill="#336CFB"/>
<path d="M14.7124 2.96201C13.2009 2.7664 11.7561 4.19935 11.2227 4.94027C11.9858 4.45868 13.7877 3.51326 14.8902 3.58439C15.9927 3.65552 17.3056 4.60687 17.8243 5.07365L17.9354 5.98498C17.5279 6.45918 16.3484 7.42979 14.8902 7.5187C13.4321 7.60761 12.0154 6.62218 11.4894 6.11835C11.356 6.5629 13.4454 8.34112 14.8902 8.22998C16.0461 8.14107 17.4168 7.21492 17.9577 6.76295V4.56241C17.5057 4.11044 16.2239 3.15761 14.7124 2.96201Z" fill="#336CFB"/>
<path fill-rule="evenodd" clip-rule="evenodd" d="M14.9791 7.20712C15.9244 7.20712 16.6906 6.44085 16.6906 5.49559C16.6906 4.55034 15.9244 3.78406 14.9791 3.78406C14.0339 3.78406 13.2676 4.55034 13.2676 5.49559C13.2676 6.44085 14.0339 7.20712 14.9791 7.20712ZM14.7569 6.27345C15.0638 6.27345 15.3126 6.02466 15.3126 5.71776C15.3126 5.41085 15.0638 5.16206 14.7569 5.16206C14.45 5.16206 14.2012 5.41085 14.2012 5.71776C14.2012 6.02466 14.45 6.27345 14.7569 6.27345Z" fill="#336CFB"/>
<path fill-rule="evenodd" clip-rule="evenodd" d="M14.4888 8.94067C16.3916 8.94067 17.9341 7.39816 17.9341 5.49538C17.9341 3.5926 16.3916 2.05008 14.4888 2.05008C12.586 2.05008 11.0435 3.5926 11.0435 5.49538C11.0435 7.39816 12.586 8.94067 14.4888 8.94067ZM14.4888 10.0076C16.9808 10.0076 19.001 7.98741 19.001 5.49538C19.001 3.00335 16.9808 0.983154 14.4888 0.983154C11.9968 0.983154 9.97656 3.00335 9.97656 5.49538C9.97656 7.98741 11.9968 10.0076 14.4888 10.0076Z" fill="#336CFB"/>
</g>
</svg>
