<svg width="16" height="16" viewBox="0 0 16 16" fill="none" xmlns="http://www.w3.org/2000/svg">
<g clip-path="url(#clip0_1353_3840)">
<g opacity="1">
<path d="M12.1722 2.73194C12.1722 2.35656 12.0257 2.00319 11.7602 1.73769L10.4345 0.412C10.1727 0.150156 9.80102 0 9.43115 0H9.35059V2.8125H12.1722L12.1722 2.73194Z" fill="#336CFB"/>
</g>
<g opacity="1">
<path d="M8.56053 9.67303C8.65025 9.40066 8.80681 9.14706 9.01097 8.94153L12.1848 5.7805V3.75H8.89103C8.63194 3.75 8.4375 3.54034 8.4375 3.28125V0H1.40625C0.630813 0 0 0.630813 0 1.40625V14.5938C0 15.3692 0.630813 16 1.40625 16H10.766C11.5415 16 12.1848 15.3692 12.1848 14.5938V11.0953L11.6697 11.5979C11.4609 11.8048 11.2165 11.9554 10.9409 12.0474L9.45044 12.545L9.22338 12.5574C8.848 12.5574 8.49278 12.3748 8.27216 12.069C8.05334 11.7646 7.99384 11.37 8.11284 11.0134L8.56053 9.67303ZM2.34375 8.4375H7.01603C7.27513 8.4375 7.48478 8.64716 7.48478 8.90625C7.48478 9.16534 7.27513 9.375 7.01603 9.375H2.34375C2.08466 9.375 1.875 9.16534 1.875 8.90625C1.875 8.64716 2.08466 8.4375 2.34375 8.4375ZM1.875 7.03125C1.875 6.77216 2.08466 6.5625 2.34375 6.5625H7.01603C7.27513 6.5625 7.48478 6.77216 7.48478 7.03125C7.48478 7.29034 7.27513 7.5 7.01603 7.5H2.34375C2.08466 7.5 1.875 7.29034 1.875 7.03125ZM1.875 10.7812C1.875 10.5222 2.08466 10.3125 2.34375 10.3125H7.01603C7.27513 10.3125 7.48478 10.5222 7.48478 10.7812C7.48478 11.0403 7.27513 11.25 7.01603 11.25H2.34375C2.08466 11.25 1.875 11.0403 1.875 10.7812ZM8.89103 13.125C9.15013 13.125 9.35978 13.3347 9.35978 13.5938C9.35978 13.8528 9.15016 14.0625 8.89103 14.0625H6.07853C5.81944 14.0625 5.60978 13.8528 5.60978 13.5938C5.60978 13.3347 5.81944 13.125 6.07853 13.125H8.89103ZM2.34375 5.625C2.08466 5.625 1.875 5.41534 1.875 5.15625C1.875 4.89716 2.08466 4.6875 2.34375 4.6875H8.89103C9.15013 4.6875 9.35978 4.89716 9.35978 5.15625C9.35978 5.41534 9.15013 5.625 8.89103 5.625H2.34375Z" fill="#336CFB"/>
</g>
<g opacity="1">
<path d="M9.40976 10.0879L9.00195 11.3114C8.94082 11.4946 9.11523 11.669 9.29851 11.6078L10.5213 11.1994L9.40976 10.0879Z" fill="#336CFB"/>
</g>
<g opacity="1">
<path d="M13.0503 6.22852L9.96313 9.31567L11.2945 10.6471C11.9923 9.9492 13.3499 8.59136 14.3815 7.55977L13.0503 6.22852Z" fill="#336CFB"/>
</g>
<g opacity="1">
<path d="M15.7246 4.884C15.5598 4.71828 15.3172 4.62354 15.0599 4.62354C14.8026 4.62354 14.56 4.71828 14.3943 4.88447L13.7131 5.56563L15.0443 6.89682C15.4172 6.52388 15.675 6.26613 15.7255 6.2156C16.0917 5.84888 16.0917 5.25157 15.7246 4.884Z" fill="#336CFB"/>
</g>
<g opacity="1">
<path d="M15.7256 6.21611C15.7256 6.21611 15.7256 6.21607 15.7257 6.21603C15.7273 6.21443 15.728 6.21371 15.7293 6.2124C15.728 6.21375 15.7273 6.21447 15.7256 6.21611Z" fill="#336CFB"/>
<path d="M15.7283 6.21298C15.7299 6.21136 15.7318 6.20947 15.7328 6.2085C15.7317 6.20951 15.7299 6.21136 15.7283 6.21298Z" fill="#336CFB"/>
<path d="M15.7325 6.20938C15.7369 6.20499 15.737 6.2049 15.7325 6.20938V6.20938Z" fill="#336CFB"/>
</g>
</g>
<defs>
<clipPath id="clip0_1353_3840">
<rect width="16" height="16" fill="white"/>
</clipPath>
</defs>
</svg>
